<?xml version="1.0" encoding="UTF-8" standalone="no"?>
<svg
   viewBox="0 0 761.2525 762.10657"
   version="1.1"
   id="svg1570"
   sodipodi:docname="sun.svg"
   inkscape:version="1.1.1 (3bf5ae0d25, 2021-09-20)"
   xmlns:inkscape="http://www.inkscape.org/namespaces/inkscape"
   xmlns:sodipodi="http://sodipodi.sourceforge.net/DTD/sodipodi-0.dtd"
   xmlns="http://www.w3.org/2000/svg"
   xmlns:svg="http://www.w3.org/2000/svg">
  <defs
     id="defs1574" />
  <sodipodi:namedview
     id="namedview1572"
     pagecolor="#ffffff"
     bordercolor="#666666"
     borderopacity="1.0"
     inkscape:pageshadow="2"
     inkscape:pageopacity="0.0"
     inkscape:pagecheckerboard="0"
     showgrid="false"
     inkscape:zoom="1.8868752"
     inkscape:cx="285.65747"
     inkscape:cy="354.02447"
     inkscape:window-width="3840"
     inkscape:window-height="2080"
     inkscape:window-x="-11"
     inkscape:window-y="-11"
     inkscape:window-maximized="1"
     inkscape:current-layer="layer1" />
  <g
     inkscape:groupmode="layer"
     id="layer1"
     inkscape:label="B.Silkscreen">
    <path
       d="m 330.30739,601.86179 c 0,0 -12.3977,0.54479 -21.3255,5.99999 -4.76718,2.91294 -5.74297,4.91447 -8.14224,9.73455 -1.55845,3.13095 -1.06815,6.1496 -1.06815,6.1496 13.25105,-9.59565 19.26489,16.47892 10.5515,28.38977 -5.41804,6.88631 -18.28478,16.44581 -26.23859,21.50796 -9.11746,5.80251 -23.41706,9.82975 -32.78336,16.21849 -7.28486,4.96911 -14.10786,12.39912 -14.10786,12.39912 0,0 8.26224,-25.53643 9.36521,-28.89819 1.87195,-5.7035 3.36009,-10.72608 8.45626,-15.32604 2.86442,-2.5855 8.21392,-3.93134 9.65585,-4.1052 2.72623,-0.32841 4.70904,0.52157 5.62485,1.44268 0.91582,0.9211 1.34419,2.43503 1.15629,3.90398 -0.1879,1.46896 -1.38669,3.2107 -1.38669,3.2107 0,0 4.12211,-1.91448 5.09981,-3.58265 4.57719,-5.22712 2.57532,-8.69991 1.46986,-13.20608 0,0 -7.34955,3.60845 -10.01236,4.25444 -5.265,1.27714 -10.6647,-0.1811 -10.6647,-0.1811 0,0 3.56878,-1.12914 5.10777,-2.42892 1.56903,-1.32515 3.56379,-5.295 4.20124,-8.84097 0.61406,-3.41571 -0.37268,-5.70377 -0.7965,-10.38105 -0.52746,-5.82018 0.85352,-9.22068 1.41083,-11.47636 1.79488,-7.26475 5.85018,-15.63936 12.92467,-22.92373 4.92229,-5.06821 8.10668,-7.31181 7.91942,-7.14098 l 43.58265,15.28086 z"
       id="path1302"
       style="stroke:#ffffff;stroke-width:4.58221" />
    <path
       d="m 303.69603,593.36611 c 0,0 -16.33963,7.97061 -20.01551,18.89324 -3.67588,10.92263 0.94824,21.0851 1.50436,22.76857 0.55612,1.68347 6.77556,8.12634 7.61466,15.73761 0.39312,3.56418 -2.83571,18.42245 -2.83571,18.42245 l 15.20851,-11.49807 c 3.46359,-2.6186 13.65217,-13.32943 7.43688,-28.54996 -5.60523,-13.72787 -12.64466,-6.0106 -12.64466,-6.0106 0,0 -1.43974,-8.72476 10.92672,-16.67866 8.82859,-5.67819 19.35803,-4.71001 19.35803,-4.71001 l -26.55302,-8.37534 z"
       id="path1304"
       style="stroke:#ffffff;stroke-width:4.58221" />
    <path
       d="m 281.12792,641.52204 c -2.58856,3.24454 -4.0583,3.87375 -6.39256,5.09756 -2.4989,1.3104 -5.48858,2.68946 -9.59842,3.64508 -3.82294,0.88863 -8.8858,-0.41821 -8.8858,-0.41821 0,0 3.91316,-0.78766 5.7722,-3.81002 2.0521,-3.33622 2.94599,-5.1127 3.4601,-8.89122 0.53752,-3.95095 -2.69206,-11.51825 0.31182,-20.52062 2.57727,-7.72454 8.28228,-18.63341 11.82415,-21.9311 3.54187,-3.29769 7.7681,-7.81838 7.7681,-7.81838 l 17.5759,5.92916 c 0,0 -6.11754,3.68287 -10.72741,7.93068 -4.60986,4.24781 -8.10182,9.62035 -9.06329,12.47712 -0.96148,2.85678 -1.20238,8.57532 -0.931,11.66002 0.27138,3.08471 1.43637,7.40539 1.88236,8.30368 0.13716,3.20023 -1.48783,6.0647 -2.99588,8.34574 z"
       id="path1306"
       style="stroke:#ffffff;stroke-width:4.58221" />
    <path
       d="m 177.51821,317.55739 c 0,0 -0.54479,-12.3977 -5.99999,-21.3255 -2.91294,-4.76718 -4.91447,-5.74297 -9.73455,-8.14224 -3.13095,-1.55845 -6.1496,-1.06815 -6.1496,-1.06815 9.59565,13.25105 -16.47892,19.26489 -28.38977,10.5515 -6.88631,-5.41804 -16.44581,-18.28478 -21.50796,-26.23859 -5.802514,-9.11746 -9.829754,-23.41706 -16.218491,-32.78336 -4.969111,-7.28486 -12.399123,-14.10786 -12.399123,-14.10786 0,0 25.536434,8.26224 28.898194,9.36521 5.7035,1.87195 10.72608,3.36009 15.32604,8.45626 2.5855,2.86442 3.93134,8.21392 4.1052,9.65585 0.32841,2.72623 -0.52157,4.70904 -1.44268,5.62485 -0.9211,0.91582 -2.43503,1.34419 -3.90398,1.15629 -1.46896,-0.1879 -3.2107,-1.38669 -3.2107,-1.38669 0,0 1.91448,4.12211 3.58265,5.09981 5.22712,4.57719 8.69991,2.57532 13.20608,1.46986 0,0 -3.60845,-7.34955 -4.25444,-10.01236 -1.27714,-5.265 0.1811,-10.6647 0.1811,-10.6647 0,0 1.12914,3.56878 2.42892,5.10777 1.32515,1.56903 5.295,3.56379 8.84097,4.20124 3.41571,0.61406 5.70377,-0.37268 10.38105,-0.7965 5.82018,-0.52746 9.22068,0.85352 11.47636,1.41083 7.26475,1.79488 15.63936,5.85018 22.92373,12.92467 5.06821,4.92229 7.31181,8.10668 7.14098,7.91942 l -15.28086,43.58265 z"
       id="path1310"
       style="stroke:#ffffff;stroke-width:4.58221" />
    <path
       d="m 186.01389,290.94603 c 0,0 -7.97061,-16.33963 -18.89324,-20.01551 -10.92263,-3.67588 -21.0851,0.94824 -22.76857,1.50436 -1.68347,0.55612 -8.12634,6.77556 -15.73761,7.61466 -3.56418,0.39312 -18.42245,-2.83571 -18.42245,-2.83571 l 11.49807,15.20851 c 2.6186,3.46359 13.32943,13.65217 28.54996,7.43688 13.72787,-5.60523 6.0106,-12.64466 6.0106,-12.64466 0,0 8.72476,-1.43974 16.67866,10.92672 5.67819,8.82859 4.71001,19.35803 4.71001,19.35803 l 8.37534,-26.55302 z"
       id="path1312"
       style="stroke:#ffffff;stroke-width:4.58221" />
    <path
       d="m 137.85796,268.37792 c -3.24454,-2.58856 -3.87375,-4.0583 -5.09756,-6.39256 -1.3104,-2.4989 -2.68946,-5.48858 -3.64508,-9.59842 -0.88863,-3.82294 0.41821,-8.8858 0.41821,-8.8858 0,0 0.78766,3.91316 3.81002,5.7722 3.33622,2.0521 5.1127,2.94599 8.89122,3.4601 3.95095,0.53752 11.51825,-2.69206 20.52062,0.31182 7.72454,2.57727 18.63341,8.28228 21.9311,11.82415 3.29769,3.54187 7.81838,7.7681 7.81838,7.7681 l -5.92916,17.5759 c 0,0 -3.68287,-6.11754 -7.93068,-10.72741 -4.24781,-4.60986 -9.62035,-8.10182 -12.47712,-9.06329 -2.85678,-0.96148 -8.57532,-1.20238 -11.66002,-0.931 -3.08471,0.27138 -7.40539,1.43637 -8.30368,1.88236 -3.20023,0.13716 -6.0647,-1.48783 -8.34574,-2.99588 z"
       id="path1314"
       style="stroke:#ffffff;stroke-width:4.58221" />
    <path
       d="m 614.60179,449.07761 c 0,0 0.54479,12.3977 5.99999,21.3255 2.91294,4.76718 4.91447,5.74297 9.73455,8.14224 3.13095,1.55845 6.1496,1.06815 6.1496,1.06815 -9.59565,-13.25105 16.47892,-19.26489 28.38977,-10.5515 6.88631,5.41804 16.44581,18.28478 21.50796,26.23859 5.80251,9.11746 9.82975,23.41706 16.21849,32.78336 4.96911,7.28486 12.39912,14.10786 12.39912,14.10786 0,0 -25.53643,-8.26224 -28.89819,-9.36521 -5.7035,-1.87195 -10.72608,-3.36009 -15.32604,-8.45626 -2.5855,-2.86442 -3.93134,-8.21392 -4.1052,-9.65585 -0.32841,-2.72623 0.52157,-4.70904 1.44268,-5.62485 0.9211,-0.91582 2.43503,-1.34419 3.90398,-1.15629 1.46896,0.1879 3.2107,1.38669 3.2107,1.38669 0,0 -1.91448,-4.12211 -3.58265,-5.09981 -5.22712,-4.57719 -8.69991,-2.57532 -13.20608,-1.46986 0,0 3.60845,7.34955 4.25444,10.01236 1.27714,5.265 -0.1811,10.6647 -0.1811,10.6647 0,0 -1.12914,-3.56878 -2.42892,-5.10777 -1.32515,-1.56903 -5.295,-3.56379 -8.84097,-4.20124 -3.41571,-0.61406 -5.70377,0.37268 -10.38105,0.7965 -5.82018,0.52746 -9.22068,-0.85352 -11.47636,-1.41083 -7.26475,-1.79488 -15.63936,-5.85018 -22.92373,-12.92467 -5.06821,-4.92229 -7.31181,-8.10668 -7.14098,-7.91942 l 15.28086,-43.58265 z"
       id="path1318"
       style="stroke:#ffffff;stroke-width:4.58221" />
    <path
       d="m 606.10611,475.68897 c 0,0 7.97061,16.33963 18.89324,20.01551 10.92263,3.67588 21.0851,-0.94824 22.76857,-1.50436 1.68347,-0.55612 8.12634,-6.77556 15.73761,-7.61466 3.56418,-0.39312 18.42245,2.83571 18.42245,2.83571 l -11.49807,-15.20851 c -2.6186,-3.46359 -13.32943,-13.65217 -28.54996,-7.43688 -13.72787,5.60523 -6.0106,12.64466 -6.0106,12.64466 0,0 -8.72476,1.43974 -16.67866,-10.92672 -5.67819,-8.82859 -4.71001,-19.35803 -4.71001,-19.35803 l -8.37534,26.55302 z"
       id="path1320"
       style="stroke:#ffffff;stroke-width:4.58221" />
    <path
       d="m 654.26204,498.25708 c 3.24454,2.58856 3.87375,4.0583 5.09756,6.39256 1.3104,2.4989 2.68946,5.48858 3.64508,9.59842 0.88863,3.82294 -0.41821,8.8858 -0.41821,8.8858 0,0 -0.78766,-3.91316 -3.81002,-5.7722 -3.33622,-2.0521 -5.1127,-2.94599 -8.89122,-3.4601 -3.95095,-0.53752 -11.51825,2.69206 -20.52062,-0.31182 -7.72454,-2.57727 -18.63341,-8.28228 -21.9311,-11.82415 -3.29769,-3.54187 -7.81838,-7.7681 -7.81838,-7.7681 l 5.92916,-17.5759 c 0,0 3.68287,6.11754 7.93068,10.72741 4.24781,4.60986 9.62035,8.10182 12.47712,9.06329 2.85678,0.96148 8.57532,1.20238 11.66002,0.931 3.08471,-0.27138 7.40539,-1.43637 8.30368,-1.88236 3.20023,-0.13716 6.0647,1.48783 8.34574,2.99588 z"
       id="path1322"
       style="stroke:#ffffff;stroke-width:4.58221" />
    <path
       d="m 461.82261,164.77821 c 0,0 12.3977,-0.54479 21.3255,-5.99999 4.76718,-2.91294 5.74297,-4.91447 8.14224,-9.73455 1.55845,-3.13095 1.06815,-6.1496 1.06815,-6.1496 -13.25105,9.59565 -19.26489,-16.47892 -10.5515,-28.38977 5.41804,-6.88631 18.28478,-16.445809 26.23859,-21.507958 9.11746,-5.802516 23.41706,-9.829756 32.78336,-16.218493 7.28486,-4.969111 14.10786,-12.399123 14.10786,-12.399123 0,0 -8.26224,25.536436 -9.36521,28.898191 -1.87195,5.703505 -3.36009,10.726083 -8.45626,15.326043 -2.86442,2.5855 -8.21392,3.93134 -9.65585,4.1052 -2.72623,0.32841 -4.70904,-0.52157 -5.62485,-1.44268 -0.91582,-0.9211 -1.34419,-2.43503 -1.15629,-3.90398 0.1879,-1.46896 1.38669,-3.2107 1.38669,-3.2107 0,0 -4.12211,1.91448 -5.09981,3.58265 -4.57719,5.22712 -2.57532,8.69991 -1.46986,13.20608 0,0 7.34955,-3.60845 10.01236,-4.25444 5.265,-1.27714 10.6647,0.1811 10.6647,0.1811 0,0 -3.56878,1.12914 -5.10777,2.42892 -1.56903,1.32515 -3.56379,5.295 -4.20124,8.84097 -0.61406,3.41571 0.37268,5.70377 0.7965,10.38105 0.52746,5.82018 -0.85352,9.22068 -1.41083,11.47636 -1.79488,7.26475 -5.85018,15.63936 -12.92467,22.92373 -4.92229,5.06821 -8.10668,7.31181 -7.91942,7.14098 l -43.58265,-15.28086 z"
       id="path1326"
       style="stroke:#ffffff;stroke-width:4.58221" />
    <path
       d="m 488.43397,173.27389 c 0,0 16.33963,-7.97061 20.01551,-18.89324 3.67588,-10.92263 -0.94824,-21.0851 -1.50436,-22.76857 -0.55612,-1.68347 -6.77556,-8.12634 -7.61466,-15.73761 -0.39312,-3.56418 2.83571,-18.422449 2.83571,-18.422449 l -15.20851,11.498069 c -3.46359,2.6186 -13.65217,13.32943 -7.43688,28.54996 5.60523,13.72787 12.64466,6.0106 12.64466,6.0106 0,0 1.43974,8.72476 -10.92672,16.67866 -8.82859,5.67819 -19.35803,4.71001 -19.35803,4.71001 l 26.55302,8.37534 z"
       id="path1328"
       style="stroke:#ffffff;stroke-width:4.58221" />
    <path
       d="m 511.00208,125.11796 c 2.58856,-3.24454 4.0583,-3.87375 6.39256,-5.09756 2.4989,-1.3104 5.48858,-2.68946 9.59842,-3.64508 3.82294,-0.88863 8.8858,0.41821 8.8858,0.41821 0,0 -3.91316,0.78766 -5.7722,3.81002 -2.0521,3.33622 -2.94599,5.1127 -3.4601,8.89122 -0.53752,3.95095 2.69206,11.51825 -0.31182,20.52062 -2.57727,7.72454 -8.28228,18.63341 -11.82415,21.9311 -3.54187,3.29769 -7.7681,7.81838 -7.7681,7.81838 l -17.5759,-5.92916 c 0,0 6.11754,-3.68287 10.72741,-7.93068 4.60986,-4.24781 8.10182,-9.62035 9.06329,-12.47712 0.96148,-2.85678 1.20238,-8.57532 0.931,-11.66002 -0.27138,-3.08471 -1.43637,-7.40539 -1.88236,-8.30368 -0.13716,-3.20023 1.48783,-6.0647 2.99588,-8.34574 z"
       id="path1330"
       style="stroke:#ffffff;stroke-width:4.58221" />
    <path
       d="m 197.34064,495.54271 c 0,0 -9.32517,-8.1877 -19.54461,-10.42965 -5.4569,-1.19711 -7.54651,-0.42788 -12.61436,1.39041 -3.29186,1.18113 -5.02731,3.69921 -5.02731,3.69921 16.20553,2.24583 2.49887,25.2277 -12.03401,27.79355 -8.67678,1.22021 -24.57991,-0.78572 -33.82431,-2.63721 -10.59672,-2.12254 -23.70494,-9.11315 -34.887003,-10.98481 -8.697197,-1.45564 -18.76432,-0.81544 -18.76432,-0.81544 0,0 23.638043,-12.71245 26.760914,-14.37541 5.298698,-2.82089 9.849085,-5.41597 16.711079,-5.20876 3.85693,0.11647 8.64947,2.84768 9.81052,3.72022 2.19498,1.64989 3.03778,3.63574 3.06124,4.93443 0.0235,1.29868 -0.7152,2.68786 -1.86754,3.61803 -1.15233,0.93017 -3.22309,1.35756 -3.22309,1.35756 0,0 4.30024,1.47128 6.1605,0.94397 6.9215,-0.60466 7.88028,-4.49673 10.2013,-8.51421 0,0 -7.80212,-2.48249 -10.17114,-3.85927 -4.684,-2.72232 -7.57195,-7.51215 -7.57195,-7.51215 0,0 3.3573,1.65513 5.3677,1.7822 2.04965,0.12954 6.23706,-1.35506 9.15144,-3.47319 2.80735,-2.04029 3.67881,-4.37467 6.61023,-8.04386 3.64767,-4.56582 6.99802,-6.06433 8.9615,-7.30664 6.32367,-4.00107 15.04699,-7.23867 25.19483,-7.59969 7.06058,-0.25109 10.91181,0.3336 10.65842,0.32729 l 20.87955,41.19423 z"
       id="path1334"
       style="stroke:#ffffff;stroke-width:4.58217" />
    <path
       d="m 184.01393,470.99219 c 0,0 -17.30998,-5.55644 -27.52303,-0.21718 -10.21304,5.33925 -13.90939,15.87459 -14.6732,17.47456 -0.76381,1.59997 -0.73424,10.55485 -5.39667,16.6291 -2.18316,2.84455 -14.79755,11.33381 -14.79755,11.33381 l 18.93507,2.22758 c 4.3123,0.50729 19.07932,-0.17142 25.12811,-15.45875 5.45596,-13.78775 -4.9662,-13.09003 -4.9662,-13.09003 0,0 4.9996,-7.29364 19.43035,-4.47512 10.30217,2.01233 17.23174,9.99894 17.23174,9.99894 l -13.3679,-24.42328 z"
       id="path1336"
       style="stroke:#ffffff;stroke-width:4.58217" />
    <path
       d="m 134.39475,490.12876 c -4.11398,0.55013 -5.61027,-0.013 -8.14209,-0.74533 -2.71056,-0.7838 -5.82288,-1.85772 -9.4506,-4.01257 -3.37428,-2.00463 -6.12392,-6.45204 -6.12392,-6.45204 0,0 3.36952,2.13994 6.80318,1.24525 3.79024,-0.9876 5.66498,-1.65109 8.65129,-4.02242 3.12256,-2.47958 6.0292,-10.17663 14.42815,-14.59505 7.2066,-3.7914 18.87466,-7.71629 23.71348,-7.64496 4.83881,0.0713 11.01806,-0.26636 11.01806,-0.26636 l 8.58171,16.44434 c 0,0 -6.96442,-1.57605 -13.23169,-1.70083 -6.26726,-0.12478 -12.50613,1.33597 -15.17736,2.73239 -2.67124,1.39642 -6.80312,5.35707 -8.74229,7.7713 -1.93917,2.41424 -4.08884,6.33905 -4.38868,7.29608 -2.11601,2.40472 -5.27146,3.34744 -7.93869,3.95003 z"
       id="path1338"
       style="stroke:#ffffff;stroke-width:4.58217" />
    <path
       d="m 283.83729,184.60064 c 0,0 8.1877,-9.32517 10.42965,-19.54461 1.19711,-5.4569 0.42788,-7.54651 -1.39041,-12.61436 -1.18113,-3.29186 -3.69921,-5.02731 -3.69921,-5.02731 -2.24583,16.20553 -25.2277,2.49887 -27.79355,-12.03401 -1.22021,-8.67678 0.78572,-24.57991 2.63721,-33.82431 2.12254,-10.596719 9.11315,-23.70494 10.98481,-34.887003 1.45564,-8.697197 0.81544,-18.76432 0.81544,-18.76432 0,0 12.71245,23.638043 14.37541,26.760914 2.82089,5.298698 5.41597,9.849085 5.20876,16.711075 -0.11647,3.856934 -2.84768,8.649474 -3.72022,9.810524 -1.64989,2.19498 -3.63574,3.03778 -4.93443,3.06124 -1.29868,0.0235 -2.68786,-0.7152 -3.61803,-1.86754 -0.93017,-1.15233 -1.35756,-3.223092 -1.35756,-3.223092 0,0 -1.47128,4.300242 -0.94397,6.160502 0.60466,6.9215 4.49673,7.88028 8.51421,10.2013 0,0 2.48249,-7.80212 3.85927,-10.17114 2.72232,-4.684 7.51215,-7.571948 7.51215,-7.571948 0,0 -1.65513,3.357298 -1.7822,5.367698 -0.12954,2.04965 1.35506,6.23706 3.47319,9.15144 2.04029,2.80735 4.37467,3.67881 8.04386,6.61023 4.56582,3.64767 6.06433,6.99802 7.30664,8.9615 4.00107,6.32367 7.23867,15.04699 7.59969,25.19483 0.25109,7.06058 -0.3336,10.91181 -0.32729,10.65842 l -41.19423,20.87955 z"
       id="path1342"
       style="stroke:#ffffff;stroke-width:4.58217" />
    <path
       d="m 308.38781,171.27393 c 0,0 5.55644,-17.30998 0.21718,-27.52303 -5.33925,-10.21304 -15.87459,-13.90939 -17.47456,-14.6732 -1.59997,-0.76381 -10.55485,-0.73424 -16.6291,-5.39667 -2.84455,-2.18316 -11.33381,-14.79755 -11.33381,-14.79755 l -2.22758,18.93507 c -0.50729,4.3123 0.17142,19.07932 15.45875,25.12811 13.78775,5.45596 13.09003,-4.9662 13.09003,-4.9662 0,0 7.29364,4.9996 4.47512,19.43035 -2.01233,10.30217 -9.99894,17.23174 -9.99894,17.23174 l 24.42328,-13.3679 z"
       id="path1344"
       style="stroke:#ffffff;stroke-width:4.58217" />
    <path
       d="m 289.25124,121.65475 c -0.55013,-4.11398 0.013,-5.61027 0.74533,-8.14209 0.7838,-2.71056 1.85772,-5.82288 4.01257,-9.4506 2.00463,-3.37428 6.45204,-6.123921 6.45204,-6.123921 0,0 -2.13994,3.369521 -1.24525,6.803181 0.9876,3.79024 1.65109,5.66498 4.02242,8.65129 2.47958,3.12256 10.17663,6.0292 14.59505,14.42815 3.7914,7.2066 7.71629,18.87466 7.64496,23.71348 -0.0713,4.83881 0.26636,11.01806 0.26636,11.01806 l -16.44434,8.58171 c 0,0 1.57605,-6.96442 1.70083,-13.23169 0.12478,-6.26726 -1.33597,-12.50613 -2.73239,-15.17736 -1.39642,-2.67124 -5.35707,-6.80312 -7.7713,-8.74229 -2.41424,-1.93917 -6.33905,-4.08884 -7.29608,-4.38868 -2.40472,-2.11601 -3.34744,-5.27146 -3.95003,-7.93869 z"
       id="path1346"
       style="stroke:#ffffff;stroke-width:4.58217" />
    <path
       d="m 508.28271,582.03936 c 0,0 -8.1877,9.32517 -10.42965,19.54461 -1.19711,5.4569 -0.42788,7.54651 1.39041,12.61436 1.18113,3.29186 3.69921,5.02731 3.69921,5.02731 2.24583,-16.20553 25.2277,-2.49887 27.79355,12.03401 1.22021,8.67678 -0.78572,24.57991 -2.63721,33.82431 -2.12254,10.59672 -9.11315,23.70494 -10.98481,34.887 -1.45564,8.6972 -0.81544,18.76432 -0.81544,18.76432 0,0 -12.71245,-23.63804 -14.37541,-26.76091 -2.82089,-5.2987 -5.41597,-9.84909 -5.20876,-16.71108 0.11647,-3.85693 2.84768,-8.64947 3.72022,-9.81052 1.64989,-2.19498 3.63574,-3.03778 4.93443,-3.06124 1.29868,-0.0235 2.68786,0.7152 3.61803,1.86754 0.93017,1.15233 1.35756,3.22309 1.35756,3.22309 0,0 1.47128,-4.30024 0.94397,-6.1605 -0.60466,-6.9215 -4.49673,-7.88028 -8.51421,-10.2013 0,0 -2.48249,7.80212 -3.85927,10.17114 -2.72232,4.684 -7.51215,7.57195 -7.51215,7.57195 0,0 1.65513,-3.3573 1.7822,-5.3677 0.12954,-2.04965 -1.35506,-6.23706 -3.47319,-9.15144 -2.04029,-2.80735 -4.37467,-3.67881 -8.04386,-6.61023 -4.56582,-3.64767 -6.06433,-6.99802 -7.30664,-8.9615 -4.00107,-6.32367 -7.23867,-15.04699 -7.59969,-25.19483 -0.25109,-7.06058 0.3336,-10.91181 0.32729,-10.65842 l 41.19423,-20.87955 z"
       id="path1350"
       style="stroke:#ffffff;stroke-width:4.58217" />
    <path
       d="m 483.73219,595.36607 c 0,0 -5.55644,17.30998 -0.21718,27.52303 5.33925,10.21304 15.87459,13.90939 17.47456,14.6732 1.59997,0.76381 10.55485,0.73424 16.6291,5.39667 2.84455,2.18316 11.33381,14.79755 11.33381,14.79755 l 2.22758,-18.93507 c 0.50729,-4.3123 -0.17142,-19.07932 -15.45875,-25.12811 -13.78775,-5.45596 -13.09003,4.9662 -13.09003,4.9662 0,0 -7.29364,-4.9996 -4.47512,-19.43035 2.01233,-10.30217 9.99894,-17.23174 9.99894,-17.23174 l -24.42328,13.3679 z"
       id="path1352"
       style="stroke:#ffffff;stroke-width:4.58217" />
    <path
       d="m 502.86876,644.98525 c 0.55013,4.11398 -0.013,5.61027 -0.74533,8.14209 -0.7838,2.71056 -1.85772,5.82288 -4.01257,9.4506 -2.00463,3.37428 -6.45204,6.12392 -6.45204,6.12392 0,0 2.13994,-3.36952 1.24525,-6.80318 -0.9876,-3.79024 -1.65109,-5.66498 -4.02242,-8.65129 -2.47958,-3.12256 -10.17663,-6.0292 -14.59505,-14.42815 -3.7914,-7.2066 -7.71629,-18.87466 -7.64496,-23.71348 0.0713,-4.83881 -0.26636,-11.01806 -0.26636,-11.01806 l 16.44434,-8.58171 c 0,0 -1.57605,6.96442 -1.70083,13.23169 -0.12478,6.26726 1.33597,12.50613 2.73239,15.17736 1.39642,2.67124 5.35707,6.80312 7.7713,8.74229 2.41424,1.93917 6.33905,4.08884 7.29608,4.38868 2.40472,2.11601 3.34744,5.27146 3.95003,7.93869 z"
       id="path1354"
       style="stroke:#ffffff;stroke-width:4.58217" />
    <path
       d="m 594.78436,271.09729 c 0,0 9.32517,8.1877 19.54461,10.42965 5.4569,1.19711 7.54651,0.42788 12.61436,-1.39041 3.29186,-1.18113 5.02731,-3.69921 5.02731,-3.69921 -16.20553,-2.24583 -2.49887,-25.2277 12.03401,-27.79355 8.67678,-1.22021 24.57991,0.78572 33.82431,2.63721 10.59672,2.12254 23.70494,9.11315 34.887,10.98481 8.6972,1.45564 18.76432,0.81544 18.76432,0.81544 0,0 -23.63804,12.71245 -26.76091,14.37541 -5.2987,2.82089 -9.84909,5.41597 -16.71108,5.20876 -3.85693,-0.11647 -8.64947,-2.84768 -9.81052,-3.72022 -2.19498,-1.64989 -3.03778,-3.63574 -3.06124,-4.93443 -0.0235,-1.29868 0.7152,-2.68786 1.86754,-3.61803 1.15233,-0.93017 3.22309,-1.35756 3.22309,-1.35756 0,0 -4.30024,-1.47128 -6.1605,-0.94397 -6.9215,0.60466 -7.88028,4.49673 -10.2013,8.51421 0,0 7.80212,2.48249 10.17114,3.85927 4.684,2.72232 7.57195,7.51215 7.57195,7.51215 0,0 -3.3573,-1.65513 -5.3677,-1.7822 -2.04965,-0.12954 -6.23706,1.35506 -9.15144,3.47319 -2.80735,2.04029 -3.67881,4.37467 -6.61023,8.04386 -3.64767,4.56582 -6.99802,6.06433 -8.9615,7.30664 -6.32367,4.00107 -15.04699,7.23867 -25.19483,7.59969 -7.06058,0.25109 -10.91181,-0.3336 -10.65842,-0.32729 l -20.87955,-41.19423 z"
       id="path1358"
       style="stroke:#ffffff;stroke-width:4.58217" />
    <path
       d="m 608.11107,295.64781 c 0,0 17.30998,5.55644 27.52303,0.21718 10.21304,-5.33925 13.90939,-15.87459 14.6732,-17.47456 0.76381,-1.59997 0.73424,-10.55485 5.39667,-16.6291 2.18316,-2.84455 14.79755,-11.33381 14.79755,-11.33381 l -18.93507,-2.22758 c -4.3123,-0.50729 -19.07932,0.17142 -25.12811,15.45875 -5.45596,13.78775 4.9662,13.09003 4.9662,13.09003 0,0 -4.9996,7.29364 -19.43035,4.47512 -10.30217,-2.01233 -17.23174,-9.99894 -17.23174,-9.99894 l 13.3679,24.42328 z"
       id="path1360"
       style="stroke:#ffffff;stroke-width:4.58217" />
    <path
       d="m 657.73025,276.51124 c 4.11398,-0.55013 5.61027,0.013 8.14209,0.74533 2.71056,0.7838 5.82288,1.85772 9.4506,4.01257 3.37428,2.00463 6.12392,6.45204 6.12392,6.45204 0,0 -3.36952,-2.13994 -6.80318,-1.24525 -3.79024,0.9876 -5.66498,1.65109 -8.65129,4.02242 -3.12256,2.47958 -6.0292,10.17663 -14.42815,14.59505 -7.2066,3.7914 -18.87466,7.71629 -23.71348,7.64496 -4.83881,-0.0713 -11.01806,0.26636 -11.01806,0.26636 l -8.58171,-16.44434 c 0,0 6.96442,1.57605 13.23169,1.70083 6.26726,0.12478 12.50613,-1.33597 15.17736,-2.73239 2.67124,-1.39642 6.80312,-5.35707 8.74229,-7.7713 1.93917,-2.41424 4.08884,-6.33905 4.38868,-7.29608 2.11601,-2.40472 5.27146,-3.34744 7.93869,-3.95003 z"
       id="path1362"
       style="stroke:#ffffff;stroke-width:4.58217" />
    <path
       d="m 254.11086,562.02551 c 0,0 -11.71969,-4.08064 -22.03238,-2.31548 -5.50668,0.94257 -7.15374,2.44108 -11.16609,6.03154 -2.60624,2.33225 -3.26754,5.31814 -3.26754,5.31814 15.86107,-4.01239 11.80144,22.43727 -0.70045,30.2794 -7.58139,4.39325 -23.07203,8.51424 -32.3344,10.27458 -10.61738,2.01767 -25.39246,0.46877 -36.45792,2.939 -8.60646,1.9214 -17.69428,6.29998 -17.69428,6.29998 0,0 17.1238,-20.66797 19.39227,-23.38316 3.84927,-4.60631 7.09004,-8.72199 13.52651,-11.11017 3.61777,-1.34232 9.08567,-0.61353 10.48962,-0.24158 2.65433,0.7035 4.18199,2.22676 4.69206,3.42135 0.51006,1.19458 0.34793,2.75959 -0.37011,4.05481 -0.71804,1.29522 -2.47618,2.46988 -2.47618,2.46988 0,0 4.53798,-0.25359 6.06349,-1.4417 6.18634,-3.16286 5.61132,-7.1299 6.25144,-11.72537 0,0 -8.16317,0.63333 -10.87606,0.24833 -5.36398,-0.76136 -9.84109,-4.11388 -9.84109,-4.11388 0,0 3.73334,0.27132 5.64403,-0.36687 1.94798,-0.65065 5.26995,-3.60085 7.17408,-6.65941 1.83421,-2.9462 1.76399,-5.437 3.10069,-9.93925 1.66326,-5.60241 4.20435,-8.25075 5.55666,-10.14021 4.35528,-6.0853 11.22124,-12.36544 20.48883,-16.51567 6.44817,-2.88754 10.2367,-3.79384 9.99953,-3.70441 l 34.83721,30.32106 z"
       id="path1366"
       style="stroke:#ffffff;stroke-width:4.58226" />
    <path
       d="m 232.5306,544.28714 c 0,0 -18.12931,1.35995 -25.58546,10.14771 -7.45614,8.78776 -6.9199,19.94004 -7.02607,21.70983 -0.10617,1.76979 3.28837,10.05657 1.25199,17.43831 -0.95341,3.45676 -9.45028,16.06634 -9.45028,16.06634 l 18.38349,-5.05564 c 4.18667,-1.15139 17.61511,-7.33288 17.47191,-23.77306 -0.12866,-14.82772 -9.52385,-10.26233 -9.52385,-10.26233 0,0 1.89031,-8.63845 16.32214,-11.45284 10.30301,-2.00903 19.72725,2.78605 19.72725,2.78605 l -21.57059,-17.60499 z"
       id="path1368"
       style="stroke:#ffffff;stroke-width:4.58226" />
    <path
       d="m 193.74731,580.67712 c -3.60531,2.05667 -5.20356,2.09747 -7.825,2.37086 -2.80642,0.29291 -6.09421,0.46804 -10.26603,-0.16465 -3.88049,-0.58879 -8.10067,-3.67602 -8.10067,-3.67602 0,0 3.92696,0.71596 6.77229,-1.40418 3.14082,-2.34032 4.62854,-3.66006 6.50411,-6.9803 1.96112,-3.47178 1.76034,-11.69707 7.88172,-18.94942 5.25228,-6.22301 14.58851,-14.24727 19.09915,-16.00062 4.51063,-1.75335 10.10956,-4.38974 10.10956,-4.38974 l 14.13537,12.01108 c 0,0 -7.04609,1.15828 -12.90047,3.39922 -5.85439,2.24093 -11.08628,5.94039 -13.03647,8.23878 -1.95019,2.29839 -4.28969,7.5221 -5.17881,10.48836 -0.88913,2.96626 -1.40531,7.41143 -1.3233,8.41099 -1.05656,3.02394 -3.62604,5.08398 -5.87101,6.64527 z"
       id="path1370"
       style="stroke:#ffffff;stroke-width:4.58226" />
    <path
       d="m 217.35449,241.37086 c 0,0 4.08064,-11.71969 2.31548,-22.03238 -0.94257,-5.50668 -2.44108,-7.15374 -6.03154,-11.16609 -2.33225,-2.60624 -5.31814,-3.26754 -5.31814,-3.26754 4.01239,15.86107 -22.43727,11.80144 -30.2794,-0.70045 -4.39325,-7.58139 -8.51424,-23.07203 -10.27458,-32.3344 -2.01767,-10.61738 -0.46877,-25.39246 -2.939,-36.45792 -1.9214,-8.60646 -6.29998,-17.69428 -6.29998,-17.69428 0,0 20.66797,17.1238 23.38316,19.39227 4.60631,3.84927 8.72199,7.09004 11.11017,13.52651 1.34232,3.61777 0.61353,9.08567 0.24158,10.48962 -0.7035,2.65433 -2.22676,4.18199 -3.42135,4.69206 -1.19458,0.51006 -2.75959,0.34793 -4.05481,-0.37011 -1.29522,-0.71804 -2.46988,-2.47618 -2.46988,-2.47618 0,0 0.25359,4.53798 1.4417,6.06349 3.16286,6.18634 7.1299,5.61132 11.72537,6.25144 0,0 -0.63333,-8.16317 -0.24833,-10.87606 0.76136,-5.36398 4.11388,-9.84109 4.11388,-9.84109 0,0 -0.27132,3.73334 0.36687,5.64403 0.65065,1.94798 3.60085,5.26995 6.65941,7.17408 2.9462,1.83421 5.437,1.76399 9.93925,3.10069 5.60241,1.66326 8.25075,4.20435 10.14021,5.55666 6.0853,4.35528 12.36544,11.22124 16.51567,20.48883 2.88754,6.44817 3.79384,10.2367 3.70441,9.99953 l -30.32106,34.83721 z"
       id="path1374"
       style="stroke:#ffffff;stroke-width:4.58226" />
    <path
       d="m 235.09286,219.7906 c 0,0 -1.35995,-18.12931 -10.14771,-25.58546 -8.78776,-7.45614 -19.94004,-6.9199 -21.70983,-7.02607 -1.76979,-0.10617 -10.05657,3.28837 -17.43831,1.25199 -3.45676,-0.95341 -16.06634,-9.45028 -16.06634,-9.45028 l 5.05564,18.38349 c 1.15139,4.18667 7.33288,17.61511 23.77306,17.47191 14.82772,-0.12866 10.26233,-9.52385 10.26233,-9.52385 0,0 8.63845,1.89031 11.45284,16.32214 2.00903,10.30301 -2.78605,19.72725 -2.78605,19.72725 l 17.60499,-21.57059 z"
       id="path1376"
       style="stroke:#ffffff;stroke-width:4.58226" />
    <path
       d="m 198.70288,181.00731 c -2.05667,-3.60531 -2.09747,-5.20356 -2.37086,-7.825 -0.29291,-2.80642 -0.46804,-6.09421 0.16465,-10.26603 0.58879,-3.88049 3.67602,-8.10067 3.67602,-8.10067 0,0 -0.71596,3.92696 1.40418,6.77229 2.34032,3.14082 3.66006,4.62854 6.9803,6.50411 3.47178,1.96112 11.69707,1.76034 18.94942,7.88172 6.22301,5.25228 14.24727,14.58851 16.00062,19.09915 1.75335,4.51063 4.38974,10.10956 4.38974,10.10956 l -12.01108,14.13537 c 0,0 -1.15828,-7.04609 -3.39922,-12.90047 -2.24093,-5.85439 -5.94039,-11.08628 -8.23878,-13.03647 -2.29839,-1.95019 -7.5221,-4.28969 -10.48836,-5.17881 -2.96626,-0.88913 -7.41143,-1.40531 -8.41099,-1.3233 -3.02394,-1.05656 -5.08398,-3.62604 -6.64527,-5.87101 z"
       id="path1378"
       style="stroke:#ffffff;stroke-width:4.58226" />
    <path
       d="m 574.77551,525.27014 c 0,0 -4.08064,11.71969 -2.31548,22.03238 0.94257,5.50668 2.44108,7.15374 6.03154,11.16609 2.33225,2.60624 5.31814,3.26754 5.31814,3.26754 -4.01239,-15.86107 22.43727,-11.80144 30.2794,0.70045 4.39325,7.58139 8.51424,23.07203 10.27458,32.3344 2.01767,10.61738 0.46877,25.39246 2.939,36.45792 1.9214,8.60646 6.29998,17.69428 6.29998,17.69428 0,0 -20.66797,-17.1238 -23.38316,-19.39227 -4.60631,-3.84927 -8.72199,-7.09004 -11.11017,-13.52651 -1.34232,-3.61777 -0.61353,-9.08567 -0.24158,-10.48962 0.7035,-2.65433 2.22676,-4.18199 3.42135,-4.69206 1.19458,-0.51006 2.75959,-0.34793 4.05481,0.37011 1.29522,0.71804 2.46988,2.47618 2.46988,2.47618 0,0 -0.25359,-4.53798 -1.4417,-6.06349 -3.16286,-6.18634 -7.1299,-5.61132 -11.72537,-6.25144 0,0 0.63333,8.16317 0.24833,10.87606 -0.76136,5.36398 -4.11388,9.84109 -4.11388,9.84109 0,0 0.27132,-3.73334 -0.36687,-5.64403 -0.65065,-1.94798 -3.60085,-5.26995 -6.65941,-7.17408 -2.9462,-1.83421 -5.437,-1.76399 -9.93925,-3.10069 -5.60241,-1.66326 -8.25075,-4.20435 -10.14021,-5.55666 -6.0853,-4.35528 -12.36544,-11.22124 -16.51567,-20.48883 -2.88754,-6.44817 -3.79384,-10.2367 -3.70441,-9.99953 l 30.32106,-34.83721 z"
       id="path1382"
       style="stroke:#ffffff;stroke-width:4.58226" />
    <path
       d="m 557.03714,546.8504 c 0,0 1.35995,18.12931 10.14771,25.58546 8.78776,7.45614 19.94004,6.9199 21.70983,7.02607 1.76979,0.10617 10.05657,-3.28837 17.43831,-1.25199 3.45676,0.95341 16.06634,9.45028 16.06634,9.45028 l -5.05564,-18.38349 c -1.15139,-4.18667 -7.33288,-17.61511 -23.77306,-17.47191 -14.82772,0.12866 -10.26233,9.52385 -10.26233,9.52385 0,0 -8.63845,-1.89031 -11.45284,-16.32214 -2.00903,-10.30301 2.78605,-19.72725 2.78605,-19.72725 l -17.60499,21.57059 z"
       id="path1384"
       style="stroke:#ffffff;stroke-width:4.58226" />
    <path
       d="m 593.42712,585.63369 c 2.05667,3.60531 2.09747,5.20356 2.37086,7.825 0.29291,2.80642 0.46804,6.09421 -0.16465,10.26603 -0.58879,3.88049 -3.67602,8.10067 -3.67602,8.10067 0,0 0.71596,-3.92696 -1.40418,-6.77229 -2.34032,-3.14082 -3.66006,-4.62854 -6.9803,-6.50411 -3.47178,-1.96112 -11.69707,-1.76034 -18.94942,-7.88172 -6.22301,-5.25228 -14.24727,-14.58851 -16.00062,-19.09915 -1.75335,-4.51063 -4.38974,-10.10956 -4.38974,-10.10956 l 12.01108,-14.13537 c 0,0 1.15828,7.04609 3.39922,12.90047 2.24093,5.85439 5.94039,11.08628 8.23878,13.03647 2.29839,1.95019 7.5221,4.28969 10.48836,5.17881 2.96626,0.88913 7.41143,1.40531 8.41099,1.3233 3.02394,1.05656 5.08398,3.62604 6.64527,5.87101 z"
       id="path1386"
       style="stroke:#ffffff;stroke-width:4.58226" />
    <path
       d="m 538.01614,204.60449 c 0,0 11.71969,4.08064 22.03238,2.31548 5.50668,-0.94257 7.15374,-2.44108 11.16609,-6.03154 2.60624,-2.33225 3.26754,-5.31814 3.26754,-5.31814 -15.86107,4.01239 -11.80144,-22.43727 0.70045,-30.2794 7.58139,-4.39325 23.07203,-8.51424 32.3344,-10.27458 10.61738,-2.01767 25.39246,-0.46877 36.45792,-2.939 8.60646,-1.9214 17.69428,-6.29998 17.69428,-6.29998 0,0 -17.1238,20.66797 -19.39227,23.38316 -3.84927,4.60631 -7.09004,8.72199 -13.52651,11.11017 -3.61777,1.34232 -9.08567,0.61353 -10.48962,0.24158 -2.65433,-0.7035 -4.18199,-2.22676 -4.69206,-3.42135 -0.51006,-1.19458 -0.34793,-2.75959 0.37011,-4.05481 0.71804,-1.29522 2.47618,-2.46988 2.47618,-2.46988 0,0 -4.53798,0.25359 -6.06349,1.4417 -6.18634,3.16286 -5.61132,7.1299 -6.25144,11.72537 0,0 8.16317,-0.63333 10.87606,-0.24833 5.36398,0.76136 9.84109,4.11388 9.84109,4.11388 0,0 -3.73334,-0.27132 -5.64403,0.36687 -1.94798,0.65065 -5.26995,3.60085 -7.17408,6.65941 -1.83421,2.9462 -1.76399,5.437 -3.10069,9.93925 -1.66326,5.60241 -4.20435,8.25075 -5.55666,10.14021 -4.35528,6.0853 -11.22124,12.36544 -20.48883,16.51567 -6.44817,2.88754 -10.2367,3.79384 -9.99953,3.70441 l -34.83721,-30.32106 z"
       id="path1390"
       style="stroke:#ffffff;stroke-width:4.58226" />
    <path
       d="m 559.5964,222.34286 c 0,0 18.12931,-1.35995 25.58546,-10.14771 7.45614,-8.78776 6.9199,-19.94004 7.02607,-21.70983 0.10617,-1.76979 -3.28837,-10.05657 -1.25199,-17.43831 0.95341,-3.45676 9.45028,-16.06634 9.45028,-16.06634 l -18.38349,5.05564 c -4.18667,1.15139 -17.61511,7.33288 -17.47191,23.77306 0.12866,14.82772 9.52385,10.26233 9.52385,10.26233 0,0 -1.89031,8.63845 -16.32214,11.45284 -10.30301,2.00903 -19.72725,-2.78605 -19.72725,-2.78605 l 21.57059,17.60499 z"
       id="path1392"
       style="stroke:#ffffff;stroke-width:4.58226" />
    <path
       d="m 598.37969,185.95288 c 3.60531,-2.05667 5.20356,-2.09747 7.825,-2.37086 2.80642,-0.29291 6.09421,-0.46804 10.26603,0.16465 3.88049,0.58879 8.10067,3.67602 8.10067,3.67602 0,0 -3.92696,-0.71596 -6.77229,1.40418 -3.14082,2.34032 -4.62854,3.66006 -6.50411,6.9803 -1.96112,3.47178 -1.76034,11.69707 -7.88172,18.94942 -5.25228,6.22301 -14.58851,14.24727 -19.09915,16.00062 -4.51063,1.75335 -10.10956,4.38974 -10.10956,4.38974 l -14.13537,-12.01108 c 0,0 7.04609,-1.15828 12.90047,-3.39922 5.85439,-2.24093 11.08628,-5.94039 13.03647,-8.23878 1.95019,-2.29839 4.28969,-7.5221 5.17881,-10.48836 0.88913,-2.96626 1.40531,-7.41143 1.3233,-8.41099 1.05656,-3.02394 3.62604,-5.08398 5.87101,-6.64527 z"
       id="path1394"
       style="stroke:#ffffff;stroke-width:4.58226" />
    <path
       d="m 169.32589,409.31554 c 0,0 -5.40161,-11.17248 -13.9419,-17.21648 -4.56029,-3.2273 -6.78455,-3.33234 -12.16052,-3.63066 -3.49203,-0.19374 -6.07097,1.44999 -6.07097,1.44999 14.0526,8.37825 -7.52064,24.21033 -21.90599,20.9154 -8.46731,-2.25435 -22.334784,-10.29388 -30.128993,-15.5986 -8.934297,-6.08089 -18.286584,-17.62365 -27.857727,-23.70136 -7.444293,-4.72704 -16.966448,-8.05697 -16.966448,-8.05697 0,0 26.722728,-2.50609 30.246695,-2.82197 5.978975,-0.5353 11.180755,-1.15396 17.420703,1.70861 3.507298,1.60897 6.858343,5.99068 7.588076,7.24643 1.379431,2.37433 1.382548,4.53166 0.89852,5.73702 -0.484029,1.20536 -1.705298,2.19734 -3.128881,2.60547 -1.423584,0.40813 -3.497374,-0.004 -3.497374,-0.004 0,0 3.388137,3.0295 5.306946,3.26808 6.610863,2.13792 9.009373,-1.07379 12.711473,-3.87064 0,0 -6.22003,-5.32437 -7.866098,-7.51491 -3.254532,-4.33125 -4.049731,-9.86762 -4.049731,-9.86762 0,0 2.448009,2.83171 4.250329,3.7315 1.8375,0.91735 6.27258,1.18024 9.78173,0.36393 3.38025,-0.78629 5.09184,-2.5972 9.22059,-4.83558 5.13759,-2.78539 8.80705,-2.86123 11.09932,-3.24104 7.38258,-1.22331 16.67824,-0.80907 26.16604,2.80944 6.60132,2.51773 9.92106,4.55577 9.69012,4.4513 l 3.19339,46.07369 z"
       id="path1398"
       style="stroke:#ffffff;stroke-width:4.58224" />
    <path
       d="m 166.60927,381.51316 c 0,0 -13.78094,-11.85768 -25.26708,-10.91609 -11.48613,0.94159 -18.99277,9.2066 -20.31927,10.38295 -1.3265,1.17635 -4.78583,9.43627 -11.44542,13.21599 -3.11845,1.77013 -18.042914,4.67824 -18.042914,4.67824 l 16.573904,9.42418 c 3.77457,2.14625 17.64083,7.27061 29.1645,-4.45557 10.39377,-10.57572 0.52219,-13.99089 0.52219,-13.99089 0,0 7.44493,-4.77164 19.6398,3.4431 8.7059,5.86471 11.9792,15.91925 11.9792,15.91925 l -2.8041,-27.70122 z"
       id="path1400"
       style="stroke:#ffffff;stroke-width:4.58224" />
    <path
       d="m 113.45393,379.82084 c -4.00361,-1.09504 -5.16259,-2.19632 -7.20953,-3.85664 -2.19156,-1.77731 -4.6402,-3.97828 -7.142733,-7.37558 -2.327574,-3.16025 -3.12869,-8.32735 -3.12869,-8.32735 0,0 2.270507,3.28303 5.781623,3.79582 3.87573,0.56603 5.86089,0.68481 9.53488,-0.33672 3.84163,-1.06819 9.51579,-7.0263 18.97242,-7.82602 8.11422,-0.6864 20.38989,0.24129 24.81919,2.19098 4.42929,1.94969 10.25252,4.04452 10.25252,4.04452 l 1.50209,18.48826 c 0,0 -5.80134,-4.16329 -11.52558,-6.71838 -5.72423,-2.55508 -12.03964,-3.63867 -15.04382,-3.39246 -3.00418,0.24621 -8.35217,2.28565 -11.07833,3.7544 -2.72616,1.46876 -6.23434,4.24696 -6.88315,5.01175 -2.88534,1.39113 -6.1589,1.03091 -8.85032,0.54747 z"
       id="path1402"
       style="stroke:#ffffff;stroke-width:4.58224" />
    <path
       d="m 370.07446,156.57589 c 0,0 11.17248,-5.40161 17.21648,-13.9419 3.2273,-4.56029 3.33234,-6.78455 3.63066,-12.16052 0.19374,-3.49203 -1.44999,-6.07097 -1.44999,-6.07097 -8.37825,14.0526 -24.21033,-7.52064 -20.9154,-21.90599 2.25435,-8.467315 10.29388,-22.334784 15.5986,-30.128993 6.08089,-8.934297 17.62365,-18.286584 23.70136,-27.857727 4.72704,-7.444293 8.05697,-16.966448 8.05697,-16.966448 0,0 2.50609,26.722728 2.82197,30.246695 0.5353,5.978975 1.15396,11.180755 -1.70861,17.420703 -1.60897,3.507298 -5.99068,6.858343 -7.24643,7.588076 -2.37433,1.379431 -4.53166,1.382548 -5.73702,0.89852 -1.20536,-0.484029 -2.19734,-1.705298 -2.60547,-3.128881 -0.40813,-1.423584 0.004,-3.497374 0.004,-3.497374 0,0 -3.0295,3.388137 -3.26808,5.306946 -2.13792,6.610858 1.07379,9.00937 3.87064,12.711476 0,0 5.32437,-6.220035 7.51491,-7.866101 4.33125,-3.254532 9.86762,-4.049731 9.86762,-4.049731 0,0 -2.83171,2.448009 -3.7315,4.250328 -0.91735,1.837502 -1.18024,6.272586 -0.36393,9.781729 0.78629,3.380252 2.5972,5.091842 4.83558,9.220592 2.78539,5.13759 2.86123,8.80705 3.24104,11.09932 1.22331,7.38258 0.80907,16.67824 -2.80944,26.16604 -2.51773,6.60132 -4.55577,9.92106 -4.4513,9.69012 l -46.07369,3.19339 z"
       id="path1406"
       style="stroke:#ffffff;stroke-width:4.58224" />
    <path
       d="m 397.87684,153.85927 c 0,0 11.85768,-13.78094 10.91609,-25.26708 -0.94159,-11.48613 -9.2066,-18.99277 -10.38295,-20.31927 -1.17635,-1.3265 -9.43627,-4.78583 -13.21599,-11.445419 -1.77013,-3.118447 -4.67824,-18.042915 -4.67824,-18.042915 l -9.42418,16.573906 c -2.14625,3.774571 -7.27061,17.640828 4.45557,29.164498 10.57572,10.39377 13.99089,0.52219 13.99089,0.52219 0,0 4.77164,7.44493 -3.4431,19.6398 -5.86471,8.7059 -15.91925,11.9792 -15.91925,11.9792 l 27.70122,-2.8041 z"
       id="path1408"
       style="stroke:#ffffff;stroke-width:4.58224" />
    <path
       d="m 399.56916,100.70393 c 1.09504,-4.003607 2.19632,-5.162591 3.85664,-7.209533 1.77731,-2.191553 3.97828,-4.640198 7.37558,-7.14273 3.16025,-2.327574 8.32735,-3.12869 8.32735,-3.12869 0,0 -3.28303,2.270507 -3.79582,5.781622 -0.56603,3.875728 -0.68481,5.860894 0.33672,9.53488 1.06819,3.841631 7.0263,9.515791 7.82602,18.972421 0.6864,8.11422 -0.24129,20.38989 -2.19098,24.81919 -1.94969,4.42929 -4.04452,10.25252 -4.04452,10.25252 l -18.48826,1.50209 c 0,0 4.16329,-5.80134 6.71838,-11.52558 2.55508,-5.72423 3.63867,-12.03964 3.39246,-15.04382 -0.24621,-3.00418 -2.28565,-8.35217 -3.7544,-11.07833 -1.46876,-2.72616 -4.24696,-6.23434 -5.01175,-6.88315 -1.39113,-2.88534 -1.03091,-6.1589 -0.54747,-8.85032 z"
       id="path1410"
       style="stroke:#ffffff;stroke-width:4.58224" />
    <path
       d="m 422.05554,610.05411 c 0,0 -11.17248,5.40161 -17.21648,13.9419 -3.2273,4.56029 -3.33234,6.78455 -3.63066,12.16052 -0.19374,3.49203 1.44999,6.07097 1.44999,6.07097 8.37825,-14.0526 24.21033,7.52064 20.9154,21.90599 -2.25435,8.46731 -10.29388,22.33478 -15.5986,30.12899 -6.08089,8.9343 -17.62365,18.28659 -23.70136,27.85773 -4.72704,7.44429 -8.05697,16.96645 -8.05697,16.96645 0,0 -2.50609,-26.72273 -2.82197,-30.2467 -0.5353,-5.97897 -1.15396,-11.18075 1.70861,-17.4207 1.60897,-3.5073 5.99068,-6.85834 7.24643,-7.58808 2.37433,-1.37943 4.53166,-1.38254 5.73702,-0.89852 1.20536,0.48403 2.19734,1.7053 2.60547,3.12889 0.40813,1.42358 -0.004,3.49737 -0.004,3.49737 0,0 3.0295,-3.38814 3.26808,-5.30695 2.13792,-6.61086 -1.07379,-9.00937 -3.87064,-12.71147 0,0 -5.32437,6.22003 -7.51491,7.8661 -4.33125,3.25453 -9.86762,4.04973 -9.86762,4.04973 0,0 2.83171,-2.44801 3.7315,-4.25033 0.91735,-1.8375 1.18024,-6.27258 0.36393,-9.78173 -0.78629,-3.38025 -2.5972,-5.09184 -4.83558,-9.22059 -2.78539,-5.13759 -2.86123,-8.80705 -3.24104,-11.09932 -1.22331,-7.38258 -0.80907,-16.67824 2.80944,-26.16604 2.51773,-6.60132 4.55577,-9.92106 4.4513,-9.69012 l 46.07369,-3.19339 z"
       id="path1414"
       style="stroke:#ffffff;stroke-width:4.58224" />
    <path
       d="m 394.25316,612.77073 c 0,0 -11.85768,13.78094 -10.91609,25.26708 0.94159,11.48613 9.2066,18.99277 10.38295,20.31927 1.17635,1.3265 9.43627,4.78583 13.21599,11.44542 1.77013,3.11845 4.67824,18.04291 4.67824,18.04291 l 9.42418,-16.5739 c 2.14625,-3.77457 7.27061,-17.64083 -4.45557,-29.1645 -10.57572,-10.39377 -13.99089,-0.52219 -13.99089,-0.52219 0,0 -4.77164,-7.44493 3.4431,-19.6398 5.86471,-8.7059 15.91925,-11.9792 15.91925,-11.9792 l -27.70122,2.8041 z"
       id="path1416"
       style="stroke:#ffffff;stroke-width:4.58224" />
    <path
       d="m 392.56084,665.92607 c -1.09504,4.00361 -2.19632,5.16259 -3.85664,7.20953 -1.77731,2.19156 -3.97828,4.6402 -7.37558,7.14273 -3.16025,2.32758 -8.32735,3.12869 -8.32735,3.12869 0,0 3.28303,-2.2705 3.79582,-5.78162 0.56603,-3.87573 0.68481,-5.86089 -0.33672,-9.53488 -1.06819,-3.84163 -7.0263,-9.51579 -7.82602,-18.97242 -0.6864,-8.11422 0.24129,-20.38989 2.19098,-24.81919 1.94969,-4.42929 4.04452,-10.25252 4.04452,-10.25252 l 18.48826,-1.50209 c 0,0 -4.16329,5.80134 -6.71838,11.52558 -2.55508,5.72423 -3.63867,12.03964 -3.39246,15.04382 0.24621,3.00418 2.28565,8.35217 3.7544,11.07833 1.46876,2.72616 4.24696,6.23434 5.01175,6.88315 1.39113,2.88534 1.03091,6.1589 0.54747,8.85032 z"
       id="path1418"
       style="stroke:#ffffff;stroke-width:4.58224" />
    <path
       d="m 622.80411,357.32546 c 0,0 5.40161,11.17248 13.9419,17.21648 4.56029,3.2273 6.78455,3.33234 12.16052,3.63066 3.49203,0.19374 6.07097,-1.44999 6.07097,-1.44999 -14.0526,-8.37825 7.52064,-24.21033 21.90599,-20.9154 8.46731,2.25435 22.33478,10.29388 30.12899,15.5986 8.9343,6.08089 18.28659,17.62365 27.85773,23.70136 7.44429,4.72704 16.96645,8.05697 16.96645,8.05697 0,0 -26.72273,2.50609 -30.2467,2.82197 -5.97897,0.5353 -11.18075,1.15396 -17.4207,-1.70861 -3.5073,-1.60897 -6.85834,-5.99068 -7.58808,-7.24643 -1.37943,-2.37433 -1.38254,-4.53166 -0.89852,-5.73702 0.48403,-1.20536 1.7053,-2.19734 3.12889,-2.60547 1.42358,-0.40813 3.49737,0.004 3.49737,0.004 0,0 -3.38814,-3.0295 -5.30695,-3.26808 -6.61086,-2.13792 -9.00937,1.07379 -12.71147,3.87064 0,0 6.22003,5.32437 7.8661,7.51491 3.25453,4.33125 4.04973,9.86762 4.04973,9.86762 0,0 -2.44801,-2.83171 -4.25033,-3.7315 -1.8375,-0.91735 -6.27258,-1.18024 -9.78173,-0.36393 -3.38025,0.78629 -5.09184,2.5972 -9.22059,4.83558 -5.13759,2.78539 -8.80705,2.86123 -11.09932,3.24104 -7.38258,1.22331 -16.67824,0.80907 -26.16604,-2.80944 -6.60132,-2.51773 -9.92106,-4.55577 -9.69012,-4.4513 l -3.19339,-46.07369 z"
       id="path1422"
       style="stroke:#ffffff;stroke-width:4.58224" />
    <path
       d="m 625.52073,385.12784 c 0,0 13.78094,11.85768 25.26708,10.91609 11.48613,-0.94159 18.99277,-9.2066 20.31927,-10.38295 1.3265,-1.17635 4.78583,-9.43627 11.44542,-13.21599 3.11845,-1.77013 18.04291,-4.67824 18.04291,-4.67824 l -16.5739,-9.42418 c -3.77457,-2.14625 -17.64083,-7.27061 -29.1645,4.45557 -10.39377,10.57572 -0.52219,13.99089 -0.52219,13.99089 0,0 -7.44493,4.77164 -19.6398,-3.4431 -8.7059,-5.86471 -11.9792,-15.91925 -11.9792,-15.91925 l 2.8041,27.70122 z"
       id="path1424"
       style="stroke:#ffffff;stroke-width:4.58224" />
    <path
       d="m 678.67607,386.82016 c 4.00361,1.09504 5.16259,2.19632 7.20953,3.85664 2.19156,1.77731 4.6402,3.97828 7.14273,7.37558 2.32758,3.16025 3.12869,8.32735 3.12869,8.32735 0,0 -2.2705,-3.28303 -5.78162,-3.79582 -3.87573,-0.56603 -5.86089,-0.68481 -9.53488,0.33672 -3.84163,1.06819 -9.51579,7.0263 -18.97242,7.82602 -8.11422,0.6864 -20.38989,-0.24129 -24.81919,-2.19098 -4.42929,-1.94969 -10.25252,-4.04452 -10.25252,-4.04452 l -1.50209,-18.48826 c 0,0 5.80134,4.16329 11.52558,6.71838 5.72423,2.55508 12.03964,3.63867 15.04382,3.39246 3.00418,-0.24621 8.35217,-2.28565 11.07833,-3.7544 2.72616,-1.46876 6.23434,-4.24696 6.88315,-5.01175 2.88534,-1.39113 6.1589,-1.03091 8.85032,-0.54747 z"
       id="path1426"
       style="stroke:#ffffff;stroke-width:4.58224" />
    <path
       d="m 618.05563,385.57237 c 0,124.34089 -100.79475,225.13564 -225.13563,225.13564 -124.34089,0 -225.13564,-100.79475 -225.13564,-225.13564 0,-124.34088 100.79475,-225.13563 225.13564,-225.13563 124.34088,0 225.13563,100.79475 225.13563,225.13563 z"
       stroke-width="12.7242"
       id="path1430"
       style="stroke:#ffffff" />
    <path
       d="m 626.74616,385.56513 c 0,129.14089 -104.68579,233.82668 -233.82668,233.82668 -129.14089,0 -233.82668,-104.68579 -233.82668,-233.82668 0,-129.14089 104.68579,-233.82668 233.82668,-233.82668 129.14089,0 233.82668,104.68579 233.82668,233.82668 z"
       stroke-width="12.7238"
       id="path1432"
       style="stroke:#ffffff" />
    <path
       d="m 438.13813,523.15627 c 0,0 7.93293,0.34869 13.64554,3.83938 3.05036,1.86394 3.67473,3.14467 5.20992,6.22892 0.99718,2.00342 0.68344,3.93496 0.68344,3.93496 -8.47891,-6.14008 -12.32718,10.54426 -6.75181,18.16573 3.4668,4.4064 11.6998,10.52334 16.78918,13.76253 5.83396,3.71293 14.98384,6.28994 20.97703,10.37798 4.66134,3.17965 9.02713,7.93395 9.02713,7.93395 0,0 -5.2866,-16.3401 -5.99233,-18.4912 -1.19777,-3.64953 -2.14995,-6.86334 -5.41081,-9.80676 -1.83285,-1.65441 -5.25583,-2.51561 -6.17848,-2.62687 -1.74443,-0.21016 -3.01318,0.3337 -3.59919,0.92309 -0.58602,0.58938 -0.86013,1.5581 -0.73991,2.49804 0.12023,0.93994 0.88729,2.05444 0.88729,2.05444 0,0 -2.63762,-1.22505 -3.2632,-2.29247 -2.92878,-3.34472 -1.64782,-5.56684 -0.94043,-8.4502 0,0 4.70274,2.30899 6.4066,2.72236 3.36891,0.81725 6.82403,-0.11581 6.82403,-0.11581 0,0 -2.28355,-0.72252 -3.26829,-1.55423 -1.00397,-0.84794 -2.28034,-3.38814 -2.6882,-5.65711 -0.3929,-2.18563 0.23851,-3.64968 0.50973,-6.64254 0.33755,-3.72416 -0.54607,-5.90006 -0.90267,-7.3434 -1.14844,-4.64852 -3.74325,-10.00723 -8.26996,-14.66835 -3.1496,-3.24303 -5.18719,-4.67867 -5.06737,-4.56936 l -27.88741,9.77748 z"
       id="path1436"
       style="stroke:#ffffff;stroke-width:2.93202" />
    <path
       d="m 455.16604,517.72031 c 0,0 10.45521,5.10029 12.80723,12.0894 2.35201,6.98911 -0.6069,13.49175 -0.96276,14.56895 -0.35585,1.0772 -4.33555,5.19977 -4.87251,10.07 -0.25158,2.28061 1.81435,11.78802 1.81435,11.78802 l -9.73141,-7.35739 c -2.21624,-1.67559 -8.73554,-8.52923 -4.75845,-18.26837 3.58673,-8.78403 8.09101,-3.84592 8.09101,-3.84592 0,0 0.92131,-5.58272 -6.99158,-10.67228 -5.64913,-3.63338 -12.38663,-3.01394 -12.38663,-3.01394 l 16.99059,-5.35896 z"
       id="path1438"
       style="stroke:#ffffff;stroke-width:2.93202" />
    <path
       d="m 469.6064,548.53409 c 1.65632,2.07611 2.59676,2.47873 4.09038,3.26183 1.59897,0.83851 3.51197,1.72095 6.14173,2.33246 2.44619,0.56863 5.68578,-0.26754 5.68578,-0.26754 0,0 -2.50392,-0.50404 -3.69345,-2.43797 -1.31305,-2.13477 -1.88501,-3.27149 -2.21395,-5.68926 -0.34392,-2.52811 1.72265,-7.37018 -0.19938,-13.13057 -1.64907,-4.94273 -5.29946,-11.92305 -7.56578,-14.03317 -2.26632,-2.11013 -4.97054,-5.00282 -4.97054,-5.00282 l -11.24636,3.79378 c 0,0 3.91442,2.35661 6.86411,5.07469 2.94969,2.71809 5.18406,6.15585 5.79926,7.98382 0.6152,1.82798 0.76931,5.48711 0.59564,7.46093 -0.17367,1.97381 -0.91915,4.73848 -1.20454,5.31327 -0.0878,2.04774 0.95199,3.88064 1.91692,5.34023 z"
       id="path1440"
       style="stroke:#ffffff;stroke-width:2.93202" />
    <path
       d="m 535.90627,341.24187 c 0,0 0.34869,-7.93293 3.83938,-13.64554 1.86394,-3.05036 3.14467,-3.67473 6.22892,-5.20992 2.00342,-0.99718 3.93496,-0.68344 3.93496,-0.68344 -6.14008,8.47891 10.54426,12.32718 18.16573,6.75181 4.4064,-3.4668 10.52334,-11.6998 13.76253,-16.78918 3.71293,-5.83396 6.28994,-14.98384 10.37798,-20.97703 3.17965,-4.66134 7.93395,-9.02713 7.93395,-9.02713 0,0 -16.3401,5.2866 -18.4912,5.99233 -3.64953,1.19777 -6.86334,2.14995 -9.80676,5.41081 -1.65441,1.83285 -2.51561,5.25583 -2.62687,6.17848 -0.21016,1.74443 0.3337,3.01318 0.92309,3.59919 0.58938,0.58602 1.5581,0.86013 2.49804,0.73991 0.93994,-0.12023 2.05444,-0.88729 2.05444,-0.88729 0,0 -1.22505,2.63762 -2.29247,3.2632 -3.34472,2.92878 -5.56684,1.64782 -8.4502,0.94043 0,0 2.30899,-4.70274 2.72236,-6.4066 0.81725,-3.36891 -0.11581,-6.82403 -0.11581,-6.82403 0,0 -0.72252,2.28355 -1.55423,3.26829 -0.84794,1.00397 -3.38814,2.28034 -5.65711,2.6882 -2.18563,0.3929 -3.64968,-0.23851 -6.64254,-0.50973 -3.72416,-0.33755 -5.90006,0.54607 -7.3434,0.90267 -4.64852,1.14844 -10.00723,3.74325 -14.66835,8.26996 -3.24303,3.1496 -4.67867,5.18719 -4.56936,5.06737 l 9.77748,27.88741 z"
       id="path1444"
       style="stroke:#ffffff;stroke-width:2.93202" />
    <path
       d="m 530.47031,324.21396 c 0,0 5.10029,-10.45521 12.0894,-12.80723 6.98911,-2.35201 13.49175,0.6069 14.56895,0.96276 1.0772,0.35585 5.19977,4.33555 10.07,4.87251 2.28061,0.25158 11.78802,-1.81435 11.78802,-1.81435 l -7.35739,9.73141 c -1.67559,2.21624 -8.52923,8.73554 -18.26837,4.75845 -8.78403,-3.58673 -3.84592,-8.09101 -3.84592,-8.09101 0,0 -5.58272,-0.92131 -10.67228,6.99158 -3.63338,5.64913 -3.01394,12.38663 -3.01394,12.38663 l -5.35896,-16.99059 z"
       id="path1446"
       style="stroke:#ffffff;stroke-width:2.93202" />
    <path
       d="m 561.28409,309.7736 c 2.07611,-1.65632 2.47873,-2.59676 3.26183,-4.09038 0.83851,-1.59897 1.72095,-3.51197 2.33246,-6.14173 0.56863,-2.44619 -0.26754,-5.68578 -0.26754,-5.68578 0,0 -0.50404,2.50392 -2.43797,3.69345 -2.13477,1.31305 -3.27149,1.88501 -5.68926,2.21395 -2.52811,0.34392 -7.37018,-1.72265 -13.13057,0.19938 -4.94273,1.64907 -11.92305,5.29946 -14.03317,7.56578 -2.11013,2.26632 -5.00282,4.97054 -5.00282,4.97054 l 3.79378,11.24636 c 0,0 2.35661,-3.91442 5.07469,-6.86411 2.71809,-2.94969 6.15585,-5.18406 7.98382,-5.79926 1.82798,-0.6152 5.48711,-0.76931 7.46093,-0.59564 1.97381,0.17367 4.73848,0.91915 5.31327,1.20454 2.04774,0.0878 3.88064,-0.95199 5.34023,-1.91692 z"
       id="path1448"
       style="stroke:#ffffff;stroke-width:2.93202" />
    <path
       d="m 256.22373,425.38813 c 0,0 -0.34869,7.93293 -3.83938,13.64554 -1.86394,3.05036 -3.14467,3.67473 -6.22892,5.20992 -2.00342,0.99718 -3.93496,0.68344 -3.93496,0.68344 6.14008,-8.47891 -10.54426,-12.32718 -18.16573,-6.75181 -4.4064,3.4668 -10.52334,11.6998 -13.76253,16.78918 -3.71293,5.83396 -6.28994,14.98384 -10.37798,20.97703 -3.17965,4.66134 -7.93395,9.02713 -7.93395,9.02713 0,0 16.3401,-5.2866 18.4912,-5.99233 3.64953,-1.19777 6.86334,-2.14995 9.80676,-5.41081 1.65441,-1.83285 2.51561,-5.25583 2.62687,-6.17848 0.21016,-1.74443 -0.3337,-3.01318 -0.92309,-3.59919 -0.58938,-0.58602 -1.5581,-0.86013 -2.49804,-0.73991 -0.93994,0.12023 -2.05444,0.88729 -2.05444,0.88729 0,0 1.22505,-2.63762 2.29247,-3.2632 3.34472,-2.92878 5.56684,-1.64782 8.4502,-0.94043 0,0 -2.30899,4.70274 -2.72236,6.4066 -0.81725,3.36891 0.11581,6.82403 0.11581,6.82403 0,0 0.72252,-2.28355 1.55423,-3.26829 0.84794,-1.00397 3.38814,-2.28034 5.65711,-2.6882 2.18563,-0.3929 3.64968,0.23851 6.64254,0.50973 3.72416,0.33755 5.90006,-0.54607 7.3434,-0.90267 4.64852,-1.14844 10.00723,-3.74325 14.66835,-8.26996 3.24303,-3.1496 4.67867,-5.18719 4.56936,-5.06737 l -9.77748,-27.88741 z"
       id="path1452"
       style="stroke:#ffffff;stroke-width:2.93202" />
    <path
       d="m 261.65969,442.41604 c 0,0 -5.10029,10.45521 -12.0894,12.80723 -6.98911,2.35201 -13.49175,-0.6069 -14.56895,-0.96276 -1.0772,-0.35585 -5.19977,-4.33555 -10.07,-4.87251 -2.28061,-0.25158 -11.78802,1.81435 -11.78802,1.81435 l 7.35739,-9.73141 c 1.67559,-2.21624 8.52923,-8.73554 18.26837,-4.75845 8.78403,3.58673 3.84592,8.09101 3.84592,8.09101 0,0 5.58272,0.92131 10.67228,-6.99158 3.63338,-5.64913 3.01394,-12.38663 3.01394,-12.38663 l 5.35896,16.99059 z"
       id="path1454"
       style="stroke:#ffffff;stroke-width:2.93202" />
    <path
       d="m 230.84591,456.8564 c -2.07611,1.65632 -2.47873,2.59676 -3.26183,4.09038 -0.83851,1.59897 -1.72095,3.51197 -2.33246,6.14173 -0.56863,2.44619 0.26754,5.68578 0.26754,5.68578 0,0 0.50404,-2.50392 2.43797,-3.69345 2.13477,-1.31305 3.27149,-1.88501 5.68926,-2.21395 2.52811,-0.34392 7.37018,1.72265 13.13057,-0.19938 4.94273,-1.64907 11.92305,-5.29946 14.03317,-7.56578 2.11013,-2.26632 5.00282,-4.97054 5.00282,-4.97054 l -3.79378,-11.24636 c 0,0 -2.35661,3.91442 -5.07469,6.86411 -2.71809,2.94969 -6.15585,5.18406 -7.98382,5.79926 -1.82798,0.6152 -5.48711,0.76931 -7.46093,0.59564 -1.97381,-0.17367 -4.73848,-0.91915 -5.31327,-1.20454 -2.04774,-0.0878 -3.88064,0.95199 -5.34023,1.91692 z"
       id="path1456"
       style="stroke:#ffffff;stroke-width:2.93202" />
    <path
       d="m 353.99187,243.47373 c 0,0 -7.93293,-0.34869 -13.64554,-3.83938 -3.05036,-1.86394 -3.67473,-3.14467 -5.20992,-6.22892 -0.99718,-2.00342 -0.68344,-3.93496 -0.68344,-3.93496 8.47891,6.14008 12.32718,-10.54426 6.75181,-18.16573 -3.4668,-4.4064 -11.6998,-10.52334 -16.78918,-13.76253 -5.83396,-3.71293 -14.98384,-6.28994 -20.97703,-10.37798 -4.66134,-3.17965 -9.02713,-7.93395 -9.02713,-7.93395 0,0 5.2866,16.3401 5.99233,18.4912 1.19777,3.64953 2.14995,6.86334 5.41081,9.80676 1.83285,1.65441 5.25583,2.51561 6.17848,2.62687 1.74443,0.21016 3.01318,-0.3337 3.59919,-0.92309 0.58602,-0.58938 0.86013,-1.5581 0.73991,-2.49804 -0.12023,-0.93994 -0.88729,-2.05444 -0.88729,-2.05444 0,0 2.63762,1.22505 3.2632,2.29247 2.92878,3.34472 1.64782,5.56684 0.94043,8.4502 0,0 -4.70274,-2.30899 -6.4066,-2.72236 -3.36891,-0.81725 -6.82403,0.11581 -6.82403,0.11581 0,0 2.28355,0.72252 3.26829,1.55423 1.00397,0.84794 2.28034,3.38814 2.6882,5.65711 0.3929,2.18563 -0.23851,3.64968 -0.50973,6.64254 -0.33755,3.72416 0.54607,5.90006 0.90267,7.3434 1.14844,4.64852 3.74325,10.00723 8.26996,14.66835 3.1496,3.24303 5.18719,4.67867 5.06737,4.56936 l 27.88741,-9.77748 z"
       id="path1460"
       style="stroke:#ffffff;stroke-width:2.93202" />
    <path
       d="m 336.96396,248.90969 c 0,0 -10.45521,-5.10029 -12.80723,-12.0894 -2.35201,-6.98911 0.6069,-13.49175 0.96276,-14.56895 0.35585,-1.0772 4.33555,-5.19977 4.87251,-10.07 0.25158,-2.28061 -1.81435,-11.78802 -1.81435,-11.78802 l 9.73141,7.35739 c 2.21624,1.67559 8.73554,8.52923 4.75845,18.26837 -3.58673,8.78403 -8.09101,3.84592 -8.09101,3.84592 0,0 -0.92131,5.58272 6.99158,10.67228 5.64913,3.63338 12.38663,3.01394 12.38663,3.01394 l -16.99059,5.35896 z"
       id="path1462"
       style="stroke:#ffffff;stroke-width:2.93202" />
    <path
       d="m 322.5236,218.09591 c -1.65632,-2.07611 -2.59676,-2.47873 -4.09038,-3.26183 -1.59897,-0.83851 -3.51197,-1.72095 -6.14173,-2.33246 -2.44619,-0.56863 -5.68578,0.26754 -5.68578,0.26754 0,0 2.50392,0.50404 3.69345,2.43797 1.31305,2.13477 1.88501,3.27149 2.21395,5.68926 0.34392,2.52811 -1.72265,7.37018 0.19938,13.13057 1.64907,4.94273 5.29946,11.92305 7.56578,14.03317 2.26632,2.11013 4.97054,5.00282 4.97054,5.00282 l 11.24636,-3.79378 c 0,0 -3.91442,-2.35661 -6.86411,-5.07469 -2.94969,-2.71809 -5.18406,-6.15585 -5.79926,-7.98382 -0.6152,-1.82798 -0.76931,-5.48711 -0.59564,-7.46093 0.17367,-1.97381 0.91915,-4.73848 1.20454,-5.31327 0.0878,-2.04774 -0.95199,-3.88064 -1.91692,-5.34023 z"
       id="path1464"
       style="stroke:#ffffff;stroke-width:2.93202" />
    <path
       d="m 523.22231,455.12602 c 0,0 5.96702,-5.23914 12.50626,-6.67369 3.49177,-0.766 4.82887,-0.27378 8.07169,0.88972 2.1064,0.75579 3.21687,2.36707 3.21687,2.36707 -10.36962,1.43703 -1.59903,16.14274 7.70028,17.78461 5.55211,0.78081 15.72823,-0.50271 21.64356,-1.68743 6.78065,-1.35815 15.16837,-5.83128 22.32357,-7.02889 5.56518,-0.93142 12.00695,-0.52175 12.00695,-0.52175 0,0 -15.12552,-8.13452 -17.12379,-9.19862 -3.39053,-1.80505 -6.30223,-3.4656 -10.69309,-3.33303 -2.46798,0.0745 -5.53465,1.82217 -6.27758,2.38048 -1.40454,1.05573 -1.94383,2.32644 -1.95885,3.15744 -0.015,0.83101 0.45764,1.71992 1.195,2.31512 0.73735,0.5952 2.06239,0.86868 2.06239,0.86868 0,0 -2.75164,0.94144 -3.94199,0.60402 -4.42894,-0.38692 -5.04244,-2.87739 -6.5276,-5.44811 0,0 4.99244,-1.58848 6.50833,-2.46945 2.99721,-1.74195 4.84517,-4.80687 4.84517,-4.80687 0,0 -2.14828,1.05908 -3.4347,1.14038 -1.31153,0.0829 -3.99097,-0.86709 -5.85583,-2.22244 -1.79636,-1.30556 -2.35399,-2.79928 -4.22974,-5.14714 -2.33407,-2.92159 -4.47789,-3.88047 -5.73428,-4.6754 -4.04639,-2.56023 -9.62828,-4.63193 -16.12169,-4.86296 -4.51794,-0.16069 -6.98227,0.21344 -6.82013,0.2094 l -13.36054,26.35938 z"
       id="path1468"
       style="stroke:#ffffff;stroke-width:2.93205" />
    <path
       d="m 531.74988,439.41663 c 0,0 11.07635,-3.55543 17.61148,-0.13891 6.53512,3.41651 8.90032,10.15789 9.38907,11.18168 0.48874,1.02379 0.4698,6.75386 3.45319,10.64067 1.39696,1.82018 9.46865,7.25233 9.46865,7.25233 l -12.1162,1.42534 c -2.75936,0.3246 -12.20851,-0.10973 -16.07898,-9.89182 -3.49114,-8.82254 3.17781,-8.37606 3.17781,-8.37606 0,0 -3.19914,-4.66708 -12.43311,-2.8636 -6.59218,1.28764 -11.0263,6.39811 -11.0263,6.39811 l 8.55393,-15.62798 z"
       id="path1470"
       style="stroke:#ffffff;stroke-width:2.93205" />
    <path
       d="m 563.50023,451.66188 c 2.63246,0.35203 3.58991,-0.008 5.20997,-0.47691 1.73445,-0.50153 3.72596,-1.1887 6.04728,-2.56755 2.15915,-1.28271 3.9186,-4.12852 3.9186,-4.12852 0,0 -2.1561,1.3693 -4.35324,0.7968 -2.42529,-0.63196 -3.6249,-1.05652 -5.53579,-2.5739 -1.99806,-1.58664 -3.85795,-6.51185 -9.23227,-9.33913 -4.61136,-2.42606 -12.07752,-4.93756 -15.17379,-4.89192 -3.09628,0.0456 -7.05026,-0.17047 -7.05026,-0.17047 l -5.49132,10.52241 c 0,0 4.45641,-1.00847 8.46672,-1.0883 4.01031,-0.0798 8.00244,0.85489 9.71171,1.74844 1.70927,0.89355 4.35318,3.42791 5.59401,4.97273 1.24084,1.54483 2.61636,4.05625 2.80822,4.66864 1.35399,1.53874 3.3731,2.14198 5.07981,2.52757 z"
       id="path1472"
       style="stroke:#ffffff;stroke-width:2.93205" />
    <path
       d="m 467.87602,256.15769 c 0,0 -5.23914,-5.96702 -6.67369,-12.50626 -0.766,-3.49177 -0.27378,-4.82887 0.88972,-8.07169 0.75579,-2.1064 2.36707,-3.21687 2.36707,-3.21687 1.43703,10.36962 16.14274,1.59903 17.78461,-7.70028 0.78081,-5.55211 -0.50271,-15.72823 -1.68743,-21.64356 -1.35815,-6.78065 -5.83128,-15.16837 -7.02889,-22.32357 -0.93142,-5.56518 -0.52175,-12.00695 -0.52175,-12.00695 0,0 -8.13452,15.12552 -9.19862,17.12379 -1.80505,3.39053 -3.4656,6.30223 -3.33303,10.69309 0.0745,2.46798 1.82217,5.53465 2.38048,6.27758 1.05573,1.40454 2.32644,1.94383 3.15744,1.95885 0.83101,0.015 1.71992,-0.45764 2.31512,-1.195 0.5952,-0.73735 0.86868,-2.06239 0.86868,-2.06239 0,0 0.94144,2.75164 0.60402,3.94199 -0.38692,4.42894 -2.87739,5.04244 -5.44811,6.5276 0,0 -1.58848,-4.99244 -2.46945,-6.50833 -1.74195,-2.99721 -4.80687,-4.84517 -4.80687,-4.84517 0,0 1.05908,2.14828 1.14038,3.4347 0.0829,1.31153 -0.86709,3.99097 -2.22244,5.85583 -1.30556,1.79636 -2.79928,2.35399 -5.14714,4.22974 -2.92159,2.33407 -3.88047,4.47789 -4.6754,5.73428 -2.56023,4.04639 -4.63193,9.62828 -4.86296,16.12169 -0.16069,4.51794 0.21344,6.98227 0.2094,6.82013 l 26.35938,13.36054 z"
       id="path1476"
       style="stroke:#ffffff;stroke-width:2.93205" />
    <path
       d="m 452.16663,247.63012 c 0,0 -3.55543,-11.07635 -0.13891,-17.61148 3.41651,-6.53512 10.15789,-8.90032 11.18168,-9.38907 1.02379,-0.48874 6.75386,-0.4698 10.64067,-3.45319 1.82018,-1.39696 7.25233,-9.46865 7.25233,-9.46865 l 1.42534,12.1162 c 0.3246,2.75936 -0.10973,12.20851 -9.89182,16.07898 -8.82254,3.49114 -8.37606,-3.17781 -8.37606,-3.17781 0,0 -4.66708,3.19914 -2.8636,12.43311 1.28764,6.59218 6.39811,11.0263 6.39811,11.0263 l -15.62798,-8.55393 z"
       id="path1478"
       style="stroke:#ffffff;stroke-width:2.93205" />
    <path
       d="m 464.41188,215.87977 c 0.35203,-2.63246 -0.008,-3.58991 -0.47691,-5.20997 -0.50153,-1.73445 -1.1887,-3.72596 -2.56755,-6.04728 -1.28271,-2.15915 -4.12852,-3.9186 -4.12852,-3.9186 0,0 1.3693,2.1561 0.7968,4.35324 -0.63196,2.42529 -1.05652,3.6249 -2.5739,5.53579 -1.58664,1.99806 -6.51185,3.85795 -9.33913,9.23227 -2.42606,4.61136 -4.93756,12.07752 -4.89192,15.17379 0.0456,3.09628 -0.17047,7.05026 -0.17047,7.05026 l 10.52241,5.49132 c 0,0 -1.00847,-4.45641 -1.0883,-8.46672 -0.0798,-4.01031 0.85489,-8.00244 1.74844,-9.71171 0.89355,-1.70927 3.42791,-4.35318 4.97273,-5.59401 1.54483,-1.24084 4.05625,-2.61636 4.66864,-2.80822 1.53874,-1.35399 2.14198,-3.3731 2.52757,-5.07981 z"
       id="path1480"
       style="stroke:#ffffff;stroke-width:2.93205" />
    <path
       d="m 324.25398,510.47231 c 0,0 5.23914,5.96702 6.67369,12.50626 0.766,3.49177 0.27378,4.82887 -0.88972,8.07169 -0.75579,2.1064 -2.36707,3.21687 -2.36707,3.21687 -1.43703,-10.36962 -16.14274,-1.59903 -17.78461,7.70028 -0.78081,5.55211 0.50271,15.72823 1.68743,21.64356 1.35815,6.78065 5.83128,15.16837 7.02889,22.32357 0.93142,5.56518 0.52175,12.00695 0.52175,12.00695 0,0 8.13452,-15.12552 9.19862,-17.12379 1.80505,-3.39053 3.4656,-6.30223 3.33303,-10.69309 -0.0745,-2.46798 -1.82217,-5.53465 -2.38048,-6.27758 -1.05573,-1.40454 -2.32644,-1.94383 -3.15744,-1.95885 -0.83101,-0.015 -1.71992,0.45764 -2.31512,1.195 -0.5952,0.73735 -0.86868,2.06239 -0.86868,2.06239 0,0 -0.94144,-2.75164 -0.60402,-3.94199 0.38692,-4.42894 2.87739,-5.04244 5.44811,-6.5276 0,0 1.58848,4.99244 2.46945,6.50833 1.74195,2.99721 4.80687,4.84517 4.80687,4.84517 0,0 -1.05908,-2.14828 -1.14038,-3.4347 -0.0829,-1.31153 0.86709,-3.99097 2.22244,-5.85583 1.30556,-1.79636 2.79928,-2.35399 5.14714,-4.22974 2.92159,-2.33407 3.88047,-4.47789 4.6754,-5.73428 2.56023,-4.04639 4.63193,-9.62828 4.86296,-16.12169 0.16069,-4.51794 -0.21344,-6.98227 -0.2094,-6.82013 l -26.35938,-13.36054 z"
       id="path1484"
       style="stroke:#ffffff;stroke-width:2.93205" />
    <path
       d="m 339.96337,518.99988 c 0,0 3.55543,11.07635 0.13891,17.61148 -3.41651,6.53512 -10.15789,8.90032 -11.18168,9.38907 -1.02379,0.48874 -6.75386,0.4698 -10.64067,3.45319 -1.82018,1.39696 -7.25233,9.46865 -7.25233,9.46865 l -1.42534,-12.1162 c -0.3246,-2.75936 0.10973,-12.20851 9.89182,-16.07898 8.82254,-3.49114 8.37606,3.17781 8.37606,3.17781 0,0 4.66708,-3.19914 2.8636,-12.43311 -1.28764,-6.59218 -6.39811,-11.0263 -6.39811,-11.0263 l 15.62798,8.55393 z"
       id="path1486"
       style="stroke:#ffffff;stroke-width:2.93205" />
    <path
       d="m 327.71812,550.75023 c -0.35203,2.63246 0.008,3.58991 0.47691,5.20997 0.50153,1.73445 1.1887,3.72596 2.56755,6.04728 1.28271,2.15915 4.12852,3.9186 4.12852,3.9186 0,0 -1.3693,-2.1561 -0.7968,-4.35324 0.63196,-2.42529 1.05652,-3.6249 2.5739,-5.53579 1.58664,-1.99806 6.51185,-3.85795 9.33913,-9.23227 2.42606,-4.61136 4.93756,-12.07752 4.89192,-15.17379 -0.0456,-3.09628 0.17047,-7.05026 0.17047,-7.05026 l -10.52241,-5.49132 c 0,0 1.00847,4.45641 1.0883,8.46672 0.0798,4.01031 -0.85489,8.00244 -1.74844,9.71171 -0.89355,1.70927 -3.42791,4.35318 -4.97273,5.59401 -1.54483,1.24084 -4.05625,2.61636 -4.66864,2.80822 -1.53874,1.35399 -2.14198,3.3731 -2.52757,5.07981 z"
       id="path1488"
       style="stroke:#ffffff;stroke-width:2.93205" />
    <path
       d="m 268.90769,311.50398 c 0,0 -5.96702,5.23914 -12.50626,6.67369 -3.49177,0.766 -4.82887,0.27378 -8.07169,-0.88972 -2.1064,-0.75579 -3.21687,-2.36707 -3.21687,-2.36707 10.36962,-1.43703 1.59903,-16.14274 -7.70028,-17.78461 -5.55211,-0.78081 -15.72823,0.50271 -21.64356,1.68743 -6.78065,1.35815 -15.16837,5.83128 -22.32357,7.02889 -5.56518,0.93142 -12.00695,0.52175 -12.00695,0.52175 0,0 15.12552,8.13452 17.12379,9.19862 3.39053,1.80505 6.30223,3.4656 10.69309,3.33303 2.46798,-0.0745 5.53465,-1.82217 6.27758,-2.38048 1.40454,-1.05573 1.94383,-2.32644 1.95885,-3.15744 0.015,-0.83101 -0.45764,-1.71992 -1.195,-2.31512 -0.73735,-0.5952 -2.06239,-0.86868 -2.06239,-0.86868 0,0 2.75164,-0.94144 3.94199,-0.60402 4.42894,0.38692 5.04244,2.87739 6.5276,5.44811 0,0 -4.99244,1.58848 -6.50833,2.46945 -2.99721,1.74195 -4.84517,4.80687 -4.84517,4.80687 0,0 2.14828,-1.05908 3.4347,-1.14038 1.31153,-0.0829 3.99097,0.86709 5.85583,2.22244 1.79636,1.30556 2.35399,2.79928 4.22974,5.14714 2.33407,2.92159 4.47789,3.88047 5.73428,4.6754 4.04639,2.56023 9.62828,4.63193 16.12169,4.86296 4.51794,0.16069 6.98227,-0.21344 6.82013,-0.2094 l 13.36054,-26.35938 z"
       id="path1492"
       style="stroke:#ffffff;stroke-width:2.93205" />
    <path
       d="m 260.38012,327.21337 c 0,0 -11.07635,3.55543 -17.61148,0.13891 -6.53512,-3.41651 -8.90032,-10.15789 -9.38907,-11.18168 -0.48874,-1.02379 -0.4698,-6.75386 -3.45319,-10.64067 -1.39696,-1.82018 -9.46865,-7.25233 -9.46865,-7.25233 l 12.1162,-1.42534 c 2.75936,-0.3246 12.20851,0.10973 16.07898,9.89182 3.49114,8.82254 -3.17781,8.37606 -3.17781,8.37606 0,0 3.19914,4.66708 12.43311,2.8636 6.59218,-1.28764 11.0263,-6.39811 11.0263,-6.39811 l -8.55393,15.62798 z"
       id="path1494"
       style="stroke:#ffffff;stroke-width:2.93205" />
    <path
       d="m 228.62977,314.96812 c -2.63246,-0.35203 -3.58991,0.008 -5.20997,0.47691 -1.73445,0.50153 -3.72596,1.1887 -6.04728,2.56755 -2.15915,1.28271 -3.9186,4.12852 -3.9186,4.12852 0,0 2.1561,-1.3693 4.35324,-0.7968 2.42529,0.63196 3.6249,1.05652 5.53579,2.5739 1.99806,1.58664 3.85795,6.51185 9.23227,9.33913 4.61136,2.42606 12.07752,4.93756 15.17379,4.89192 3.09628,-0.0456 7.05026,0.17047 7.05026,0.17047 l 5.49132,-10.52241 c 0,0 -4.45641,1.00847 -8.46672,1.0883 -4.01031,0.0798 -8.00244,-0.85489 -9.71171,-1.74844 -1.70927,-0.89355 -4.35318,-3.42791 -5.59401,-4.97273 -1.24084,-1.54483 -2.61636,-4.05625 -2.80822,-4.66864 -1.35399,-1.53874 -3.3731,-2.14198 -5.07981,-2.52757 z"
       id="path1496"
       style="stroke:#ffffff;stroke-width:2.93205" />
    <path
       d="m 486.88946,497.67133 c 0,0 7.49913,-2.61109 14.09794,-1.48162 3.52358,0.60313 4.5775,1.56199 7.14489,3.85943 1.66767,1.49234 2.09081,3.40293 2.09081,3.40293 -10.14908,-2.56742 -7.55143,14.35702 0.4482,19.375 4.85113,2.81112 14.76319,5.44804 20.68994,6.57443 6.79378,1.29105 16.24797,0.29995 23.32846,1.88059 5.50705,1.22945 11.32211,4.03119 11.32211,4.03119 0,0 -10.95707,-13.22489 -12.40861,-14.96227 -2.46305,-2.94745 -4.53673,-5.58097 -8.65526,-7.1091 -2.31491,-0.85892 -5.81367,-0.39259 -6.71203,-0.15459 -1.69843,0.45016 -2.67594,1.42485 -3.00232,2.18924 -0.32638,0.76438 -0.22263,1.76579 0.23682,2.59457 0.45946,0.82877 1.58444,1.58041 1.58444,1.58041 0,0 -2.90373,-0.16227 -3.87986,-0.92251 -3.95848,-2.02383 -3.59054,-4.56224 -4.00013,-7.50275 0,0 5.22339,0.40525 6.9593,0.15889 3.43227,-0.48717 6.29705,-2.63236 6.29705,-2.63236 0,0 -2.38886,0.17361 -3.61146,-0.23475 -1.24646,-0.41633 -3.37211,-2.30409 -4.59051,-4.26119 -1.17366,-1.88519 -1.12873,-3.47899 -1.98405,-6.35986 -1.06427,-3.58484 -2.69025,-5.27944 -3.55556,-6.48845 -2.78683,-3.89382 -7.18017,-7.91232 -13.11026,-10.56795 -4.12602,-1.84765 -6.5502,-2.42758 -6.39844,-2.37035 l -22.29142,19.40165 z"
       id="path1500"
       style="stroke:#ffffff;stroke-width:2.93206" />
    <path
       d="m 500.6981,486.32101 c 0,0 11.60047,0.8702 16.37147,6.49326 4.77099,5.62305 4.42786,12.7591 4.49579,13.89154 0.0679,1.13245 -2.10414,6.43494 -0.80111,11.15832 0.61006,2.21189 6.04699,10.28043 6.04699,10.28043 l -11.76311,-3.23497 c -2.67894,-0.73675 -11.27145,-4.69212 -11.17982,-15.21176 0.0823,-9.48786 6.09406,-6.5666 6.09406,-6.5666 0,0 -1.20956,-5.52751 -10.44411,-7.32836 -6.59263,-1.28553 -12.62295,1.78271 -12.62295,1.78271 l 13.80246,-11.26497 z"
       id="path1502"
       style="stroke:#ffffff;stroke-width:2.93206" />
    <path
       d="m 525.51452,509.606 c 2.30693,1.31601 3.32961,1.34212 5.007,1.51705 1.79576,0.18743 3.89953,0.29949 6.56897,-0.10535 2.48302,-0.37675 5.18341,-2.35219 5.18341,-2.35219 0,0 -2.51276,0.45813 -4.33342,-0.8985 -2.00972,-1.49751 -2.96168,-2.34197 -4.16181,-4.46651 -1.25486,-2.2215 -1.12639,-7.48465 -5.0433,-12.12524 -3.3608,-3.98194 -9.3348,-9.11645 -12.22104,-10.23837 -2.88624,-1.12192 -6.46885,-2.80888 -6.46885,-2.80888 l -9.04485,7.68557 c 0,0 4.50861,0.74116 8.25467,2.17507 3.74607,1.43392 7.09382,3.80111 8.3417,5.27178 1.24787,1.47068 2.74486,4.8132 3.31378,6.71123 0.56893,1.89803 0.89922,4.74238 0.84674,5.38197 0.67607,1.93494 2.32021,3.25311 3.75671,4.25214 z"
       id="path1504"
       style="stroke:#ffffff;stroke-width:2.93206" />
    <path
       d="m 510.41133,292.49054 c 0,0 -2.61109,-7.49913 -1.48162,-14.09794 0.60313,-3.52358 1.56199,-4.5775 3.85943,-7.14489 1.49234,-1.66767 3.40293,-2.09081 3.40293,-2.09081 -2.56742,10.14908 14.35702,7.55143 19.375,-0.4482 2.81112,-4.85113 5.44804,-14.76319 6.57443,-20.68994 1.29105,-6.79378 0.29995,-16.24797 1.88059,-23.32846 1.22945,-5.50705 4.03119,-11.32211 4.03119,-11.32211 0,0 -13.22489,10.95707 -14.96227,12.40861 -2.94745,2.46305 -5.58097,4.53673 -7.1091,8.65526 -0.85892,2.31491 -0.39259,5.81367 -0.15459,6.71203 0.45016,1.69843 1.42485,2.67594 2.18924,3.00232 0.76438,0.32638 1.76579,0.22263 2.59457,-0.23682 0.82877,-0.45946 1.58041,-1.58444 1.58041,-1.58444 0,0 -0.16227,2.90373 -0.92251,3.87986 -2.02383,3.95848 -4.56224,3.59054 -7.50275,4.00013 0,0 0.40525,-5.22339 0.15889,-6.9593 -0.48717,-3.43227 -2.63236,-6.29705 -2.63236,-6.29705 0,0 0.17361,2.38886 -0.23475,3.61146 -0.41633,1.24646 -2.30409,3.37211 -4.26119,4.59051 -1.88519,1.17366 -3.47899,1.12873 -6.35986,1.98405 -3.58484,1.06427 -5.27944,2.69025 -6.48845,3.55556 -3.89382,2.78683 -7.91232,7.18017 -10.56795,13.11026 -1.84765,4.12602 -2.42758,6.5502 -2.37035,6.39844 l 19.40165,22.29142 z"
       id="path1508"
       style="stroke:#ffffff;stroke-width:2.93206" />
    <path
       d="m 499.06101,278.6819 c 0,0 0.8702,-11.60047 6.49326,-16.37147 5.62305,-4.77099 12.7591,-4.42786 13.89154,-4.49579 1.13245,-0.0679 6.43494,2.10414 11.15832,0.80111 2.21189,-0.61006 10.28043,-6.04699 10.28043,-6.04699 l -3.23497,11.76311 c -0.73675,2.67894 -4.69212,11.27145 -15.21176,11.17982 -9.48786,-0.0823 -6.5666,-6.09406 -6.5666,-6.09406 0,0 -5.52751,1.20956 -7.32836,10.44411 -1.28553,6.59263 1.78271,12.62295 1.78271,12.62295 l -11.26497,-13.80246 z"
       id="path1510"
       style="stroke:#ffffff;stroke-width:2.93206" />
    <path
       d="m 522.346,253.86548 c 1.31601,-2.30693 1.34212,-3.32961 1.51705,-5.007 0.18743,-1.79576 0.29949,-3.89953 -0.10535,-6.56897 -0.37675,-2.48302 -2.35219,-5.18341 -2.35219,-5.18341 0,0 0.45813,2.51276 -0.8985,4.33342 -1.49751,2.00972 -2.34197,2.96168 -4.46651,4.16181 -2.2215,1.25486 -7.48465,1.12639 -12.12524,5.0433 -3.98194,3.3608 -9.11645,9.3348 -10.23837,12.22104 -1.12192,2.88624 -2.80888,6.46885 -2.80888,6.46885 l 7.68557,9.04485 c 0,0 0.74116,-4.50861 2.17507,-8.25467 1.43392,-3.74607 3.80111,-7.09382 5.27178,-8.3417 1.47068,-1.24787 4.8132,-2.74486 6.71123,-3.31378 1.89803,-0.56893 4.74238,-0.89922 5.38197,-0.84674 1.93494,-0.67607 3.25311,-2.32021 4.25214,-3.75671 z"
       id="path1512"
       style="stroke:#ffffff;stroke-width:2.93206" />
    <path
       d="m 281.70867,474.14946 c 0,0 2.61109,7.49913 1.48162,14.09794 -0.60313,3.52358 -1.56199,4.5775 -3.85943,7.14489 -1.49234,1.66767 -3.40293,2.09081 -3.40293,2.09081 2.56742,-10.14908 -14.35702,-7.55143 -19.375,0.4482 -2.81112,4.85113 -5.44804,14.76319 -6.57443,20.68994 -1.29105,6.79378 -0.29995,16.24797 -1.88059,23.32846 -1.22945,5.50705 -4.03119,11.32211 -4.03119,11.32211 0,0 13.22489,-10.95707 14.96227,-12.40861 2.94745,-2.46305 5.58097,-4.53673 7.1091,-8.65526 0.85892,-2.31491 0.39259,-5.81367 0.15459,-6.71203 -0.45016,-1.69843 -1.42485,-2.67594 -2.18924,-3.00232 -0.76438,-0.32638 -1.76579,-0.22263 -2.59457,0.23682 -0.82877,0.45946 -1.58041,1.58444 -1.58041,1.58444 0,0 0.16227,-2.90373 0.92251,-3.87986 2.02383,-3.95848 4.56224,-3.59054 7.50275,-4.00013 0,0 -0.40525,5.22339 -0.15889,6.9593 0.48717,3.43227 2.63236,6.29705 2.63236,6.29705 0,0 -0.17361,-2.38886 0.23475,-3.61146 0.41633,-1.24646 2.30409,-3.37211 4.26119,-4.59051 1.88519,-1.17366 3.47899,-1.12873 6.35986,-1.98405 3.58484,-1.06427 5.27944,-2.69025 6.48845,-3.55556 3.89382,-2.78683 7.91232,-7.18017 10.56795,-13.11026 1.84765,-4.12602 2.42758,-6.5502 2.37035,-6.39844 l -19.40165,-22.29142 z"
       id="path1516"
       style="stroke:#ffffff;stroke-width:2.93206" />
    <path
       d="m 293.05899,487.9581 c 0,0 -0.8702,11.60047 -6.49326,16.37147 -5.62305,4.77099 -12.7591,4.42786 -13.89154,4.49579 -1.13245,0.0679 -6.43494,-2.10414 -11.15832,-0.80111 -2.21189,0.61006 -10.28043,6.04699 -10.28043,6.04699 l 3.23497,-11.76311 c 0.73675,-2.67894 4.69212,-11.27145 15.21176,-11.17982 9.48786,0.0823 6.5666,6.09406 6.5666,6.09406 0,0 5.52751,-1.20956 7.32836,-10.44411 1.28553,-6.59263 -1.78271,-12.62295 -1.78271,-12.62295 l 11.26497,13.80246 z"
       id="path1518"
       style="stroke:#ffffff;stroke-width:2.93206" />
    <path
       d="m 269.774,512.77452 c -1.31601,2.30693 -1.34212,3.32961 -1.51705,5.007 -0.18743,1.79576 -0.29949,3.89953 0.10535,6.56897 0.37675,2.48302 2.35219,5.18341 2.35219,5.18341 0,0 -0.45813,-2.51276 0.8985,-4.33342 1.49751,-2.00972 2.34197,-2.96168 4.46651,-4.16181 2.2215,-1.25486 7.48465,-1.12639 12.12524,-5.0433 3.98194,-3.3608 9.11645,-9.3348 10.23837,-12.22104 1.12192,-2.88624 2.80888,-6.46885 2.80888,-6.46885 l -7.68557,-9.04485 c 0,0 -0.74116,4.50861 -2.17507,8.25467 -1.43392,3.74607 -3.80111,7.09382 -5.27178,8.3417 -1.47068,1.24787 -4.8132,2.74486 -6.71123,3.31378 -1.89803,0.56893 -4.74238,0.89922 -5.38197,0.84674 -1.93494,0.67607 -3.25311,2.32021 -4.25214,3.75671 z"
       id="path1520"
       style="stroke:#ffffff;stroke-width:2.93206" />
    <path
       d="m 305.23054,268.96867 c 0,0 -7.49913,2.61109 -14.09794,1.48162 -3.52358,-0.60313 -4.5775,-1.56199 -7.14489,-3.85943 -1.66767,-1.49234 -2.09081,-3.40293 -2.09081,-3.40293 10.14908,2.56742 7.55143,-14.35702 -0.4482,-19.375 -4.85113,-2.81112 -14.76319,-5.44804 -20.68994,-6.57443 -6.79378,-1.29105 -16.24797,-0.29995 -23.32846,-1.88059 -5.50705,-1.22945 -11.32211,-4.03119 -11.32211,-4.03119 0,0 10.95707,13.22489 12.40861,14.96227 2.46305,2.94745 4.53673,5.58097 8.65526,7.1091 2.31491,0.85892 5.81367,0.39259 6.71203,0.15459 1.69843,-0.45016 2.67594,-1.42485 3.00232,-2.18924 0.32638,-0.76438 0.22263,-1.76579 -0.23682,-2.59457 -0.45946,-0.82877 -1.58444,-1.58041 -1.58444,-1.58041 0,0 2.90373,0.16227 3.87986,0.92251 3.95848,2.02383 3.59054,4.56224 4.00013,7.50275 0,0 -5.22339,-0.40525 -6.9593,-0.15889 -3.43227,0.48717 -6.29705,2.63236 -6.29705,2.63236 0,0 2.38886,-0.17361 3.61146,0.23475 1.24646,0.41633 3.37211,2.30409 4.59051,4.26119 1.17366,1.88519 1.12873,3.47899 1.98405,6.35986 1.06427,3.58484 2.69025,5.27944 3.55556,6.48845 2.78683,3.89382 7.18017,7.91232 13.11026,10.56795 4.12602,1.84765 6.5502,2.42758 6.39844,2.37035 l 22.29142,-19.40165 z"
       id="path1524"
       style="stroke:#ffffff;stroke-width:2.93206" />
    <path
       d="m 291.4219,280.31899 c 0,0 -11.60047,-0.8702 -16.37147,-6.49326 -4.77099,-5.62305 -4.42786,-12.7591 -4.49579,-13.89154 -0.0679,-1.13245 2.10414,-6.43494 0.80111,-11.15832 -0.61006,-2.21189 -6.04699,-10.28043 -6.04699,-10.28043 l 11.76311,3.23497 c 2.67894,0.73675 11.27145,4.69212 11.17982,15.21176 -0.0823,9.48786 -6.09406,6.5666 -6.09406,6.5666 0,0 1.20956,5.52751 10.44411,7.32836 6.59263,1.28553 12.62295,-1.78271 12.62295,-1.78271 l -13.80246,11.26497 z"
       id="path1526"
       style="stroke:#ffffff;stroke-width:2.93206" />
    <path
       d="m 266.60548,257.034 c -2.30693,-1.31601 -3.32961,-1.34212 -5.007,-1.51705 -1.79576,-0.18743 -3.89953,-0.29949 -6.56897,0.10535 -2.48302,0.37675 -5.18341,2.35219 -5.18341,2.35219 0,0 2.51276,-0.45813 4.33342,0.8985 2.00972,1.49751 2.96168,2.34197 4.16181,4.46651 1.25486,2.2215 1.12639,7.48465 5.0433,12.12524 3.3608,3.98194 9.3348,9.11645 12.22104,10.23837 2.88624,1.12192 6.46885,2.80888 6.46885,2.80888 l 9.04485,-7.68557 c 0,0 -4.50861,-0.74116 -8.25467,-2.17507 -3.74607,-1.43392 -7.09382,-3.80111 -8.3417,-5.27178 -1.24787,-1.47068 -2.74486,-4.8132 -3.31378,-6.71123 -0.56893,-1.89803 -0.89922,-4.74238 -0.84674,-5.38197 -0.67607,-1.93494 -2.32021,-3.25311 -3.75671,-4.25214 z"
       id="path1528"
       style="stroke:#ffffff;stroke-width:2.93206" />
    <path
       d="m 541.15159,399.94524 c 0,0 3.4564,-7.14908 8.92119,-11.01653 2.91805,-2.0651 4.34131,-2.13231 7.78131,-2.3232 2.23449,-0.12397 3.88471,0.92782 3.88471,0.92782 -8.99202,5.3611 4.81233,15.49179 14.01727,13.38342 5.41809,-1.44252 14.29165,-6.58688 19.27903,-9.98128 5.71691,-3.89106 11.70128,-11.27708 17.82569,-15.1661 4.76348,-3.02476 10.85654,-5.15552 10.85654,-5.15552 0,0 -17.09942,-1.60361 -19.35435,-1.80573 -3.82584,-0.34253 -7.15437,-0.7384 -11.14721,1.09331 -2.24426,1.02955 -4.38854,3.83333 -4.85548,4.63686 -0.88267,1.5193 -0.88467,2.89974 -0.57495,3.67103 0.30972,0.77129 1.09119,1.40604 2.00212,1.6672 0.91093,0.26115 2.23791,-0.003 2.23791,-0.003 0,0 -2.16801,1.93852 -3.39582,2.09119 -4.23018,1.36802 -5.76495,-0.68711 -8.13386,-2.47676 0,0 3.98009,-3.40698 5.03338,-4.80866 2.08252,-2.7715 2.59136,-6.31412 2.59136,-6.31412 0,0 -1.56644,1.81196 -2.71972,2.38772 -1.17578,0.587 -4.01372,0.75521 -6.25916,0.23287 -2.16296,-0.50314 -3.25818,-1.66191 -5.9001,-3.09421 -3.28745,-1.78232 -5.63548,-1.83085 -7.10227,-2.07389 -4.72398,-0.78277 -10.67212,-0.51771 -16.7432,1.79772 -4.22407,1.61105 -6.34832,2.91516 -6.20054,2.84831 l -2.0434,29.48178 z"
       id="path1532"
       style="stroke:#ffffff;stroke-width:2.9321" />
    <path
       d="m 542.88991,382.15497 c 0,0 8.81819,-7.58753 16.16797,-6.98502 7.34979,0.60251 12.15316,5.89115 13.00196,6.64387 0.84881,0.75273 3.06237,6.03811 7.32373,8.45669 1.99544,1.13268 11.54536,2.99353 11.54536,2.99353 l -10.60536,6.03037 c -2.41529,1.37335 -11.28807,4.65234 -18.66187,-2.85104 -6.6508,-6.76722 -0.33414,-8.95254 -0.33414,-8.95254 0,0 -4.76388,-3.05329 -12.56718,2.20319 -5.57075,3.75273 -7.66528,10.18645 -7.66528,10.18645 l 1.79429,-17.72554 z"
       id="path1534"
       style="stroke:#ffffff;stroke-width:2.9321" />
    <path
       d="m 576.90311,381.07209 c 2.56184,-0.7007 3.30346,-1.40539 4.61326,-2.4678 1.40234,-1.13728 2.96918,-2.54564 4.57051,-4.71951 1.48938,-2.02219 2.002,-5.32853 2.002,-5.32853 0,0 -1.45286,2.10075 -3.69957,2.42888 -2.48001,0.36219 -3.75028,0.4382 -6.1012,-0.21546 -2.4582,-0.68352 -6.089,-4.49601 -12.14013,-5.00774 -5.19216,-0.43922 -13.04715,0.1544 -15.88138,1.40197 -2.83423,1.24758 -6.56042,2.58802 -6.56042,2.58802 l -0.96116,11.83032 c 0,0 3.71218,-2.66402 7.37502,-4.29897 3.66285,-1.63496 7.70396,-2.32833 9.62629,-2.17078 1.92233,0.15755 5.34441,1.46255 7.08883,2.40238 1.74443,0.93983 3.98926,2.71755 4.40442,3.20693 1.84628,0.89016 3.94097,0.65966 5.66317,0.35032 z"
       id="path1536"
       style="stroke:#ffffff;stroke-width:2.9321" />
    <path
       d="m 412.69524,238.22841 c 0,0 -7.14908,-3.4564 -11.01653,-8.92119 -2.0651,-2.91805 -2.13231,-4.34131 -2.3232,-7.78131 -0.12397,-2.23449 0.92782,-3.88471 0.92782,-3.88471 5.3611,8.99202 15.49179,-4.81233 13.38342,-14.01727 -1.44252,-5.41809 -6.58688,-14.29165 -9.98128,-19.27903 -3.89106,-5.71691 -11.27708,-11.70128 -15.1661,-17.82569 -3.02476,-4.76348 -5.15552,-10.85654 -5.15552,-10.85654 0,0 -1.60361,17.09942 -1.80573,19.35435 -0.34253,3.82584 -0.7384,7.15437 1.09331,11.14721 1.02955,2.24426 3.83333,4.38854 4.63686,4.85548 1.5193,0.88267 2.89974,0.88467 3.67103,0.57495 0.77129,-0.30972 1.40604,-1.09119 1.6672,-2.00212 0.26115,-0.91093 -0.003,-2.23791 -0.003,-2.23791 0,0 1.93852,2.16801 2.09119,3.39582 1.36802,4.23018 -0.68711,5.76495 -2.47676,8.13386 0,0 -3.40698,-3.98009 -4.80866,-5.03338 -2.7715,-2.08252 -6.31412,-2.59136 -6.31412,-2.59136 0,0 1.81196,1.56644 2.38772,2.71972 0.587,1.17578 0.75521,4.01372 0.23287,6.25916 -0.50314,2.16296 -1.66191,3.25818 -3.09421,5.9001 -1.78232,3.28745 -1.83085,5.63548 -2.07389,7.10227 -0.78277,4.72398 -0.51771,10.67212 1.79772,16.7432 1.61105,4.22407 2.91516,6.34832 2.84831,6.20054 l 29.48178,2.0434 z"
       id="path1540"
       style="stroke:#ffffff;stroke-width:2.9321" />
    <path
       d="m 394.90497,236.49009 c 0,0 -7.58753,-8.81819 -6.98502,-16.16797 0.60251,-7.34979 5.89115,-12.15316 6.64387,-13.00196 0.75273,-0.84881 6.03811,-3.06237 8.45669,-7.32373 1.13268,-1.99544 2.99353,-11.54536 2.99353,-11.54536 l 6.03037,10.60536 c 1.37335,2.41529 4.65234,11.28807 -2.85104,18.66187 -6.76722,6.6508 -8.95254,0.33414 -8.95254,0.33414 0,0 -3.05329,4.76388 2.20319,12.56718 3.75273,5.57075 10.18645,7.66528 10.18645,7.66528 l -17.72554,-1.79429 z"
       id="path1542"
       style="stroke:#ffffff;stroke-width:2.9321" />
    <path
       d="m 393.82209,202.47689 c -0.7007,-2.56184 -1.40539,-3.30346 -2.4678,-4.61326 -1.13728,-1.40234 -2.54564,-2.96918 -4.71951,-4.57051 -2.02219,-1.48938 -5.32853,-2.002 -5.32853,-2.002 0,0 2.10075,1.45286 2.42888,3.69957 0.36219,2.48001 0.4382,3.75028 -0.21546,6.1012 -0.68352,2.4582 -4.49601,6.089 -5.00774,12.14013 -0.43922,5.19216 0.1544,13.04715 1.40197,15.88138 1.24758,2.83423 2.58802,6.56042 2.58802,6.56042 l 11.83032,0.96116 c 0,0 -2.66402,-3.71218 -4.29897,-7.37502 -1.63496,-3.66285 -2.32833,-7.70396 -2.17078,-9.62629 0.15755,-1.92233 1.46255,-5.34441 2.40238,-7.08883 0.93983,-1.74443 2.71755,-3.98926 3.20693,-4.40442 0.89016,-1.84628 0.65966,-3.94097 0.35032,-5.66317 z"
       id="path1544"
       style="stroke:#ffffff;stroke-width:2.9321" />
    <path
       d="m 379.43476,528.40159 c 0,0 7.14908,3.4564 11.01653,8.92119 2.0651,2.91805 2.13231,4.34131 2.3232,7.78131 0.12397,2.23449 -0.92782,3.88471 -0.92782,3.88471 -5.3611,-8.99202 -15.49179,4.81233 -13.38342,14.01727 1.44252,5.41809 6.58688,14.29165 9.98128,19.27903 3.89106,5.71691 11.27708,11.70128 15.1661,17.82569 3.02476,4.76348 5.15552,10.85654 5.15552,10.85654 0,0 1.60361,-17.09942 1.80573,-19.35435 0.34253,-3.82584 0.7384,-7.15437 -1.09331,-11.14721 -1.02955,-2.24426 -3.83333,-4.38854 -4.63686,-4.85548 -1.5193,-0.88267 -2.89974,-0.88467 -3.67103,-0.57495 -0.77129,0.30972 -1.40604,1.09119 -1.6672,2.00212 -0.26115,0.91093 0.003,2.23791 0.003,2.23791 0,0 -1.93852,-2.16801 -2.09119,-3.39582 -1.36802,-4.23018 0.68711,-5.76495 2.47676,-8.13386 0,0 3.40698,3.98009 4.80866,5.03338 2.7715,2.08252 6.31412,2.59136 6.31412,2.59136 0,0 -1.81196,-1.56644 -2.38772,-2.71972 -0.587,-1.17578 -0.75521,-4.01372 -0.23287,-6.25916 0.50314,-2.16296 1.66191,-3.25818 3.09421,-5.9001 1.78232,-3.28745 1.83085,-5.63548 2.07389,-7.10227 0.78277,-4.72398 0.51771,-10.67212 -1.79772,-16.7432 -1.61105,-4.22407 -2.91516,-6.34832 -2.84831,-6.20054 l -29.48178,-2.0434 z"
       id="path1548"
       style="stroke:#ffffff;stroke-width:2.9321" />
    <path
       d="m 397.22503,530.13991 c 0,0 7.58753,8.81819 6.98502,16.16797 -0.60251,7.34979 -5.89115,12.15316 -6.64387,13.00196 -0.75273,0.84881 -6.03811,3.06237 -8.45669,7.32373 -1.13268,1.99544 -2.99353,11.54536 -2.99353,11.54536 l -6.03037,-10.60536 c -1.37335,-2.41529 -4.65234,-11.28807 2.85104,-18.66187 6.76722,-6.6508 8.95254,-0.33414 8.95254,-0.33414 0,0 3.05329,-4.76388 -2.20319,-12.56718 -3.75273,-5.57075 -10.18645,-7.66528 -10.18645,-7.66528 l 17.72554,1.79429 z"
       id="path1550"
       style="stroke:#ffffff;stroke-width:2.9321" />
    <path
       d="m 398.30791,564.15311 c 0.7007,2.56184 1.40539,3.30346 2.4678,4.61326 1.13728,1.40234 2.54564,2.96918 4.71951,4.57051 2.02219,1.48938 5.32853,2.002 5.32853,2.002 0,0 -2.10075,-1.45286 -2.42888,-3.69957 -0.36219,-2.48001 -0.4382,-3.75028 0.21546,-6.1012 0.68352,-2.4582 4.49601,-6.089 5.00774,-12.14013 0.43922,-5.19216 -0.1544,-13.04715 -1.40197,-15.88138 -1.24758,-2.83423 -2.58802,-6.56042 -2.58802,-6.56042 l -11.83032,-0.96116 c 0,0 2.66402,3.71218 4.29897,7.37502 1.63496,3.66285 2.32833,7.70396 2.17078,9.62629 -0.15755,1.92233 -1.46255,5.34441 -2.40238,7.08883 -0.93983,1.74443 -2.71755,3.98926 -3.20693,4.40442 -0.89016,1.84628 -0.65966,3.94097 -0.35032,5.66317 z"
       id="path1552"
       style="stroke:#ffffff;stroke-width:2.9321" />
    <path
       d="m 250.97841,366.68476 c 0,0 -3.4564,7.14908 -8.92119,11.01653 -2.91805,2.0651 -4.34131,2.13231 -7.78131,2.3232 -2.23449,0.12397 -3.88471,-0.92782 -3.88471,-0.92782 8.99202,-5.3611 -4.81233,-15.49179 -14.01727,-13.38342 -5.41809,1.44252 -14.29165,6.58688 -19.27903,9.98128 -5.71691,3.89106 -11.70128,11.27708 -17.82569,15.1661 -4.76348,3.02476 -10.85654,5.15552 -10.85654,5.15552 0,0 17.09942,1.60361 19.35435,1.80573 3.82584,0.34253 7.15437,0.7384 11.14721,-1.09331 2.24426,-1.02955 4.38854,-3.83333 4.85548,-4.63686 0.88267,-1.5193 0.88467,-2.89974 0.57495,-3.67103 -0.30972,-0.77129 -1.09119,-1.40604 -2.00212,-1.6672 -0.91093,-0.26115 -2.23791,0.003 -2.23791,0.003 0,0 2.16801,-1.93852 3.39582,-2.09119 4.23018,-1.36802 5.76495,0.68711 8.13386,2.47676 0,0 -3.98009,3.40698 -5.03338,4.80866 -2.08252,2.7715 -2.59136,6.31412 -2.59136,6.31412 0,0 1.56644,-1.81196 2.71972,-2.38772 1.17578,-0.587 4.01372,-0.75521 6.25916,-0.23287 2.16296,0.50314 3.25818,1.66191 5.9001,3.09421 3.28745,1.78232 5.63548,1.83085 7.10227,2.07389 4.72398,0.78277 10.67212,0.51771 16.7432,-1.79772 4.22407,-1.61105 6.34832,-2.91516 6.20054,-2.84831 l 2.0434,-29.48178 z"
       id="path1556"
       style="stroke:#ffffff;stroke-width:2.9321" />
    <path
       d="m 249.24009,384.47503 c 0,0 -8.81819,7.58753 -16.16797,6.98502 -7.34979,-0.60251 -12.15316,-5.89115 -13.00196,-6.64387 -0.84881,-0.75273 -3.06237,-6.03811 -7.32373,-8.45669 -1.99544,-1.13268 -11.54536,-2.99353 -11.54536,-2.99353 l 10.60536,-6.03037 c 2.41529,-1.37335 11.28807,-4.65234 18.66187,2.85104 6.6508,6.76722 0.33414,8.95254 0.33414,8.95254 0,0 4.76388,3.05329 12.56718,-2.20319 5.57075,-3.75273 7.66528,-10.18645 7.66528,-10.18645 l -1.79429,17.72554 z"
       id="path1558"
       style="stroke:#ffffff;stroke-width:2.9321" />
    <path
       d="m 215.22689,385.55791 c -2.56184,0.7007 -3.30346,1.40539 -4.61326,2.4678 -1.40234,1.13728 -2.96918,2.54564 -4.57051,4.71951 -1.48938,2.02219 -2.002,5.32853 -2.002,5.32853 0,0 1.45286,-2.10075 3.69957,-2.42888 2.48001,-0.36219 3.75028,-0.4382 6.1012,0.21546 2.4582,0.68352 6.089,4.49601 12.14013,5.00774 5.19216,0.43922 13.04715,-0.1544 15.88138,-1.40197 2.83423,-1.24758 6.56042,-2.58802 6.56042,-2.58802 l 0.96116,-11.83032 c 0,0 -3.71218,2.66402 -7.37502,4.29897 -3.66285,1.63496 -7.70396,2.32833 -9.62629,2.17078 -1.92233,-0.15755 -5.34441,-1.46255 -7.08883,-2.40238 -1.74443,-0.93983 -3.98926,-2.71755 -4.40442,-3.20693 -1.84628,-0.89016 -3.94097,-0.65966 -5.66317,-0.35032 z"
       id="path1560"
       style="stroke:#ffffff;stroke-width:2.9321" />
    <path
       d="m 532.91933,384.91296 c 0,77.68349 -62.97275,140.65625 -140.65624,140.65625 -77.6835,0 -140.65625,-62.97276 -140.65625,-140.65625 0,-77.68349 62.97275,-140.65625 140.65625,-140.65625 77.68349,0 140.65624,62.97276 140.65624,140.65625 z"
       stroke-width="7.9496"
       id="path1564"
       style="stroke:#ffffff" />
    <path
       d="m 538.34269,384.90831 c 0,80.68155 -65.40307,146.08462 -146.08461,146.08462 -80.68154,0 -146.08461,-65.40307 -146.08461,-146.08462 0,-80.68154 65.40307,-146.08461 146.08461,-146.08461 80.68154,0 146.08461,65.40307 146.08461,146.08461 z"
       stroke-width="7.94926"
       id="path1566"
       style="stroke:#ffffff" />
  </g>
</svg>
