<?xml version="1.0" encoding="UTF-8" standalone="no"?>
<!-- Created with Inkscape (http://www.inkscape.org/) -->

<svg
   width="40.0mm"
   height="40.0mm"
   viewBox="0 0 40.0 40.0"
   version="1.1"
   id="svg6055"
   sodipodi:docname="sun2.svg"
   inkscape:version="1.1.1 (3bf5ae0d25, 2021-09-20)"
   xmlns:inkscape="http://www.inkscape.org/namespaces/inkscape"
   xmlns:sodipodi="http://sodipodi.sourceforge.net/DTD/sodipodi-0.dtd"
   xmlns="http://www.w3.org/2000/svg"
   xmlns:svg="http://www.w3.org/2000/svg">
  <sodipodi:namedview
     id="namedview6057"
     pagecolor="#ffffff"
     bordercolor="#666666"
     borderopacity="1.0"
     inkscape:pageshadow="2"
     inkscape:pageopacity="0.0"
     inkscape:pagecheckerboard="0"
     inkscape:document-units="mm"
     showgrid="true"
     inkscape:zoom="10.248373"
     inkscape:cx="105.67531"
     inkscape:cy="77.08541"
     inkscape:window-width="3840"
     inkscape:window-height="2080"
     inkscape:window-x="-11"
     inkscape:window-y="-11"
     inkscape:window-maximized="1"
     inkscape:current-layer="g6128"
     borderlayer="true">
    <inkscape:grid
       spacingx="2.54"
       spacingy="2.54"
       empspacing="1"
       type="xygrid"
       units="mm"
       id="grid6120" />
    <inkscape:grid
       spacingx="2.54"
       spacingy="2.54"
       empspacing="1"
       type="xygrid"
       units="mm"
       id="grid8620" />
    <inkscape:grid
       spacingx="2.54"
       spacingy="2.54"
       empspacing="1"
       type="xygrid"
       units="mm"
       id="grid8987" />
  </sodipodi:namedview>
  <defs
     id="defs6052" />
  <g
     inkscape:label="[fixed] BG"
     inkscape:groupmode="layer"
     sodipodi:insensitive="true"
     id="g6126"
     style="display:inline">
    <rect
       x="0"
       y="0"
       width="28"
       height="28"
       style="fill:#ffffff;fill-opacity:1;stroke:none"
       id="rect6124" />
  </g>
  <g
     inkscape:label="B.SilkS"
     inkscape:groupmode="layer"
     id="g6128"
     style="display:inline">
    <g
       id="g7367"
       transform="matrix(0.21390547,0,0,0.21390547,16.650112,17.410356)">
      <path
         d="m -1.5061708,70.342599 c 0,0 -3.2802248,0.144142 -5.6423718,1.587497 -1.2613164,0.770715 -1.5194942,1.300287 -2.154301,2.5756 -0.4123399,0.828397 -0.2826147,1.627081 -0.2826147,1.627081 3.5060069,-2.538849 5.0971688,4.360048 2.791751,7.51146 -1.433523,1.822003 -4.8378477,4.351287 -6.9422937,5.690648 -2.412328,1.535247 -6.195764,2.600788 -8.67393,4.291142 -1.927453,1.314744 -3.732705,3.2806 -3.732705,3.2806 0,0 2.186051,-6.756513 2.477879,-7.645979 0.495286,-1.509051 0.889023,-2.837942 2.237385,-4.055015 0.757878,-0.68408 2.173266,-1.040167 2.554777,-1.086167 0.721315,-0.08689 1.245933,0.137999 1.488241,0.381709 0.242311,0.243708 0.355651,0.644268 0.305935,1.032928 -0.04971,0.388662 -0.366895,0.849498 -0.366895,0.849498 0,0 1.090642,-0.50654 1.349325,-0.94791 1.211048,-1.383009 0.681387,-2.301851 0.388901,-3.494108 0,0 -1.944569,0.954735 -2.649104,1.125653 -1.393031,0.33791 -2.821702,-0.04792 -2.821702,-0.04792 0,0 0.94424,-0.298751 1.351431,-0.642651 0.415139,-0.350613 0.942919,-1.400969 1.111578,-2.339174 0.16247,-0.90374 -0.09861,-1.509122 -0.210741,-2.746652 -0.139557,-1.539923 0.225828,-2.439639 0.373283,-3.036454 0.474895,-1.922132 1.54786,-4.137914 3.419652,-6.065237 1.302356,-1.340964 2.144892,-1.934583 2.095346,-1.889384 l 11.531243,4.043061 z"
         id="path1302"
         style="stroke:#ffffff;stroke-width:1.21238" />
      <path
         d="m -8.5470931,68.094783 c 0,0 -4.3231939,2.108891 -5.2957699,4.998837 -0.972577,2.889945 0.250888,5.578766 0.398028,6.024184 0.14714,0.445418 1.7927,2.150094 2.014712,4.163909 0.104013,0.943023 -0.750281,4.874273 -0.750281,4.874273 l 4.0239179,-3.042198 c 0.9164082,-0.692837 3.6121366,-3.526744 1.9676745,-7.553843 -1.4830504,-3.632166 -3.3455662,-1.590305 -3.3455662,-1.590305 0,0 -0.3809312,-2.308426 2.8910279,-4.412895 2.3358978,-1.502354 5.1218121,-1.24619 5.1218121,-1.24619 L -8.5470243,68.09458 Z"
         id="path1304"
         style="stroke:#ffffff;stroke-width:1.21238" />
      <path
         d="m -14.518239,80.83604 c -0.68489,0.858451 -1.073758,1.024929 -1.691365,1.348729 -0.661167,0.34671 -1.452186,0.711586 -2.539582,0.964427 -1.011486,0.235117 -2.351034,-0.110651 -2.351034,-0.110651 0,0 1.035357,-0.208402 1.527228,-1.008068 0.542951,-0.882708 0.77946,-1.352735 0.915485,-2.352468 0.142218,-1.045356 -0.712275,-3.047537 0.0825,-5.429414 0.681903,-2.043785 2.191353,-4.93009 3.128473,-5.802604 0.93712,-0.872514 2.05531,-2.068613 2.05531,-2.068613 l 4.6502899,1.568757 c 0,0 -1.6185989,0.974426 -2.8382939,2.098326 -1.219692,1.1239 -2.143606,2.545384 -2.397995,3.301238 -0.254392,0.755856 -0.31813,2.268886 -0.246328,3.085047 0.0718,0.816163 0.38004,1.959342 0.498042,2.197015 0.03629,0.846728 -0.393655,1.604619 -0.79266,2.208144 z"
         id="path1306"
         style="stroke:#ffffff;stroke-width:1.21238" />
      <path
         d="m -41.931641,-4.8796063 c 0,0 -0.144142,-3.2802247 -1.587497,-5.6423717 -0.770716,-1.261316 -1.300287,-1.519494 -2.5756,-2.154301 -0.828397,-0.41234 -1.627081,-0.282615 -1.627081,-0.282615 2.538849,3.5060072 -4.360048,5.097169 -7.51146,2.791751 -1.822003,-1.433523 -4.351288,-4.837848 -5.690648,-6.942293 -1.535249,-2.412328 -2.600789,-6.195764 -4.291142,-8.673931 -1.314744,-1.927452 -3.280602,-3.732704 -3.280602,-3.732704 0,0 6.756515,2.186051 7.645981,2.477878 1.509051,0.495287 2.837942,0.889024 4.055014,2.237385 0.684081,0.757878 1.040167,2.173267 1.086168,2.554777 0.08689,0.721315 -0.137999,1.245934 -0.381709,1.488242 -0.243708,0.242311 -0.644269,0.35565 -1.032928,0.305935 -0.388663,-0.04971 -0.849498,-0.366895 -0.849498,-0.366895 0,0 0.50654,1.090642 0.94791,1.349325 1.383008,1.211048 2.301851,0.681386 3.494108,0.3889 0,0 -0.954736,-1.944568 -1.125654,-2.649103 -0.33791,-1.393032 0.04792,-2.821702 0.04792,-2.821702 0,0 0.298752,0.944239 0.642652,1.351431 0.350613,0.415139 1.400969,0.942919 2.339173,1.111578 0.90374,0.16247 1.509123,-0.0986 2.746653,-0.210741 1.539923,-0.139557 2.439638,0.225827 3.036454,0.373282 1.922131,0.474895 4.137914,1.54786 6.065237,3.419652 1.340963,1.302356 1.934583,2.144893 1.889384,2.095347 l -4.043061,11.5312425 z"
         id="path1310"
         style="stroke:#ffffff;stroke-width:1.21238" />
      <path
         d="m -39.683826,-11.920529 c 0,0 -2.10889,-4.323193 -4.998836,-5.29577 -2.889946,-0.972576 -5.578766,0.250889 -6.024184,0.398029 -0.445418,0.14714 -2.150094,1.7927 -4.163909,2.014712 -0.943023,0.104013 -4.874273,-0.750282 -4.874273,-0.750282 l 3.042197,4.023918 c 0.692838,0.916409 3.526745,3.6121371 7.553844,1.967675 3.632165,-1.48305 1.590304,-3.345566 1.590304,-3.345566 0,0 2.308426,-0.380931 4.412896,2.891028 1.502354,2.3358974 1.24619,5.1218117 1.24619,5.1218117 l 2.215975,-7.0254867 z"
         id="path1312"
         style="stroke:#ffffff;stroke-width:1.21238" />
      <path
         d="m -52.425082,-17.891674 c -0.858451,-0.68489 -1.02493,-1.073759 -1.348729,-1.691365 -0.34671,-0.661167 -0.711587,-1.452187 -0.964428,-2.539582 -0.235116,-1.011486 0.110652,-2.351035 0.110652,-2.351035 0,0 0.208401,1.035357 1.008067,1.527228 0.882709,0.542952 1.352736,0.77946 2.352469,0.915485 1.045356,0.142219 3.047537,-0.712274 5.429414,0.0825 2.043785,0.681902 4.93009,2.191353 5.802604,3.128473 0.872513,0.937119 2.068613,2.055309 2.068613,2.055309 l -1.568757,4.65029 c 0,0 -0.974426,-1.618599 -2.098326,-2.838293 -1.1239,-1.219693 -2.545384,-2.143607 -3.301238,-2.397996 -0.755856,-0.254391 -2.268887,-0.31813 -3.085047,-0.246327 -0.816163,0.0718 -1.959343,0.38004 -2.197015,0.498041 -0.846728,0.03629 -1.604619,-0.393655 -2.208144,-0.79266 z"
         id="path1314"
         style="stroke:#ffffff;stroke-width:1.21238" />
      <path
         d="m 73.713388,29.918451 c 0,0 0.144143,3.280225 1.587498,5.642372 0.770715,1.261317 1.300286,1.519494 2.575599,2.154301 0.828397,0.41234 1.627082,0.282615 1.627082,0.282615 -2.538849,-3.506007 4.360047,-5.097169 7.51146,-2.791751 1.822003,1.433523 4.351287,4.837848 5.690647,6.942293 1.535248,2.412328 2.600788,6.195764 4.291143,8.673931 1.314743,1.927453 3.280603,3.732705 3.280603,3.732705 0,0 -6.756517,-2.186051 -7.645982,-2.477879 -1.509051,-0.495287 -2.837942,-0.889024 -4.055015,-2.237385 -0.68408,-0.757878 -1.040167,-2.173267 -1.086168,-2.554777 -0.08689,-0.721315 0.137999,-1.245934 0.38171,-1.488242 0.243707,-0.24231 0.644268,-0.35565 1.032928,-0.305935 0.388662,0.04971 0.849497,0.366895 0.849497,0.366895 0,0 -0.506539,-1.090641 -0.947909,-1.349324 -1.383009,-1.211049 -2.301851,-0.681387 -3.494109,-0.388901 0,0 0.954736,1.944568 1.125654,2.649104 0.33791,1.393031 -0.04792,2.821701 -0.04792,2.821701 0,0 -0.298752,-0.944239 -0.642652,-1.35143 -0.350612,-0.41514 -1.400968,-0.94292 -2.339173,-1.111578 -0.90374,-0.16247 -1.509122,0.0986 -2.746653,0.21074 -1.539922,0.139557 -2.439638,-0.225827 -3.036453,-0.373282 -1.922132,-0.474895 -4.137914,-1.54786 -6.065237,-3.419652 -1.340964,-1.302356 -1.934583,-2.144893 -1.889384,-2.095347 l 4.04306,-11.531242 z"
         id="path1318"
         style="stroke:#ffffff;stroke-width:1.21238" />
      <path
         d="m 71.465573,36.959374 c 0,0 2.10889,4.323193 4.998836,5.29577 2.889946,0.972577 5.578766,-0.250888 6.024184,-0.398029 0.445418,-0.14714 2.150094,-1.7927 4.16391,-2.014712 0.943022,-0.104013 4.874273,0.750282 4.874273,0.750282 l -3.042198,-4.023918 c -0.692838,-0.916408 -3.526745,-3.612137 -7.553843,-1.967675 -3.632166,1.483051 -1.590305,3.345566 -1.590305,3.345566 0,0 -2.308426,0.380932 -4.412895,-2.891027 -1.502355,-2.335898 -1.24619,-5.121813 -1.24619,-5.121813 l -2.215976,7.025487 z"
         id="path1320"
         style="stroke:#ffffff;stroke-width:1.21238" />
      <path
         d="m 84.206829,42.930519 c 0.858451,0.68489 1.02493,1.073759 1.34873,1.691365 0.34671,0.661168 0.711586,1.452187 0.964427,2.539582 0.235117,1.011486 -0.110651,2.351035 -0.110651,2.351035 0,0 -0.208402,-1.035357 -1.008068,-1.527228 -0.882708,-0.542952 -1.352735,-0.77946 -2.352469,-0.915485 -1.045355,-0.142219 -3.047537,0.712274 -5.429414,-0.0825 -2.043784,-0.681903 -4.930089,-2.191354 -5.802603,-3.128473 -0.872514,-0.93712 -2.068613,-2.05531 -2.068613,-2.05531 l 1.568757,-4.65029 c 0,0 0.974426,1.618599 2.098325,2.838294 1.1239,1.219692 2.545385,2.143606 3.301238,2.397995 0.755857,0.254392 2.268887,0.31813 3.085047,0.246327 0.816163,-0.0718 1.959343,-0.380039 2.197016,-0.498041 0.846727,-0.03629 1.604618,0.393655 2.208143,0.79266 z"
         id="path1322"
         style="stroke:#ffffff;stroke-width:1.21238" />
      <path
         d="m 33.290564,-45.30243 c 0,0 3.280225,-0.144143 5.642372,-1.587498 1.261316,-0.770715 1.519494,-1.300287 2.154301,-2.575599 0.41234,-0.828398 0.282614,-1.627082 0.282614,-1.627082 -3.506006,2.538849 -5.097168,-4.360048 -2.791751,-7.51146 1.433524,-1.822003 4.837848,-4.351287 6.942294,-5.690647 2.412328,-1.535249 6.195764,-2.60079 8.673931,-4.291143 1.927452,-1.314744 3.732704,-3.280601 3.732704,-3.280601 0,0 -2.186051,6.756515 -2.477878,7.645979 -0.495287,1.509053 -0.889024,2.837943 -2.237386,4.055016 -0.757878,0.68408 -2.173266,1.040167 -2.554777,1.086167 -0.721315,0.08689 -1.245933,-0.137998 -1.488241,-0.381709 -0.242311,-0.243707 -0.355651,-0.644268 -0.305935,-1.032928 0.04971,-0.388662 0.366895,-0.849498 0.366895,-0.849498 0,0 -1.090642,0.50654 -1.349325,0.94791 -1.211048,1.383009 -0.681387,2.301851 -0.3889,3.494109 0,0 1.944568,-0.954736 2.649103,-1.125654 1.393031,-0.33791 2.821702,0.04792 2.821702,0.04792 0,0 -0.94424,0.298751 -1.351431,0.642651 -0.415139,0.350613 -0.942919,1.400969 -1.111578,2.339174 -0.16247,0.90374 0.09861,1.509122 0.210741,2.746653 0.139557,1.539922 -0.225827,2.439638 -0.373282,3.036453 -0.474896,1.922132 -1.54786,4.137914 -3.419653,6.065237 -1.302355,1.340964 -2.144892,1.934583 -2.095346,1.889384 l -11.531243,-4.043061 z"
         id="path1326"
         style="stroke:#ffffff;stroke-width:1.21238" />
      <path
         d="m 40.331486,-43.054615 c 0,0 4.323194,-2.108891 5.295771,-4.998837 0.972576,-2.889945 -0.250889,-5.578766 -0.398029,-6.024184 -0.14714,-0.445418 -1.7927,-2.150094 -2.014712,-4.163909 -0.104013,-0.943022 0.750281,-4.874273 0.750281,-4.874273 l -4.023918,3.042198 c -0.916408,0.692838 -3.612136,3.526745 -1.967674,7.553843 1.48305,3.632166 3.345566,1.590305 3.345566,1.590305 0,0 0.380931,2.308426 -2.891028,4.412895 -2.335898,1.502354 -5.121812,1.24619 -5.121812,1.24619 l 7.025486,2.215976 z"
         id="path1328"
         style="stroke:#ffffff;stroke-width:1.21238" />
      <path
         d="m 46.302632,-55.795872 c 0.68489,-0.858451 1.073758,-1.024929 1.691365,-1.348729 0.661167,-0.34671 1.452187,-0.711586 2.539582,-0.964427 1.011486,-0.235117 2.351034,0.110651 2.351034,0.110651 0,0 -1.035357,0.208402 -1.527228,1.008068 -0.542951,0.882708 -0.779459,1.352735 -0.915484,2.352468 -0.142219,1.045356 0.712274,3.047537 -0.0825,5.429414 -0.681902,2.043785 -2.191353,4.93009 -3.128473,5.802604 -0.93712,0.872514 -2.05531,2.068613 -2.05531,2.068613 l -4.65029,-1.568757 c 0,0 1.618599,-0.974426 2.838294,-2.098326 1.219692,-1.123899 2.143607,-2.545384 2.397996,-3.301238 0.254391,-0.755856 0.318129,-2.268886 0.246327,-3.085047 -0.0718,-0.816162 -0.38004,-1.959342 -0.498041,-2.197015 -0.03629,-0.846727 0.393655,-1.604618 0.79266,-2.208144 z"
         id="path1330"
         style="stroke:#ffffff;stroke-width:1.21238" />
      <path
         d="m -36.686956,42.212342 c 0,0 -2.467285,-2.166329 -5.171178,-2.759511 -1.443805,-0.316736 -1.996681,-0.11321 -3.33755,0.367879 -0.870971,0.312507 -1.330142,0.978749 -1.330142,0.978749 4.287713,0.59421 0.661159,6.674829 -3.183999,7.35371 -2.295731,0.322848 -6.503434,-0.207888 -8.949348,-0.697761 -2.803716,-0.561589 -6.271932,-2.411188 -9.23052,-2.906398 -2.301133,-0.385138 -4.964726,-0.215752 -4.964726,-0.215752 0,0 6.254232,-3.363502 7.080492,-3.803494 1.401947,-0.74636 2.605904,-1.432975 4.421473,-1.378151 1.020479,0.03082 2.288505,0.753449 2.5957,0.984308 0.580755,0.436534 0.803746,0.961957 0.809953,1.305568 0.0062,0.343609 -0.18923,0.711163 -0.49412,0.957271 -0.304887,0.246107 -0.852776,0.359188 -0.852776,0.359188 0,0 1.137772,0.389276 1.629966,0.249758 1.831313,-0.159983 2.08499,-1.189759 2.699094,-2.252718 0,0 -2.064311,-0.656825 -2.691114,-1.021098 -1.239309,-0.720281 -2.003412,-1.98759 -2.003412,-1.98759 0,0 0.888285,0.43792 1.420204,0.471541 0.542303,0.03427 1.650222,-0.358527 2.421318,-0.918949 0.742778,-0.539826 0.973352,-1.157464 1.748957,-2.128271 0.965113,-1.20804 1.851559,-1.604521 2.371063,-1.933215 1.673138,-1.058616 3.981183,-1.915231 6.666132,-2.010751 1.868112,-0.06644 2.887083,0.08826 2.820041,0.08659 l 5.524381,10.899307 z"
         id="path1334"
         style="stroke:#ffffff;stroke-width:1.21237" />
      <path
         d="m -40.212982,35.716684 c 0,0 -4.579932,-1.470141 -7.282135,-0.05746 -2.7022,1.412676 -3.680192,4.200152 -3.882284,4.623477 -0.202091,0.423325 -0.194267,2.792637 -1.427869,4.399783 -0.577627,0.75262 -3.915185,2.998737 -3.915185,2.998737 l 5.009904,0.58938 c 1.140963,0.134221 5.04807,-0.04535 6.648479,-4.090127 1.443556,-3.648009 -1.313973,-3.463404 -1.313973,-3.463404 0,0 1.32281,-1.929775 5.140946,-1.184042 2.725783,0.532429 4.559231,2.645553 4.559231,2.645553 l -3.536923,-6.461993 z"
         id="path1336"
         style="stroke:#ffffff;stroke-width:1.21237" />
      <path
         d="m -53.34139,40.779901 c -1.08849,0.145556 -1.484383,-0.0034 -2.154261,-0.197201 -0.717169,-0.207381 -1.540637,-0.491522 -2.500471,-1.06166 -0.892778,-0.530391 -1.620287,-1.707102 -1.620287,-1.707102 0,0 0.891519,0.566193 1.800008,0.329473 1.002834,-0.261303 1.498859,-0.436851 2.288987,-1.064266 0.826177,-0.656055 1.595226,-2.692566 3.817448,-3.861607 1.906746,-1.003141 4.99392,-2.041601 6.274191,-2.022729 1.280269,0.01887 2.915195,-0.07047 2.915195,-0.07047 l 2.270578,4.350898 c 0,0 -1.84267,-0.416996 -3.500885,-0.450011 -1.658212,-0.03301 -3.308913,0.353475 -4.015676,0.722945 -0.706766,0.369469 -1.799992,1.417391 -2.313064,2.056156 -0.513072,0.638768 -1.081839,1.677207 -1.161172,1.930421 -0.559861,0.636249 -1.39474,0.885677 -2.100445,1.045112 z"
         id="path1338"
         style="stroke:#ffffff;stroke-width:1.21237" />
      <path
         d="m -13.801385,-40.057746 c 0,0 2.166329,-2.467284 2.759512,-5.171178 0.316735,-1.443805 0.11321,-1.996681 -0.367879,-3.337549 -0.312508,-0.870972 -0.97875,-1.330143 -0.97875,-1.330143 -0.594209,4.287713 -6.674829,0.66116 -7.35371,-3.183998 -0.322847,-2.295732 0.207889,-6.503435 0.697762,-8.949349 0.561589,-2.803715 2.411188,-6.271932 2.906398,-9.230519 0.385138,-2.301134 0.215752,-4.964726 0.215752,-4.964726 0,0 3.363502,6.254232 3.803493,7.080491 0.746361,1.401947 1.432976,2.605904 1.378151,4.421472 -0.03082,1.020481 -0.753448,2.288507 -0.984308,2.595701 -0.436533,0.580755 -0.961956,0.803746 -1.305568,0.809953 -0.343609,0.0062 -0.711163,-0.18923 -0.95727,-0.49412 -0.246108,-0.304887 -0.359188,-0.852776 -0.359188,-0.852776 0,0 -0.389276,1.137772 -0.249759,1.629966 0.159983,1.831314 1.18976,2.084991 2.252718,2.699094 0,0 0.656826,-2.064311 1.021099,-2.691114 0.72028,-1.239308 1.9875896,-2.003411 1.9875896,-2.003411 0,0 -0.4379198,0.888285 -0.4715404,1.420203 -0.034274,0.542303 0.3585263,1.650222 0.9189482,2.421319 0.5398267,0.742778 1.1574647,0.973351 2.1282713,1.748956 1.2080398,0.965113 1.6045206,1.85156 1.9332151,2.371064 1.0586164,1.673137 1.9152314,3.981183 2.0107513,6.666132 0.066434,1.868112 -0.088265,2.887083 -0.086596,2.82004 l -10.8993061,5.524381 z"
         id="path1342"
         style="stroke:#ffffff;stroke-width:1.21237" />
      <path
         d="m -7.3057263,-43.583771 c 0,0 1.4701414,-4.579932 0.057462,-7.282135 -1.4126765,-2.7022 -4.2001517,-3.680193 -4.6234767,-3.882284 -0.423326,-0.202092 -2.792638,-0.194268 -4.399783,-1.427869 -0.752621,-0.577628 -2.998737,-3.915185 -2.998737,-3.915185 l -0.589381,5.009904 c -0.13422,1.140962 0.04536,5.04807 4.090128,6.648479 3.648009,1.443556 3.463404,-1.313974 3.463404,-1.313974 0,0 1.929775,1.322811 1.184042,5.140947 -0.532429,2.725782 -2.645553,4.559231 -2.645553,4.559231 l 6.4619924,-3.536924 z"
         id="path1344"
         style="stroke:#ffffff;stroke-width:1.21237" />
      <path
         d="m -12.368944,-56.712179 c -0.145555,-1.088491 0.0034,-1.484384 0.197202,-2.154261 0.207381,-0.717169 0.491522,-1.540637 1.061659,-2.500472 0.530392,-0.892778 1.7071025,-1.620287 1.7071025,-1.620287 0,0 -0.5661924,0.891519 -0.3294724,1.800008 0.2613025,1.002835 0.4368509,1.49886 1.0642653,2.288987 0.6560556,0.826178 2.6925667,1.595226 3.861607,3.817448 1.0031412,1.906747 2.0416017,4.993921 2.0227289,6.274192 -0.018865,1.280268 0.070474,2.915195 0.070474,2.915195 l -4.3508982,2.270577 c 0,0 0.4169966,-1.842669 0.4500113,-3.500884 0.033015,-1.658213 -0.3534754,-3.308914 -0.7229449,-4.015677 -0.3694694,-0.706765 -1.4173914,-1.799992 -2.0561564,-2.313064 -0.6387671,-0.513072 -1.6772061,-1.081839 -1.9304211,-1.161172 -0.636248,-0.559861 -0.885676,-1.39474 -1.045112,-2.100445 z"
         id="path1346"
         style="stroke:#ffffff;stroke-width:1.21237" />
      <path
         d="m 45.583132,65.097914 c 0,0 -2.166329,2.467285 -2.759512,5.171178 -0.316735,1.443805 -0.113209,1.996681 0.36788,3.337549 0.312507,0.870972 0.978749,1.330143 0.978749,1.330143 0.594209,-4.287713 6.674829,-0.661159 7.35371,3.183998 0.322847,2.295732 -0.207888,6.503435 -0.697762,8.949349 -0.561588,2.803715 -2.411187,6.271932 -2.906397,9.230519 -0.385138,2.301134 -0.215752,4.96473 -0.215752,4.96473 0,0 -3.363503,-6.254236 -3.803494,-7.080495 -0.74636,-1.401948 -1.432975,-2.605905 -1.378151,-4.421473 0.03082,-1.020479 0.753449,-2.288506 0.984308,-2.5957 0.436534,-0.580755 0.961956,-0.803746 1.305568,-0.809953 0.343609,-0.0062 0.711163,0.18923 0.95727,0.49412 0.246108,0.304887 0.359188,0.852776 0.359188,0.852776 0,0 0.389276,-1.137772 0.249759,-1.629966 -0.159983,-1.831314 -1.18976,-2.084991 -2.252718,-2.699094 0,0 -0.656826,2.064311 -1.021099,2.691114 -0.72028,1.239308 -1.987589,2.003412 -1.987589,2.003412 0,0 0.43792,-0.888286 0.47154,-1.420204 0.03427,-0.542303 -0.358526,-1.650222 -0.918948,-2.421318 -0.539827,-0.742779 -1.157465,-0.973352 -2.128271,-1.748957 -1.20804,-0.965113 -1.604521,-1.85156 -1.933215,-2.371064 -1.058617,-1.673137 -1.915232,-3.981182 -2.010752,-6.666132 -0.06643,-1.868111 0.08826,-2.887083 0.0866,-2.82004 L 45.58335,65.098025 Z"
         id="path1350"
         style="stroke:#ffffff;stroke-width:1.21237" />
      <path
         d="m 39.087474,68.623939 c 0,0 -1.470142,4.579933 -0.05746,7.282135 1.412677,2.7022 4.200152,3.680193 4.623478,3.882284 0.423325,0.202092 2.792637,0.194268 4.399782,1.427869 0.752621,0.577628 2.998738,3.915185 2.998738,3.915185 l 0.58938,-5.009903 c 0.134221,-1.140963 -0.04535,-5.048071 -4.090127,-6.64848 -3.648009,-1.443556 -3.463404,1.313974 -3.463404,1.313974 0,0 -1.929776,-1.322811 -1.184042,-5.140946 0.532429,-2.725783 2.645553,-4.559232 2.645553,-4.559232 l -6.461993,3.536924 z"
         id="path1352"
         style="stroke:#ffffff;stroke-width:1.21237" />
      <path
         d="m 44.150691,81.752347 c 0.145555,1.088491 -0.0034,1.484384 -0.197202,2.154262 -0.20738,0.717169 -0.491522,1.540637 -1.061659,2.500471 -0.530392,0.892778 -1.707102,1.620287 -1.707102,1.620287 0,0 0.566192,-0.891519 0.329472,-1.800008 -0.261302,-1.002834 -0.436851,-1.498859 -1.064265,-2.288987 -0.656056,-0.826178 -2.692567,-1.595226 -3.861607,-3.817448 -1.003141,-1.906746 -2.041602,-4.993921 -2.022729,-6.274192 0.01886,-1.280268 -0.07047,-2.915195 -0.07047,-2.915195 l 4.350898,-2.270577 c 0,0 -0.416997,1.842669 -0.450011,3.500884 -0.03301,1.658213 0.353475,3.308914 0.722944,4.015677 0.36947,0.706765 1.417392,1.799992 2.056157,2.313064 0.638768,0.513072 1.677207,1.081839 1.930421,1.161172 0.636249,0.559861 0.885677,1.39474 1.045112,2.100445 z"
         id="path1354"
         style="stroke:#ffffff;stroke-width:1.21237" />
      <path
         d="m 68.470027,-17.172174 c 0,0 2.467284,2.166329 5.171178,2.759511 1.443804,0.316736 1.99668,0.11321 3.337549,-0.367879 0.870971,-0.312507 1.330142,-0.978749 1.330142,-0.978749 -4.287713,-0.59421 -0.661159,-6.674829 3.183999,-7.35371 2.295731,-0.322848 6.503434,0.207888 8.949348,0.697761 2.803716,0.561589 6.271932,2.411188 9.230519,2.906398 2.301138,0.385138 4.964728,0.215752 4.964728,0.215752 0,0 -6.254233,3.363502 -7.080492,3.803494 -1.401948,0.74636 -2.605905,1.432975 -4.421474,1.378151 -1.020479,-0.03082 -2.288505,-0.753449 -2.5957,-0.984308 -0.580755,-0.436534 -0.803746,-0.961957 -0.809953,-1.305568 -0.0062,-0.343609 0.18923,-0.711163 0.49412,-0.957271 0.304888,-0.246107 0.852776,-0.359187 0.852776,-0.359187 0,0 -1.137772,-0.389277 -1.629965,-0.249759 -1.831314,0.159983 -2.084991,1.18976 -2.699094,2.252718 0,0 2.064311,0.656825 2.691114,1.021098 1.239308,0.720281 2.003411,1.98759 2.003411,1.98759 0,0 -0.888285,-0.43792 -1.420203,-0.47154 -0.542304,-0.03428 -1.650223,0.358526 -2.421319,0.918948 -0.742778,0.539826 -0.973352,1.157465 -1.748957,2.128271 -0.965112,1.2080399 -1.851559,1.6045207 -2.371063,1.9332152 -1.673138,1.0586164 -3.981183,1.9152314 -6.666132,2.0107513 -1.868112,0.066434 -2.887083,-0.088265 -2.82004,-0.086595 L 68.470138,-17.172388 Z"
         id="path1358"
         style="stroke:#ffffff;stroke-width:1.21237" />
      <path
         d="m 71.996052,-10.676516 c 0,0 4.579932,1.4701415 7.282135,0.05746 2.7022,-1.412676 3.680193,-4.200152 3.882284,-4.623477 0.202091,-0.423325 0.194268,-2.792637 1.427869,-4.399783 0.577628,-0.75262 3.915185,-2.998737 3.915185,-2.998737 l -5.009904,-0.58938 c -1.140963,-0.134221 -5.04807,0.04536 -6.648479,4.090127 -1.443556,3.648009 1.313974,3.463404 1.313974,3.463404 0,0 -1.322811,1.929775 -5.140947,1.184042 -2.725782,-0.532429 -4.559231,-2.645553 -4.559231,-2.645553 l 3.536923,6.461993 z"
         id="path1360"
         style="stroke:#ffffff;stroke-width:1.21237" />
      <path
         d="m 85.12446,-15.739733 c 1.08849,-0.145556 1.484384,0.0034 2.154261,0.197202 0.717169,0.20738 1.540637,0.491521 2.500471,1.061659 0.892779,0.530391 1.620287,1.707102 1.620287,1.707102 0,0 -0.891518,-0.566193 -1.800008,-0.329472 -1.002834,0.261302 -1.498859,0.43685 -2.288987,1.064265 -0.826177,0.656055 -1.595226,2.6925665 -3.817448,3.8616067 -1.906746,1.0031413 -4.99392,2.0416017 -6.274191,2.022729 -1.280269,-0.018865 -2.915195,0.070474 -2.915195,0.070474 l -2.270578,-4.3508977 c 0,0 1.84267,0.416996 3.500885,0.4500108 1.658213,0.033015 3.308914,-0.3534748 4.015676,-0.7229448 0.706766,-0.369469 1.799993,-1.417391 2.313065,-2.056156 0.513072,-0.638768 1.081839,-1.677207 1.161171,-1.930421 0.559861,-0.636249 1.394741,-0.885677 2.100445,-1.045112 z"
         id="path1362"
         style="stroke:#ffffff;stroke-width:1.21237" />
      <path
         d="m -21.666502,59.802583 c 0,0 -3.100835,-1.079669 -5.829401,-0.612637 -1.456976,0.249388 -1.89276,0.645869 -2.954361,1.595845 -0.689568,0.617074 -0.864537,1.407091 -0.864537,1.407091 4.196575,-1.061612 3.122464,5.936527 -0.185327,8.011424 -2.00591,1.162381 -6.104475,2.252726 -8.555143,2.718483 -2.809182,0.533842 -6.718422,0.124029 -9.646158,0.77761 -2.277126,0.508371 -4.681612,1.66687 -4.681612,1.66687 0,0 4.530672,-5.4684 5.130872,-6.186794 1.018452,-1.218753 1.875906,-2.307694 3.578889,-2.939566 0.957201,-0.355156 2.403916,-0.16233 2.775378,-0.06392 0.702292,0.186134 1.106485,0.589163 1.241441,0.905232 0.134953,0.316066 0.09206,0.730141 -0.09792,1.072835 -0.189981,0.342694 -0.655156,0.653489 -0.655156,0.653489 0,0 1.200674,-0.0671 1.604299,-0.38145 1.636802,-0.83684 1.484661,-1.886452 1.654026,-3.102337 0,0 -2.159838,0.167568 -2.877624,0.0657 -1.41922,-0.201443 -2.603788,-1.088464 -2.603788,-1.088464 0,0 0.987779,0.07179 1.493316,-0.09707 0.515403,-0.172151 1.394341,-0.952725 1.898142,-1.761969 0.485301,-0.779515 0.466722,-1.438539 0.820391,-2.62976 0.440071,-1.482304 1.112401,-2.183011 1.4702,-2.68293 1.152334,-1.610069 2.968953,-3.271689 5.421002,-4.369771 1.706079,-0.763995 2.708461,-1.003787 2.645709,-0.980125 l 9.217345,8.022447 z"
         id="path1366"
         style="stroke:#ffffff;stroke-width:1.21239" />
      <path
         d="m -27.37628,55.109306 c 0,0 -4.796713,0.35982 -6.769486,2.684915 -1.97277,2.325095 -1.83089,5.275802 -1.858981,5.744059 -0.02809,0.468257 0.870048,2.660801 0.331256,4.613886 -0.252256,0.914601 -2.500387,4.250886 -2.500387,4.250886 l 4.863965,-1.337638 c 1.107723,-0.304639 4.660665,-1.940158 4.622777,-6.289956 -0.03404,-3.923167 -2.519852,-2.715241 -2.519852,-2.715241 0,0 0.500144,-2.28559 4.318566,-3.030231 2.726004,-0.531555 5.219501,0.737143 5.219501,0.737143 l -5.707218,-4.657987 z"
         id="path1368"
         style="stroke:#ffffff;stroke-width:1.21239" />
      <path
         d="m -37.637692,64.737488 c -0.953904,0.544161 -1.376775,0.554956 -2.070364,0.62729 -0.742532,0.0775 -1.612426,0.123836 -2.716221,-0.04356 -1.026712,-0.155784 -2.143302,-0.972613 -2.143302,-0.972613 0,0 1.039008,0.189431 1.791835,-0.371523 0.831009,-0.619209 1.224635,-0.968391 1.720879,-1.846871 0.51888,-0.918575 0.465757,-3.09485 2.085372,-5.0137 1.389666,-1.646505 3.859877,-3.769591 5.053317,-4.233498 1.193437,-0.463907 2.674821,-1.161452 2.674821,-1.161452 l 3.739983,3.177932 c 0,0 -1.864278,0.306461 -3.413249,0.899377 -1.548974,0.592912 -2.933245,1.571728 -3.449233,2.179844 -0.515988,0.608115 -1.13498,1.990222 -1.370227,2.775045 -0.235249,0.784823 -0.371821,1.960941 -0.350123,2.225408 -0.279548,0.800084 -0.959389,1.345136 -1.553371,1.758227 z"
         id="path1370"
         style="stroke:#ffffff;stroke-width:1.21239" />
      <path
         d="m -31.391625,-25.037292 c 0,0 1.079669,-3.100835 0.612637,-5.829401 -0.249388,-1.456975 -0.645869,-1.89276 -1.595845,-2.954361 -0.617074,-0.689567 -1.407091,-0.864536 -1.407091,-0.864536 1.061612,4.196574 -5.936528,3.122464 -8.011424,-0.185328 -1.162381,-2.005909 -2.252726,-6.104474 -2.718483,-8.555143 -0.533842,-2.809182 -0.124029,-6.718422 -0.77761,-9.646158 -0.508371,-2.277126 -1.66687,-4.681611 -1.66687,-4.681611 0,0 5.4684,4.530672 6.186794,5.130871 1.218753,1.018453 2.307693,1.875906 2.939566,3.578889 0.355155,0.957202 0.16233,2.403917 0.06392,2.775379 -0.186134,0.702291 -0.589164,1.106484 -0.905232,1.24144 -0.316066,0.134954 -0.730142,0.09206 -1.072835,-0.09793 -0.342694,-0.189981 -0.653489,-0.655155 -0.653489,-0.655155 0,0 0.0671,1.200673 0.381449,1.604298 0.83684,1.636802 1.886453,1.484662 3.102338,1.654027 0,0 -0.167569,-2.159839 -0.0657,-2.877624 0.201443,-1.41922 1.088464,-2.603789 1.088464,-2.603789 0,0 -0.07179,0.98778 0.09707,1.493316 0.172151,0.515403 0.952725,1.394341 1.761969,1.898142 0.779515,0.485302 1.438539,0.466723 2.629759,0.820391 1.482305,0.440071 2.183011,1.112401 2.682931,1.4702 1.610069,1.152334 3.271689,2.968953 4.369771,5.421003 0.763995,1.706078 1.003787,2.70846 0.980125,2.645709 l -8.022447,9.217345 z"
         id="path1374"
         style="stroke:#ffffff;stroke-width:1.21239" />
      <path
         d="m -26.698348,-30.747069 c 0,0 -0.35982,-4.796713 -2.684915,-6.769486 -2.325095,-1.972771 -5.275802,-1.830891 -5.744059,-1.858981 -0.468257,-0.02809 -2.660801,0.870048 -4.613886,0.331255 -0.914601,-0.252256 -4.250886,-2.500386 -4.250886,-2.500386 l 1.337638,4.863965 c 0.304639,1.107723 1.940158,4.660664 6.289955,4.622776 3.923168,-0.03404 2.715242,-2.519852 2.715242,-2.519852 0,0 2.28559,0.500144 3.03023,4.318566 0.531556,2.726005 -0.737142,5.219502 -0.737142,5.219502 l 4.657987,-5.707219 z"
         id="path1376"
         style="stroke:#ffffff;stroke-width:1.21239" />
      <path
         d="m -36.32653,-41.008481 c -0.544161,-0.953905 -0.554956,-1.376775 -0.62729,-2.070365 -0.0775,-0.742532 -0.123836,-1.612426 0.04356,-2.71622 0.155784,-1.026713 0.972614,-2.143302 0.972614,-2.143302 0,0 -0.189431,1.039008 0.371523,1.791835 0.619209,0.831008 0.96839,1.224634 1.846871,1.720879 0.918575,0.518879 3.094849,0.465756 5.0137,2.085371 1.646505,1.389666 3.76959,3.859877 4.233498,5.053317 0.463907,1.193438 1.161452,2.674821 1.161452,2.674821 l -3.177932,3.739983 c 0,0 -0.306462,-1.864277 -0.899377,-3.413249 -0.592913,-1.548974 -1.571728,-2.933245 -2.179844,-3.449232 -0.608115,-0.515988 -1.990222,-1.134981 -2.775045,-1.370227 -0.784823,-0.235249 -1.960941,-0.371822 -2.225408,-0.350123 -0.800084,-0.279549 -1.345136,-0.95939 -1.758227,-1.553372 z"
         id="path1378"
         style="stroke:#ffffff;stroke-width:1.21239" />
      <path
         d="m 63.176018,50.077725 c 0,0 -1.079669,3.100834 -0.612637,5.8294 0.249388,1.456976 0.645869,1.892761 1.595845,2.954362 0.617074,0.689567 1.407091,0.864536 1.407091,0.864536 -1.061611,-4.196575 5.936528,-3.122464 8.011425,0.185328 1.16238,2.005909 2.252726,6.104474 2.718482,8.555143 0.533842,2.809182 0.124029,6.718421 0.777611,9.646158 0.50837,2.277125 1.666869,4.681611 1.666869,4.681611 0,0 -5.4684,-4.530672 -6.186794,-5.130871 -1.218753,-1.018453 -2.307693,-1.875907 -2.939566,-3.578889 -0.355155,-0.957202 -0.16233,-2.403917 -0.06392,-2.775379 0.186135,-0.702291 0.589164,-1.106485 0.905232,-1.241441 0.316066,-0.134953 0.730142,-0.09206 1.072835,0.09793 0.342694,0.189982 0.65349,0.655156 0.65349,0.655156 0,0 -0.0671,-1.200674 -0.38145,-1.604298 -0.83684,-1.636803 -1.886453,-1.484662 -3.102338,-1.654027 0,0 0.167569,2.159839 0.0657,2.877624 -0.201443,1.41922 -1.088464,2.603789 -1.088464,2.603789 0,0 0.07179,-0.98778 -0.09707,-1.493317 -0.172152,-0.515403 -0.952725,-1.394341 -1.761969,-1.898142 -0.779516,-0.485301 -1.43854,-0.466722 -2.62976,-0.820391 -1.482304,-0.44007 -2.183011,-1.112401 -2.682931,-1.470199 -1.61006,-1.15234 -3.27168,-2.968958 -4.369762,-5.421008 -0.763995,-1.706078 -1.003787,-2.70846 -0.980125,-2.645709 l 8.022447,-9.217345 z"
         id="path1382"
         style="stroke:#ffffff;stroke-width:1.21239" />
      <path
         d="m 58.482741,55.787502 c 0,0 0.359821,4.796713 2.684915,6.769486 2.325095,1.97277 5.275803,1.83089 5.744059,1.858981 0.468257,0.02809 2.660801,-0.870048 4.613887,-0.331256 0.914601,0.252257 4.250885,2.500387 4.250885,2.500387 l -1.337638,-4.863965 c -0.304638,-1.107723 -1.940158,-4.660665 -6.289955,-4.622776 -3.923168,0.03404 -2.715242,2.519852 -2.715242,2.519852 0,0 -2.285589,-0.500145 -3.03023,-4.318566 -0.531556,-2.726005 0.737142,-5.219502 0.737142,-5.219502 l -4.657987,5.707219 z"
         id="path1384"
         style="stroke:#ffffff;stroke-width:1.21239" />
      <path
         d="m 68.110924,66.048914 c 0.54416,0.953905 0.554955,1.376775 0.62729,2.070364 0.0775,0.742532 0.123835,1.612427 -0.04356,2.716221 -0.155784,1.026713 -0.972614,2.143302 -0.972614,2.143302 0,0 0.189431,-1.039008 -0.371522,-1.791835 -0.61921,-0.831009 -0.968391,-1.224635 -1.846871,-1.720879 -0.918575,-0.51888 -3.09485,-0.465757 -5.013701,-2.085372 -1.646505,-1.389666 -3.76959,-3.859876 -4.233497,-5.053316 -0.463907,-1.193438 -1.161452,-2.674822 -1.161452,-2.674822 l 3.177931,-3.739983 c 0,0 0.306462,1.864278 0.899377,3.41325 0.592913,1.548974 1.571728,2.933244 2.179844,3.449232 0.608116,0.515988 1.990222,1.134981 2.775045,1.370227 0.784823,0.235249 1.960941,0.371822 2.225408,0.350123 0.800084,0.279548 1.345136,0.95939 1.758228,1.553371 z"
         id="path1386"
         style="stroke:#ffffff;stroke-width:1.21239" />
      <path
         d="m 53.450102,-34.765061 c 0,0 3.100835,1.07967 5.8294,0.612638 1.456976,-0.249389 1.892761,-0.645869 2.954362,-1.595845 0.689567,-0.617075 0.864536,-1.407091 0.864536,-1.407091 -4.196574,1.061611 -3.122464,-5.936528 0.185328,-8.011425 2.005909,-1.162381 6.104474,-2.252726 8.555143,-2.718482 2.809182,-0.533842 6.718422,-0.124029 9.646158,-0.777611 2.277126,-0.50837 4.681611,-1.66687 4.681611,-1.66687 0,0 -4.530672,5.468401 -5.130871,6.186795 -1.018453,1.218753 -1.875906,2.307693 -3.578889,2.939566 -0.957202,0.355155 -2.403917,0.162329 -2.775379,0.06392 -0.702291,-0.186135 -1.106485,-0.589164 -1.241441,-0.905233 -0.134953,-0.316066 -0.09206,-0.730141 0.09793,-1.072835 0.189982,-0.342693 0.655156,-0.653489 0.655156,-0.653489 0,0 -1.200674,0.0671 -1.604298,0.38145 -1.636803,0.83684 -1.484662,1.886453 -1.654027,3.102337 0,0 2.159839,-0.167568 2.877624,-0.0657 1.41922,0.201444 2.603789,1.088464 2.603789,1.088464 0,0 -0.98778,-0.07179 -1.493317,0.09707 -0.515403,0.172151 -1.394341,0.952725 -1.898142,1.761969 -0.485301,0.779515 -0.466722,1.43854 -0.82039,2.62976 -0.440071,1.482304 -1.112401,2.183011 -1.4702,2.68293 -1.152335,1.610069 -2.968953,3.27169 -5.421003,4.369771 -1.706078,0.763995 -2.70846,1.003787 -2.645709,0.980126 l -9.217345,-8.022447 z"
         id="path1390"
         style="stroke:#ffffff;stroke-width:1.21239" />
      <path
         d="m 59.159879,-30.071784 c 0,0 4.796713,-0.35982 6.769486,-2.684915 1.972771,-2.325094 1.83089,-5.275802 1.858981,-5.744059 0.02809,-0.468257 -0.870048,-2.6608 -0.331256,-4.613886 0.252257,-0.914601 2.500387,-4.250886 2.500387,-4.250886 l -4.863965,1.337638 c -1.107723,0.304639 -4.660664,1.940158 -4.622776,6.289956 0.03404,3.923167 2.519852,2.715241 2.519852,2.715241 0,0 -0.500145,2.28559 -4.318566,3.030231 -2.726005,0.531556 -5.219502,-0.737143 -5.219502,-0.737143 l 5.707219,4.657987 z"
         id="path1392"
         style="stroke:#ffffff;stroke-width:1.21239" />
      <path
         d="m 69.421291,-39.699966 c 0.953905,-0.54416 1.376775,-0.554955 2.070365,-0.62729 0.742531,-0.0775 1.612426,-0.123835 2.71622,0.04356 1.026713,0.155784 2.143302,0.972613 2.143302,0.972613 0,0 -1.039008,-0.189431 -1.791835,0.371523 -0.831008,0.61921 -1.224634,0.968391 -1.720879,1.846871 -0.51888,0.918575 -0.465757,3.09485 -2.085372,5.013701 -1.389665,1.646504 -3.859876,3.76959 -5.053316,4.233497 -1.193438,0.463907 -2.674821,1.161452 -2.674821,1.161452 l -3.739984,-3.177931 c 0,0 1.864278,-0.306462 3.41325,-0.899377 1.548974,-0.592913 2.933245,-1.571729 3.449232,-2.179844 0.515988,-0.608116 1.134981,-1.990223 1.370227,-2.775045 0.235249,-0.784823 0.371822,-1.960941 0.350123,-2.225408 0.279548,-0.800084 0.95939,-1.345137 1.553372,-1.758228 z"
         id="path1394"
         style="stroke:#ffffff;stroke-width:1.21239" />
      <path
         d="m -44.099192,19.398071 c 0,0 -1.429176,-2.956052 -3.688794,-4.555194 -1.206577,-0.85389 -1.795079,-0.881682 -3.217471,-0.960612 -0.923933,-0.05126 -1.606278,0.383643 -1.606278,0.383643 3.718084,2.216745 -1.989836,6.40565 -5.79596,5.533866 -2.240309,-0.596463 -5.909411,-2.723589 -7.971629,-4.127129 -2.363866,-1.608902 -4.838325,-4.662924 -7.37069,-6.2709851 C -75.71965,8.150964 -78.239053,7.26992 -78.239053,7.26992 c 0,0 7.070388,-0.6630696 8.002771,-0.7466462 1.581937,-0.1416315 2.958241,-0.3053186 4.609227,0.4520697 0.927973,0.4257066 1.814604,1.5850341 2.007679,1.9172846 0.364974,0.6282081 0.365799,1.1990019 0.237733,1.5179199 -0.128066,0.318918 -0.451193,0.581379 -0.827849,0.689364 -0.376657,0.107984 -0.925347,-0.0011 -0.925347,-0.0011 0,0 0.896444,0.801555 1.404129,0.864679 1.749124,0.565658 2.38373,-0.284107 3.363244,-1.024107 0,0 -1.645716,-1.4087393 -2.081238,-1.9883197 -0.861095,-1.1459766 -1.071492,-2.6108078 -1.071492,-2.6108078 0,0 0.647703,0.7492233 1.124566,0.9872927 0.486172,0.2427155 1.659621,0.3122719 2.588083,0.09629 0.894358,-0.2080392 1.347216,-0.6871758 2.439615,-1.2794138 1.35932,-0.7369678 2.330198,-0.7570338 2.936695,-0.8575252 1.953307,-0.3236674 4.412784,-0.2140664 6.923098,0.743331 1.746599,0.6661494 2.624947,1.2053808 2.563844,1.1777398 l 0.844918,12.19033 z"
         id="path1398"
         style="stroke:#ffffff;stroke-width:1.21238" />
      <path
         d="m -44.817965,12.042024 c 0,0 -3.646207,-3.1373441 -6.685248,-2.8882151 -3.039038,0.249129 -5.02517,2.4359131 -5.37614,2.7471551 -0.35097,0.311243 -1.266251,2.49668 -3.028267,3.496731 -0.82509,0.468347 -4.773854,1.237784 -4.773854,1.237784 l 4.385178,2.493481 c 0.998689,0.567862 4.66747,1.923682 7.716441,-1.178869 2.750018,-2.79816 0.138163,-3.701757 0.138163,-3.701757 0,0 1.969804,-1.262496 5.196363,0.910987 2.303436,1.551705 3.169497,4.211968 3.169497,4.211968 l -0.741918,-7.329281 z"
         id="path1400"
         style="stroke:#ffffff;stroke-width:1.21238" />
      <path
         d="m -58.881981,11.594265 c -1.059289,-0.28973 -1.365936,-0.58111 -1.907522,-1.020403 -0.57985,-0.470247 -1.227719,-1.0525866 -1.889848,-1.9514555 -0.615837,-0.8361495 -0.827799,-2.203278 -0.827799,-2.203278 0,0 0.600738,0.868635 1.529721,1.0043107 1.025453,0.1497621 1.550694,0.1811893 2.52277,-0.089091 1.016431,-0.2826253 2.51772,-1.8590419 5.019786,-2.0706344 2.146888,-0.18161 5.394825,0.063841 6.566744,0.5796967 1.171917,0.5158555 2.712646,1.0701126 2.712646,1.0701126 l 0.397428,4.8916859 c 0,0 -1.534938,-1.101537 -3.049476,-1.777571 -1.514536,-0.6760324 -3.185488,-0.9627323 -3.980344,-0.8975892 -0.794856,0.065143 -2.209845,0.6047449 -2.931142,0.9933522 -0.721296,0.388609 -1.649502,1.123675 -1.821166,1.326025 -0.763413,0.36807 -1.629543,0.272762 -2.341648,0.144852 z"
         id="path1402"
         style="stroke:#ffffff;stroke-width:1.21238" />
      <path
         d="m 9.015533,-47.472628 c 0,0 2.956052,-1.429176 4.555194,-3.688794 0.853889,-1.206577 0.881681,-1.795079 0.960612,-3.217471 0.05126,-0.923933 -0.383643,-1.606277 -0.383643,-1.606277 -2.216746,3.718083 -6.4056502,-1.989836 -5.5338667,-5.79596 0.5964635,-2.24031 2.7235887,-5.909412 4.1271297,-7.971629 1.608902,-2.363866 4.662924,-4.838326 6.270985,-7.370691 1.250696,-1.969635 2.13174,-4.489039 2.13174,-4.489039 0,0 0.663069,7.070389 0.746646,8.002771 0.141631,1.581938 0.305318,2.958242 -0.45207,4.609228 -0.425707,0.927973 -1.585034,1.814603 -1.917285,2.007678 -0.628208,0.364975 -1.199001,0.3658 -1.517919,0.237734 -0.318919,-0.128066 -0.58138,-0.451194 -0.689364,-0.82785 -0.107985,-0.376656 0.0011,-0.925347 0.0011,-0.925347 0,0 -0.801555,0.896445 -0.864679,1.40413 -0.565658,1.749123 0.284106,2.383729 1.024106,3.363244 0,0 1.40874,-1.645717 1.98832,-2.081239 1.145977,-0.861095 2.610808,-1.071491 2.610808,-1.071491 0,0 -0.749223,0.647702 -0.987293,1.124566 -0.242715,0.486172 -0.312271,1.659621 -0.09629,2.588082 0.208039,0.894359 0.687175,1.347217 1.279413,2.439615 0.736968,1.359321 0.757034,2.330199 0.857526,2.936695 0.323667,1.953308 0.214066,4.412784 -0.743331,6.923098 -0.66615,1.746599 -1.205381,2.624947 -1.17774,2.563844 l -12.1903305,0.844918 z"
         id="path1406"
         style="stroke:#ffffff;stroke-width:1.21238" />
      <path
         d="m 16.371579,-48.1914 c 0,0 3.137345,-3.646207 2.888216,-6.685248 -0.249129,-3.039039 -2.435913,-5.02517 -2.747156,-5.37614 -0.311242,-0.35097 -2.49668,-1.266251 -3.49673,-3.028267 -0.468347,-0.825089 -1.237785,-4.773855 -1.237785,-4.773855 l -2.4934807,4.385179 c -0.5678619,0.998689 -1.9236822,4.667469 1.1788697,7.71644 2.798159,2.750019 3.701756,0.138163 3.701756,0.138163 0,0 1.262497,1.969804 -0.910987,5.196364 -1.551704,2.303436 -4.2119679,3.169496 -4.2119679,3.169496 l 7.3292809,-0.741918 z"
         id="path1408"
         style="stroke:#ffffff;stroke-width:1.21238" />
      <path
         d="m 16.819339,-62.255417 c 0.289729,-1.059288 0.58111,-1.365935 1.020403,-1.907522 0.470246,-0.579848 1.052586,-1.227719 1.951455,-1.889847 0.83615,-0.615838 2.203278,-0.8278 2.203278,-0.8278 0,0 -0.868635,0.600739 -1.004311,1.529721 -0.149762,1.025453 -0.181189,1.550695 0.08909,2.52277 0.282625,1.016432 1.859042,2.51772 2.070634,5.019787 0.18161,2.146887 -0.06384,5.394825 -0.579696,6.566744 -0.515856,1.171916 -1.070113,2.712646 -1.070113,2.712646 l -4.891685,0.397428 c 0,0 1.101537,-1.534938 1.777571,-3.049477 0.676031,-1.514536 0.962731,-3.185488 0.897588,-3.980344 -0.06514,-0.794856 -0.604745,-2.209845 -0.993351,-2.931141 -0.38861,-0.721297 -1.123675,-1.649503 -1.326026,-1.821167 -0.36807,-0.763413 -0.272761,-1.629542 -0.144851,-2.341647 z"
         id="path1410"
         style="stroke:#ffffff;stroke-width:1.21238" />
      <path
         d="m 22.76886,72.51015 c 0,0 -2.956052,1.429176 -4.555193,3.688794 -0.85389,1.206577 -0.881682,1.795079 -0.960613,3.217471 -0.05126,0.923933 0.383644,1.606278 0.383644,1.606278 2.216745,-3.718084 6.405649,1.989836 5.533866,5.795959 -0.596464,2.240309 -2.723589,5.909411 -4.12713,7.971629 -1.608902,2.363867 -4.662924,4.838327 -6.270984,7.370689 -1.250696,1.96964 -2.13174,4.48904 -2.13174,4.48904 0,0 -0.66307,-7.070387 -0.7466466,-8.002771 -0.1416315,-1.581936 -0.3053186,-2.95824 0.4520696,-4.609227 0.425707,-0.927973 1.585034,-1.814602 1.917285,-2.007679 0.628208,-0.364974 1.199001,-0.365797 1.51792,-0.237734 0.318918,0.128067 0.581379,0.451194 0.689363,0.827852 0.107985,0.376656 -0.0011,0.925346 -0.0011,0.925346 0,0 0.801555,-0.896445 0.86468,-1.40413 0.565658,-1.749124 -0.284107,-2.383729 -1.024107,-3.363243 0,0 -1.40874,1.645716 -1.98832,2.081239 -1.145977,0.861094 -2.6108078,1.071491 -2.6108078,1.071491 0,0 0.7492228,-0.647703 0.9872928,-1.124567 0.242715,-0.486172 0.312272,-1.65962 0.09629,-2.588082 C 10.586631,87.324147 10.107495,86.871289 9.5152568,85.77889 8.778289,84.419569 8.758223,83.448692 8.6577316,82.842195 8.3340642,80.888887 8.4436652,78.429411 9.4010626,75.919097 10.067212,74.172498 10.606443,73.29415 10.578802,73.355253 l 12.190331,-0.844918 z"
         id="path1414"
         style="stroke:#ffffff;stroke-width:1.21238" />
      <path
         d="m 15.412814,73.228922 c 0,0 -3.137345,3.646207 -2.888216,6.685248 0.24913,3.039039 2.435913,5.025171 2.747156,5.376141 0.311243,0.350969 2.49668,1.26625 3.496731,3.028267 0.468347,0.82509 1.237784,4.773853 1.237784,4.773853 l 2.493481,-4.385178 c 0.567862,-0.998688 1.923682,-4.667469 -1.17887,-7.71644 -2.798159,-2.750018 -3.701756,-0.138163 -3.701756,-0.138163 0,0 -1.262496,-1.969804 0.910987,-5.196364 1.551704,-2.303436 4.211968,-3.169496 4.211968,-3.169496 l -7.329281,0.741918 z"
         id="path1416"
         style="stroke:#ffffff;stroke-width:1.21238" />
      <path
         d="m 14.965054,87.292939 c -0.289729,1.059289 -0.581109,1.365935 -1.020402,1.907522 -0.470247,0.57985 -1.052587,1.227719 -1.951456,1.889847 -0.836149,0.615839 -2.2032779,0.827799 -2.2032779,0.827799 0,0 0.8686349,-0.600736 1.0043109,-1.52972 0.149762,-1.025454 0.181189,-1.550694 -0.08909,-2.52277 -0.282625,-1.016432 -1.8590415,-2.51772 -2.0706341,-5.019787 -0.18161,-2.146887 0.063841,-5.394825 0.5796968,-6.566743 0.5158554,-1.171917 1.0701123,-2.712646 1.0701123,-2.712646 L 15.176,73.169013 c 0,0 -1.101538,1.534938 -1.777572,3.049476 -0.676031,1.514536 -0.962731,3.185488 -0.897588,3.980344 0.06514,0.794856 0.604745,2.209845 0.993352,2.931141 0.388609,0.721297 1.123674,1.649503 1.326025,1.821167 0.36807,0.763413 0.272762,1.629542 0.144852,2.341647 z"
         id="path1418"
         style="stroke:#ffffff;stroke-width:1.21238" />
      <path
         d="m 75.883585,5.6423621 c 0,0 1.429176,2.956052 3.688795,4.5551939 1.206576,0.853889 1.795079,0.881681 3.217471,0.960612 0.923932,0.05126 1.606277,-0.383643 1.606277,-0.383643 -3.718084,-2.2167456 1.989836,-6.4056501 5.79596,-5.5338665 2.240309,0.5964634 5.90941,2.723589 7.971628,4.1271295 2.363864,1.608902 4.838324,4.662924 7.370694,6.270985 1.96963,1.250696 4.48904,2.13174 4.48904,2.13174 0,0 -7.07039,0.663069 -8.00278,0.746646 -1.58193,0.141631 -2.958236,0.305318 -4.609222,-0.45207 -0.927973,-0.425706 -1.814603,-1.585034 -2.00768,-1.917284 -0.364974,-0.628209 -0.365797,-1.199002 -0.237733,-1.51792 0.128066,-0.318918 0.451194,-0.58138 0.827852,-0.689364 0.376655,-0.107985 0.925346,0.0011 0.925346,0.0011 0,0 -0.896446,-0.801555 -1.404131,-0.864679 -1.749123,-0.565658 -2.383729,0.284107 -3.363243,1.024106 0,0 1.645716,1.40874 2.081239,1.98832 0.861094,1.145977 1.071491,2.610808 1.071491,2.610808 0,0 -0.647702,-0.749223 -1.124566,-0.987293 -0.486172,-0.242715 -1.65962,-0.312271 -2.588083,-0.09629 -0.894358,0.208039 -1.347216,0.687175 -2.439614,1.279414 -1.359321,0.736967 -2.330199,0.757033 -2.936695,0.857525 -1.953308,0.323667 -4.412785,0.214066 -6.923098,-0.743331 -1.7466,-0.66615 -2.624948,-1.205381 -2.563845,-1.17774 L 75.883771,5.6420896 Z"
         id="path1422"
         style="stroke:#ffffff;stroke-width:1.21238" />
      <path
         d="m 76.602358,12.998408 c 0,0 3.646207,3.137345 6.685248,2.888216 3.039038,-0.249129 5.02517,-2.435913 5.37614,-2.747156 0.35097,-0.311242 1.266251,-2.496679 3.028267,-3.4967303 0.82509,-0.4683469 4.773854,-1.2377843 4.773854,-1.2377843 L 92.080689,5.9114725 c -0.998688,-0.567862 -4.66747,-1.9236823 -7.716441,1.1788695 -2.750018,2.7981592 -0.138162,3.701756 -0.138162,3.701756 0,0 -1.969805,1.262497 -5.196364,-0.9109866 C 76.726286,8.3294069 75.860225,5.6691432 75.860225,5.6691432 l 0.741918,7.3292808 z"
         id="path1424"
         style="stroke:#ffffff;stroke-width:1.21238" />
      <path
         d="m 90.666375,13.446168 c 1.059288,0.289729 1.365935,0.58111 1.907521,1.020403 0.57985,0.470246 1.22772,1.052586 1.889847,1.951455 0.615839,0.83615 0.8278,2.203278 0.8278,2.203278 0,0 -0.600737,-0.868635 -1.529721,-1.00431 -1.025453,-0.149763 -1.550694,-0.18119 -2.52277,0.08909 -1.016431,0.282625 -2.517719,1.859042 -5.019786,2.070634 -2.146887,0.18161 -5.394825,-0.06384 -6.566744,-0.579696 -1.171916,-0.515856 -2.712646,-1.070113 -2.712646,-1.070113 l -0.397428,-4.891685 c 0,0 1.534938,1.101537 3.049476,1.777571 1.514536,0.676032 3.185489,0.962731 3.980344,0.897588 0.794856,-0.06514 2.209845,-0.604744 2.931142,-0.993351 0.721296,-0.38861 1.649502,-1.123675 1.821167,-1.326026 0.763413,-0.36807 1.629542,-0.272761 2.341647,-0.144851 z"
         id="path1426"
         style="stroke:#ffffff;stroke-width:1.21238" />
      <path
         d="m 74.627217,13.116024 c 0,32.898526 -26.668611,59.567137 -59.567135,59.567137 -32.898527,0 -59.567137,-26.668611 -59.567137,-59.567137 0,-32.898524 26.66861,-59.567135 59.567137,-59.567135 32.898524,0 59.567135,26.668611 59.567135,59.567135 z"
         stroke-width="3.36661"
         id="path1430"
         style="stroke:#ffffff" />
      <path
         d="m 76.926586,13.114108 c 0,34.168527 -27.698115,61.866642 -61.866642,61.866642 -34.168526,0 -61.866641,-27.698115 -61.866641,-61.866642 0,-34.168527 27.698115,-61.866642 61.866641,-61.866642 34.168527,0 61.866642,27.698115 61.866642,61.866642 z"
         stroke-width="3.36651"
         id="path1432"
         style="stroke:#ffffff" />
      <path
         d="m 27.024045,49.51843 c 0,0 2.098921,0.09226 3.610383,1.015836 0.807074,0.493167 0.972272,0.832027 1.378458,1.648068 0.263837,0.530072 0.180827,1.041125 0.180827,1.041125 -2.243379,-1.624563 -3.261567,2.789836 -1.786417,4.80635 0.917258,1.16586 3.095572,2.7843 4.442137,3.641336 1.543569,0.982379 3.964475,1.664213 5.550173,2.74584 1.233313,0.841282 2.388428,2.099191 2.388428,2.099191 0,0 -1.398746,-4.323318 -1.585471,-4.892463 -0.31691,-0.965605 -0.568841,-1.815926 -1.43161,-2.594706 -0.484941,-0.437729 -1.390605,-0.665588 -1.634723,-0.695026 -0.461547,-0.0556 -0.797237,0.08829 -0.952285,0.244235 -0.155051,0.15594 -0.227576,0.412247 -0.195768,0.660939 0.03181,0.248693 0.234762,0.543571 0.234762,0.543571 0,0 -0.69787,-0.324128 -0.863388,-0.606549 -0.774907,-0.884958 -0.435986,-1.472893 -0.248822,-2.235782 0,0 1.244266,0.61092 1.695079,0.720291 0.891358,0.21623 1.805525,-0.03064 1.805525,-0.03064 0,0 -0.604189,-0.191166 -0.864735,-0.411223 -0.265634,-0.224351 -0.60334,-0.896445 -0.711253,-1.496777 -0.103955,-0.578281 0.06311,-0.965645 0.134866,-1.757505 C 38.259521,52.97919 38.02573,52.403483 37.931379,52.021599 37.627521,50.791678 36.940978,49.373853 35.743286,48.140598 34.909954,47.282547 34.370842,46.9027 34.402544,46.931622 L 27.024,49.518578 Z"
         id="path1436"
         style="stroke:#ffffff;stroke-width:0.775764" />
      <path
         d="m 31.529347,48.080166 c 0,0 2.766274,1.349451 3.388579,3.198653 0.622303,1.849202 -0.160575,3.569692 -0.25473,3.854702 -0.09415,0.285009 -1.147114,1.375772 -1.289185,2.664354 -0.06656,0.603411 0.480047,3.118913 0.480047,3.118913 l -2.574769,-1.946642 c -0.58638,-0.443334 -2.311278,-2.256692 -1.259007,-4.833507 0.948989,-2.324107 2.140747,-1.017566 2.140747,-1.017566 0,0 0.243763,-1.477095 -1.849856,-2.823707 -1.494665,-0.961332 -3.277296,-0.797439 -3.277296,-0.797439 l 4.495427,-1.417891 z"
         id="path1438"
         style="stroke:#ffffff;stroke-width:0.775764" />
      <path
         d="m 35.350025,56.232978 c 0.438235,0.549304 0.68706,0.655831 1.082246,0.863026 0.423061,0.221856 0.929209,0.455335 1.625,0.61713 0.647221,0.15045 1.504362,-0.07079 1.504362,-0.07079 0,0 -0.662495,-0.13336 -0.977225,-0.645046 -0.347411,-0.564824 -0.498742,-0.865582 -0.585774,-1.505283 -0.091,-0.668896 0.455784,-1.950027 -0.05275,-3.47413 -0.436316,-1.307764 -1.402149,-3.15464 -2.001779,-3.712943 -0.599634,-0.558302 -1.315125,-1.32366 -1.315125,-1.32366 l -2.975599,1.003771 c 0,0 1.03569,0.62352 1.816129,1.342679 0.780438,0.719161 1.371616,1.628735 1.534387,2.112385 0.162772,0.483653 0.203547,1.451798 0.157597,1.974038 -0.04595,0.522237 -0.243192,1.253723 -0.318702,1.405803 -0.02323,0.541798 0.251881,1.026752 0.507185,1.412935 z"
         id="path1440"
         style="stroke:#ffffff;stroke-width:0.775764" />
      <path
         d="m 52.891865,1.3869123 c 0,0 0.09226,-2.09892104 1.015836,-3.6103824 0.493168,-0.8070744 0.832028,-0.9722723 1.648069,-1.378458 0.530071,-0.2638372 1.041125,-0.1808268 1.041125,-0.1808268 -1.624563,2.2433782 2.789835,3.26156631 4.806349,1.7864163 1.16586,-0.9172574 2.7843,-3.095572 3.641336,-4.4421371 0.982379,-1.5435686 1.664213,-3.9644743 2.745841,-5.5501723 0.841282,-1.233313 2.09919,-2.388428 2.09919,-2.388428 0,0 -4.323318,1.398746 -4.892463,1.58547 -0.965605,0.31691 -1.815925,0.568841 -2.594705,1.43161 -0.437729,0.484942 -0.665589,1.3906055 -0.695026,1.6347233 -0.0556,0.4615471 0.08829,0.7972372 0.244234,0.9522857 0.15594,0.1550511 0.412247,0.227576 0.66094,0.1957678 0.248692,-0.031811 0.54357,-0.2347621 0.54357,-0.2347621 0,0 -0.324127,0.6978703 -0.606549,0.8633883 -0.884957,0.7749064 -1.472893,0.4359857 -2.235782,0.2488221 0,0 0.61092,-1.2442666 0.720291,-1.6950796 0.216231,-0.8913575 -0.03064,-1.8055245 -0.03064,-1.8055245 0,0 -0.191167,0.604189 -0.411224,0.864735 -0.22435,0.265634 -0.896445,0.60334 -1.496777,0.7112529 -0.578281,0.1039548 -0.965644,-0.063106 -1.757505,-0.134866 -0.985351,-0.08931 -1.561057,0.144481 -1.942941,0.2388314 -1.229921,0.3038581 -2.647746,0.9904015 -3.881001,2.1880935 -0.858052,0.8333317 -1.237898,1.3724441 -1.208977,1.3407417 l 2.586959,7.3785438 z"
         id="path1444"
         style="stroke:#ffffff;stroke-width:0.775764" />
      <path
         d="m 51.453601,-3.1183888 c 0,0 1.349452,-2.7662743 3.198654,-3.3885796 1.849202,-0.6223026 3.569692,0.1605756 3.854701,0.2547303 0.285009,0.094152 1.375773,1.1471142 2.664354,1.2891849 0.603412,0.066564 3.118914,-0.4800468 3.118914,-0.4800468 l -1.946643,2.5747689 c -0.443333,0.5863801 -2.256692,2.31127824 -4.833506,1.2590065 -2.324108,-0.9489889 -1.017566,-2.1407463 -1.017566,-2.1407463 0,0 -1.477095,-0.2437633 -2.823708,1.8498555 -0.961332,1.4946656 -0.797438,3.2772958 -0.797438,3.2772958 l -1.417892,-4.4954269 z"
         id="path1446"
         style="stroke:#ffffff;stroke-width:0.775764" />
      <path
         d="m 59.606414,-6.9390674 c 0.549304,-0.4382346 0.65583,-0.6870594 0.863025,-1.0822463 0.221856,-0.4230608 0.455335,-0.9292087 0.61713,-1.6249994 0.150451,-0.6472209 -0.07079,-1.5043629 -0.07079,-1.5043629 0,0 -0.133361,0.662496 -0.645046,0.977226 -0.564825,0.3474107 -0.865582,0.4987418 -1.505284,0.5857739 -0.668895,0.090996 -1.950026,-0.4557849 -3.47413,0.052753 -1.307764,0.4363164 -3.15464,1.4021488 -3.712943,2.0017792 -0.558305,0.5996305 -1.323662,1.3151221 -1.323662,1.3151221 l 1.003771,2.9755994 c 0,0 0.623519,-1.0356903 1.342678,-1.8161291 0.719161,-0.7804388 1.628735,-1.3716159 2.112386,-1.5343876 0.483653,-0.1627716 1.451798,-0.2035466 1.974037,-0.1575964 0.522238,0.04595 1.253723,0.2431918 1.405803,0.3187012 0.541798,0.02323 1.026753,-0.2518806 1.412936,-0.507185 z"
         id="path1448"
         style="stroke:#ffffff;stroke-width:0.775764" />
      <path
         d="m -21.107472,23.65061 c 0,0 -0.09226,2.098921 -1.015836,3.610382 -0.493168,0.807075 -0.832027,0.972273 -1.648069,1.378458 -0.530071,0.263838 -1.041124,0.180827 -1.041124,0.180827 1.624562,-2.243378 -2.789836,-3.261566 -4.80635,-1.786416 -1.16586,0.917257 -2.7843,3.095572 -3.641336,4.442137 -0.982379,1.543569 -1.664213,3.964474 -2.74584,5.550172 -0.841283,1.233313 -2.099191,2.388429 -2.099191,2.388429 0,0 4.323318,-1.398747 4.892463,-1.585471 0.965605,-0.31691 1.815925,-0.568841 2.594705,-1.43161 0.43773,-0.484942 0.665589,-1.390605 0.695026,-1.634723 0.0556,-0.461547 -0.08829,-0.797237 -0.244234,-0.952286 -0.15594,-0.155051 -0.412247,-0.227576 -0.66094,-0.195768 -0.248692,0.03181 -0.54357,0.234763 -0.54357,0.234763 0,0 0.324128,-0.697871 0.606549,-0.863389 0.884957,-0.774906 1.472893,-0.435985 2.235782,-0.248822 0,0 -0.61092,1.244267 -0.720291,1.69508 -0.216231,0.891357 0.03064,1.805524 0.03064,1.805524 0,0 0.191167,-0.604189 0.411224,-0.864735 0.224351,-0.265633 0.896445,-0.60334 1.496777,-0.711253 0.578281,-0.103954 0.965644,0.06311 1.757505,0.134866 0.985351,0.08931 1.561058,-0.144481 1.942941,-0.238831 1.229921,-0.303858 2.647747,-0.990402 3.881001,-2.188094 0.858052,-0.833331 1.237898,-1.372444 1.208977,-1.340741 l -2.586958,-7.378544 z"
         id="path1452"
         style="stroke:#ffffff;stroke-width:0.775764" />
      <path
         d="m -19.669208,28.155911 c 0,0 -1.349452,2.766274 -3.198654,3.38858 -1.849202,0.622302 -3.569692,-0.160576 -3.854701,-0.254731 -0.285009,-0.09415 -1.375772,-1.147114 -2.664354,-1.289184 -0.603411,-0.06656 -3.118914,0.480046 -3.118914,0.480046 l 1.946643,-2.574769 c 0.443333,-0.58638 2.256692,-2.311278 4.833506,-1.259006 2.324108,0.948989 1.017567,2.140746 1.017567,2.140746 0,0 1.477094,0.243763 2.823707,-1.849855 0.961332,-1.494666 0.797438,-3.277296 0.797438,-3.277296 l 1.417892,4.495427 z"
         id="path1454"
         style="stroke:#ffffff;stroke-width:0.775764" />
      <path
         d="m -27.82202,31.97659 c -0.549305,0.438234 -0.655831,0.687059 -0.863026,1.082246 -0.221856,0.423061 -0.455335,0.929209 -0.61713,1.624999 -0.15045,0.647221 0.07079,1.504363 0.07079,1.504363 0,0 0.133361,-0.662496 0.645047,-0.977225 0.564824,-0.347411 0.865581,-0.498743 1.505283,-0.585775 0.668896,-0.09099 1.950027,0.455785 3.47413,-0.05275 1.307764,-0.436317 3.15464,-1.402149 3.712943,-2.001779 0.558305,-0.599631 1.323662,-1.315122 1.323662,-1.315122 l -1.00377,-2.9756 c 0,0 -0.62352,1.03569 -1.342679,1.816129 -0.719161,0.780439 -1.628735,1.371616 -2.112386,1.534388 -0.483653,0.162771 -1.451797,0.203546 -1.974037,0.157596 -0.522237,-0.04595 -1.253723,-0.243192 -1.405803,-0.318701 -0.541798,-0.02323 -1.026753,0.251881 -1.412936,0.507185 z"
         id="path1456"
         style="stroke:#ffffff;stroke-width:0.775764" />
      <path
         d="m 4.7603478,-24.480908 c 0,0 -2.0989211,-0.09226 -3.6103825,-1.015836 -0.80707436,-0.493167 -0.97227226,-0.832027 -1.37845794,-1.648068 -0.2638372,-0.530072 -0.18082683,-1.041125 -0.18082683,-1.041125 2.24337827,1.624563 3.26156637,-2.789835 1.78641637,-4.806349 -0.91725748,-1.16586 -3.095572,-2.784301 -4.4421371,-3.641336 -1.5435686,-0.98238 -3.9644743,-1.664214 -5.5501725,-2.745841 -1.2333129,-0.841282 -2.3884283,-2.099191 -2.3884283,-2.099191 0,0 1.3987464,4.323318 1.5854708,4.892464 0.31691,0.965604 0.5688409,1.815925 1.4316101,2.594705 0.4849416,0.437729 1.390605,0.665588 1.6347229,0.695026 0.4615471,0.0556 0.7972371,-0.08829 0.9522856,-0.244234 0.1550512,-0.155941 0.2275761,-0.412248 0.1957679,-0.66094 -0.031811,-0.248693 -0.2347622,-0.543571 -0.2347622,-0.543571 0,0 0.6978703,0.324128 0.8633884,0.60655 0.7749063,0.884957 0.4359857,1.472893 0.2488221,2.235782 0,0 -1.2442666,-0.610921 -1.6950796,-0.720291 -0.8913574,-0.216231 -1.8055246,0.03064 -1.8055246,0.03064 0,0 0.6041893,0.191167 0.8647351,0.411223 0.2656337,0.224351 0.6033399,0.896446 0.7112529,1.496777 0.1039548,0.578282 -0.063106,0.965645 -0.1348661,1.757506 -0.08931,0.98535 0.144481,1.561057 0.2388314,1.942941 0.3038581,1.229921 0.9904016,2.647746 2.1880936,3.881001 0.8333317,0.858051 1.372444,1.237898 1.3407416,1.208976 l 7.3785438,-2.586958 z"
         id="path1460"
         style="stroke:#ffffff;stroke-width:0.775764" />
      <path
         d="m 0.25504663,-23.042643 c 0,0 -2.76627433,-1.349452 -3.38857953,-3.198654 -0.6223027,-1.849202 0.1605756,-3.569692 0.2547302,-3.854701 0.094152,-0.28501 1.1471143,-1.375773 1.2891849,-2.664354 0.066564,-0.603412 -0.4800467,-3.118914 -0.4800467,-3.118914 l 2.57476883,1.946643 c 0.58638017,0.443333 2.31127827,2.256692 1.25900657,4.833506 -0.94898899,2.324108 -2.14074639,1.017566 -2.14074639,1.017566 0,0 -0.24376327,1.477095 1.84985549,2.823708 1.4946657,0.961331 3.2772958,0.797438 3.2772958,0.797438 l -4.49542684,1.417891 z"
         id="path1462"
         style="stroke:#ffffff;stroke-width:0.775764" />
      <path
         d="m -3.5656319,-31.195456 c -0.4382347,-0.549304 -0.6870594,-0.655831 -1.0822464,-0.863026 -0.4230608,-0.221855 -0.9292087,-0.455334 -1.6249993,-0.61713 -0.6472211,-0.15045 -1.5043627,0.07079 -1.5043627,0.07079 0,0 0.6624955,0.13336 0.9772253,0.645046 0.3474112,0.564825 0.4987423,0.865582 0.5857743,1.505283 0.090996,0.668896 -0.4557845,1.950027 0.052753,3.47413 0.4363165,1.307764 1.4021488,3.154641 2.0017793,3.712943 0.5996305,0.558305 1.315122,1.323663 1.315122,1.323663 l 2.97559941,-1.003771 c 0,0 -1.03569028,-0.62352 -1.81612911,-1.342678 -0.7804388,-0.719162 -1.3716158,-1.628736 -1.5343875,-2.112386 -0.1627717,-0.483653 -0.2035466,-1.451798 -0.1575964,-1.974038 0.04595,-0.522237 0.2431918,-1.253723 0.3187012,-1.405802 0.02323,-0.541798 -0.2518807,-1.026753 -0.5071851,-1.412936 z"
         id="path1464"
         style="stroke:#ffffff;stroke-width:0.775764" />
      <path
         d="m 49.535901,31.51876 c 0,0 1.578774,-1.386189 3.308948,-1.765747 0.923864,-0.202671 1.277639,-0.07244 2.135635,0.235405 0.557318,0.199969 0.85113,0.626287 0.85113,0.626287 -2.743629,0.380214 -0.423077,4.2711 2.037366,4.705511 1.468995,0.20659 4.161427,-0.133008 5.726525,-0.446465 1.794047,-0.359344 4.013298,-1.54286 5.906444,-1.859727 1.472454,-0.246439 3.176839,-0.138047 3.176839,-0.138047 0,0 -4.00196,-2.152258 -4.530669,-2.433801 -0.897078,-0.477586 -1.667465,-0.91694 -2.829214,-0.881865 -0.652986,0.01971 -1.464376,0.482116 -1.660943,0.629836 -0.371618,0.279328 -0.514305,0.615537 -0.518279,0.835406 -0.004,0.219871 0.121084,0.455062 0.316177,0.612542 0.195091,0.15748 0.545674,0.229838 0.545674,0.229838 0,0 -0.728038,0.24909 -1.042985,0.159814 -1.171823,-0.102373 -1.334145,-0.76131 -1.727094,-1.441479 0,0 1.320917,-0.420286 1.721996,-0.653376 0.793012,-0.46089 1.281951,-1.271817 1.281951,-1.271817 0,0 -0.568399,0.280215 -0.908764,0.301725 -0.347009,0.02193 -1.055944,-0.229417 -1.549355,-0.58802 -0.475287,-0.34543 -0.622827,-0.740643 -1.119119,-1.361848 -0.617556,-0.773004 -1.184775,-1.026707 -1.517195,-1.237033 -1.070607,-0.677394 -2.547482,-1.225531 -4.26553,-1.286658 -1.195372,-0.04252 -1.847392,0.05647 -1.804493,0.0554 l -3.534976,6.974253 z"
         id="path1468"
         style="stroke:#ffffff;stroke-width:0.775772" />
      <path
         d="m 51.792154,27.362317 c 0,0 2.930618,-0.940707 4.659704,-0.03675 1.729084,0.903952 2.354876,2.687608 2.484191,2.958486 0.129313,0.270878 0.124302,1.786959 0.913657,2.815344 0.369612,0.481589 2.505247,1.918846 2.505247,1.918846 l -3.205745,0.377121 c -0.73008,0.08588 -3.230168,-0.02903 -4.25423,-2.617211 -0.923697,-2.334297 0.840796,-2.216166 0.840796,-2.216166 0,0 -0.846439,-1.234831 -3.289594,-0.757661 -1.744181,0.340689 -2.917375,1.692834 -2.917375,1.692834 l 2.263227,-4.134903 z"
         id="path1470"
         style="stroke:#ffffff;stroke-width:0.775772" />
      <path
         d="m 60.192767,30.602206 c 0.696505,0.09314 0.949831,-0.0021 1.378472,-0.126182 0.458906,-0.132697 0.985826,-0.31451 1.600009,-0.679331 0.571275,-0.339384 1.036796,-1.092338 1.036796,-1.092338 0,0 -0.570468,0.362294 -1.151794,0.21082 -0.641692,-0.167206 -0.959089,-0.279537 -1.464678,-0.681011 -0.528654,-0.419798 -1.02075,-1.722927 -2.442705,-2.470978 -1.220089,-0.641895 -3.19551,-1.306396 -4.014732,-1.29432 -0.819224,0.01207 -1.865381,-0.0451 -1.865381,-0.0451 l -1.452912,2.784054 c 0,0 1.179092,-0.266824 2.240153,-0.287946 1.061061,-0.02111 2.117312,0.22619 2.569557,0.462608 0.452244,0.236419 1.151779,0.906968 1.480081,1.315702 0.328306,0.408736 0.692246,1.073216 0.743009,1.235244 0.358243,0.407125 0.892466,0.566732 1.344033,0.668753 z"
         id="path1472"
         style="stroke:#ffffff;stroke-width:0.775772" />
      <path
         d="m 34.892195,-21.124943 c 0,0 -1.386189,-1.578774 -1.765747,-3.308948 -0.202671,-0.923864 -0.07244,-1.277639 0.235405,-2.135635 0.19997,-0.557318 0.626288,-0.85113 0.626288,-0.85113 0.380214,2.743629 4.2711,0.423077 4.705511,-2.037366 0.206589,-1.468996 -0.133009,-4.161427 -0.446466,-5.726525 -0.359344,-1.794047 -1.542859,-4.013298 -1.859727,-5.906444 -0.246438,-1.472454 -0.138046,-3.176839 -0.138046,-3.176839 0,0 -2.152259,4.00196 -2.433802,4.530669 -0.477586,0.897078 -0.91694,1.667465 -0.881864,2.829213 0.01971,0.652987 0.482116,1.464377 0.629835,1.660943 0.279329,0.371618 0.615538,0.514305 0.835406,0.51828 0.219872,0.004 0.455062,-0.121084 0.612542,-0.316178 0.15748,-0.19509 0.229839,-0.545674 0.229839,-0.545674 0,0 0.249089,0.728039 0.159813,1.042985 -0.102372,1.171824 -0.761309,1.334146 -1.441479,1.727094 0,0 -0.420285,-1.320916 -0.653375,-1.721995 -0.460891,-0.793012 -1.271818,-1.281951 -1.271818,-1.281951 0,0 0.280215,0.568399 0.301726,0.908764 0.02193,0.347009 -0.229418,1.055944 -0.588021,1.549355 -0.345429,0.475287 -0.740643,0.622826 -1.361847,1.119119 -0.773004,0.617556 -1.026708,1.184775 -1.237033,1.517195 -0.677394,1.070607 -1.225532,2.547482 -1.286658,4.26553 -0.04252,1.195372 0.05647,1.847392 0.0554,1.804493 l 6.974253,3.534976 z"
         id="path1476"
         style="stroke:#ffffff;stroke-width:0.775772" />
      <path
         d="m 30.735753,-23.381196 c 0,0 -0.940708,-2.930618 -0.03675,-4.659704 0.903952,-1.729084 2.687609,-2.354877 2.958487,-2.484192 0.270877,-0.129312 1.786958,-0.124301 2.815343,-0.913656 0.48159,-0.369613 1.918846,-2.505247 1.918846,-2.505247 l 0.377121,3.205744 c 0.08588,0.730081 -0.02903,3.230169 -2.61721,4.25423 -2.334297,0.923698 -2.216166,-0.840795 -2.216166,-0.840795 0,0 -1.234832,0.846439 -0.757661,3.289594 0.340688,1.744181 1.692833,2.917375 1.692833,2.917375 l -4.134903,-2.263228 z"
         id="path1478"
         style="stroke:#ffffff;stroke-width:0.775772" />
      <path
         d="m 33.975642,-31.78181 c 0.09314,-0.696505 -0.0021,-0.94983 -0.126183,-1.378471 -0.132696,-0.458906 -0.31451,-0.985827 -0.679331,-1.600009 -0.339383,-0.571275 -1.092337,-1.036797 -1.092337,-1.036797 0,0 0.362294,0.570469 0.21082,1.151795 -0.167206,0.641692 -0.279538,0.959088 -0.681011,1.464678 -0.419799,0.528653 -1.722927,1.020749 -2.470978,2.442705 -0.641895,1.220089 -1.306396,3.19551 -1.294321,4.014732 0.01206,0.819224 -0.0451,1.865381 -0.0451,1.865381 l 2.784054,1.452912 c 0,0 -0.266824,-1.179092 -0.287946,-2.240153 -0.02111,-1.061062 0.226189,-2.117313 0.462608,-2.569557 0.236418,-0.452244 0.906968,-1.151779 1.315701,-1.480082 0.408737,-0.328305 1.073217,-0.692245 1.235245,-0.743008 0.407125,-0.358243 0.566732,-0.892466 0.668753,-1.344033 z"
         id="path1480"
         style="stroke:#ffffff;stroke-width:0.775772" />
      <path
         d="m -3.1078022,46.162466 c 0,0 1.3861891,1.578774 1.7657471,3.308948 0.2026708,0.923864 0.072438,1.277638 -0.2354051,2.135634 -0.1999694,0.557319 -0.6262872,0.85113 -0.6262872,0.85113 -0.3802142,-2.743628 -4.2710999,-0.423076 -4.7055114,2.037366 -0.2065893,1.468996 0.1330087,4.161428 0.4464659,5.726525 0.3593438,1.794047 1.5428595,4.013298 1.8597271,5.906445 0.2464382,1.472454 0.1380464,3.176839 0.1380464,3.176839 0,0 2.1522584,-4.001961 2.4338015,-4.53067 0.4775861,-0.897078 0.91694,-1.667465 0.8818641,-2.829213 -0.019711,-0.652987 -0.4821158,-1.464376 -0.6298353,-1.660943 -0.2793285,-0.371618 -0.6155372,-0.514305 -0.835406,-0.518279 -0.2198714,-0.004 -0.4550621,0.121084 -0.6125421,0.316177 -0.15748,0.19509 -0.2298383,0.545674 -0.2298383,0.545674 0,0 -0.2490893,-0.728038 -0.1598136,-1.042985 0.1023726,-1.171824 0.7613094,-1.334146 1.4414791,-1.727094 0,0 0.4202853,1.320916 0.6533753,1.721995 0.4608909,0.793012 1.27181767,1.281952 1.27181767,1.281952 0,0 -0.28021492,-0.568399 -0.30172554,-0.908765 -0.021934,-0.347009 0.22941756,-1.055944 0.58802057,-1.549355 0.34542942,-0.475287 0.74064283,-0.622826 1.3618474,-1.119118 0.7730041,-0.617556 1.0267077,-1.184775 1.2370329,-1.517195 0.6773942,-1.070608 1.2255315,-2.547483 1.2866582,-4.265531 0.042516,-1.195371 -0.056473,-1.847392 -0.055404,-1.804492 L -3.10794,46.162534 Z"
         id="path1484"
         style="stroke:#ffffff;stroke-width:0.775772" />
      <path
         d="m 1.0486405,48.418719 c 0,0 0.9407075,2.930617 0.036753,4.659704 -0.90395161,1.729083 -2.6876084,2.354876 -2.9584861,2.484191 -0.2708778,0.129312 -1.7869588,0.124301 -2.8153439,0.913656 -0.4815893,0.369613 -1.9188457,2.505247 -1.9188457,2.505247 l -0.3771212,-3.205744 c -0.085884,-0.730081 0.029033,-3.230168 2.6172107,-4.25423 2.334297,-0.923698 2.2161658,0.840795 2.2161658,0.840795 0,0 1.23483162,-0.846439 0.7576609,-3.289593 -0.3406878,-1.744181 -1.692833,-2.917375 -1.692833,-2.917375 l 4.134903,2.263227 z"
         id="path1486"
         style="stroke:#ffffff;stroke-width:0.775772" />
      <path
         d="m -2.1912485,56.819332 c -0.093141,0.696505 0.00212,0.94983 0.1261824,1.378471 0.1326965,0.458907 0.3145102,0.985827 0.679331,1.60001 0.3393836,0.571275 1.09233753,1.036796 1.09233753,1.036796 0,0 -0.36229396,-0.570468 -0.21082,-1.151795 0.16720608,-0.641691 0.27953758,-0.959088 0.68101103,-1.464678 0.4197985,-0.528653 1.72292694,-1.020749 2.47097814,-2.442704 0.641895,-1.220089 1.306396,-3.195511 1.2943205,-4.014732 -0.012065,-0.819224 0.045104,-1.865382 0.045104,-1.865382 L 1.2031413,48.442407 c 0,0 0.2668244,1.179091 0.287946,2.240153 0.021114,1.061061 -0.2261896,2.117312 -0.462608,2.569556 -0.23641847,0.452245 -0.90696788,1.151779 -1.3157015,1.480082 -0.40873627,0.328306 -1.0732161,0.692245 -1.2352443,0.743008 -0.407125,0.358243 -0.5667322,0.892466 -0.6687529,1.344033 z"
         id="path1488"
         style="stroke:#ffffff;stroke-width:0.775772" />
      <path
         d="m -17.751508,-6.4812377 c 0,0 -1.578774,1.3861891 -3.308948,1.7657472 -0.923864,0.2026708 -1.277638,0.072438 -2.135634,-0.2354051 -0.557319,-0.1999695 -0.851131,-0.6262873 -0.851131,-0.6262873 2.743629,-0.3802142 0.423077,-4.2710999 -2.037365,-4.7055111 -1.468996,-0.20659 -4.161428,0.133008 -5.726526,0.4464656 -1.794046,0.3593439 -4.013297,1.5428595 -5.906444,1.8597272 -1.472454,0.2464382 -3.176839,0.1380463 -3.176839,0.1380463 0,0 4.001961,2.1522584 4.53067,2.4338015 0.897077,0.4775862 1.667465,0.91694 2.829213,0.8818642 0.652986,-0.019711 1.464376,-0.4821158 1.660943,-0.6298353 0.371618,-0.2793286 0.514305,-0.6155373 0.518279,-0.835406 0.004,-0.2198714 -0.121084,-0.4550622 -0.316177,-0.6125422 -0.195091,-0.15748 -0.545674,-0.2298382 -0.545674,-0.2298382 0,0 0.728038,-0.2490894 1.042985,-0.1598137 1.171823,0.1023726 1.334145,0.7613095 1.727094,1.4414791 0,0 -1.320917,0.4202854 -1.721996,0.6533753 -0.793012,0.460891 -1.281951,1.2718177 -1.281951,1.2718177 0,0 0.568399,-0.2802149 0.908764,-0.3017255 0.347009,-0.021934 1.055945,0.2294175 1.549355,0.5880205 0.475287,0.3454295 0.622827,0.7406429 1.119119,1.3618475 0.617556,0.773004 1.184775,1.02670766 1.517195,1.23703289 1.070607,0.67739418 2.547482,1.22553146 4.26553,1.28665815 1.195372,0.0425159 1.847393,-0.0564727 1.804493,-0.0554037 l 3.534976,-6.97425244 z"
         id="path1492"
         style="stroke:#ffffff;stroke-width:0.775772" />
      <path
         d="m -20.007761,-2.3247949 c 0,0 -2.930617,0.9407075 -4.659704,0.036753 -1.729084,-0.9039516 -2.354876,-2.6876083 -2.484191,-2.9584861 -0.129313,-0.2708778 -0.124301,-1.7869588 -0.913657,-2.8153439 -0.369612,-0.4815893 -2.505247,-1.9188456 -2.505247,-1.9188456 l 3.205745,-0.3771215 c 0.730081,-0.08588 3.230168,0.02903 4.25423,2.6172109 0.923697,2.3342971 -0.840796,2.2161659 -0.840796,2.2161659 0,0 0.84644,1.2348316 3.289594,0.7576608 1.744181,-0.3406881 2.917375,-1.6928332 2.917375,-1.6928332 l -2.263227,4.134903 z"
         id="path1494"
         style="stroke:#ffffff;stroke-width:0.775772" />
      <path
         d="m -28.408374,-5.564684 c -0.696505,-0.093141 -0.94983,0.00212 -1.378471,0.1261825 -0.458907,0.1326964 -0.985827,0.3145102 -1.60001,0.6793309 -0.571275,0.3393837 -1.036796,1.0923376 -1.036796,1.0923376 0,0 0.570468,-0.362294 1.151795,-0.21082 0.641691,0.1672061 0.959088,0.2795376 1.464677,0.681011 0.528654,0.4197985 1.02075,1.722927 2.442705,2.47097812 1.220089,0.64189503 3.195511,1.30639607 4.014732,1.29432048 0.819224,-0.012065 1.865381,0.0451035 1.865381,0.0451035 l 1.452912,-2.7840543 c 0,0 -1.179092,0.2668244 -2.240153,0.2879461 -1.061061,0.021114 -2.117312,-0.2261897 -2.569556,-0.4626081 -0.452245,-0.2364184 -1.151779,-0.9069678 -1.480082,-1.3157015 -0.328306,-0.4087362 -0.692246,-1.0732161 -0.743008,-1.2352443 -0.358244,-0.4071249 -0.892466,-0.5667322 -1.344034,-0.6687529 z"
         id="path1496"
         style="stroke:#ffffff;stroke-width:0.775772" />
      <path
         d="m 39.922835,42.77554 c 0,0 1.984144,-0.690851 3.73008,-0.392012 0.93228,0.159578 1.21113,0.413276 1.890418,1.021141 0.441238,0.394848 0.553194,0.900358 0.553194,0.900358 -2.685278,-0.679296 -1.997983,3.798628 0.118586,5.126302 1.283528,0.743776 3.906094,1.441461 5.474213,1.739485 1.797521,0.34159 4.298942,0.07936 6.172322,0.497573 1.457074,0.325292 2.995642,1.066585 2.995642,1.066585 0,0 -2.899059,-3.499085 -3.283112,-3.958767 -0.651682,-0.779846 -1.200343,-1.476632 -2.290037,-1.880949 -0.612487,-0.227256 -1.538201,-0.103873 -1.775892,-0.0409 -0.449376,0.119105 -0.708009,0.376991 -0.794363,0.579236 -0.08636,0.202242 -0.05891,0.467199 0.06266,0.68648 0.121566,0.219279 0.419217,0.41815 0.419217,0.41815 0,0 -0.768279,-0.04293 -1.026547,-0.244081 -1.047347,-0.535471 -0.949997,-1.207092 -1.058367,-1.985102 0,0 1.382022,0.107222 1.841314,0.04204 0.908122,-0.128898 1.666095,-0.696479 1.666095,-0.696479 0,0 -0.632053,0.04593 -0.955532,-0.06211 -0.329793,-0.110154 -0.892204,-0.609624 -1.214573,-1.12744 -0.310531,-0.49879 -0.298643,-0.920483 -0.524946,-1.682713 -0.281588,-0.948489 -0.711796,-1.396852 -0.940742,-1.716735 -0.737349,-1.03024 -1.899753,-2.093468 -3.468756,-2.796104 -1.091677,-0.488857 -1.733074,-0.642297 -1.692921,-0.627155 l -5.897938,5.133353 z"
         id="path1500"
         style="stroke:#ffffff;stroke-width:0.775774" />
      <path
         d="m 43.576371,39.772434 c 0,0 3.069291,0.230241 4.331618,1.718009 1.262324,1.487765 1.171538,3.375845 1.189511,3.67547 0.01797,0.299627 -0.556721,1.702577 -0.211961,2.952305 0.161412,0.585229 1.599933,2.72003 1.599933,2.72003 l -3.112323,-0.855919 c -0.708803,-0.194931 -2.982237,-1.241456 -2.957994,-4.024778 0.02178,-2.510329 1.612387,-1.737413 1.612387,-1.737413 0,0 -0.320029,-1.462487 -2.763337,-1.938962 -1.7443,-0.340129 -3.339823,0.471676 -3.339823,0.471676 l 3.651901,-2.980524 z"
         id="path1502"
         style="stroke:#ffffff;stroke-width:0.775774" />
      <path
         d="m 50.142382,45.933254 c 0.610375,0.348195 0.880959,0.355103 1.324768,0.401387 0.475129,0.04959 1.031751,0.07924 1.73804,-0.02787 0.656966,-0.09968 1.371444,-0.622351 1.371444,-0.622351 0,0 -0.664834,0.121214 -1.14655,-0.237728 -0.531739,-0.396216 -0.783612,-0.619646 -1.101146,-1.181764 -0.332015,-0.587772 -0.298024,-1.980313 -1.334373,-3.208136 -0.889212,-1.053555 -2.469833,-2.412061 -3.233484,-2.708902 -0.763651,-0.296841 -1.711549,-0.743183 -1.711549,-0.743183 l -2.393117,2.033474 c 0,0 1.192903,0.196098 2.184048,0.575487 0.991148,0.379391 1.876907,1.00571 2.207075,1.394825 0.330165,0.389118 0.726244,1.273493 0.876771,1.77568 0.150529,0.502187 0.237918,1.254754 0.224033,1.423979 0.178877,0.511953 0.613889,0.860719 0.993963,1.125046 z"
         id="path1504"
         style="stroke:#ffffff;stroke-width:0.775774" />
      <path
         d="m 46.146329,-11.511877 c 0,0 -0.690851,-1.984145 -0.392012,-3.73008 0.159579,-0.93228 0.413277,-1.21113 1.021141,-1.890419 0.394849,-0.441237 0.900359,-0.553193 0.900359,-0.553193 -0.679297,2.685277 3.798628,1.997982 5.126302,-0.118586 0.743775,-1.283528 1.44146,-3.906094 1.739484,-5.474214 0.341591,-1.797521 0.07936,-4.298942 0.497573,-6.172321 0.325292,-1.457074 1.066586,-2.995642 1.066586,-2.995642 0,0 -3.499086,2.899058 -3.958767,3.283112 -0.779847,0.651682 -1.476632,1.200343 -1.88095,2.290037 -0.227256,0.612487 -0.103873,1.5382 -0.0409,1.775891 0.119105,0.449377 0.376992,0.708009 0.579237,0.794364 0.202242,0.08636 0.467198,0.0589 0.68648,-0.06266 0.219278,-0.121566 0.41815,-0.419217 0.41815,-0.419217 0,0 -0.04293,0.768279 -0.244081,1.026546 -0.535472,1.047348 -1.207093,0.949997 -1.985102,1.058368 0,0 0.107222,-1.382022 0.04204,-1.841315 -0.128897,-0.908121 -0.696478,-1.666094 -0.696478,-1.666094 0,0 0.04593,0.632052 -0.06211,0.955532 -0.110154,0.329793 -0.609624,0.892204 -1.12744,1.214572 -0.49879,0.310531 -0.920483,0.298644 -1.682713,0.524947 -0.948489,0.281588 -1.396852,0.711795 -1.716736,0.940742 -1.03024,0.737349 -2.093468,1.899753 -2.796103,3.468756 -0.488858,1.091676 -0.642297,1.733074 -0.627155,1.692921 l 5.133353,5.897938 z"
         id="path1508"
         style="stroke:#ffffff;stroke-width:0.775774" />
      <path
         d="m 43.143224,-15.165413 c 0,0 0.23024,-3.069291 1.718008,-4.331618 1.487766,-1.262324 3.375845,-1.171538 3.67547,-1.189511 0.299628,-0.01797 1.702578,0.55672 2.952306,0.21196 0.585229,-0.161411 2.72003,-1.599932 2.72003,-1.599932 l -0.855919,3.112322 c -0.194932,0.708803 -1.241457,2.982238 -4.024778,2.957994 -2.51033,-0.02178 -1.737413,-1.612386 -1.737413,-1.612386 0,0 -1.462487,0.320029 -1.938962,2.763337 -0.34013,1.7443 0.471675,3.339822 0.471675,3.339822 l -2.980523,-3.651901 z"
         id="path1510"
         style="stroke:#ffffff;stroke-width:0.775774" />
      <path
         d="m 49.304044,-21.731424 c 0.348194,-0.610375 0.355103,-0.880959 0.401386,-1.324769 0.04959,-0.475128 0.07924,-1.03175 -0.02787,-1.73804 -0.09968,-0.656965 -0.62235,-1.371443 -0.62235,-1.371443 0,0 0.121214,0.664834 -0.237728,1.14655 -0.396216,0.531739 -0.619646,0.783611 -1.181764,1.101146 -0.587772,0.332015 -1.980314,0.298024 -3.208136,1.334373 -1.053555,0.889212 -2.412061,2.469832 -2.708902,3.233483 -0.296842,0.763651 -0.743183,1.71155 -0.743183,1.71155 l 2.033473,2.393117 c 0,0 0.196099,-1.192903 0.575488,-2.184048 0.379391,-0.991148 1.00571,-1.876907 1.394825,-2.207075 0.389117,-0.330166 1.273492,-0.726244 1.775679,-0.876771 0.502187,-0.150529 1.254755,-0.237919 1.42398,-0.224033 0.511953,-0.178877 0.860719,-0.613889 1.125045,-0.993963 z"
         id="path1512"
         style="stroke:#ffffff;stroke-width:0.775774" />
      <path
         d="m -14.364582,36.552045 c 0,0 0.690851,1.984145 0.392012,3.73008 -0.159578,0.93228 -0.413277,1.21113 -1.021141,1.890419 -0.394848,0.441237 -0.900358,0.553193 -0.900358,0.553193 0.679296,-2.685277 -3.798629,-1.997982 -5.126302,0.118586 -0.743776,1.283529 -1.441461,3.906094 -1.739485,5.474214 -0.34159,1.797521 -0.07936,4.298942 -0.497573,6.172321 -0.325292,1.457074 -1.066585,2.995642 -1.066585,2.995642 0,0 3.499085,-2.899058 3.958767,-3.283111 0.779846,-0.651682 1.476631,-1.200344 1.880949,-2.290038 0.227256,-0.612487 0.103873,-1.5382 0.0409,-1.775891 -0.119105,-0.449376 -0.376992,-0.708009 -0.579236,-0.794364 -0.202243,-0.08636 -0.467199,-0.0589 -0.68648,0.06266 -0.219279,0.121565 -0.41815,0.419216 -0.41815,0.419216 0,0 0.04293,-0.768279 0.24408,-1.026546 0.535472,-1.047348 1.207093,-0.949997 1.985103,-1.058368 0,0 -0.107223,1.382022 -0.04204,1.841315 0.128897,0.908121 0.696479,1.666094 0.696479,1.666094 0,0 -0.04594,-0.632052 0.06211,-0.955532 0.110154,-0.329792 0.609624,-0.892204 1.12744,-1.214572 0.498789,-0.310531 0.920482,-0.298643 1.682712,-0.524947 0.948489,-0.281588 1.396852,-0.711795 1.716736,-0.940742 1.03024,-0.737349 2.093468,-1.899753 2.7961036,-3.468756 0.4888574,-1.091676 0.6422972,-1.733074 0.6271551,-1.692921 l -5.1333527,-5.897938 z"
         id="path1516"
         style="stroke:#ffffff;stroke-width:0.775774" />
      <path
         d="m -11.361477,40.205581 c 0,0 -0.23024,3.069291 -1.718008,4.331618 -1.487765,1.262324 -3.375845,1.171538 -3.67547,1.189511 -0.299627,0.01797 -1.702578,-0.55672 -2.952305,-0.21196 -0.585229,0.161411 -2.720031,1.599933 -2.720031,1.599933 l 0.855919,-3.112323 c 0.194932,-0.708803 1.241457,-2.982238 4.024779,-2.957994 2.510329,0.02178 1.737412,1.612386 1.737412,1.612386 0,0 1.462487,-0.320029 1.938962,-2.763337 0.34013,-1.7443 -0.471675,-3.339822 -0.471675,-3.339822 l 2.980523,3.651901 z"
         id="path1518"
         style="stroke:#ffffff;stroke-width:0.775774" />
      <path
         d="m -17.522297,46.771592 c -0.348194,0.610375 -0.355102,0.880959 -0.401386,1.324769 -0.04959,0.475128 -0.07924,1.03175 0.02787,1.73804 0.09968,0.656965 0.62235,1.371444 0.62235,1.371444 0,0 -0.121213,-0.664835 0.237728,-1.146551 0.396217,-0.531738 0.619647,-0.783611 1.181764,-1.101146 0.587772,-0.332015 1.980314,-0.298024 3.208137,-1.334373 1.053555,-0.889211 2.412061,-2.469832 2.7089019,-3.233483 0.2968413,-0.763651 0.7431828,-1.71155 0.7431828,-1.71155 l -2.0334737,-2.393117 c 0,0 -0.196099,1.192903 -0.575487,2.184048 -0.379392,0.991148 -1.005711,1.876907 -1.394825,2.207075 -0.389118,0.330166 -1.273493,0.726244 -1.77568,0.876771 -0.502187,0.15053 -1.254755,0.237919 -1.42398,0.224033 -0.511952,0.178877 -0.860718,0.613889 -1.125045,0.993963 z"
         id="path1520"
         style="stroke:#ffffff;stroke-width:0.775774" />
      <path
         d="m -8.1410873,-17.735372 c 0,0 -1.9841447,0.690851 -3.7300797,0.392012 -0.932281,-0.159578 -1.21113,-0.413276 -1.890419,-1.021141 -0.441238,-0.394848 -0.553193,-0.900358 -0.553193,-0.900358 2.685277,0.679296 1.997982,-3.798628 -0.118587,-5.126302 -1.283528,-0.743776 -3.906094,-1.441461 -5.474213,-1.739485 -1.797521,-0.34159 -4.298942,-0.07936 -6.172322,-0.497572 -1.457073,-0.325292 -2.995641,-1.066586 -2.995641,-1.066586 0,0 2.899058,3.499085 3.283111,3.958767 0.651682,0.779846 1.200343,1.476632 2.290038,1.880949 0.612486,0.227256 1.5382,0.103873 1.775891,0.0409 0.449376,-0.119104 0.708009,-0.376991 0.794364,-0.579236 0.08635,-0.202242 0.0589,-0.467199 -0.06266,-0.68648 -0.121565,-0.219279 -0.419216,-0.41815 -0.419216,-0.41815 0,0 0.768278,0.04293 1.026546,0.244081 1.047348,0.535471 0.949997,1.207092 1.058368,1.985102 0,0 -1.382022,-0.107222 -1.841315,-0.04204 -0.908121,0.128897 -1.666094,0.696478 -1.666094,0.696478 0,0 0.632052,-0.04593 0.955532,0.06211 0.329792,0.110154 0.892204,0.609624 1.214572,1.12744 0.310531,0.49879 0.298643,0.920483 0.524947,1.682713 0.281588,0.948489 0.711795,1.396852 0.940742,1.716736 0.737348,1.030239 1.899753,2.093468 3.468756,2.796103 1.091676,0.488857 1.733073,0.642297 1.69292,0.627155 l 5.8979385,-5.133353 z"
         id="path1524"
         style="stroke:#ffffff;stroke-width:0.775774" />
      <path
         d="m -11.794623,-14.732266 c 0,0 -3.069291,-0.230241 -4.331618,-1.718009 -1.262325,-1.487765 -1.171538,-3.375845 -1.189511,-3.675469 -0.01797,-0.299628 0.55672,-1.702578 0.21196,-2.952306 -0.161412,-0.585229 -1.599933,-2.72003 -1.599933,-2.72003 l 3.112323,0.855919 c 0.708803,0.194932 2.982238,1.241457 2.957994,4.024778 -0.02177,2.51033 -1.612387,1.737413 -1.612387,1.737413 0,0 0.32003,1.462487 2.763338,1.938962 1.7442997,0.34013 3.3398219,-0.471676 3.3398219,-0.471676 l -3.6519009,2.980524 z"
         id="path1526"
         style="stroke:#ffffff;stroke-width:0.775774" />
      <path
         d="m -18.360634,-20.893086 c -0.610376,-0.348195 -0.88096,-0.355103 -1.324769,-0.401386 -0.475128,-0.04959 -1.031751,-0.07924 -1.73804,0.02787 -0.656966,0.09968 -1.371444,0.622351 -1.371444,0.622351 0,0 0.664835,-0.121214 1.146551,0.237728 0.531738,0.396216 0.783611,0.619646 1.101145,1.181764 0.332015,0.587772 0.298024,1.980313 1.334373,3.208136 0.889212,1.053555 2.469833,2.412061 3.233484,2.708902 0.763651,0.296842 1.71155,0.743183 1.71155,0.743183 l 2.393116,-2.033474 c 0,0 -1.192903,-0.196098 -2.184048,-0.575487 -0.991147,-0.379391 -1.876906,-1.00571 -2.207074,-1.394825 -0.330166,-0.389117 -0.726245,-1.273492 -0.876771,-1.77568 -0.15053,-0.502187 -0.237919,-1.254754 -0.224034,-1.423979 -0.178877,-0.511953 -0.613889,-0.860719 -0.993963,-1.125046 z"
         id="path1528"
         style="stroke:#ffffff;stroke-width:0.775774" />
      <path
         d="m 54.27969,16.918845 c 0,0 0.914506,-1.891527 2.360398,-2.91479 0.772067,-0.546391 1.148638,-0.564173 2.058805,-0.61468 0.591209,-0.0328 1.027829,0.245486 1.027829,0.245486 -2.379138,1.418458 1.273263,4.098869 3.708736,3.54103 1.433537,-0.381667 3.781333,-1.742779 5.10091,-2.640881 1.512599,-1.029509 3.095964,-2.983727 4.716381,-4.012697 1.260337,-0.8003008 2.872459,-1.3640644 2.872459,-1.3640644 0,0 -4.524221,-0.4242885 -5.120838,-0.4777661 -1.012254,-0.090628 -1.892927,-0.1953683 -2.949366,0.2892716 -0.593794,0.2724018 -1.161135,1.0142352 -1.284679,1.2268359 -0.23354,0.401981 -0.234069,0.767223 -0.152122,0.971293 0.08195,0.204071 0.28871,0.372015 0.529727,0.441114 0.241017,0.0691 0.592114,-7.94e-4 0.592114,-7.94e-4 0,0 -0.573619,0.5129 -0.898478,0.553294 -1.119235,0.361955 -1.525309,-0.181798 -2.152083,-0.655309 0,0 1.053065,-0.901431 1.331748,-1.272292 0.551,-0.7332925 0.685631,-1.6706107 0.685631,-1.6706107 0,0 -0.414454,0.4794144 -0.719593,0.6317509 C 65.676177,9.3503467 64.925306,9.3948522 64.3312,9.2566498 63.758917,9.1235273 63.46914,8.8169361 62.770132,8.4379734 61.900327,7.9664012 61.279078,7.953561 60.890989,7.8892567 59.641103,7.6821488 58.067324,7.7522792 56.461018,8.3649034 c -1.117619,0.426257 -1.67966,0.7713027 -1.64056,0.7536153 l -0.540649,7.8003873 z"
         id="path1532"
         style="stroke:#ffffff;stroke-width:0.775785" />
      <path
         d="m 54.73962,12.211837 c 0,0 2.333146,-2.007534 4.277776,-1.84812 1.944631,0.159414 3.215523,1.5587 3.440101,1.757857 0.224581,0.19916 0.810252,1.597583 1.937737,2.237499 0.52796,0.299688 3.05471,0.792038 3.05471,0.792038 l -2.806001,1.595536 c -0.639046,0.363365 -2.986636,1.230931 -4.93762,-0.754338 -1.759691,-1.790494 -0.08841,-2.368693 -0.08841,-2.368693 0,0 -1.260443,-0.807849 -3.325066,0.582927 -1.473928,0.99291 -2.028106,2.695165 -2.028106,2.695165 l 0.47474,-4.689882 z"
         id="path1534"
         style="stroke:#ffffff;stroke-width:0.775785" />
      <path
         d="m 63.738946,11.925325 c 0.67782,-0.185394 0.87404,-0.371843 1.220592,-0.652939 0.371035,-0.300906 0.785595,-0.673534 1.20928,-1.248704 0.394065,-0.5350376 0.529696,-1.4098401 0.529696,-1.4098401 0,0 -0.384402,0.5558234 -0.978844,0.6426412 -0.65617,0.095829 -0.992262,0.1159404 -1.614276,-0.057007 -0.650399,-0.180848 -1.611048,-1.1895693 -3.212076,-1.3249646 -1.373759,-0.1162103 -3.452059,0.040852 -4.201949,0.3709379 -0.74989,0.3300889 -1.735777,0.684747 -1.735777,0.684747 l -0.254307,3.1301056 c 0,0 0.982181,-0.704856 1.951307,-1.137436 0.969129,-0.432583 2.038339,-0.616037 2.546956,-0.574352 0.508616,0.04169 1.414042,0.386966 1.875586,0.635629 0.461547,0.248664 1.055492,0.719019 1.165336,0.848501 0.488495,0.235521 1.042715,0.174535 1.498381,0.09269 z"
         id="path1536"
         style="stroke:#ffffff;stroke-width:0.775785" />
      <path
         d="m 20.292281,-25.868732 c 0,0 -1.891528,-0.914506 -2.91479,-2.360398 -0.546391,-0.772068 -0.564174,-1.148638 -0.61468,-2.058805 -0.0328,-0.591209 0.245485,-1.02783 0.245485,-1.02783 1.418458,2.379139 4.09887,-1.273262 3.54103,-3.708736 -0.381667,-1.433536 -1.742778,-3.781332 -2.64088,-5.100909 -1.02951,-1.5126 -2.983727,-3.095964 -4.012697,-4.716381 -0.800301,-1.260337 -1.364065,-2.872459 -1.364065,-2.872459 0,0 -0.424288,4.524221 -0.477766,5.120838 -0.09063,1.012253 -0.195368,1.892927 0.289272,2.949366 0.272401,0.593794 1.014235,1.161134 1.226835,1.284679 0.401982,0.23354 0.767223,0.234069 0.971294,0.152122 0.20407,-0.08195 0.372015,-0.288711 0.441113,-0.529727 0.0691,-0.241017 -7.94e-4,-0.592114 -7.94e-4,-0.592114 0,0 0.5129,0.573619 0.553294,0.898477 0.361956,1.119235 -0.181797,1.52531 -0.655309,2.152084 0,0 -0.90143,-1.053065 -1.272291,-1.331748 -0.733293,-0.551 -1.670611,-0.685631 -1.670611,-0.685631 0,0 0.479414,0.414454 0.631751,0.719592 0.15531,0.311092 0.199816,1.061964 0.06161,1.65607 -0.133122,0.572283 -0.439713,0.86206 -0.818676,1.561068 -0.471572,0.869804 -0.484413,1.491054 -0.548717,1.879142 -0.207108,1.249887 -0.136977,2.823665 0.475647,4.429972 0.426257,1.117618 0.771303,1.67966 0.753615,1.640559 l 7.800388,0.54065 z"
         id="path1540"
         style="stroke:#ffffff;stroke-width:0.775785" />
      <path
         d="m 15.585272,-26.328662 c 0,0 -2.007534,-2.333147 -1.84812,-4.277776 0.159414,-1.944632 1.5587,-3.215523 1.757857,-3.440102 0.19916,-0.224581 1.597584,-0.810252 2.2375,-1.937737 0.299688,-0.52796 0.792038,-3.054709 0.792038,-3.054709 l 1.595535,2.806001 c 0.363366,0.639046 1.230932,2.986635 -0.754338,4.93762 -1.790493,1.759691 -2.368692,0.08841 -2.368692,0.08841 0,0 -0.80785,1.260443 0.582927,3.325066 0.99291,1.473928 2.695165,2.028105 2.695165,2.028105 l -4.689883,-0.474739 z"
         id="path1542"
         style="stroke:#ffffff;stroke-width:0.775785" />
      <path
         d="m 15.29876,-35.327988 c -0.185394,-0.67782 -0.371843,-0.874041 -0.652939,-1.220592 -0.300905,-0.371036 -0.673534,-0.785595 -1.248703,-1.209281 -0.535038,-0.394065 -1.409841,-0.529695 -1.409841,-0.529695 0,0 0.555824,0.384402 0.642642,0.978844 0.09583,0.656169 0.11594,0.992262 -0.05701,1.614276 -0.180848,0.650399 -1.189569,1.611048 -1.324964,3.212076 -0.11621,1.373759 0.04085,3.452058 0.370938,4.201948 0.330089,0.74989 0.684747,1.735778 0.684747,1.735778 l 3.130105,0.254307 c 0,0 -0.704855,-0.982181 -1.137436,-1.951307 -0.432583,-0.969129 -0.616037,-2.03834 -0.574352,-2.546956 0.04168,-0.508617 0.386967,-1.414042 0.63563,-1.875586 0.248663,-0.461548 0.719018,-1.055492 0.8485,-1.165337 0.235522,-0.488494 0.174535,-1.042715 0.09269,-1.49838 z"
         id="path1544"
         style="stroke:#ffffff;stroke-width:0.775785" />
      <path
         d="m 11.492112,50.906254 c 0,0 1.891528,0.914506 2.914791,2.360398 0.546391,0.772068 0.564173,1.148639 0.61468,2.058805 0.0328,0.591209 -0.245486,1.02783 -0.245486,1.02783 -1.418458,-2.379139 -4.09887,1.273262 -3.54103,3.708736 0.381667,1.433536 1.742779,3.781332 2.64088,5.10091 1.02951,1.512599 2.983728,3.095963 4.012698,4.71638 0.800301,1.260338 1.364064,2.87246 1.364064,2.87246 0,0 0.424289,-4.524222 0.477766,-5.120839 0.09063,-1.012253 0.195369,-1.892927 -0.289271,-2.949366 -0.272402,-0.593793 -1.014236,-1.161134 -1.226836,-1.284679 -0.401982,-0.233539 -0.767223,-0.234069 -0.971294,-0.152122 -0.20407,0.08195 -0.372014,0.288711 -0.441113,0.529728 -0.0691,0.241017 7.94e-4,0.592113 7.94e-4,0.592113 0,0 -0.5129,-0.573619 -0.553294,-0.898477 -0.361955,-1.119235 0.181798,-1.52531 0.655309,-2.152084 0,0 0.90143,1.053066 1.272292,1.331749 0.733292,0.551 1.67061,0.68563 1.67061,0.68563 0,0 -0.479414,-0.414454 -0.631751,-0.719592 -0.15531,-0.311092 -0.199815,-1.061964 -0.06161,-1.65607 0.133122,-0.572283 0.439714,-0.86206 0.818676,-1.561068 0.471573,-0.869804 0.484413,-1.491054 0.548717,-1.879142 0.207108,-1.249886 0.136978,-2.823665 -0.475647,-4.429972 -0.426257,-1.117618 -0.771302,-1.679659 -0.753615,-1.640559 l -7.800388,-0.54065 z"
         id="path1548"
         style="stroke:#ffffff;stroke-width:0.775785" />
      <path
         d="m 16.199121,51.366185 c 0,0 2.007534,2.333146 1.84812,4.277775 -0.159414,1.944632 -1.5587,3.215524 -1.757857,3.440102 -0.19916,0.224581 -1.597583,0.810252 -2.237499,1.937737 -0.299689,0.52796 -0.792039,3.05471 -0.792039,3.05471 l -1.595535,-2.806002 c -0.363365,-0.639045 -1.230932,-2.986635 0.754338,-4.93762 1.790493,-1.75969 2.368693,-0.08841 2.368693,-0.08841 0,0 0.807849,-1.260444 -0.582928,-3.325067 -0.99291,-1.473927 -2.695165,-2.028105 -2.695165,-2.028105 l 4.689883,0.474739 z"
         id="path1550"
         style="stroke:#ffffff;stroke-width:0.775785" />
      <path
         d="m 16.485633,60.36551 c 0.185394,0.677821 0.371843,0.874041 0.652939,1.220592 0.300905,0.371036 0.673534,0.785596 1.248704,1.209281 0.535037,0.394065 1.40984,0.529696 1.40984,0.529696 0,0 -0.555824,-0.384403 -0.642641,-0.978845 -0.09583,-0.656169 -0.115941,-0.992261 0.05701,-1.614276 0.180848,-0.650398 1.189569,-1.611048 1.324964,-3.212076 0.116211,-1.373759 -0.04085,-3.452058 -0.370938,-4.201948 -0.330088,-0.74989 -0.684747,-1.735778 -0.684747,-1.735778 l -3.130105,-0.254307 c 0,0 0.704855,0.982181 1.137436,1.951308 0.432583,0.969129 0.616037,2.038339 0.574352,2.546955 -0.04168,0.508617 -0.386966,1.414042 -0.63563,1.875587 -0.248663,0.461547 -0.719018,1.055491 -0.8485,1.165336 -0.235521,0.488495 -0.174535,1.042715 -0.09269,1.49838 z"
         id="path1552"
         style="stroke:#ffffff;stroke-width:0.775785" />
      <path
         d="m -22.495297,8.1186769 c 0,0 -0.914505,1.8915271 -2.360398,2.9147901 -0.772067,0.546391 -1.148638,0.564174 -2.058805,0.61468 -0.591208,0.0328 -1.027829,-0.245486 -1.027829,-0.245486 2.379138,-1.4184573 -1.273262,-4.098869 -3.708736,-3.5410295 -1.433536,0.3816668 -3.781332,1.7427787 -5.10091,2.6408805 -1.512599,1.029509 -3.095964,2.983727 -4.71638,4.012697 -1.260338,0.800301 -2.87246,1.364065 -2.87246,1.364065 0,0 4.524222,0.424288 5.120838,0.477766 1.012254,0.09063 1.892927,0.195368 2.949366,-0.289272 0.593794,-0.272402 1.161135,-1.014235 1.284679,-1.226836 0.23354,-0.401981 0.234069,-0.767223 0.152123,-0.971293 -0.08195,-0.204071 -0.288711,-0.372015 -0.529728,-0.441113 -0.241017,-0.0691 -0.592114,7.93e-4 -0.592114,7.93e-4 0,0 0.57362,-0.5129 0.898478,-0.553294 1.119235,-0.361955 1.525309,0.181798 2.152083,0.65531 0,0 -1.053065,0.90143 -1.331748,1.272291 -0.551,0.733293 -0.685631,1.670611 -0.685631,1.670611 0,0 0.414454,-0.479414 0.719593,-0.631751 0.311092,-0.15531 1.061963,-0.199816 1.656069,-0.06161 0.572284,0.133122 0.86206,0.439713 1.561068,0.818676 0.869805,0.471572 1.491055,0.484412 1.879143,0.548717 1.249886,0.207108 2.823665,0.136977 4.429971,-0.475647 1.117619,-0.426257 1.67966,-0.771303 1.64056,-0.753615 l 0.540649,-7.800388 z"
         id="path1556"
         style="stroke:#ffffff;stroke-width:0.775785" />
      <path
         d="m -22.955227,12.825686 c 0,0 -2.333146,2.007534 -4.277775,1.84812 -1.944632,-0.159415 -3.215524,-1.5587 -3.440102,-1.757858 -0.224581,-0.199159 -0.810252,-1.597583 -1.937737,-2.237499 -0.52796,-0.299688 -3.05471,-0.792038 -3.05471,-0.792038 l 2.806002,-1.5955354 c 0.639045,-0.3633655 2.986635,-1.2309316 4.937619,0.7543377 1.759691,1.7904937 0.08841,2.3686927 0.08841,2.3686927 0,0 1.260443,0.80785 3.325066,-0.582927 1.473928,-0.99291 2.028106,-2.6951651 2.028106,-2.6951651 l -0.474739,4.6898821 z"
         id="path1558"
         style="stroke:#ffffff;stroke-width:0.775785" />
      <path
         d="m -31.954553,13.112198 c -0.67782,0.185393 -0.87404,0.371843 -1.220591,0.652938 -0.371036,0.300906 -0.785596,0.673534 -1.209281,1.248704 -0.394065,0.535038 -0.529696,1.40984 -0.529696,1.40984 0,0 0.384403,-0.555823 0.978845,-0.642641 0.656169,-0.09583 0.992261,-0.11594 1.614275,0.05701 0.650399,0.180848 1.611048,1.18957 3.212076,1.324965 1.373759,0.11621 3.452059,-0.04085 4.201949,-0.370938 0.74989,-0.330089 1.735778,-0.684747 1.735778,-0.684747 l 0.254306,-3.130105 c 0,0 -0.98218,0.704855 -1.951307,1.137435 -0.969129,0.432584 -2.038339,0.616038 -2.546956,0.574353 -0.508616,-0.04169 -1.414042,-0.386967 -1.875586,-0.63563 -0.461547,-0.248664 -1.055492,-0.719019 -1.165336,-0.8485 -0.488495,-0.235522 -1.042715,-0.174535 -1.49838,-0.09269 z"
         id="path1560"
         style="stroke:#ffffff;stroke-width:0.775785" />
      <path
         d="m 52.101571,12.941555 c 0,20.553756 -16.66154,37.215299 -37.215296,37.215299 -20.5537595,0 -37.215299,-16.661543 -37.215299,-37.215299 0,-20.5537568 16.6615395,-37.215299 37.215299,-37.215299 20.553756,0 37.215296,16.6615422 37.215296,37.215299 z"
         stroke-width="2.10333"
         id="path1564"
         style="stroke:#ffffff" />
      <path
         d="m 53.536502,12.940324 c 0,21.346994 -17.304562,38.651556 -38.651553,38.651556 -21.3469905,0 -38.651553,-17.304562 -38.651553,-38.651556 0,-21.3469901 17.3045625,-38.651552 38.651553,-38.651552 21.346991,0 38.651553,17.3045619 38.651553,38.651552 z"
         stroke-width="2.10324"
         id="path1566"
         style="stroke:#ffffff" />
    </g>
  </g>
</svg>
