<?xml version="1.0" encoding="UTF-8"?>
<svg viewBox="0 0 854.66675 856.67578" xmlns="http://www.w3.org/2000/svg">
 <g transform="matrix(.31108 .95038 -.95038 .31108 1252.9 69.978)" fill="#fff" stroke="#000" stroke-width="5">
  <path d="m84.693 892.05s35.767-13.813 56.534-38.587c11.089-13.228 11.974-20.05 14.249-36.529 1.4779-10.704-2.9328-19.06-2.9328-19.06-29.347 41.158-72.653-29.268-58.876-72.733 9.0787-25.504 37.335-66.178 55.636-88.839 20.98-25.978 58.884-51.862 80.015-79.802 16.435-21.731 29.092-50.212 29.092-50.212s0.97266 82.92 1.056 93.851c0.13936 18.546 0.73151 34.72-9.6579 53.212-5.8397 10.394-20.178 19.607-24.229 21.537-7.6595 3.6486-14.303 3.1136-17.893 1.3188s-6.336-5.8056-7.2333-10.292 0.89736-10.768 0.89736-10.768-10.184 9.6686-11.403 15.517c-8.2518 19.817 1.0327 28.014 8.7108 40.12 0 0 17.965-17.81 25.126-22.325 14.159-8.9285 31.408-9.9798 31.408-9.9798s-9.3375 6.8234-12.563 12.146c-3.2885 5.4267-5.2174 19.017-3.5894 30.03 1.5681 10.607 6.7125 16.335 12.563 29.613 7.2805 16.523 6.5878 27.843 7.1789 34.997 1.9036 23.042-1.7181 51.562-15.255 79.865-9.419 19.693-16.533 29.4-16.153 28.716l-142.68-1.7947z"/>
  <path d="m171 890.7s39.991-39.443 39.991-75.051-23.556-60.808-26.843-65.19-27.849-17.119-37.808-38.579c-4.6637-10.05-9.852-56.741-9.852-56.741l-33.202 48.657c-7.5616 11.081-26.84 52.486 6.3594 90.932 29.943 34.675 42.95 5.139 42.95 5.139s12.814 24.13-15.559 59.608c-20.257 25.329-52.043 32.869-52.043 32.869l86.008-1.6435z"/>
  <path d="m189.62 727.45c4.3826-12.052 8.0662-15.343 13.695-21.228 6.026-6.2999 13.422-13.285 24.515-20.132 10.319-6.3697 26.432-7.5325 26.432-7.5325s-10.682 6.163-13.148 16.845c-2.7212 11.792-3.588 17.875-1.3696 29.445 2.3198 12.099 19.234 31.076 19.311 60.397 0.0656 25.16-5.889 62.725-13.011 75.873s-15.042 30.55-15.042 30.55l-57.311-0.0409s14.284-16.813 23.597-33.796 14.243-36.156 14.243-45.469-4.9304-26.295-8.7651-35.06-11.504-20.269-13.695-22.461c-3.5556-9.236-1.6201-19.225 0.54781-27.391z"/>
 </g>
 <g transform="matrix(-.09536 .99544 -.99544 -.09536 1327.4 429.96)" fill="#fff" stroke="#000" stroke-width="5">
  <path d="m84.693 892.05s35.767-13.813 56.534-38.587c11.089-13.228 11.974-20.05 14.249-36.529 1.4779-10.704-2.9328-19.06-2.9328-19.06-29.347 41.158-72.653-29.268-58.876-72.733 9.0787-25.504 37.335-66.178 55.636-88.839 20.98-25.978 58.884-51.862 80.015-79.802 16.435-21.731 29.092-50.212 29.092-50.212s0.97266 82.92 1.056 93.851c0.13936 18.546 0.73151 34.72-9.6579 53.212-5.8397 10.394-20.178 19.607-24.229 21.537-7.6595 3.6486-14.303 3.1136-17.893 1.3188s-6.336-5.8056-7.2333-10.292 0.89736-10.768 0.89736-10.768-10.184 9.6686-11.403 15.517c-8.2518 19.817 1.0327 28.014 8.7108 40.12 0 0 17.965-17.81 25.126-22.325 14.159-8.9285 31.408-9.9798 31.408-9.9798s-9.3375 6.8234-12.563 12.146c-3.2885 5.4267-5.2174 19.017-3.5894 30.03 1.5681 10.607 6.7125 16.335 12.563 29.613 7.2805 16.523 6.5878 27.843 7.1789 34.997 1.9036 23.042-1.7181 51.562-15.255 79.865-9.419 19.693-16.533 29.4-16.153 28.716l-142.68-1.7947z"/>
  <path d="m171 890.7s39.991-39.443 39.991-75.051-23.556-60.808-26.843-65.19-27.849-17.119-37.808-38.579c-4.6637-10.05-9.852-56.741-9.852-56.741l-33.202 48.657c-7.5616 11.081-26.84 52.486 6.3594 90.932 29.943 34.675 42.95 5.139 42.95 5.139s12.814 24.13-15.559 59.608c-20.257 25.329-52.043 32.869-52.043 32.869l86.008-1.6435z"/>
  <path d="m189.62 727.45c4.3826-12.052 8.0662-15.343 13.695-21.228 6.026-6.2999 13.422-13.285 24.515-20.132 10.319-6.3697 26.432-7.5325 26.432-7.5325s-10.682 6.163-13.148 16.845c-2.7212 11.792-3.588 17.875-1.3696 29.445 2.3198 12.099 19.234 31.076 19.311 60.397 0.0656 25.16-5.889 62.725-13.011 75.873s-15.042 30.55-15.042 30.55l-57.311-0.0409s14.284-16.813 23.597-33.796 14.243-36.156 14.243-45.469-4.9304-26.295-8.7651-35.06-11.504-20.269-13.695-22.461c-3.5556-9.236-1.6201-19.225 0.54781-27.391z"/>
 </g>
 <g transform="matrix(-.54294 .83977 -.83977 -.54294 1225.6 843.58)" fill="#fff" stroke="#000" stroke-width="5">
  <path d="m84.693 892.05s35.767-13.813 56.534-38.587c11.089-13.228 11.974-20.05 14.249-36.529 1.4779-10.704-2.9328-19.06-2.9328-19.06-29.347 41.158-72.653-29.268-58.876-72.733 9.0787-25.504 37.335-66.178 55.636-88.839 20.98-25.978 58.884-51.862 80.015-79.802 16.435-21.731 29.092-50.212 29.092-50.212s0.97266 82.92 1.056 93.851c0.13936 18.546 0.73151 34.72-9.6579 53.212-5.8397 10.394-20.178 19.607-24.229 21.537-7.6595 3.6486-14.303 3.1136-17.893 1.3188s-6.336-5.8056-7.2333-10.292 0.89736-10.768 0.89736-10.768-10.184 9.6686-11.403 15.517c-8.2518 19.817 1.0327 28.014 8.7108 40.12 0 0 17.965-17.81 25.126-22.325 14.159-8.9285 31.408-9.9798 31.408-9.9798s-9.3375 6.8234-12.563 12.146c-3.2885 5.4267-5.2174 19.017-3.5894 30.03 1.5681 10.607 6.7125 16.335 12.563 29.613 7.2805 16.523 6.5878 27.843 7.1789 34.997 1.9036 23.042-1.7181 51.562-15.255 79.865-9.419 19.693-16.533 29.4-16.153 28.716l-142.68-1.7947z"/>
  <path d="m171 890.7s39.991-39.443 39.991-75.051-23.556-60.808-26.843-65.19-27.849-17.119-37.808-38.579c-4.6637-10.05-9.852-56.741-9.852-56.741l-33.202 48.657c-7.5616 11.081-26.84 52.486 6.3594 90.932 29.943 34.675 42.95 5.139 42.95 5.139s12.814 24.13-15.559 59.608c-20.257 25.329-52.043 32.869-52.043 32.869l86.008-1.6435z"/>
  <path d="m189.62 727.45c4.3826-12.052 8.0662-15.343 13.695-21.228 6.026-6.2999 13.422-13.285 24.515-20.132 10.319-6.3697 26.432-7.5325 26.432-7.5325s-10.682 6.163-13.148 16.845c-2.7212 11.792-3.588 17.875-1.3696 29.445 2.3198 12.099 19.234 31.076 19.311 60.397 0.0656 25.16-5.889 62.725-13.011 75.873s-15.042 30.55-15.042 30.55l-57.311-0.0409s14.284-16.813 23.597-33.796 14.243-36.156 14.243-45.469-4.9304-26.295-8.7651-35.06-11.504-20.269-13.695-22.461c-3.5556-9.236-1.6201-19.225 0.54781-27.391z"/>
 </g>
 <g transform="matrix(-.9104 .41374 -.41374 -.9104 875.09 1208.2)" fill="#fff" stroke="#000" stroke-width="5">
  <path d="m84.693 892.05s35.767-13.813 56.534-38.587c11.089-13.228 11.974-20.05 14.249-36.529 1.4779-10.704-2.9328-19.06-2.9328-19.06-29.347 41.158-72.653-29.268-58.876-72.733 9.0787-25.504 37.335-66.178 55.636-88.839 20.98-25.978 58.884-51.862 80.015-79.802 16.435-21.731 29.092-50.212 29.092-50.212s0.97266 82.92 1.056 93.851c0.13936 18.546 0.73151 34.72-9.6579 53.212-5.8397 10.394-20.178 19.607-24.229 21.537-7.6595 3.6486-14.303 3.1136-17.893 1.3188s-6.336-5.8056-7.2333-10.292 0.89736-10.768 0.89736-10.768-10.184 9.6686-11.403 15.517c-8.2518 19.817 1.0327 28.014 8.7108 40.12 0 0 17.965-17.81 25.126-22.325 14.159-8.9285 31.408-9.9798 31.408-9.9798s-9.3375 6.8234-12.563 12.146c-3.2885 5.4267-5.2174 19.017-3.5894 30.03 1.5681 10.607 6.7125 16.335 12.563 29.613 7.2805 16.523 6.5878 27.843 7.1789 34.997 1.9036 23.042-1.7181 51.562-15.255 79.865-9.419 19.693-16.533 29.4-16.153 28.716l-142.68-1.7947z"/>
  <path d="m171 890.7s39.991-39.443 39.991-75.051-23.556-60.808-26.843-65.19-27.849-17.119-37.808-38.579c-4.6637-10.05-9.852-56.741-9.852-56.741l-33.202 48.657c-7.5616 11.081-26.84 52.486 6.3594 90.932 29.943 34.675 42.95 5.139 42.95 5.139s12.814 24.13-15.559 59.608c-20.257 25.329-52.043 32.869-52.043 32.869l86.008-1.6435z"/>
  <path d="m189.62 727.45c4.3826-12.052 8.0662-15.343 13.695-21.228 6.026-6.2999 13.422-13.285 24.515-20.132 10.319-6.3697 26.432-7.5325 26.432-7.5325s-10.682 6.163-13.148 16.845c-2.7212 11.792-3.588 17.875-1.3696 29.445 2.3198 12.099 19.234 31.076 19.311 60.397 0.0656 25.16-5.889 62.725-13.011 75.873s-15.042 30.55-15.042 30.55l-57.311-0.0409s14.284-16.813 23.597-33.796 14.243-36.156 14.243-45.469-4.9304-26.295-8.7651-35.06-11.504-20.269-13.695-22.461c-3.5556-9.236-1.6201-19.225 0.54781-27.391z"/>
 </g>
 <g transform="matrix(-.99653 -.08325 .08325 -.99653 437.52 1326.9)" fill="#fff" stroke="#000" stroke-width="5">
  <path d="m84.693 892.05s35.767-13.813 56.534-38.587c11.089-13.228 11.974-20.05 14.249-36.529 1.4779-10.704-2.9328-19.06-2.9328-19.06-29.347 41.158-72.653-29.268-58.876-72.733 9.0787-25.504 37.335-66.178 55.636-88.839 20.98-25.978 58.884-51.862 80.015-79.802 16.435-21.731 29.092-50.212 29.092-50.212s0.97266 82.92 1.056 93.851c0.13936 18.546 0.73151 34.72-9.6579 53.212-5.8397 10.394-20.178 19.607-24.229 21.537-7.6595 3.6486-14.303 3.1136-17.893 1.3188s-6.336-5.8056-7.2333-10.292 0.89736-10.768 0.89736-10.768-10.184 9.6686-11.403 15.517c-8.2518 19.817 1.0327 28.014 8.7108 40.12 0 0 17.965-17.81 25.126-22.325 14.159-8.9285 31.408-9.9798 31.408-9.9798s-9.3375 6.8234-12.563 12.146c-3.2885 5.4267-5.2174 19.017-3.5894 30.03 1.5681 10.607 6.7125 16.335 12.563 29.613 7.2805 16.523 6.5878 27.843 7.1789 34.997 1.9036 23.042-1.7181 51.562-15.255 79.865-9.419 19.693-16.533 29.4-16.153 28.716l-142.68-1.7947z"/>
  <path d="m171 890.7s39.991-39.443 39.991-75.051-23.556-60.808-26.843-65.19-27.849-17.119-37.808-38.579c-4.6637-10.05-9.852-56.741-9.852-56.741l-33.202 48.657c-7.5616 11.081-26.84 52.486 6.3594 90.932 29.943 34.675 42.95 5.139 42.95 5.139s12.814 24.13-15.559 59.608c-20.257 25.329-52.043 32.869-52.043 32.869l86.008-1.6435z"/>
  <path d="m189.62 727.45c4.3826-12.052 8.0662-15.343 13.695-21.228 6.026-6.2999 13.422-13.285 24.515-20.132 10.319-6.3697 26.432-7.5325 26.432-7.5325s-10.682 6.163-13.148 16.845c-2.7212 11.792-3.588 17.875-1.3696 29.445 2.3198 12.099 19.234 31.076 19.311 60.397 0.0656 25.16-5.889 62.725-13.011 75.873s-15.042 30.55-15.042 30.55l-57.311-0.0409s14.284-16.813 23.597-33.796 14.243-36.156 14.243-45.469-4.9304-26.295-8.7651-35.06-11.504-20.269-13.695-22.461c-3.5556-9.236-1.6201-19.225 0.54781-27.391z"/>
 </g>
 <g transform="matrix(-.815 -.57946 .57946 -.815 -21.805 1206.1)" fill="#fff" stroke="#000" stroke-width="5">
  <path d="m84.693 892.05s35.767-13.813 56.534-38.587c11.089-13.228 11.974-20.05 14.249-36.529 1.4779-10.704-2.9328-19.06-2.9328-19.06-29.347 41.158-72.653-29.268-58.876-72.733 9.0787-25.504 37.335-66.178 55.636-88.839 20.98-25.978 58.884-51.862 80.015-79.802 16.435-21.731 29.092-50.212 29.092-50.212s0.97266 82.92 1.056 93.851c0.13936 18.546 0.73151 34.72-9.6579 53.212-5.8397 10.394-20.178 19.607-24.229 21.537-7.6595 3.6486-14.303 3.1136-17.893 1.3188s-6.336-5.8056-7.2333-10.292 0.89736-10.768 0.89736-10.768-10.184 9.6686-11.403 15.517c-8.2518 19.817 1.0327 28.014 8.7108 40.12 0 0 17.965-17.81 25.126-22.325 14.159-8.9285 31.408-9.9798 31.408-9.9798s-9.3375 6.8234-12.563 12.146c-3.2885 5.4267-5.2174 19.017-3.5894 30.03 1.5681 10.607 6.7125 16.335 12.563 29.613 7.2805 16.523 6.5878 27.843 7.1789 34.997 1.9036 23.042-1.7181 51.562-15.255 79.865-9.419 19.693-16.533 29.4-16.153 28.716l-142.68-1.7947z"/>
  <path d="m171 890.7s39.991-39.443 39.991-75.051-23.556-60.808-26.843-65.19-27.849-17.119-37.808-38.579c-4.6637-10.05-9.852-56.741-9.852-56.741l-33.202 48.657c-7.5616 11.081-26.84 52.486 6.3594 90.932 29.943 34.675 42.95 5.139 42.95 5.139s12.814 24.13-15.559 59.608c-20.257 25.329-52.043 32.869-52.043 32.869l86.008-1.6435z"/>
  <path d="m189.62 727.45c4.3826-12.052 8.0662-15.343 13.695-21.228 6.026-6.2999 13.422-13.285 24.515-20.132 10.319-6.3697 26.432-7.5325 26.432-7.5325s-10.682 6.163-13.148 16.845c-2.7212 11.792-3.588 17.875-1.3696 29.445 2.3198 12.099 19.234 31.076 19.311 60.397 0.0656 25.16-5.889 62.725-13.011 75.873s-15.042 30.55-15.042 30.55l-57.311-0.0409s14.284-16.813 23.597-33.796 14.243-36.156 14.243-45.469-4.9304-26.295-8.7651-35.06-11.504-20.269-13.695-22.461c-3.5556-9.236-1.6201-19.225 0.54781-27.391z"/>
 </g>
 <g transform="matrix(-.38686 -.92214 .92214 -.38686 -364.4 851.65)" fill="#fff" stroke="#000" stroke-width="5">
  <path d="m84.693 892.05s35.767-13.813 56.534-38.587c11.089-13.228 11.974-20.05 14.249-36.529 1.4779-10.704-2.9328-19.06-2.9328-19.06-29.347 41.158-72.653-29.268-58.876-72.733 9.0787-25.504 37.335-66.178 55.636-88.839 20.98-25.978 58.884-51.862 80.015-79.802 16.435-21.731 29.092-50.212 29.092-50.212s0.97266 82.92 1.056 93.851c0.13936 18.546 0.73151 34.72-9.6579 53.212-5.8397 10.394-20.178 19.607-24.229 21.537-7.6595 3.6486-14.303 3.1136-17.893 1.3188s-6.336-5.8056-7.2333-10.292 0.89736-10.768 0.89736-10.768-10.184 9.6686-11.403 15.517c-8.2518 19.817 1.0327 28.014 8.7108 40.12 0 0 17.965-17.81 25.126-22.325 14.159-8.9285 31.408-9.9798 31.408-9.9798s-9.3375 6.8234-12.563 12.146c-3.2885 5.4267-5.2174 19.017-3.5894 30.03 1.5681 10.607 6.7125 16.335 12.563 29.613 7.2805 16.523 6.5878 27.843 7.1789 34.997 1.9036 23.042-1.7181 51.562-15.255 79.865-9.419 19.693-16.533 29.4-16.153 28.716l-142.68-1.7947z"/>
  <path d="m171 890.7s39.991-39.443 39.991-75.051-23.556-60.808-26.843-65.19-27.849-17.119-37.808-38.579c-4.6637-10.05-9.852-56.741-9.852-56.741l-33.202 48.657c-7.5616 11.081-26.84 52.486 6.3594 90.932 29.943 34.675 42.95 5.139 42.95 5.139s12.814 24.13-15.559 59.608c-20.257 25.329-52.043 32.869-52.043 32.869l86.008-1.6435z"/>
  <path d="m189.62 727.45c4.3826-12.052 8.0662-15.343 13.695-21.228 6.026-6.2999 13.422-13.285 24.515-20.132 10.319-6.3697 26.432-7.5325 26.432-7.5325s-10.682 6.163-13.148 16.845c-2.7212 11.792-3.588 17.875-1.3696 29.445 2.3198 12.099 19.234 31.076 19.311 60.397 0.0656 25.16-5.889 62.725-13.011 75.873s-15.042 30.55-15.042 30.55l-57.311-0.0409s14.284-16.813 23.597-33.796 14.243-36.156 14.243-45.469-4.9304-26.295-8.7651-35.06-11.504-20.269-13.695-22.461c-3.5556-9.236-1.6201-19.225 0.54781-27.391z"/>
 </g>
 <g transform="matrix(.12004 -.99277 .99277 .12004 -470.12 403.91)" fill="#fff" stroke="#000" stroke-width="5">
  <path d="m84.693 892.05s35.767-13.813 56.534-38.587c11.089-13.228 11.974-20.05 14.249-36.529 1.4779-10.704-2.9328-19.06-2.9328-19.06-29.347 41.158-72.653-29.268-58.876-72.733 9.0787-25.504 37.335-66.178 55.636-88.839 20.98-25.978 58.884-51.862 80.015-79.802 16.435-21.731 29.092-50.212 29.092-50.212s0.97266 82.92 1.056 93.851c0.13936 18.546 0.73151 34.72-9.6579 53.212-5.8397 10.394-20.178 19.607-24.229 21.537-7.6595 3.6486-14.303 3.1136-17.893 1.3188s-6.336-5.8056-7.2333-10.292 0.89736-10.768 0.89736-10.768-10.184 9.6686-11.403 15.517c-8.2518 19.817 1.0327 28.014 8.7108 40.12 0 0 17.965-17.81 25.126-22.325 14.159-8.9285 31.408-9.9798 31.408-9.9798s-9.3375 6.8234-12.563 12.146c-3.2885 5.4267-5.2174 19.017-3.5894 30.03 1.5681 10.607 6.7125 16.335 12.563 29.613 7.2805 16.523 6.5878 27.843 7.1789 34.997 1.9036 23.042-1.7181 51.562-15.255 79.865-9.419 19.693-16.533 29.4-16.153 28.716l-142.68-1.7947z"/>
  <path d="m171 890.7s39.991-39.443 39.991-75.051-23.556-60.808-26.843-65.19-27.849-17.119-37.808-38.579c-4.6637-10.05-9.852-56.741-9.852-56.741l-33.202 48.657c-7.5616 11.081-26.84 52.486 6.3594 90.932 29.943 34.675 42.95 5.139 42.95 5.139s12.814 24.13-15.559 59.608c-20.257 25.329-52.043 32.869-52.043 32.869l86.008-1.6435z"/>
  <path d="m189.62 727.45c4.3826-12.052 8.0662-15.343 13.695-21.228 6.026-6.2999 13.422-13.285 24.515-20.132 10.319-6.3697 26.432-7.5325 26.432-7.5325s-10.682 6.163-13.148 16.845c-2.7212 11.792-3.588 17.875-1.3696 29.445 2.3198 12.099 19.234 31.076 19.311 60.397 0.0656 25.16-5.889 62.725-13.011 75.873s-15.042 30.55-15.042 30.55l-57.311-0.0409s14.284-16.813 23.597-33.796 14.243-36.156 14.243-45.469-4.9304-26.295-8.7651-35.06-11.504-20.269-13.695-22.461c-3.5556-9.236-1.6201-19.225 0.54781-27.391z"/>
 </g>
 <g transform="matrix(.60556 -.7958 .7958 .60556 -334.55 -47.142)" fill="#fff" stroke="#000" stroke-width="5">
  <path d="m84.693 892.05s35.767-13.813 56.534-38.587c11.089-13.228 11.974-20.05 14.249-36.529 1.4779-10.704-2.9328-19.06-2.9328-19.06-29.347 41.158-72.653-29.268-58.876-72.733 9.0787-25.504 37.335-66.178 55.636-88.839 20.98-25.978 58.884-51.862 80.015-79.802 16.435-21.731 29.092-50.212 29.092-50.212s0.97266 82.92 1.056 93.851c0.13936 18.546 0.73151 34.72-9.6579 53.212-5.8397 10.394-20.178 19.607-24.229 21.537-7.6595 3.6486-14.303 3.1136-17.893 1.3188s-6.336-5.8056-7.2333-10.292 0.89736-10.768 0.89736-10.768-10.184 9.6686-11.403 15.517c-8.2518 19.817 1.0327 28.014 8.7108 40.12 0 0 17.965-17.81 25.126-22.325 14.159-8.9285 31.408-9.9798 31.408-9.9798s-9.3375 6.8234-12.563 12.146c-3.2885 5.4267-5.2174 19.017-3.5894 30.03 1.5681 10.607 6.7125 16.335 12.563 29.613 7.2805 16.523 6.5878 27.843 7.1789 34.997 1.9036 23.042-1.7181 51.562-15.255 79.865-9.419 19.693-16.533 29.4-16.153 28.716l-142.68-1.7947z"/>
  <path d="m171 890.7s39.991-39.443 39.991-75.051-23.556-60.808-26.843-65.19-27.849-17.119-37.808-38.579c-4.6637-10.05-9.852-56.741-9.852-56.741l-33.202 48.657c-7.5616 11.081-26.84 52.486 6.3594 90.932 29.943 34.675 42.95 5.139 42.95 5.139s12.814 24.13-15.559 59.608c-20.257 25.329-52.043 32.869-52.043 32.869l86.008-1.6435z"/>
  <path d="m189.62 727.45c4.3826-12.052 8.0662-15.343 13.695-21.228 6.026-6.2999 13.422-13.285 24.515-20.132 10.319-6.3697 26.432-7.5325 26.432-7.5325s-10.682 6.163-13.148 16.845c-2.7212 11.792-3.588 17.875-1.3696 29.445 2.3198 12.099 19.234 31.076 19.311 60.397 0.0656 25.16-5.889 62.725-13.011 75.873s-15.042 30.55-15.042 30.55l-57.311-0.0409s14.284-16.813 23.597-33.796 14.243-36.156 14.243-45.469-4.9304-26.295-8.7651-35.06-11.504-20.269-13.695-22.461c-3.5556-9.236-1.6201-19.225 0.54781-27.391z"/>
 </g>
 <g transform="matrix(.93098 -.36507 .36507 .93098 23.654 -374.5)" fill="#fff" stroke="#000" stroke-width="5">
  <path d="m84.693 892.05s35.767-13.813 56.534-38.587c11.089-13.228 11.974-20.05 14.249-36.529 1.4779-10.704-2.9328-19.06-2.9328-19.06-29.347 41.158-72.653-29.268-58.876-72.733 9.0787-25.504 37.335-66.178 55.636-88.839 20.98-25.978 58.884-51.862 80.015-79.802 16.435-21.731 29.092-50.212 29.092-50.212s0.97266 82.92 1.056 93.851c0.13936 18.546 0.73151 34.72-9.6579 53.212-5.8397 10.394-20.178 19.607-24.229 21.537-7.6595 3.6486-14.303 3.1136-17.893 1.3188s-6.336-5.8056-7.2333-10.292 0.89736-10.768 0.89736-10.768-10.184 9.6686-11.403 15.517c-8.2518 19.817 1.0327 28.014 8.7108 40.12 0 0 17.965-17.81 25.126-22.325 14.159-8.9285 31.408-9.9798 31.408-9.9798s-9.3375 6.8234-12.563 12.146c-3.2885 5.4267-5.2174 19.017-3.5894 30.03 1.5681 10.607 6.7125 16.335 12.563 29.613 7.2805 16.523 6.5878 27.843 7.1789 34.997 1.9036 23.042-1.7181 51.562-15.255 79.865-9.419 19.693-16.533 29.4-16.153 28.716l-142.68-1.7947z"/>
  <path d="m171 890.7s39.991-39.443 39.991-75.051-23.556-60.808-26.843-65.19-27.849-17.119-37.808-38.579c-4.6637-10.05-9.852-56.741-9.852-56.741l-33.202 48.657c-7.5616 11.081-26.84 52.486 6.3594 90.932 29.943 34.675 42.95 5.139 42.95 5.139s12.814 24.13-15.559 59.608c-20.257 25.329-52.043 32.869-52.043 32.869l86.008-1.6435z"/>
  <path d="m189.62 727.45c4.3826-12.052 8.0662-15.343 13.695-21.228 6.026-6.2999 13.422-13.285 24.515-20.132 10.319-6.3697 26.432-7.5325 26.432-7.5325s-10.682 6.163-13.148 16.845c-2.7212 11.792-3.588 17.875-1.3696 29.445 2.3198 12.099 19.234 31.076 19.311 60.397 0.0656 25.16-5.889 62.725-13.011 75.873s-15.042 30.55-15.042 30.55l-57.311-0.0409s14.284-16.813 23.597-33.796 14.243-36.156 14.243-45.469-4.9304-26.295-8.7651-35.06-11.504-20.269-13.695-22.461c-3.5556-9.236-1.6201-19.225 0.54781-27.391z"/>
 </g>
 <g transform="matrix(.99646 .08411 -.08411 .99646 420.17 -470.77)" fill="#fff" stroke="#000" stroke-width="5">
  <path d="m84.693 892.05s35.767-13.813 56.534-38.587c11.089-13.228 11.974-20.05 14.249-36.529 1.4779-10.704-2.9328-19.06-2.9328-19.06-29.347 41.158-72.653-29.268-58.876-72.733 9.0787-25.504 37.335-66.178 55.636-88.839 20.98-25.978 58.884-51.862 80.015-79.802 16.435-21.731 29.092-50.212 29.092-50.212s0.97266 82.92 1.056 93.851c0.13936 18.546 0.73151 34.72-9.6579 53.212-5.8397 10.394-20.178 19.607-24.229 21.537-7.6595 3.6486-14.303 3.1136-17.893 1.3188s-6.336-5.8056-7.2333-10.292 0.89736-10.768 0.89736-10.768-10.184 9.6686-11.403 15.517c-8.2518 19.817 1.0327 28.014 8.7108 40.12 0 0 17.965-17.81 25.126-22.325 14.159-8.9285 31.408-9.9798 31.408-9.9798s-9.3375 6.8234-12.563 12.146c-3.2885 5.4267-5.2174 19.017-3.5894 30.03 1.5681 10.607 6.7125 16.335 12.563 29.613 7.2805 16.523 6.5878 27.843 7.1789 34.997 1.9036 23.042-1.7181 51.562-15.255 79.865-9.419 19.693-16.533 29.4-16.153 28.716l-142.68-1.7947z"/>
  <path d="m171 890.7s39.991-39.443 39.991-75.051-23.556-60.808-26.843-65.19-27.849-17.119-37.808-38.579c-4.6637-10.05-9.852-56.741-9.852-56.741l-33.202 48.657c-7.5616 11.081-26.84 52.486 6.3594 90.932 29.943 34.675 42.95 5.139 42.95 5.139s12.814 24.13-15.559 59.608c-20.257 25.329-52.043 32.869-52.043 32.869l86.008-1.6435z"/>
  <path d="m189.62 727.45c4.3826-12.052 8.0662-15.343 13.695-21.228 6.026-6.2999 13.422-13.285 24.515-20.132 10.319-6.3697 26.432-7.5325 26.432-7.5325s-10.682 6.163-13.148 16.845c-2.7212 11.792-3.588 17.875-1.3696 29.445 2.3198 12.099 19.234 31.076 19.311 60.397 0.0656 25.16-5.889 62.725-13.011 75.873s-15.042 30.55-15.042 30.55l-57.311-0.0409s14.284-16.813 23.597-33.796 14.243-36.156 14.243-45.469-4.9304-26.295-8.7651-35.06-11.504-20.269-13.695-22.461c-3.5556-9.236-1.6201-19.225 0.54781-27.391z"/>
 </g>
 <g transform="matrix(.7804 .62528 -.62528 .7804 922.62 -322.79)" fill="#fff" stroke="#000" stroke-width="5">
  <path d="m84.693 892.05s35.767-13.813 56.534-38.587c11.089-13.228 11.974-20.05 14.249-36.529 1.4779-10.704-2.9328-19.06-2.9328-19.06-29.347 41.158-72.653-29.268-58.876-72.733 9.0787-25.504 37.335-66.178 55.636-88.839 20.98-25.978 58.884-51.862 80.015-79.802 16.435-21.731 29.092-50.212 29.092-50.212s0.97266 82.92 1.056 93.851c0.13936 18.546 0.73151 34.72-9.6579 53.212-5.8397 10.394-20.178 19.607-24.229 21.537-7.6595 3.6486-14.303 3.1136-17.893 1.3188s-6.336-5.8056-7.2333-10.292 0.89736-10.768 0.89736-10.768-10.184 9.6686-11.403 15.517c-8.2518 19.817 1.0327 28.014 8.7108 40.12 0 0 17.965-17.81 25.126-22.325 14.159-8.9285 31.408-9.9798 31.408-9.9798s-9.3375 6.8234-12.563 12.146c-3.2885 5.4267-5.2174 19.017-3.5894 30.03 1.5681 10.607 6.7125 16.335 12.563 29.613 7.2805 16.523 6.5878 27.843 7.1789 34.997 1.9036 23.042-1.7181 51.562-15.255 79.865-9.419 19.693-16.533 29.4-16.153 28.716l-142.68-1.7947z"/>
  <path d="m171 890.7s39.991-39.443 39.991-75.051-23.556-60.808-26.843-65.19-27.849-17.119-37.808-38.579c-4.6637-10.05-9.852-56.741-9.852-56.741l-33.202 48.657c-7.5616 11.081-26.84 52.486 6.3594 90.932 29.943 34.675 42.95 5.139 42.95 5.139s12.814 24.13-15.559 59.608c-20.257 25.329-52.043 32.869-52.043 32.869l86.008-1.6435z"/>
  <path d="m189.62 727.45c4.3826-12.052 8.0662-15.343 13.695-21.228 6.026-6.2999 13.422-13.285 24.515-20.132 10.319-6.3697 26.432-7.5325 26.432-7.5325s-10.682 6.163-13.148 16.845c-2.7212 11.792-3.588 17.875-1.3696 29.445 2.3198 12.099 19.234 31.076 19.311 60.397 0.0656 25.16-5.889 62.725-13.011 75.873s-15.042 30.55-15.042 30.55l-57.311-0.0409s14.284-16.813 23.597-33.796 14.243-36.156 14.243-45.469-4.9304-26.295-8.7651-35.06-11.504-20.269-13.695-22.461c-3.5556-9.236-1.6201-19.225 0.54781-27.391z"/>
 </g>
</svg>
