<?xml version="1.0" encoding="UTF-8" standalone="no"?>
<!-- Created with Inkscape (http://www.inkscape.org/) -->

<svg
   width="210mm"
   height="297mm"
   viewBox="0 0 210 297"
   version="1.1"
   id="svg12580"
   inkscape:version="1.1.1 (3bf5ae0d25, 2021-09-20)"
   sodipodi:docname="waves2.svg"
   xmlns:inkscape="http://www.inkscape.org/namespaces/inkscape"
   xmlns:sodipodi="http://sodipodi.sourceforge.net/DTD/sodipodi-0.dtd"
   xmlns="http://www.w3.org/2000/svg"
   xmlns:svg="http://www.w3.org/2000/svg">
  <sodipodi:namedview
     id="namedview12582"
     pagecolor="#ffffff"
     bordercolor="#666666"
     borderopacity="1.0"
     inkscape:pageshadow="2"
     inkscape:pageopacity="0.0"
     inkscape:pagecheckerboard="0"
     inkscape:document-units="mm"
     showgrid="false"
     inkscape:zoom="0.64052329"
     inkscape:cx="396.55076"
     inkscape:cy="560.47923"
     inkscape:window-width="3840"
     inkscape:window-height="2080"
     inkscape:window-x="-11"
     inkscape:window-y="-11"
     inkscape:window-maximized="1"
     inkscape:current-layer="layer1" />
  <defs
     id="defs12577">
    <clipPath
       clipPathUnits="userSpaceOnUse"
       id="clipPath12659">
      <path
         d="M 36,148 H 756 V 463 H 36 Z"
         id="path12657" />
    </clipPath>
    <clipPath
       clipPathUnits="userSpaceOnUse"
       id="clipPath12665">
      <path
         d="M 0,0 H 79 V 41 H 0 Z"
         id="path12663" />
    </clipPath>
    <pattern
       patternTransform="matrix(0.990644,0,0,-0.992577,36.481605,463.00333)"
       patternUnits="userSpaceOnUse"
       x="0"
       y="0"
       width="79"
       height="41"
       id="pattern12679">
      <g
         id="g12677">
        <g
           clip-path="url(#clipPath12665)"
           id="g12675">
          <g
             id="g12673">
            <path
               d="M 0,0 79,0 79,41 0,41 0,0 Z"
               style="fill:#ffffff;fill-opacity:1;fill-rule:nonzero;stroke:none"
               id="path12667" />
            <g
               transform="scale(1,0.998053)"
               id="g12671">
              <path
                 d="m 47.539,70.309 c 0,4.364 -3.535,7.902 -7.898,7.902 -4.364,0 -7.903,-3.538 -7.903,-7.902 0,-4.36 3.539,-7.898 7.903,-7.898 4.363,0 7.898,3.538 7.898,7.898 m 7.899,0 c 0,8.728 -7.075,15.8 -15.797,15.8 -8.727,0 -15.801,-7.072 -15.801,-15.8 0,-8.724 7.074,-15.801 15.801,-15.801 8.722,0 15.797,7.077 15.797,15.801 m 7.902,0 c 0,13.092 -10.613,23.702 -23.699,23.702 -13.09,0 -23.703,-10.61 -23.703,-23.702 0,-13.088 10.613,-23.699 23.703,-23.699 13.086,0 23.699,10.611 23.699,23.699 m 7.898,0 c 0,17.452 -14.148,31.6 -31.597,31.6 -17.453,0 -31.602,-14.148 -31.602,-31.6 0,-17.452 14.149,-31.601 31.602,-31.601 17.449,0 31.597,14.149 31.597,31.601 m 7.903,0 c 0,21.816 -17.688,39.503 -39.5,39.503 -21.817,0 -39.5,-17.687 -39.5,-39.503 0,-21.816 17.683,-39.499 39.5,-39.499 21.812,0 39.5,17.683 39.5,39.499 m 0,-28.438 c -3.375,0 -6.375,2.144 -7.469,5.334 2.246,3.108 4.023,6.529 5.285,10.149 0,0.004 0,0.004 0,0.008 0.707,0.203 1.441,0.309 2.18,0.309 4.363,0 7.898,-3.538 7.898,-7.902 0,-4.36 -3.535,-7.898 -7.898,-7.898 l 0.004,0 z m 0,-7.903 c -5.25,0.004 -10.157,2.611 -13.094,6.963 7.109,6.392 11.66,15.143 12.808,24.634 0.094,0 0.188,0.004 0.286,0.004 8.722,0 15.797,-7.072 15.797,-15.8 0,-8.724 -7.075,-15.801 -15.797,-15.801 z M 79.023,26.07 c -7.73,0.039 -14.953,3.848 -19.355,10.196 12.062,7.1 19.469,20.047 19.473,34.043 -0.004,1.057 -0.047,2.109 -0.133,3.162 0.043,0 0.086,0 0.129,0 6.285,0 12.312,-2.497 16.758,-6.943 4.445,-4.442 6.941,-10.474 6.941,-16.759 0,-13.088 -10.609,-23.699 -23.699,-23.699 -0.039,0 -0.078,0 -0.114,0 z m 0.051,-7.902 c -10.832,0.024 -20.898,5.597 -26.672,14.767 15.989,5.46 26.731,20.482 26.735,37.374 0,3.73 -0.528,7.44 -1.567,11.021 0.524,0.028 1.047,0.039 1.571,0.039 17.449,0 31.597,-14.148 31.597,-31.6 0,-17.452 -14.148,-31.601 -31.597,-31.601 -0.024,0 -0.043,0 -0.067,0 z m 0.02,-7.898 c -14.531,0.02 -27.879,8.016 -34.754,20.818 0.308,0.039 0.613,0.078 0.918,0.125 0.004,0 0.012,0 0.015,0 0.305,0.043 0.614,0.09 0.918,0.141 0,0 0.004,0 0.008,0 0.614,0.106 1.227,0.223 1.832,0.356 0.004,0 0.008,0 0.012,0 1.199,0.262 2.383,0.579 3.551,0.947 0.019,0.008 0.043,0.016 0.062,0.024 0.008,0.004 0.012,0.004 0.02,0.008 0.293,0.094 0.586,0.191 0.875,0.293 0.855,0.298 1.695,0.623 2.527,0.979 0.035,0.011 0.067,0.019 0.102,0.031 0.035,0.016 0.07,0.035 0.105,0.051 0.524,0.223 1.039,0.458 1.555,0.704 0.015,0.008 0.031,0.016 0.051,0.024 0.004,0.004 0.007,0.008 0.011,0.008 0.559,0.274 1.11,0.559 1.653,0.857 0.008,0 0.011,0.004 0.019,0.004 0.27,0.148 0.535,0.301 0.801,0.454 0.004,0 0.012,0.004 0.016,0.008 0.265,0.152 0.531,0.313 0.793,0.473 0.007,0 0.011,0.004 0.015,0.004 0.262,0.161 0.524,0.325 0.781,0.493 0.004,0.004 0.008,0.004 0.016,0.008 0.258,0.164 0.516,0.333 0.77,0.505 0.004,0.004 0.007,0.004 0.011,0.008 0.254,0.172 0.508,0.348 0.758,0.528 0.004,0.004 0.008,0.004 0.016,0.008 0.25,0.18 0.496,0.364 0.742,0.548 0.008,0.004 0.012,0.004 0.016,0.008 0.246,0.188 0.492,0.375 0.734,0.567 0.004,0.004 0.008,0.004 0.012,0.008 0.242,0.188 0.484,0.384 0.722,0.579 0.004,0 0.008,0.004 0.012,0.004 0.238,0.2 0.473,0.399 0.703,0.603 0.008,0 0.012,0.004 0.016,0.004 0.23,0.203 0.461,0.411 0.687,0.618 0.035,0.032 0.067,0.063 0.102,0.094 0.195,0.18 0.391,0.364 0.586,0.548 0.004,0 0.008,0.004 0.012,0.004 0.222,0.215 0.441,0.431 0.66,0.65 0.004,0.004 0.008,0.008 0.011,0.011 0.219,0.22 0.434,0.439 0.649,0.666 0.004,0 0.004,0 0.008,0 0.211,0.227 0.422,0.45 0.629,0.681 0.003,0.004 0.007,0.008 0.011,0.012 0.207,0.231 0.41,0.458 0.61,0.692 0.004,0.004 0.007,0.008 0.011,0.008 0.204,0.235 0.403,0.47 0.602,0.705 0.004,0.008 0.008,0.011 0.012,0.015 0.394,0.478 0.777,0.967 1.148,1.464 0.004,0.004 0.008,0.008 0.012,0.012 0.183,0.246 0.367,0.493 0.543,0.744 0.004,0.003 0.008,0.007 0.012,0.015 0.179,0.251 0.355,0.501 0.527,0.756 0,0.003 0.004,0.007 0.004,0.015 0.176,0.255 0.344,0.509 0.511,0.771 0.004,0.004 0.004,0.008 0.008,0.012 0.168,0.258 0.332,0.521 0.492,0.783 0.032,0.051 0.063,0.105 0.094,0.156 0.278,0.458 0.539,0.916 0.793,1.382 0.02,0.031 0.035,0.063 0.051,0.094 0.012,0.019 0.023,0.039 0.035,0.062 0.289,0.529 0.567,1.061 0.828,1.601 0.004,0.004 0.004,0.008 0.008,0.012 0.133,0.282 0.266,0.56 0.395,0.841 0.004,0.004 0.004,0.008 0.007,0.012 0.125,0.282 0.25,0.564 0.372,0.846 0.003,0.003 0.003,0.007 0.007,0.011 0.121,0.286 0.243,0.572 0.356,0.861 0.004,0.004 0.004,0.008 0.008,0.012 0.113,0.286 0.222,0.575 0.332,0.861 0,0.004 0.004,0.012 0.004,0.016 0.109,0.286 0.21,0.575 0.312,0.869 0,0.004 0.004,0.008 0.004,0.011 0.102,0.29 0.199,0.584 0.293,0.877 0,0.004 0.004,0.008 0.004,0.012 0.094,0.293 0.187,0.591 0.273,0.888 0,0.008 0.004,0.012 0.004,0.016 0.086,0.294 0.168,0.587 0.25,0.885 0,0.003 0.004,0.007 0.004,0.015 0.078,0.298 0.156,0.599 0.227,0.9 0.004,0.004 0.004,0.008 0.007,0.012 0.075,0.301 0.145,0.599 0.211,0.9 0.028,0.129 0.051,0.255 0.075,0.384 0.039,0.18 0.074,0.356 0.109,0.536 0.102,0.521 0.191,1.045 0.273,1.57 0.016,0.093 0.028,0.187 0.043,0.281 0,0.004 0,0.008 0,0.016 0.043,0.301 0.086,0.607 0.125,0.916 0.008,0.078 0.016,0.156 0.024,0.235 0.058,0.493 0.105,0.982 0.14,1.475 0.004,0.055 0.008,0.106 0.012,0.161 0,0.039 0.004,0.082 0.004,0.125 0.043,0.564 0.074,1.127 0.09,1.691 0,0.019 0,0.043 0,0.062 0,0.004 0,0.008 0,0.008 0.008,0.309 0.012,0.619 0.012,0.928 0,0.015 0,0.031 0,0.043 0,1.878 -0.133,3.757 -0.399,5.616 -0.094,0.619 -0.199,1.237 -0.316,1.851 -0.059,0.31 -0.121,0.615 -0.184,0.92 0,0.004 0,0.004 0,0.008 -0.137,0.611 -0.285,1.217 -0.445,1.82 -0.082,0.301 -0.164,0.607 -0.254,0.904 -0.176,0.603 -0.367,1.202 -0.574,1.793 -0.203,0.591 -0.422,1.178 -0.656,1.761 -0.231,0.579 -0.477,1.154 -0.739,1.726 -0.261,0.571 -0.535,1.135 -0.82,1.695 -0.106,0.195 -0.211,0.391 -0.316,0.591 1.558,0.184 3.128,0.278 4.703,0.278 21.812,0 39.5,-17.687 39.5,-39.503 0,-21.816 -17.688,-39.499 -39.5,-39.499 -0.016,0 -0.032,0 -0.047,0 z M 0.141,41.871 c -4.364,0 -7.903,3.538 -7.903,7.898 0,4.364 3.539,7.902 7.903,7.902 0.738,0 1.472,-0.106 2.183,-0.309 C 3.582,53.737 5.359,50.317 7.605,47.205 6.512,44.015 3.512,41.871 0.141,41.871 Z m 0,-7.903 c -8.727,0 -15.801,7.077 -15.801,15.801 0,8.728 7.074,15.8 15.801,15.8 0.093,0 0.187,-0.004 0.281,-0.004 C 1.57,56.074 6.125,47.323 13.234,40.931 10.297,36.579 5.391,33.972 0.141,33.968 Z M 0.023,26.07 c -13.043,0.063 -23.586,10.658 -23.586,23.699 0,13.092 10.614,23.702 23.704,23.702 0.043,0 0.086,0 0.129,0 C 0.184,72.418 0.141,71.366 0.141,70.309 0.141,56.313 7.547,43.366 19.609,36.266 15.184,29.882 7.91,26.07 0.141,26.07 c -0.039,0 -0.078,0 -0.118,0 z m 0.051,-7.902 c -17.426,0.035 -31.535,14.176 -31.535,31.601 0,17.452 14.148,31.6 31.602,31.6 0.523,0 1.047,-0.015 1.57,-0.043 C 0.672,77.745 0.141,74.039 0.141,70.309 0.141,53.417 10.887,38.395 26.871,32.935 21.09,23.749 10.996,18.172 0.141,18.168 c -0.02,0 -0.039,0 -0.063,0 l -0.004,0 z M -0.184,10.27 c -21.796,0.023 -39.457,17.702 -39.457,39.499 0,21.816 17.688,39.503 39.5,39.503 C 1.52,89.268 3.176,89.162 4.82,88.954 1.75,83.221 0.141,76.814 0.141,70.309 0.141,50.415 14.941,33.624 34.68,31.127 27.805,18.286 14.426,10.274 -0.141,10.27 c -0.011,0 -0.027,0 -0.043,0 z m 39.825,11.061 c -3.477,0.004 -6.543,2.277 -7.555,5.6 0.949,1.343 1.816,2.744 2.594,4.196 1.644,-0.211 3.3,-0.317 4.961,-0.317 1.57,0 3.14,0.09 4.699,0.278 0.824,-1.534 1.75,-3.01 2.765,-4.419 -1.093,-3.194 -4.093,-5.338 -7.464,-5.338 z m 0,-7.903 c -5.321,0.004 -10.286,2.681 -13.203,7.132 3.328,3.025 6.113,6.598 8.242,10.567 1.644,-0.211 3.3,-0.317 4.961,-0.317 1.57,0 3.14,0.09 4.699,0.278 2.164,-4.024 5.004,-7.64 8.402,-10.689 -2.937,-4.356 -7.847,-6.971 -13.101,-6.971 z M 39.523,5.53 C 31.742,5.573 24.48,9.429 20.09,15.851 c 6.156,3.671 11.203,8.951 14.59,15.276 1.644,-0.211 3.3,-0.317 4.961,-0.317 1.57,0 3.14,0.09 4.699,0.278 C 47.766,24.712 52.879,19.397 59.117,15.726 54.688,9.338 47.41,5.53 39.641,5.53 c -0.039,0 -0.078,0 -0.118,0 z m 16.512,28.849 c 0.27,0.118 0.539,0.243 0.805,0.368 -0.266,-0.125 -0.535,-0.25 -0.805,-0.368 z M 39.574,-2.372 C 28.711,-2.348 18.617,3.256 12.852,12.466 22.211,15.726 30,22.387 34.68,31.127 c 1.644,-0.211 3.3,-0.317 4.961,-0.317 1.57,0 3.14,0.09 4.699,0.278 C 49.063,22.297 56.934,15.62 66.375,12.395 60.59,3.205 50.496,-2.368 39.641,-2.372 c -0.024,0 -0.043,0 -0.067,0 z m 16.465,36.751 c 0.27,0.118 0.535,0.243 0.801,0.368 -0.266,-0.125 -0.535,-0.25 -0.805,-0.368 l 0.004,0 z M 39.594,-10.27 c -14.547,0.02 -27.906,8.031 -34.774,20.857 12.692,1.609 23.821,9.26 29.86,20.54 1.644,-0.211 3.3,-0.317 4.961,-0.317 1.57,0 3.14,0.09 4.699,0.278 6.09,-11.339 17.324,-19.002 30.101,-20.532 -6.878,-12.822 -20.25,-20.826 -34.8,-20.826 -0.016,0 -0.032,0 -0.047,0 z m 16.441,44.649 c 0.27,0.118 0.539,0.243 0.805,0.368 -0.266,-0.125 -0.535,-0.25 -0.805,-0.368 z M 79.137,0.791 c -3.371,0.004 -6.371,2.144 -7.465,5.334 1.019,1.409 1.945,2.889 2.769,4.423 1.547,-0.184 3.098,-0.278 4.653,-0.278 0.015,0 0.031,0 0.047,0 2.531,0 5.058,0.243 7.547,0.728 0.23,-0.748 0.347,-1.526 0.347,-2.309 0,-4.36 -3.535,-7.898 -7.898,-7.898 z m 0,-7.903 c -5.25,0.004 -10.157,2.611 -13.094,6.963 3.398,3.053 6.242,6.673 8.402,10.697 1.543,-0.184 3.098,-0.278 4.653,-0.278 0.015,0 0.031,0 0.043,0 5.187,0 10.324,1.025 15.117,3.01 0.453,-1.488 0.683,-3.033 0.683,-4.591 0,-8.724 -7.074,-15.801 -15.8,-15.801 l -0.004,0 z m -0.114,-7.898 c -7.73,0.039 -14.953,3.848 -19.355,10.196 6.238,3.671 11.352,8.982 14.773,15.358 1.547,-0.184 3.098,-0.274 4.653,-0.274 0.015,0 0.031,0 0.047,0 7.898,0 15.621,2.368 22.164,6.798 1.011,-2.677 1.531,-5.514 1.535,-8.379 0,-13.088 -10.613,-23.699 -23.699,-23.699 -0.039,0 -0.078,0 -0.118,0 z m 0.051,-7.902 c -10.832,0.024 -20.898,5.597 -26.672,14.767 9.446,3.221 17.321,9.902 22.039,18.693 1.547,-0.184 3.098,-0.278 4.653,-0.278 0.015,0 0.031,0 0.047,0 10.742,0 21.023,4.38 28.468,12.129 2.059,-4.278 3.129,-8.963 3.129,-13.71 0,-17.452 -14.148,-31.601 -31.597,-31.601 -0.024,0 -0.043,0 -0.067,0 z m 0.02,-7.898 c -14.531,0.02 -27.883,8.02 -34.754,20.826 12.781,1.53 24.015,9.193 30.101,20.532 1.547,-0.184 3.098,-0.278 4.653,-0.278 0.015,0 0.031,0 0.047,0 13.785,0 26.574,7.186 33.742,18.959 3.765,-6.188 5.758,-13.296 5.758,-20.54 0,-21.816 -17.688,-39.499 -39.5,-39.499 -0.016,0 -0.032,0 -0.047,0 z M 46.422,27.652 c -0.137,0.203 -0.274,0.41 -0.406,0.622 0.132,-0.212 0.269,-0.419 0.406,-0.622 z m 9.613,6.727 c 0.27,0.118 0.539,0.243 0.805,0.368 -0.266,-0.125 -0.535,-0.25 -0.805,-0.368 z M 0.137,0.791 c -4.364,0 -7.903,3.538 -7.903,7.898 0.004,0.767 0.118,1.53 0.336,2.266 2.391,-0.45 4.817,-0.681 7.246,-0.685 0.016,0 0.032,0 0.043,0 1.661,0 3.317,0.106 4.961,0.317 C 5.648,9.041 6.582,7.554 7.605,6.129 6.512,2.939 3.512,0.795 0.141,0.791 l -0.004,0 z m 0,-7.903 c -8.727,0 -15.801,7.077 -15.801,15.801 0.004,1.522 0.223,3.033 0.656,4.489 4.711,-1.914 9.742,-2.9 14.824,-2.908 0.016,0 0.032,0 0.043,0 1.661,0 3.317,0.106 4.961,0.317 C 6.984,6.548 9.832,2.92 13.242,-0.141 10.305,-4.497 5.395,-7.112 0.141,-7.112 l -0.004,0 z M 0.023,-15.01 c -13.043,0.063 -23.586,10.658 -23.586,23.699 0.004,2.81 0.504,5.597 1.485,8.235 6.484,-4.333 14.101,-6.646 21.898,-6.654 0.012,0 0.028,0 0.039,0 1.661,0 3.317,0.106 4.961,0.317 C 8.246,4.192 13.367,-1.135 19.617,-4.814 15.188,-11.202 7.91,-15.01 0.141,-15.01 c -0.039,0 -0.078,0 -0.118,0 z m 0.051,-7.902 c -17.426,0.035 -31.535,14.176 -31.535,31.601 0,4.673 1.035,9.287 3.035,13.51 7.422,-7.616 17.61,-11.917 28.246,-11.929 0.016,0 0.028,0 0.043,0 1.66,0 3.317,0.106 4.961,0.317 4.719,-8.81 12.598,-15.503 22.055,-18.732 -5.785,-9.19 -15.883,-14.763 -26.738,-14.767 -0.024,0 -0.043,0 -0.067,0 z m 0.02,-7.898 c -21.797,0.023 -39.453,17.702 -39.453,39.499 0,7.154 1.941,14.176 5.625,20.313 7.187,-11.628 19.875,-18.716 33.546,-18.732 0.016,0 0.032,0 0.047,0 1.657,0 3.313,0.106 4.961,0.317 6.082,-11.362 17.325,-19.041 30.121,-20.571 -6.878,-12.822 -20.25,-20.826 -34.8,-20.826 -0.016,0 -0.032,0 -0.047,0 z m 30.629,55.937 c 0.125,0.161 0.254,0.321 0.379,0.485 -0.125,-0.164 -0.254,-0.324 -0.379,-0.485 z"
                 style="fill:none;stroke:#800080;stroke-opacity:1;stroke-width:3.16;stroke-linecap:butt;stroke-linejoin:miter;stroke-miterlimit:4;stroke-dasharray:none"
                 id="path12669" />
            </g>
          </g>
        </g>
      </g>
    </pattern>
  </defs>
  <g
     inkscape:label="Layer 1"
     inkscape:groupmode="layer"
     id="layer1">
    <g
       id="g12647"
       inkscape:label="waves.svg"
       transform="matrix(0,-0.69700586,0.69700586,0,-112.61568,519.39941)">
      <g
         id="g12649">
        <path
           d="M 36,36 H 756 V 576 H 36 Z"
           style="fill:#ffffff;fill-opacity:1;fill-rule:nonzero;stroke:none"
           id="path12651" />
      </g>
      <g
         id="g12653">
        <g
           id="g12655"
           clip-path="url(#clipPath12659)">
          <g
             id="g12661">
            <path
               d="m 36.48,148.996 h 720 v 313.043 h -720 z"
               style="fill:url(#pattern12679);fill-opacity:1;fill-rule:nonzero;stroke:none"
               id="path12681" />
          </g>
        </g>
      </g>
    </g>
  </g>
</svg>
