M48
; DRILL file {KiCad (5.99.0-13010-g08938463f1)} date Thu Dec 30 23:19:07 2021
; FORMAT={-:-/ absolute / metric / decimal}
; #@! TF.CreationDate,2021-12-30T23:19:07-06:00
; #@! TF.GenerationSoftware,Kicad,Pcbnew,(5.99.0-13010-g08938463f1)
; #@! TF.FileFunction,NonPlated,1,2,NPTH
FMAT,2
METRIC
; #@! TA.AperFunction,NonPlated,NPTH,ComponentDrill
T1C0.900
; #@! TA.AperFunction,NonPlated,NPTH,ComponentDrill
T2C1.702
; #@! TA.AperFunction,NonPlated,NPTH,ComponentDrill
T3C3.429
; #@! TA.AperFunction,NonPlated,NPTH,ComponentDrill
T4C3.988
%
G90
G05
T1
X138.38Y-83.03
X141.38Y-83.03
T2
X18.514Y-52.744
X18.894Y-52.922
X28.102Y-57.216
X28.483Y-57.393
X33.62Y-65.306
X34.001Y-65.483
X41.65Y-48.086
X42.031Y-48.263
X43.209Y-69.777
X43.59Y-69.954
X51.239Y-52.557
X51.619Y-52.734
X52.108Y-70.616
X52.489Y-70.794
X60.138Y-53.396
X60.518Y-53.574
X61.697Y-75.088
X62.077Y-75.265
X68.167Y-36.177
X68.548Y-36.354
X69.726Y-57.868
X70.107Y-58.045
X72.286Y-72.302
X72.667Y-72.479
X77.756Y-40.648
X78.137Y-40.825
X80.316Y-55.082
X80.697Y-55.26
X81.875Y-76.773
X82.255Y-76.951
X86.548Y-86.676
X86.928Y-86.853
X88.346Y-37.862
X88.726Y-38.04
X89.905Y-59.553
X90.285Y-59.731
X94.577Y-69.456
X94.958Y-69.633
X95.738Y-111.925
X96.118Y-112.103
X96.136Y-91.147
X96.517Y-91.325
X97.934Y-42.334
X98.315Y-42.511
X102.607Y-52.236
X102.988Y-52.414
X103.768Y-94.706
X104.148Y-94.883
X104.166Y-73.927
X104.547Y-74.105
X105.326Y-116.397
X105.707Y-116.574
X111.797Y-77.486
X112.178Y-77.663
X112.196Y-56.708
X112.576Y-56.885
X112.958Y-119.955
X113.338Y-120.133
X113.356Y-99.177
X113.737Y-99.354
X117.616Y-143.092
X117.997Y-143.269
X119.827Y-60.266
X120.208Y-60.443
X121.386Y-81.957
X121.767Y-82.135
X122.546Y-124.427
X122.927Y-124.604
X127.205Y-147.563
X127.586Y-147.74
X129.416Y-64.737
X129.796Y-64.915
X149.964Y-64.915
X150.344Y-64.737
X152.174Y-147.74
X152.555Y-147.563
X156.833Y-124.604
X157.214Y-124.427
X157.993Y-82.135
X158.374Y-81.957
X159.552Y-60.443
X159.933Y-60.266
X161.763Y-143.269
X162.144Y-143.092
X166.023Y-99.354
X166.404Y-99.177
X166.422Y-120.133
X166.802Y-119.955
X167.183Y-56.885
X167.564Y-56.708
X167.582Y-77.663
X167.963Y-77.486
X174.053Y-116.574
X174.433Y-116.397
X175.213Y-74.105
X175.594Y-73.927
X175.612Y-94.883
X175.992Y-94.706
X176.772Y-52.414
X177.153Y-52.236
X181.445Y-42.511
X181.826Y-42.334
X183.243Y-91.325
X183.624Y-91.147
X183.642Y-112.103
X184.022Y-111.925
X184.802Y-69.633
X185.182Y-69.456
X189.475Y-59.731
X189.855Y-59.553
X191.034Y-38.04
X191.414Y-37.862
X192.832Y-86.853
X193.212Y-86.676
X197.504Y-76.951
X197.885Y-76.773
X199.063Y-55.26
X199.444Y-55.082
X201.623Y-40.825
X202.004Y-40.648
X207.093Y-72.479
X207.474Y-72.302
X209.653Y-58.045
X210.033Y-57.868
X211.212Y-36.354
X211.592Y-36.177
X217.683Y-75.265
X218.063Y-75.088
X219.242Y-53.574
X219.622Y-53.396
X227.271Y-70.794
X227.652Y-70.616
X228.141Y-52.734
X228.521Y-52.557
X236.17Y-69.954
X236.551Y-69.777
X237.729Y-48.263
X238.11Y-48.086
X245.759Y-65.483
X246.14Y-65.306
X251.277Y-57.393
X251.658Y-57.216
X260.866Y-52.922
X261.246Y-52.744
T3
X23.498Y-55.069
X38.605Y-67.63
X46.635Y-50.41
X57.093Y-72.941
X65.122Y-55.721
X73.152Y-38.501
X77.271Y-74.626
X85.301Y-57.406
X91.532Y-89.0
X93.33Y-40.187
X99.562Y-71.78
X100.722Y-114.25
X107.592Y-54.561
X108.752Y-97.03
X116.782Y-79.81
X117.942Y-122.28
X122.601Y-145.416
X124.812Y-62.59
X154.948Y-62.59
X157.159Y-145.416
X161.818Y-122.28
X162.978Y-79.81
X171.008Y-97.03
X172.168Y-54.561
X179.037Y-114.25
X180.198Y-71.78
X186.43Y-40.187
X188.228Y-89.0
X194.459Y-57.406
X202.489Y-74.626
X206.608Y-38.501
X214.637Y-55.721
X222.667Y-72.941
X233.125Y-50.41
X241.155Y-67.63
X256.262Y-55.069
T4
X23.498Y-55.069
X38.605Y-67.63
X46.635Y-50.41
X57.093Y-72.941
X65.122Y-55.721
X73.152Y-38.501
X77.271Y-74.626
X85.301Y-57.406
X91.532Y-89.0
X93.33Y-40.187
X99.562Y-71.78
X100.722Y-114.25
X107.592Y-54.561
X108.752Y-97.03
X116.782Y-79.81
X117.942Y-122.28
X122.601Y-145.416
X124.812Y-62.59
X154.948Y-62.59
X157.159Y-145.416
X161.818Y-122.28
X162.978Y-79.81
X171.008Y-97.03
X172.168Y-54.561
X179.037Y-114.25
X180.198Y-71.78
X186.43Y-40.187
X188.228Y-89.0
X194.459Y-57.406
X202.489Y-74.626
X206.608Y-38.501
X214.637Y-55.721
X222.667Y-72.941
X233.125Y-50.41
X241.155Y-67.63
X256.262Y-55.069
T0
M30
