M48
; DRILL file {KiCad (5.99.0-13010-g08938463f1)} date Thu Dec 30 23:19:07 2021
; FORMAT={-:-/ absolute / metric / decimal}
; #@! TF.CreationDate,2021-12-30T23:19:07-06:00
; #@! TF.GenerationSoftware,Kicad,Pcbnew,(5.99.0-13010-g08938463f1)
; #@! TF.FileFunction,Plated,1,2,PTH
FMAT,2
METRIC
; #@! TA.AperFunction,Plated,PTH,ViaDrill
T1C0.400
; #@! TA.AperFunction,Plated,PTH,ComponentDrill
T2C0.750
; #@! TA.AperFunction,Plated,PTH,ComponentDrill
T3C0.991
; #@! TA.AperFunction,Plated,PTH,ComponentDrill
T4C1.000
; #@! TA.AperFunction,Plated,PTH,ComponentDrill
T5C1.092
; #@! TA.AperFunction,Plated,PTH,ComponentDrill
T6C1.270
; #@! TA.AperFunction,Plated,PTH,ComponentDrill
T7C1.499
; #@! TA.AperFunction,Plated,PTH,ComponentDrill
T8C1.500
; #@! TA.AperFunction,Plated,PTH,ComponentDrill
T9C2.200
%
G90
G05
T1
X30.278Y-60.051
X31.673Y-57.06
X46.652Y-69.893
X48.047Y-66.902
X53.414Y-55.392
X54.809Y-52.401
X66.831Y-71.579
X68.225Y-68.588
X73.593Y-57.078
X74.987Y-54.087
X79.932Y-43.483
X81.376Y-40.386
X84.051Y-79.608
X85.445Y-76.618
X90.39Y-66.014
X91.784Y-63.023
X97.152Y-51.513
X98.312Y-93.982
X98.615Y-48.375
X99.707Y-90.991
X103.797Y-106.65
X106.342Y-76.762
X107.502Y-119.232
X107.736Y-73.772
X107.959Y-79.066
X108.897Y-116.241
X114.372Y-59.543
X115.532Y-102.012
X115.766Y-56.552
X116.927Y-99.021
X119.055Y-100.415
X119.055Y-108.015
X123.562Y-84.792
X124.592Y-137.242
X124.722Y-127.262
X124.956Y-81.801
X126.117Y-124.271
X127.583Y-138.636
X128.988Y-88.998
X129.901Y-71.198
X131.296Y-68.207
X148.464Y-68.207
X149.127Y-103.116
X149.453Y-114.242
X149.859Y-71.198
X150.091Y-129.196
X152.177Y-138.636
X153.643Y-124.271
X154.804Y-81.801
X155.038Y-127.262
X155.168Y-137.242
X156.198Y-84.792
X158.142Y-114.26
X161.546Y-89.985
X162.833Y-99.021
X163.994Y-56.552
X164.228Y-102.012
X165.388Y-59.543
X170.863Y-116.241
X172.023Y-73.772
X172.258Y-119.232
X173.418Y-76.762
X175.094Y-63.889
X180.053Y-90.992
X181.145Y-48.375
X181.448Y-93.982
X182.608Y-51.513
X187.975Y-63.023
X189.37Y-66.014
X194.315Y-76.618
X195.709Y-79.608
X198.433Y-40.492
X199.828Y-43.483
X204.773Y-54.087
X206.167Y-57.078
X211.535Y-68.588
X212.929Y-71.579
X224.951Y-52.401
X226.346Y-55.392
X231.713Y-66.902
X233.107Y-69.893
X248.087Y-57.06
X249.482Y-60.051
T2
X154.906Y-100.255
X156.854Y-99.805
T3
X29.365Y-62.008
X32.585Y-55.102
X45.74Y-71.851
X48.96Y-64.945
X52.502Y-57.35
X55.722Y-50.444
X65.918Y-73.536
X69.138Y-66.63
X72.68Y-59.035
X75.9Y-52.129
X79.019Y-45.441
X82.239Y-38.535
X83.138Y-81.566
X86.358Y-74.66
X89.477Y-67.971
X92.697Y-61.065
X96.239Y-53.47
X97.399Y-95.94
X99.459Y-46.564
X100.62Y-89.034
X105.429Y-78.72
X106.589Y-121.19
X108.649Y-71.814
X109.81Y-114.283
X113.459Y-61.5
X114.619Y-103.97
X116.679Y-54.594
X117.839Y-97.064
X122.634Y-136.329
X122.649Y-86.75
X123.809Y-129.219
X125.869Y-79.844
X127.029Y-122.313
X128.988Y-73.155
X129.541Y-139.549
X132.208Y-66.249
X136.07Y-122.03
X143.69Y-122.03
X147.552Y-66.249
X150.219Y-139.549
X150.772Y-73.155
X152.73Y-122.313
X153.891Y-79.844
X155.951Y-129.219
X157.111Y-86.75
X157.126Y-136.329
X161.921Y-97.064
X163.081Y-54.594
X165.141Y-103.97
X166.301Y-61.5
X169.95Y-114.283
X171.111Y-71.814
X173.171Y-121.19
X174.331Y-78.72
X179.14Y-89.034
X180.301Y-46.564
X182.361Y-95.94
X183.521Y-53.47
X187.063Y-61.065
X190.283Y-67.971
X193.402Y-74.66
X196.622Y-81.566
X197.521Y-38.535
X200.741Y-45.441
X203.86Y-52.129
X207.08Y-59.035
X210.622Y-66.63
X213.842Y-73.536
X224.038Y-50.444
X227.258Y-57.35
X230.8Y-64.945
X234.02Y-71.851
X247.175Y-55.102
X250.395Y-62.008
T4
X132.26Y-127.99
X132.26Y-130.49
X132.26Y-132.99
X136.31Y-115.93
X138.85Y-115.93
X141.39Y-115.93
X143.93Y-115.93
X146.76Y-127.99
X146.76Y-132.99
T5
X132.26Y-85.06
X132.26Y-87.6
X132.26Y-90.14
X132.26Y-92.68
X132.26Y-95.22
X132.26Y-97.76
X132.26Y-100.3
X132.26Y-102.84
X132.26Y-105.38
X132.26Y-107.92
X132.26Y-110.46
X132.26Y-113.0
X147.5Y-85.06
X147.5Y-87.6
X147.5Y-90.14
X147.5Y-92.68
X147.5Y-95.22
X147.5Y-97.76
X147.5Y-100.3
X147.5Y-102.84
X147.5Y-105.38
X147.5Y-107.92
X147.5Y-110.46
X147.5Y-113.0
T6
X25.992Y-49.721
X29.636Y-53.738
X41.098Y-62.283
X44.742Y-66.299
X49.128Y-45.063
X52.772Y-49.079
X59.586Y-67.594
X63.23Y-71.61
X67.616Y-50.374
X71.26Y-54.39
X75.646Y-33.154
X79.29Y-37.17
X79.764Y-69.279
X83.408Y-73.296
X87.794Y-52.059
X91.438Y-56.076
X94.026Y-83.653
X95.824Y-34.839
X97.67Y-87.669
X99.468Y-38.856
X102.056Y-66.433
X103.216Y-108.903
X105.7Y-70.45
X106.86Y-112.919
X110.085Y-49.213
X111.246Y-91.683
X113.729Y-53.23
X114.89Y-95.699
X119.275Y-74.463
X120.436Y-116.932
X122.919Y-78.479
X124.08Y-120.949
X125.094Y-140.069
X127.305Y-57.243
X128.738Y-144.085
X130.949Y-61.259
X152.455Y-57.243
X154.666Y-140.069
X157.874Y-57.033
X159.324Y-116.932
X160.085Y-139.859
X160.485Y-74.463
X164.743Y-116.723
X165.904Y-74.253
X168.514Y-91.683
X169.675Y-49.213
X173.933Y-91.473
X175.094Y-49.004
X176.544Y-108.903
X177.704Y-66.433
X181.963Y-108.693
X183.123Y-66.223
X183.936Y-34.839
X185.734Y-83.653
X189.355Y-34.63
X191.153Y-83.443
X191.966Y-52.059
X197.385Y-51.849
X199.996Y-69.279
X204.114Y-33.154
X205.415Y-69.069
X209.533Y-32.944
X212.144Y-50.374
X217.563Y-50.164
X220.174Y-67.594
X225.593Y-67.384
X230.632Y-45.063
X236.051Y-44.853
X238.662Y-62.283
X244.081Y-62.073
X253.768Y-49.721
X259.187Y-49.512
T7
X21.119Y-51.157
X27.947Y-51.538
X36.225Y-63.718
X43.054Y-64.099
X44.255Y-46.498
X51.084Y-46.88
X54.713Y-69.029
X61.542Y-69.41
X62.743Y-51.809
X69.571Y-52.19
X70.773Y-34.589
X74.891Y-70.714
X77.601Y-34.971
X81.72Y-71.096
X82.921Y-53.494
X89.153Y-85.088
X89.75Y-53.876
X90.951Y-36.275
X95.981Y-85.47
X97.183Y-67.868
X97.779Y-36.656
X98.343Y-110.338
X104.011Y-68.25
X105.171Y-110.719
X105.212Y-50.648
X106.373Y-93.118
X112.041Y-51.03
X113.201Y-93.499
X114.402Y-75.898
X115.563Y-118.367
X120.221Y-141.504
X121.231Y-76.28
X122.391Y-118.749
X122.432Y-58.678
X127.05Y-141.886
X129.261Y-59.06
X150.422Y-61.898
X152.633Y-144.724
X155.103Y-56.913
X157.291Y-121.588
X157.314Y-139.739
X158.452Y-79.118
X161.973Y-116.602
X163.133Y-74.133
X166.481Y-96.338
X167.642Y-53.869
X171.163Y-91.353
X172.323Y-48.883
X174.511Y-113.558
X175.671Y-71.089
X179.193Y-108.572
X180.353Y-66.103
X181.903Y-39.495
X183.701Y-88.308
X186.585Y-34.509
X188.383Y-83.323
X189.933Y-56.715
X194.614Y-51.729
X197.963Y-73.935
X202.081Y-37.809
X202.644Y-68.949
X206.763Y-32.824
X210.111Y-55.029
X214.793Y-50.043
X218.141Y-72.249
X222.822Y-67.263
X228.599Y-49.718
X233.28Y-44.733
X236.629Y-66.938
X241.31Y-61.953
X251.735Y-54.377
X256.417Y-49.391
T9
X51.864Y-61.675
X112.187Y-67.185
X113.347Y-109.655
X166.413Y-109.655
X167.573Y-67.185
X227.896Y-61.675
T8
X139.11Y-124.89G85X140.41Y-124.89
G05
X139.11Y-136.09G85X140.41Y-136.09
G05
T0
M30
