%TF.GenerationSoftware,KiCad,Pcbnew,(5.99.0-13010-g08938463f1)*%
%TF.CreationDate,2021-12-30T23:18:33-06:00*%
%TF.ProjectId,balbuzard,62616c62-757a-4617-9264-2e6b69636164,Rev1*%
%TF.SameCoordinates,Original*%
%TF.FileFunction,Profile,NP*%
%FSLAX46Y46*%
G04 Gerber Fmt 4.6, Leading zero omitted, Abs format (unit mm)*
G04 Created by KiCad (PCBNEW (5.99.0-13010-g08938463f1)) date 2021-12-30 23:18:33*
%MOMM*%
%LPD*%
G01*
G04 APERTURE LIST*
%TA.AperFunction,Profile*%
%ADD10C,0.150000*%
%TD*%
G04 APERTURE END LIST*
D10*
X113032589Y-148898680D02*
X121062336Y-131678832D01*
X43355366Y-74479296D02*
X60575214Y-82509043D01*
X219184696Y-82509043D02*
X236404544Y-74479296D01*
X13929923Y-58551231D02*
X31149771Y-66580978D01*
X236404544Y-74479296D02*
X237672399Y-77198220D01*
X134113168Y-137764535D02*
X145646742Y-137764535D01*
X192870483Y-36962559D02*
X210090331Y-28932812D01*
X180575984Y-100512581D02*
X197795832Y-92482834D01*
X145379955Y-59107756D02*
X145379955Y-81240321D01*
X192870483Y-36962559D02*
X189912155Y-30618405D01*
X99940259Y-43048262D02*
X102898587Y-36704108D01*
X237672399Y-77198220D02*
X250723231Y-71112517D01*
X194837504Y-86138680D02*
X216226368Y-76164889D01*
X189912155Y-30618405D02*
X176861323Y-36704108D01*
X69669579Y-28932812D02*
X86889427Y-36962559D01*
X210090331Y-28932812D02*
X219387933Y-48871584D01*
X134379955Y-81240321D02*
X134379955Y-59107756D01*
X216226368Y-76164889D02*
X219184696Y-82509043D01*
X176861323Y-36704108D02*
X179819651Y-43048262D01*
X42087512Y-77198220D02*
X43355366Y-74479296D01*
X84922406Y-86138680D02*
X81964078Y-92482834D01*
X145379955Y-59107756D02*
X179819651Y-43048262D01*
X197795832Y-92482834D02*
X194837504Y-86138680D01*
X20015626Y-45500398D02*
X13929923Y-58551231D01*
X60371977Y-48871584D02*
X69669579Y-28932812D01*
X113032589Y-148898680D02*
X126083421Y-154984383D01*
X60575214Y-82509043D02*
X63533542Y-76164889D01*
X81964078Y-92482834D02*
X99183926Y-100512581D01*
X248610140Y-66580978D02*
X265829988Y-58551231D01*
X43152129Y-40841836D02*
X60371977Y-48871584D01*
X236607781Y-40841836D02*
X242524437Y-53530145D01*
X265829988Y-58551231D02*
X259744285Y-45500398D01*
X145646742Y-137764535D02*
X153676489Y-154984383D01*
X242524437Y-53530145D02*
X259744285Y-45500398D01*
X63533542Y-76164889D02*
X84922406Y-86138680D01*
X99940259Y-43048262D02*
X134379955Y-59107756D01*
X37235474Y-53530145D02*
X43152129Y-40841836D01*
X250723231Y-71112517D02*
X248610140Y-66580978D01*
X158697574Y-131678832D02*
X188605731Y-117732429D01*
X219387933Y-48871584D02*
X236607781Y-40841836D01*
X29036679Y-71112517D02*
X42087512Y-77198220D01*
X31149771Y-66580978D02*
X29036679Y-71112517D01*
X153676489Y-154984383D02*
X166727321Y-148898680D01*
X102898587Y-36704108D02*
X89847755Y-30618405D01*
X145379955Y-81240321D02*
X134379955Y-81240321D01*
X89847755Y-30618405D02*
X86889427Y-36962559D01*
X180575984Y-100512581D02*
X188605731Y-117732429D01*
X91154179Y-117732429D02*
X121062336Y-131678832D01*
X91154179Y-117732429D02*
X99183926Y-100512581D01*
X20015626Y-45500398D02*
X37235474Y-53530145D01*
X158697574Y-131678832D02*
X166727321Y-148898680D01*
X126083421Y-154984383D02*
X134113168Y-137764535D01*
M02*
