%TF.GenerationSoftware,KiCad,Pcbnew,(5.99.0-13010-g08938463f1)*%
%TF.CreationDate,2021-12-30T23:18:33-06:00*%
%TF.ProjectId,balbuzard,62616c62-757a-4617-9264-2e6b69636164,Rev1*%
%TF.SameCoordinates,Original*%
%TF.FileFunction,Soldermask,Bot*%
%TF.FilePolarity,Negative*%
%FSLAX46Y46*%
G04 Gerber Fmt 4.6, Leading zero omitted, Abs format (unit mm)*
G04 Created by KiCad (PCBNEW (5.99.0-13010-g08938463f1)) date 2021-12-30 23:18:33*
%MOMM*%
%LPD*%
G01*
G04 APERTURE LIST*
G04 Aperture macros list*
%AMRoundRect*
0 Rectangle with rounded corners*
0 $1 Rounding radius*
0 $2 $3 $4 $5 $6 $7 $8 $9 X,Y pos of 4 corners*
0 Add a 4 corners polygon primitive as box body*
4,1,4,$2,$3,$4,$5,$6,$7,$8,$9,$2,$3,0*
0 Add four circle primitives for the rounded corners*
1,1,$1+$1,$2,$3*
1,1,$1+$1,$4,$5*
1,1,$1+$1,$6,$7*
1,1,$1+$1,$8,$9*
0 Add four rect primitives between the rounded corners*
20,1,$1+$1,$2,$3,$4,$5,0*
20,1,$1+$1,$4,$5,$6,$7,0*
20,1,$1+$1,$6,$7,$8,$9,0*
20,1,$1+$1,$8,$9,$2,$3,0*%
%AMHorizOval*
0 Thick line with rounded ends*
0 $1 width*
0 $2 $3 position (X,Y) of the first rounded end (center of the circle)*
0 $4 $5 position (X,Y) of the second rounded end (center of the circle)*
0 Add line between two ends*
20,1,$1,$2,$3,$4,$5,0*
0 Add two circle primitives to create the rounded ends*
1,1,$1,$2,$3*
1,1,$1,$4,$5*%
G04 Aperture macros list end*
%ADD10C,1.852600*%
%ADD11RoundRect,0.050000X-0.876300X0.876300X-0.876300X-0.876300X0.876300X-0.876300X0.876300X0.876300X0*%
%ADD12C,2.005000*%
%ADD13RoundRect,0.050000X0.353606X-0.661409X0.733963X0.154268X-0.353606X0.661409X-0.733963X-0.154268X0*%
%ADD14RoundRect,0.050000X0.430000X-1.181415X1.181415X0.430000X-0.430000X1.181415X-1.181415X-0.430000X0*%
%ADD15C,1.100000*%
%ADD16C,1.801800*%
%ADD17C,3.529000*%
%ADD18C,2.132000*%
%ADD19RoundRect,0.050000X-1.600000X-1.000000X1.600000X-1.000000X1.600000X1.000000X-1.600000X1.000000X0*%
%ADD20C,1.600000*%
%ADD21RoundRect,0.050000X-1.000000X-1.000000X1.000000X-1.000000X1.000000X1.000000X-1.000000X1.000000X0*%
%ADD22C,2.100000*%
%ADD23C,4.087800*%
%ADD24C,2.386000*%
%ADD25RoundRect,0.050000X0.733963X-0.154268X0.353606X0.661409X-0.733963X0.154268X-0.353606X-0.661409X0*%
%ADD26RoundRect,0.050000X1.181415X-0.430000X0.430000X1.181415X-1.181415X0.430000X-0.430000X-1.181415X0*%
%ADD27C,3.100000*%
%ADD28RoundRect,0.050000X-0.450000X-0.600000X0.450000X-0.600000X0.450000X0.600000X-0.450000X0.600000X0*%
%ADD29RoundRect,0.050000X-0.889000X-0.889000X0.889000X-0.889000X0.889000X0.889000X-0.889000X0.889000X0*%
%ADD30RoundRect,0.050000X-0.850000X-0.850000X0.850000X-0.850000X0.850000X0.850000X-0.850000X0.850000X0*%
%ADD31O,1.800000X1.800000*%
%ADD32RoundRect,0.050000X0.154268X0.733963X-0.661409X0.353606X-0.154268X-0.733963X0.661409X-0.353606X0*%
%ADD33RoundRect,0.050000X0.430000X1.181415X-1.181415X0.430000X-0.430000X-1.181415X1.181415X-0.430000X0*%
%ADD34RoundRect,0.050000X0.661409X0.353606X-0.154268X0.733963X-0.661409X-0.353606X0.154268X-0.733963X0*%
%ADD35RoundRect,0.050000X1.181415X0.430000X-0.430000X1.181415X-1.181415X-0.430000X0.430000X-1.181415X0*%
%ADD36RoundRect,0.050000X0.393414X0.963185X-0.775830X0.693244X-0.393414X-0.963185X0.775830X-0.693244X0*%
%ADD37HorizOval,1.300000X-0.056238X0.243593X0.056238X-0.243593X0*%
G04 APERTURE END LIST*
D10*
%TO.C,MCU1*%
X147500000Y-113000000D03*
X147500000Y-110460000D03*
X147500000Y-107920000D03*
X147500000Y-105380000D03*
X147500000Y-102840000D03*
X147500000Y-100300000D03*
X147500000Y-97760000D03*
X147500000Y-95220000D03*
X147500000Y-92680000D03*
X147500000Y-90140000D03*
X147500000Y-87600000D03*
X147500000Y-85060000D03*
X132260000Y-113000000D03*
X132260000Y-110460000D03*
X132260000Y-107920000D03*
X132260000Y-105380000D03*
X132260000Y-102840000D03*
X132260000Y-100300000D03*
X132260000Y-97760000D03*
X132260000Y-95220000D03*
X132260000Y-92680000D03*
X132260000Y-90140000D03*
X132260000Y-87600000D03*
D11*
X132260000Y-85060000D03*
%TD*%
D12*
%TO.C,D1*%
X32585376Y-55102267D03*
D13*
X30277880Y-60050708D03*
D14*
X29365024Y-62008333D03*
D13*
X31672520Y-57059892D03*
%TD*%
D15*
%TO.C,T1*%
X138380000Y-83030000D03*
X141380000Y-83030000D03*
%TD*%
D13*
%TO.C,D12*%
X114371580Y-59542608D03*
D12*
X116679076Y-54594167D03*
D13*
X115766220Y-56551792D03*
D14*
X113458724Y-61500233D03*
%TD*%
D16*
%TO.C,S2*%
X28482893Y-57393100D03*
D17*
X23498200Y-55068700D03*
D16*
X18513507Y-52744300D03*
D18*
X29635688Y-53737822D03*
X25991648Y-49721484D03*
%TD*%
D19*
%TO.C,ROT1*%
X139760000Y-136090000D03*
X139760000Y-124890000D03*
D20*
X146760000Y-127990000D03*
X146760000Y-132990000D03*
D21*
X132260000Y-127990000D03*
D22*
X132260000Y-132990000D03*
X132260000Y-130490000D03*
%TD*%
D16*
%TO.C,S45*%
X219241544Y-53573999D03*
X210033456Y-57867801D03*
D23*
X214637500Y-55720900D03*
D24*
X214792621Y-50043406D03*
X210111017Y-55029054D03*
%TD*%
D12*
%TO.C,D21*%
X224038024Y-50443667D03*
D25*
X226345520Y-55392108D03*
X224950880Y-52401292D03*
D26*
X227258376Y-57349733D03*
%TD*%
D16*
%TO.C,S34*%
X112957607Y-119955200D03*
X122926993Y-124604000D03*
D17*
X117942300Y-122279600D03*
D18*
X124079788Y-120948722D03*
X120435748Y-116932384D03*
%TD*%
D16*
%TO.C,S42*%
X228140507Y-52734500D03*
X238109893Y-48085700D03*
D17*
X233125200Y-50410100D03*
D18*
X236050790Y-44853039D03*
X230631752Y-45062884D03*
%TD*%
D16*
%TO.C,S3*%
X34000856Y-65483099D03*
D23*
X38604900Y-67630000D03*
D16*
X43208944Y-69776901D03*
D24*
X43053823Y-64099407D03*
X36225318Y-63717803D03*
%TD*%
D16*
%TO.C,S49*%
X197885056Y-76773301D03*
X207093144Y-72479499D03*
D23*
X202489100Y-74626400D03*
D24*
X202644221Y-68948906D03*
X197962617Y-73934554D03*
%TD*%
D16*
%TO.C,S31*%
X96118356Y-112102999D03*
X105326444Y-116396801D03*
D23*
X100722400Y-114249900D03*
D24*
X105171323Y-110719307D03*
X98342818Y-110337703D03*
%TD*%
D16*
%TO.C,S14*%
X82255493Y-76950800D03*
D17*
X77270800Y-74626400D03*
D16*
X72286107Y-72302000D03*
D18*
X83408288Y-73295522D03*
X79764248Y-69279184D03*
%TD*%
D16*
%TO.C,S72*%
X162143793Y-143091700D03*
D17*
X157159100Y-145416100D03*
D16*
X152174407Y-147740500D03*
D18*
X160084690Y-139859039D03*
X154665652Y-140068884D03*
%TD*%
D27*
%TO.C,HOLE2*%
X167573000Y-67185400D03*
%TD*%
D25*
%TO.C,D28*%
X181447820Y-93982308D03*
D12*
X179140324Y-89033867D03*
D26*
X182360676Y-95939933D03*
D25*
X180053180Y-90991492D03*
%TD*%
D16*
%TO.C,S52*%
X189474607Y-59730900D03*
X199443993Y-55082100D03*
D17*
X194459300Y-57406500D03*
D18*
X197384890Y-51849439D03*
X191965852Y-52059284D03*
%TD*%
D17*
%TO.C,S64*%
X162978000Y-79810200D03*
D16*
X167962693Y-77485800D03*
X157993307Y-82134600D03*
D18*
X165903590Y-74253139D03*
X160484552Y-74462984D03*
%TD*%
D13*
%TO.C,D4*%
X66830680Y-71578608D03*
D12*
X69138176Y-66630167D03*
D13*
X68225320Y-68587792D03*
D14*
X65917824Y-73536233D03*
%TD*%
D16*
%TO.C,S51*%
X189855256Y-59553401D03*
X199063344Y-55259599D03*
D23*
X194459300Y-57406500D03*
D24*
X194614421Y-51729006D03*
X189932817Y-56714654D03*
%TD*%
D12*
%TO.C,D26*%
X187062624Y-61065367D03*
D25*
X189370120Y-66013808D03*
D26*
X190282976Y-67971433D03*
D25*
X187975480Y-63022992D03*
%TD*%
D16*
%TO.C,S19*%
X86928256Y-86853399D03*
D23*
X91532300Y-89000300D03*
D16*
X96136344Y-91147201D03*
D24*
X95981223Y-85469707D03*
X89152718Y-85088103D03*
%TD*%
D17*
%TO.C,S20*%
X91532300Y-89000300D03*
D16*
X96516993Y-91324700D03*
X86547607Y-86675900D03*
D18*
X97669788Y-87669422D03*
X94025748Y-83653084D03*
%TD*%
D12*
%TO.C,D3*%
X55721876Y-50443667D03*
D13*
X53414380Y-55392108D03*
X54809020Y-52401292D03*
D14*
X52501524Y-57349733D03*
%TD*%
D16*
%TO.C,S32*%
X105707093Y-116574300D03*
X95737707Y-111925500D03*
D17*
X100722400Y-114249900D03*
D18*
X106859888Y-112919022D03*
X103215848Y-108902684D03*
%TD*%
D23*
%TO.C,S53*%
X186429600Y-40186700D03*
D16*
X191033644Y-38039799D03*
X181825556Y-42333601D03*
D24*
X186584721Y-34509206D03*
X181903117Y-39494854D03*
%TD*%
D17*
%TO.C,S54*%
X186429600Y-40186700D03*
D16*
X181444907Y-42511100D03*
X191414293Y-37862300D03*
D18*
X189355190Y-34629639D03*
X183936152Y-34839484D03*
%TD*%
D16*
%TO.C,S8*%
X52108007Y-70616400D03*
X62077393Y-75265200D03*
D17*
X57092700Y-72940800D03*
D18*
X63230188Y-71609922D03*
X59586148Y-67593584D03*
%TD*%
D16*
%TO.C,S18*%
X98314993Y-42511100D03*
D17*
X93330300Y-40186700D03*
D16*
X88345607Y-37862300D03*
D18*
X99467788Y-38855822D03*
X95823748Y-34839484D03*
%TD*%
D16*
%TO.C,S26*%
X113736893Y-99354400D03*
X103767507Y-94705600D03*
D17*
X108752200Y-97030000D03*
D18*
X114889688Y-95699122D03*
X111245648Y-91682784D03*
%TD*%
D12*
%TO.C,D37*%
X143690000Y-122030000D03*
D28*
X138230000Y-122030000D03*
D29*
X136070000Y-122030000D03*
D28*
X141530000Y-122030000D03*
%TD*%
D25*
%TO.C,D34*%
X172257720Y-119231908D03*
D12*
X169950224Y-114283467D03*
D25*
X170863080Y-116241092D03*
D26*
X173170576Y-121189533D03*
%TD*%
D30*
%TO.C,OLED1*%
X143930000Y-115930000D03*
D31*
X141390000Y-115930000D03*
X138850000Y-115930000D03*
X136310000Y-115930000D03*
%TD*%
D12*
%TO.C,D29*%
X171110624Y-71813967D03*
D25*
X173418120Y-76762408D03*
D26*
X174330976Y-78720033D03*
D25*
X172023480Y-73771592D03*
%TD*%
D16*
%TO.C,S37*%
X251657656Y-57215601D03*
D23*
X256261700Y-55068700D03*
D16*
X260865744Y-52921799D03*
D24*
X256416821Y-49391206D03*
X251735217Y-54376854D03*
%TD*%
D16*
%TO.C,S65*%
X159552244Y-60443399D03*
D23*
X154948200Y-62590300D03*
D16*
X150344156Y-64737201D03*
D24*
X155103321Y-56912806D03*
X150421717Y-61898454D03*
%TD*%
D16*
%TO.C,S57*%
X184801844Y-69633499D03*
X175593756Y-73927301D03*
D23*
X180197800Y-71780400D03*
D24*
X180352921Y-66102906D03*
X175671317Y-71088554D03*
%TD*%
D23*
%TO.C,S29*%
X124811700Y-62590300D03*
D16*
X120207656Y-60443399D03*
X129415744Y-64737201D03*
D24*
X129260623Y-59059707D03*
X122432118Y-58678103D03*
%TD*%
D23*
%TO.C,S39*%
X241155000Y-67630000D03*
D16*
X245759044Y-65483099D03*
X236550956Y-69776901D03*
D24*
X241310121Y-61952506D03*
X236628517Y-66938154D03*
%TD*%
D27*
%TO.C,HOLE5*%
X113347200Y-109654800D03*
%TD*%
D16*
%TO.C,S5*%
X42030656Y-48263199D03*
X51238744Y-52557001D03*
D23*
X46634700Y-50410100D03*
D24*
X51083623Y-46879507D03*
X44255118Y-46497903D03*
%TD*%
D16*
%TO.C,S25*%
X104148156Y-94883099D03*
X113356244Y-99176901D03*
D23*
X108752200Y-97030000D03*
D24*
X113201123Y-93499407D03*
X106372618Y-93117803D03*
%TD*%
D16*
%TO.C,S59*%
X167564056Y-56707501D03*
D23*
X172168100Y-54560600D03*
D16*
X176772144Y-52413699D03*
D24*
X172323221Y-48883106D03*
X167641617Y-53868754D03*
%TD*%
D12*
%TO.C,D36*%
X150219467Y-139549276D03*
D32*
X155167908Y-137241780D03*
X152177092Y-138636420D03*
D33*
X157125533Y-136328924D03*
%TD*%
D13*
%TO.C,D9*%
X97151680Y-51512808D03*
D12*
X99459176Y-46564367D03*
D13*
X98546320Y-48521992D03*
D14*
X96238824Y-53470433D03*
%TD*%
D17*
%TO.C,S70*%
X161817600Y-122279600D03*
D16*
X166802293Y-119955200D03*
X156832907Y-124604000D03*
D18*
X164743190Y-116722539D03*
X159324152Y-116932384D03*
%TD*%
D16*
%TO.C,S38*%
X251277007Y-57393100D03*
X261246393Y-52744300D03*
D17*
X256261700Y-55068700D03*
D18*
X259187290Y-49511639D03*
X253768252Y-49721484D03*
%TD*%
D16*
%TO.C,S47*%
X202003756Y-40648001D03*
X211211844Y-36354199D03*
D23*
X206607800Y-38501100D03*
D24*
X206762921Y-32823606D03*
X202081317Y-37809254D03*
%TD*%
D27*
%TO.C,HOLE6*%
X166412700Y-109654800D03*
%TD*%
D25*
%TO.C,D27*%
X182608220Y-51512808D03*
D12*
X180300724Y-46564367D03*
D25*
X181213580Y-48521992D03*
D26*
X183521076Y-53470433D03*
%TD*%
D16*
%TO.C,S27*%
X112177856Y-77663299D03*
D23*
X116781900Y-79810200D03*
D16*
X121385944Y-81957101D03*
D24*
X121230823Y-76279607D03*
X114402318Y-75898003D03*
%TD*%
D16*
%TO.C,S40*%
X236170307Y-69954400D03*
D17*
X241155000Y-67630000D03*
D16*
X246139693Y-65305600D03*
D18*
X244080590Y-62072939D03*
X238661552Y-62282784D03*
%TD*%
D12*
%TO.C,D6*%
X82239376Y-38534667D03*
D13*
X79931880Y-43483108D03*
X81326520Y-40492292D03*
D14*
X79019024Y-45440733D03*
%TD*%
D16*
%TO.C,S48*%
X201623107Y-40825500D03*
X211592493Y-36176700D03*
D17*
X206607800Y-38501100D03*
D18*
X209533390Y-32944039D03*
X204114352Y-33153884D03*
%TD*%
D12*
%TO.C,D5*%
X75900076Y-52129267D03*
D13*
X73592580Y-57077708D03*
X74987220Y-54086892D03*
D14*
X72679724Y-59035333D03*
%TD*%
D16*
%TO.C,S1*%
X18894156Y-52921799D03*
D23*
X23498200Y-55068700D03*
D16*
X28102244Y-57215601D03*
D24*
X27947123Y-51538107D03*
X21118618Y-51156503D03*
%TD*%
D16*
%TO.C,S17*%
X97934344Y-42333601D03*
X88726256Y-38039799D03*
D23*
X93330300Y-40186700D03*
D24*
X97779223Y-36656107D03*
X90950718Y-36274503D03*
%TD*%
D12*
%TO.C,D13*%
X117839376Y-97063567D03*
D13*
X115531880Y-102012008D03*
D14*
X114619024Y-103969633D03*
D13*
X116926520Y-99021192D03*
%TD*%
D25*
%TO.C,D22*%
X212929220Y-71578608D03*
D12*
X210621724Y-66630167D03*
D26*
X213842076Y-73536233D03*
D25*
X211534580Y-68587792D03*
%TD*%
D23*
%TO.C,S63*%
X162978000Y-79810200D03*
D16*
X167582044Y-77663299D03*
X158373956Y-81957101D03*
D24*
X163133121Y-74132706D03*
X158451517Y-79118354D03*
%TD*%
D34*
%TO.C,D18*%
X127582908Y-138636420D03*
D12*
X122634467Y-136328924D03*
D34*
X124592092Y-137241780D03*
D35*
X129540533Y-139549276D03*
%TD*%
D25*
%TO.C,D30*%
X165388320Y-59542608D03*
D12*
X163080824Y-54594167D03*
D25*
X163993680Y-56551792D03*
D26*
X166301176Y-61500233D03*
%TD*%
D16*
%TO.C,S10*%
X60137707Y-53396500D03*
D17*
X65122400Y-55720900D03*
D16*
X70107093Y-58045300D03*
D18*
X71259888Y-54390022D03*
X67615848Y-50373684D03*
%TD*%
D12*
%TO.C,D15*%
X132208476Y-66249167D03*
D13*
X129900980Y-71197608D03*
X131295620Y-68206792D03*
D14*
X128988124Y-73155233D03*
%TD*%
D13*
%TO.C,D7*%
X84050580Y-79608408D03*
D12*
X86358076Y-74659967D03*
D14*
X83137724Y-81566033D03*
D13*
X85445220Y-76617592D03*
%TD*%
D12*
%TO.C,D35*%
X152730424Y-122313167D03*
D25*
X155037920Y-127261608D03*
D26*
X155950776Y-129219233D03*
D25*
X153643280Y-124270792D03*
%TD*%
D17*
%TO.C,S50*%
X202489100Y-74626400D03*
D16*
X197504407Y-76950800D03*
X207473793Y-72302000D03*
D18*
X205414690Y-69069339D03*
X199995652Y-69279184D03*
%TD*%
D16*
%TO.C,S22*%
X94577407Y-69456000D03*
X104546793Y-74104800D03*
D17*
X99562100Y-71780400D03*
D18*
X105699588Y-70449522D03*
X102055548Y-66433184D03*
%TD*%
D13*
%TO.C,D8*%
X90389780Y-66013808D03*
D12*
X92697276Y-61065367D03*
D13*
X91784420Y-63022992D03*
D14*
X89476924Y-67971433D03*
%TD*%
D25*
%TO.C,D20*%
X233107420Y-69893008D03*
D12*
X230799924Y-64944567D03*
D25*
X231712780Y-66902192D03*
D26*
X234020276Y-71850633D03*
%TD*%
D17*
%TO.C,S16*%
X85300600Y-57406500D03*
D16*
X90285293Y-59730900D03*
X80315907Y-55082100D03*
D18*
X91438088Y-56075622D03*
X87794048Y-52059284D03*
%TD*%
D16*
%TO.C,S28*%
X121766593Y-82134600D03*
X111797207Y-77485800D03*
D17*
X116781900Y-79810200D03*
D18*
X122919388Y-78479322D03*
X119275348Y-74462984D03*
%TD*%
D16*
%TO.C,S21*%
X94958056Y-69633499D03*
D23*
X99562100Y-71780400D03*
D16*
X104166144Y-73927301D03*
D24*
X104011023Y-68249807D03*
X97182518Y-67868203D03*
%TD*%
D12*
%TO.C,D14*%
X125869176Y-79843767D03*
D13*
X123561680Y-84792208D03*
D14*
X122648824Y-86749833D03*
D13*
X124956320Y-81801392D03*
%TD*%
D16*
%TO.C,S35*%
X127204944Y-147563001D03*
X117996856Y-143269199D03*
D23*
X122600900Y-145416100D03*
D24*
X127049823Y-141885507D03*
X120221318Y-141503903D03*
%TD*%
D12*
%TO.C,D23*%
X203859824Y-52129267D03*
D25*
X206167320Y-57077708D03*
D26*
X207080176Y-59035333D03*
D25*
X204772680Y-54086892D03*
%TD*%
D16*
%TO.C,S6*%
X41650007Y-48085700D03*
D17*
X46634700Y-50410100D03*
D16*
X51619393Y-52734500D03*
D18*
X52772188Y-49079222D03*
X49128148Y-45062884D03*
%TD*%
D17*
%TO.C,S36*%
X122600900Y-145416100D03*
D16*
X117616207Y-143091700D03*
X127585593Y-147740500D03*
D18*
X128738388Y-144085222D03*
X125094348Y-140068884D03*
%TD*%
D23*
%TO.C,S67*%
X179037500Y-114249900D03*
D16*
X183641544Y-112102999D03*
X174433456Y-116396801D03*
D24*
X179192621Y-108572406D03*
X174511017Y-113558054D03*
%TD*%
D13*
%TO.C,D10*%
X98312080Y-93982308D03*
D12*
X100619576Y-89033867D03*
D14*
X97399224Y-95939933D03*
D13*
X99706720Y-90991492D03*
%TD*%
D23*
%TO.C,S41*%
X233125200Y-50410100D03*
D16*
X237729244Y-48263199D03*
X228521156Y-52557001D03*
D24*
X233280321Y-44732606D03*
X228598717Y-49718254D03*
%TD*%
D16*
%TO.C,S24*%
X112576493Y-56885000D03*
D17*
X107591800Y-54560600D03*
D16*
X102607107Y-52236200D03*
D18*
X113729288Y-53229722D03*
X110085248Y-49213384D03*
%TD*%
D16*
%TO.C,S23*%
X102987756Y-52413699D03*
X112195844Y-56707501D03*
D23*
X107591800Y-54560600D03*
D24*
X112040723Y-51030007D03*
X105212218Y-50648403D03*
%TD*%
D16*
%TO.C,S33*%
X122546344Y-124426501D03*
D23*
X117942300Y-122279600D03*
D16*
X113338256Y-120132699D03*
D24*
X122391223Y-118749007D03*
X115562718Y-118367403D03*
%TD*%
D27*
%TO.C,HOLE3*%
X51863700Y-61675400D03*
%TD*%
D12*
%TO.C,D33*%
X147551524Y-66249167D03*
D25*
X149859020Y-71197608D03*
X148464380Y-68206792D03*
D26*
X150771876Y-73155233D03*
%TD*%
D25*
%TO.C,D32*%
X156198220Y-84792208D03*
D12*
X153890724Y-79843767D03*
D26*
X157111076Y-86749833D03*
D25*
X154803580Y-81801392D03*
%TD*%
D23*
%TO.C,S13*%
X77270800Y-74626400D03*
D16*
X72666756Y-72479499D03*
X81874844Y-76773301D03*
D24*
X81719723Y-71095807D03*
X74891218Y-70714203D03*
%TD*%
D23*
%TO.C,S61*%
X171007700Y-97030000D03*
D16*
X175611744Y-94883099D03*
X166403656Y-99176901D03*
D24*
X171162821Y-91352506D03*
X166481217Y-96338154D03*
%TD*%
D16*
%TO.C,S55*%
X183623556Y-91147201D03*
D23*
X188227600Y-89000300D03*
D16*
X192831644Y-86853399D03*
D24*
X188382721Y-83322806D03*
X183701117Y-88308454D03*
%TD*%
D12*
%TO.C,D24*%
X197520524Y-38534667D03*
D25*
X199828020Y-43483108D03*
X198433380Y-40492292D03*
D26*
X200740876Y-45440733D03*
%TD*%
D16*
%TO.C,S44*%
X217682607Y-75265200D03*
D17*
X222667300Y-72940800D03*
D16*
X227651993Y-70616400D03*
D18*
X225592890Y-67383739D03*
X220173852Y-67593584D03*
%TD*%
D16*
%TO.C,S15*%
X80696556Y-55259599D03*
X89904644Y-59553401D03*
D23*
X85300600Y-57406500D03*
D24*
X89749523Y-53875907D03*
X82921018Y-53494303D03*
%TD*%
D16*
%TO.C,S4*%
X33620207Y-65305600D03*
X43589593Y-69954400D03*
D17*
X38604900Y-67630000D03*
D18*
X44742388Y-66299122D03*
X41098348Y-62282784D03*
%TD*%
D23*
%TO.C,S9*%
X65122400Y-55720900D03*
D16*
X60518356Y-53573999D03*
X69726444Y-57867801D03*
D24*
X69571323Y-52190307D03*
X62742818Y-51808703D03*
%TD*%
D16*
%TO.C,S58*%
X185182493Y-69456000D03*
D17*
X180197800Y-71780400D03*
D16*
X175213107Y-74104800D03*
D18*
X183123390Y-66223339D03*
X177704352Y-66433184D03*
%TD*%
D13*
%TO.C,D17*%
X124721980Y-127261608D03*
D12*
X127029476Y-122313167D03*
D14*
X123809124Y-129219233D03*
D13*
X126116620Y-124270792D03*
%TD*%
%TO.C,D16*%
X107502180Y-119231908D03*
D12*
X109809676Y-114283467D03*
D14*
X106589324Y-121189533D03*
D13*
X108896820Y-116241092D03*
%TD*%
D16*
%TO.C,S7*%
X61696744Y-75087701D03*
X52488656Y-70793899D03*
D23*
X57092700Y-72940800D03*
D24*
X61541623Y-69410207D03*
X54713118Y-69028603D03*
%TD*%
D17*
%TO.C,S68*%
X179037500Y-114249900D03*
D16*
X184022193Y-111925500D03*
X174052807Y-116574300D03*
D18*
X181963090Y-108692839D03*
X176544052Y-108902684D03*
%TD*%
D16*
%TO.C,S43*%
X218063256Y-75087701D03*
D23*
X222667300Y-72940800D03*
D16*
X227271344Y-70793899D03*
D24*
X222822421Y-67263306D03*
X218140817Y-72248954D03*
%TD*%
D36*
%TO.C,JST1*%
X156854370Y-99805049D03*
D37*
X154905630Y-100254951D03*
%TD*%
D12*
%TO.C,D2*%
X48959976Y-64944567D03*
D13*
X46652480Y-69893008D03*
X48047120Y-66902192D03*
D14*
X45739624Y-71850633D03*
%TD*%
D16*
%TO.C,S30*%
X129796393Y-64914700D03*
D17*
X124811700Y-62590300D03*
D16*
X119827007Y-60265900D03*
D18*
X130949188Y-61259422D03*
X127305148Y-57243084D03*
%TD*%
D16*
%TO.C,S56*%
X183242907Y-91324700D03*
D17*
X188227600Y-89000300D03*
D16*
X193212293Y-86675900D03*
D18*
X191153190Y-83443239D03*
X185734152Y-83653084D03*
%TD*%
D16*
%TO.C,S12*%
X68167407Y-36176700D03*
X78136793Y-40825500D03*
D17*
X73152100Y-38501100D03*
D18*
X79289588Y-37170222D03*
X75645548Y-33153884D03*
%TD*%
D27*
%TO.C,HOLE1*%
X112186900Y-67185400D03*
%TD*%
D17*
%TO.C,S60*%
X172168100Y-54560600D03*
D16*
X177152793Y-52236200D03*
X167183407Y-56885000D03*
D18*
X175093690Y-49003539D03*
X169674652Y-49213384D03*
%TD*%
D12*
%TO.C,D11*%
X108649276Y-71813967D03*
D13*
X106341780Y-76762408D03*
X107736420Y-73771592D03*
D14*
X105428924Y-78720033D03*
%TD*%
D27*
%TO.C,HOLE4*%
X227896200Y-61675400D03*
%TD*%
D25*
%TO.C,D25*%
X195709320Y-79608408D03*
D12*
X193401824Y-74659967D03*
D25*
X194314680Y-76617592D03*
D26*
X196622176Y-81566033D03*
%TD*%
D16*
%TO.C,S11*%
X68548056Y-36354199D03*
X77756144Y-40648001D03*
D23*
X73152100Y-38501100D03*
D24*
X77601023Y-34970507D03*
X70772518Y-34588903D03*
%TD*%
D25*
%TO.C,D19*%
X249482020Y-60050708D03*
D12*
X247174524Y-55102267D03*
D26*
X250394876Y-62008333D03*
D25*
X248087380Y-57059892D03*
%TD*%
D16*
%TO.C,S71*%
X161763144Y-143269199D03*
D23*
X157159100Y-145416100D03*
D16*
X152555056Y-147563001D03*
D24*
X157314221Y-139738606D03*
X152632617Y-144724254D03*
%TD*%
D17*
%TO.C,S62*%
X171007700Y-97030000D03*
D16*
X175992393Y-94705600D03*
X166023007Y-99354400D03*
D18*
X173933290Y-91472939D03*
X168514252Y-91682784D03*
%TD*%
D12*
%TO.C,D31*%
X161920524Y-97063567D03*
D25*
X164228020Y-102012008D03*
X162833380Y-99021192D03*
D26*
X165140876Y-103969633D03*
%TD*%
D16*
%TO.C,S46*%
X219622193Y-53396500D03*
X209652807Y-58045300D03*
D17*
X214637500Y-55720900D03*
D18*
X217563090Y-50163839D03*
X212144052Y-50373684D03*
%TD*%
D16*
%TO.C,S69*%
X157213556Y-124426501D03*
X166421644Y-120132699D03*
D23*
X161817600Y-122279600D03*
D24*
X161972721Y-116602106D03*
X157291117Y-121587754D03*
%TD*%
D16*
%TO.C,S66*%
X159932893Y-60265900D03*
X149963507Y-64914700D03*
D17*
X154948200Y-62590300D03*
D18*
X157873790Y-57033239D03*
X152454752Y-57243084D03*
%TD*%
M02*
