%FSLAX45Y45*%
G04 Gerber Fmt 4.5, Leading zero omitted, Abs format (unit mm)*
G04 Created by KiCad (PCBNEW (5.99.0-13010-g08938463f1)) date 2021-12-30 23:19:25*
%MOMM*%
%LPD*%
G01*
G04 APERTURE LIST*
%TA.AperFunction,Profile*%
%ADD10C,0.150000*%
%TD*%
%ADD11C,0.200000*%
%ADD12C,0.090000*%
%ADD13C,0.170180*%
%ADD14C,0.342900*%
%ADD15C,0.398780*%
G04 APERTURE END LIST*
D10*
X11303259Y-14889868D02*
X12106234Y-13167883D01*
X4335537Y-7447930D02*
X6057521Y-8250904D01*
X21918470Y-8250904D02*
X23640454Y-7447930D01*
X1392992Y-5855123D02*
X3114977Y-6658098D01*
X23640454Y-7447930D02*
X23767240Y-7719822D01*
X13411317Y-13776453D02*
X14564674Y-13776453D01*
X19287048Y-3696256D02*
X21009033Y-2893281D01*
X18057598Y-10051258D02*
X19779583Y-9248283D01*
X14537995Y-5910776D02*
X14537995Y-8124032D01*
X19287048Y-3696256D02*
X18991216Y-3061840D01*
X9994026Y-4304826D02*
X10289859Y-3670411D01*
X23767240Y-7719822D02*
X25072323Y-7111252D01*
X19483750Y-8613868D02*
X21622637Y-7616489D01*
X18991216Y-3061840D02*
X17686132Y-3670411D01*
X6966958Y-2893281D02*
X8688943Y-3696256D01*
X21009033Y-2893281D02*
X21938793Y-4887158D01*
X13437995Y-8124032D02*
X13437995Y-5910776D01*
X21622637Y-7616489D02*
X21918470Y-8250904D01*
X17686132Y-3670411D02*
X17981965Y-4304826D01*
X4208751Y-7719822D02*
X4335537Y-7447930D01*
X8492241Y-8613868D02*
X8196408Y-9248283D01*
X14537995Y-5910776D02*
X17981965Y-4304826D01*
X19779583Y-9248283D02*
X19483750Y-8613868D01*
X2001563Y-4550040D02*
X1392992Y-5855123D01*
X6037198Y-4887158D02*
X6966958Y-2893281D01*
X11303259Y-14889868D02*
X12608342Y-15498438D01*
X6057521Y-8250904D02*
X6353354Y-7616489D01*
X8196408Y-9248283D02*
X9918393Y-10051258D01*
X24861014Y-6658098D02*
X26582999Y-5855123D01*
X4315213Y-4084184D02*
X6037198Y-4887158D01*
X23660778Y-4084184D02*
X24252444Y-5353015D01*
X26582999Y-5855123D02*
X25974428Y-4550040D01*
X14564674Y-13776453D02*
X15367649Y-15498438D01*
X24252444Y-5353015D02*
X25974428Y-4550040D01*
X6353354Y-7616489D02*
X8492241Y-8613868D01*
X9994026Y-4304826D02*
X13437995Y-5910776D01*
X3723547Y-5353015D02*
X4315213Y-4084184D01*
X25072323Y-7111252D02*
X24861014Y-6658098D01*
X15869757Y-13167883D02*
X18860573Y-11773243D01*
X21938793Y-4887158D02*
X23660778Y-4084184D01*
X2903668Y-7111252D02*
X4208751Y-7719822D01*
X3114977Y-6658098D02*
X2903668Y-7111252D01*
X15367649Y-15498438D02*
X16672732Y-14889868D01*
X10289859Y-3670411D02*
X8984776Y-3061840D01*
X14537995Y-8124032D02*
X13437995Y-8124032D01*
X8984776Y-3061840D02*
X8688943Y-3696256D01*
X18057598Y-10051258D02*
X18860573Y-11773243D01*
X9115418Y-11773243D02*
X12106234Y-13167883D01*
X9115418Y-11773243D02*
X9918393Y-10051258D01*
X2001563Y-4550040D02*
X3723547Y-5353015D01*
X15869757Y-13167883D02*
X16672732Y-14889868D01*
X12608342Y-15498438D02*
X13411317Y-13776453D01*
D11*
D12*
X13793000Y-8258000D02*
X13883000Y-8348000D01*
X13883000Y-8258000D02*
X13793000Y-8348000D01*
X14093000Y-8258000D02*
X14183000Y-8348000D01*
X14183000Y-8258000D02*
X14093000Y-8348000D01*
D13*
X1936441Y-5274430D02*
G75*
G03*
X1936441Y-5274430I-85090J0D01*
G01*
X1974506Y-5292180D02*
G75*
G03*
X1974506Y-5292180I-85090J0D01*
G01*
X2895314Y-5721560D02*
G75*
G03*
X2895314Y-5721560I-85090J0D01*
G01*
X2933379Y-5739310D02*
G75*
G03*
X2933379Y-5739310I-85090J0D01*
G01*
X3447111Y-6530560D02*
G75*
G03*
X3447111Y-6530560I-85090J0D01*
G01*
X3485176Y-6548310D02*
G75*
G03*
X3485176Y-6548310I-85090J0D01*
G01*
X4250091Y-4808570D02*
G75*
G03*
X4250091Y-4808570I-85090J0D01*
G01*
X4288156Y-4826320D02*
G75*
G03*
X4288156Y-4826320I-85090J0D01*
G01*
X4405984Y-6977690D02*
G75*
G03*
X4405984Y-6977690I-85090J0D01*
G01*
X4444049Y-6995440D02*
G75*
G03*
X4444049Y-6995440I-85090J0D01*
G01*
X5208964Y-5255700D02*
G75*
G03*
X5208964Y-5255700I-85090J0D01*
G01*
X5247029Y-5273450D02*
G75*
G03*
X5247029Y-5273450I-85090J0D01*
G01*
X5295891Y-7061640D02*
G75*
G03*
X5295891Y-7061640I-85090J0D01*
G01*
X5333956Y-7079390D02*
G75*
G03*
X5333956Y-7079390I-85090J0D01*
G01*
X6098861Y-5339650D02*
G75*
G03*
X6098861Y-5339650I-85090J0D01*
G01*
X6136926Y-5357400D02*
G75*
G03*
X6136926Y-5357400I-85090J0D01*
G01*
X6254764Y-7508770D02*
G75*
G03*
X6254764Y-7508770I-85090J0D01*
G01*
X6292829Y-7526520D02*
G75*
G03*
X6292829Y-7526520I-85090J0D01*
G01*
X6901831Y-3617670D02*
G75*
G03*
X6901831Y-3617670I-85090J0D01*
G01*
X6939896Y-3635420D02*
G75*
G03*
X6939896Y-3635420I-85090J0D01*
G01*
X7057734Y-5786780D02*
G75*
G03*
X7057734Y-5786780I-85090J0D01*
G01*
X7095799Y-5804530D02*
G75*
G03*
X7095799Y-5804530I-85090J0D01*
G01*
X7313701Y-7230200D02*
G75*
G03*
X7313701Y-7230200I-85090J0D01*
G01*
X7351766Y-7247950D02*
G75*
G03*
X7351766Y-7247950I-85090J0D01*
G01*
X7860704Y-4064800D02*
G75*
G03*
X7860704Y-4064800I-85090J0D01*
G01*
X7898769Y-4082550D02*
G75*
G03*
X7898769Y-4082550I-85090J0D01*
G01*
X8116681Y-5508210D02*
G75*
G03*
X8116681Y-5508210I-85090J0D01*
G01*
X8154746Y-5525960D02*
G75*
G03*
X8154746Y-5525960I-85090J0D01*
G01*
X8272574Y-7677330D02*
G75*
G03*
X8272574Y-7677330I-85090J0D01*
G01*
X8310639Y-7695080D02*
G75*
G03*
X8310639Y-7695080I-85090J0D01*
G01*
X8739851Y-8667590D02*
G75*
G03*
X8739851Y-8667590I-85090J0D01*
G01*
X8777916Y-8685340D02*
G75*
G03*
X8777916Y-8685340I-85090J0D01*
G01*
X8919651Y-3786230D02*
G75*
G03*
X8919651Y-3786230I-85090J0D01*
G01*
X8957716Y-3803980D02*
G75*
G03*
X8957716Y-3803980I-85090J0D01*
G01*
X9075554Y-5955340D02*
G75*
G03*
X9075554Y-5955340I-85090J0D01*
G01*
X9113619Y-5973090D02*
G75*
G03*
X9113619Y-5973090I-85090J0D01*
G01*
X9542831Y-6945600D02*
G75*
G03*
X9542831Y-6945600I-85090J0D01*
G01*
X9580896Y-6963350D02*
G75*
G03*
X9580896Y-6963350I-85090J0D01*
G01*
X9658861Y-11192550D02*
G75*
G03*
X9658861Y-11192550I-85090J0D01*
G01*
X9696926Y-11210300D02*
G75*
G03*
X9696926Y-11210300I-85090J0D01*
G01*
X9698724Y-9114720D02*
G75*
G03*
X9698724Y-9114720I-85090J0D01*
G01*
X9736789Y-9132470D02*
G75*
G03*
X9736789Y-9132470I-85090J0D01*
G01*
X9878524Y-4233360D02*
G75*
G03*
X9878524Y-4233360I-85090J0D01*
G01*
X9916589Y-4251110D02*
G75*
G03*
X9916589Y-4251110I-85090J0D01*
G01*
X10345801Y-5223620D02*
G75*
G03*
X10345801Y-5223620I-85090J0D01*
G01*
X10383866Y-5241370D02*
G75*
G03*
X10383866Y-5241370I-85090J0D01*
G01*
X10461841Y-9470560D02*
G75*
G03*
X10461841Y-9470560I-85090J0D01*
G01*
X10499906Y-9488310D02*
G75*
G03*
X10499906Y-9488310I-85090J0D01*
G01*
X10501704Y-7392730D02*
G75*
G03*
X10501704Y-7392730I-85090J0D01*
G01*
X10539769Y-7410480D02*
G75*
G03*
X10539769Y-7410480I-85090J0D01*
G01*
X10617734Y-11639680D02*
G75*
G03*
X10617734Y-11639680I-85090J0D01*
G01*
X10655799Y-11657430D02*
G75*
G03*
X10655799Y-11657430I-85090J0D01*
G01*
X11264811Y-7748580D02*
G75*
G03*
X11264811Y-7748580I-85090J0D01*
G01*
X11302876Y-7766330D02*
G75*
G03*
X11302876Y-7766330I-85090J0D01*
G01*
X11304674Y-5670750D02*
G75*
G03*
X11304674Y-5670750I-85090J0D01*
G01*
X11342739Y-5688500D02*
G75*
G03*
X11342739Y-5688500I-85090J0D01*
G01*
X11380851Y-11995520D02*
G75*
G03*
X11380851Y-11995520I-85090J0D01*
G01*
X11418916Y-12013270D02*
G75*
G03*
X11418916Y-12013270I-85090J0D01*
G01*
X11420714Y-9917690D02*
G75*
G03*
X11420714Y-9917690I-85090J0D01*
G01*
X11458779Y-9935440D02*
G75*
G03*
X11458779Y-9935440I-85090J0D01*
G01*
X11846711Y-14309170D02*
G75*
G03*
X11846711Y-14309170I-85090J0D01*
G01*
X11884776Y-14326920D02*
G75*
G03*
X11884776Y-14326920I-85090J0D01*
G01*
X12067791Y-6026590D02*
G75*
G03*
X12067791Y-6026590I-85090J0D01*
G01*
X12105856Y-6044340D02*
G75*
G03*
X12105856Y-6044340I-85090J0D01*
G01*
X12223684Y-8195710D02*
G75*
G03*
X12223684Y-8195710I-85090J0D01*
G01*
X12261749Y-8213460D02*
G75*
G03*
X12261749Y-8213460I-85090J0D01*
G01*
X12339724Y-12442650D02*
G75*
G03*
X12339724Y-12442650I-85090J0D01*
G01*
X12377789Y-12460400D02*
G75*
G03*
X12377789Y-12460400I-85090J0D01*
G01*
X12805584Y-14756300D02*
G75*
G03*
X12805584Y-14756300I-85090J0D01*
G01*
X12843649Y-14774050D02*
G75*
G03*
X12843649Y-14774050I-85090J0D01*
G01*
X13026664Y-6473720D02*
G75*
G03*
X13026664Y-6473720I-85090J0D01*
G01*
X13064729Y-6491470D02*
G75*
G03*
X13064729Y-6491470I-85090J0D01*
G01*
X15081441Y-6491470D02*
G75*
G03*
X15081441Y-6491470I-85090J0D01*
G01*
X15119506Y-6473720D02*
G75*
G03*
X15119506Y-6473720I-85090J0D01*
G01*
X15302531Y-14774050D02*
G75*
G03*
X15302531Y-14774050I-85090J0D01*
G01*
X15340596Y-14756300D02*
G75*
G03*
X15340596Y-14756300I-85090J0D01*
G01*
X15768381Y-12460400D02*
G75*
G03*
X15768381Y-12460400I-85090J0D01*
G01*
X15806446Y-12442650D02*
G75*
G03*
X15806446Y-12442650I-85090J0D01*
G01*
X15884421Y-8213460D02*
G75*
G03*
X15884421Y-8213460I-85090J0D01*
G01*
X15922486Y-8195710D02*
G75*
G03*
X15922486Y-8195710I-85090J0D01*
G01*
X16040314Y-6044340D02*
G75*
G03*
X16040314Y-6044340I-85090J0D01*
G01*
X16078379Y-6026590D02*
G75*
G03*
X16078379Y-6026590I-85090J0D01*
G01*
X16261404Y-14326920D02*
G75*
G03*
X16261404Y-14326920I-85090J0D01*
G01*
X16299469Y-14309170D02*
G75*
G03*
X16299469Y-14309170I-85090J0D01*
G01*
X16687391Y-9935440D02*
G75*
G03*
X16687391Y-9935440I-85090J0D01*
G01*
X16725456Y-9917690D02*
G75*
G03*
X16725456Y-9917690I-85090J0D01*
G01*
X16727254Y-12013270D02*
G75*
G03*
X16727254Y-12013270I-85090J0D01*
G01*
X16765319Y-11995520D02*
G75*
G03*
X16765319Y-11995520I-85090J0D01*
G01*
X16803431Y-5688500D02*
G75*
G03*
X16803431Y-5688500I-85090J0D01*
G01*
X16841496Y-5670750D02*
G75*
G03*
X16841496Y-5670750I-85090J0D01*
G01*
X16843294Y-7766330D02*
G75*
G03*
X16843294Y-7766330I-85090J0D01*
G01*
X16881359Y-7748580D02*
G75*
G03*
X16881359Y-7748580I-85090J0D01*
G01*
X17490371Y-11657430D02*
G75*
G03*
X17490371Y-11657430I-85090J0D01*
G01*
X17528436Y-11639680D02*
G75*
G03*
X17528436Y-11639680I-85090J0D01*
G01*
X17606401Y-7410480D02*
G75*
G03*
X17606401Y-7410480I-85090J0D01*
G01*
X17644466Y-7392730D02*
G75*
G03*
X17644466Y-7392730I-85090J0D01*
G01*
X17646264Y-9488310D02*
G75*
G03*
X17646264Y-9488310I-85090J0D01*
G01*
X17684329Y-9470560D02*
G75*
G03*
X17684329Y-9470560I-85090J0D01*
G01*
X17762304Y-5241370D02*
G75*
G03*
X17762304Y-5241370I-85090J0D01*
G01*
X17800369Y-5223620D02*
G75*
G03*
X17800369Y-5223620I-85090J0D01*
G01*
X18229581Y-4251110D02*
G75*
G03*
X18229581Y-4251110I-85090J0D01*
G01*
X18267646Y-4233360D02*
G75*
G03*
X18267646Y-4233360I-85090J0D01*
G01*
X18409381Y-9132470D02*
G75*
G03*
X18409381Y-9132470I-85090J0D01*
G01*
X18447446Y-9114720D02*
G75*
G03*
X18447446Y-9114720I-85090J0D01*
G01*
X18449244Y-11210300D02*
G75*
G03*
X18449244Y-11210300I-85090J0D01*
G01*
X18487309Y-11192550D02*
G75*
G03*
X18487309Y-11192550I-85090J0D01*
G01*
X18565274Y-6963350D02*
G75*
G03*
X18565274Y-6963350I-85090J0D01*
G01*
X18603339Y-6945600D02*
G75*
G03*
X18603339Y-6945600I-85090J0D01*
G01*
X19032551Y-5973090D02*
G75*
G03*
X19032551Y-5973090I-85090J0D01*
G01*
X19070616Y-5955340D02*
G75*
G03*
X19070616Y-5955340I-85090J0D01*
G01*
X19188454Y-3803980D02*
G75*
G03*
X19188454Y-3803980I-85090J0D01*
G01*
X19226519Y-3786230D02*
G75*
G03*
X19226519Y-3786230I-85090J0D01*
G01*
X19368254Y-8685340D02*
G75*
G03*
X19368254Y-8685340I-85090J0D01*
G01*
X19406319Y-8667590D02*
G75*
G03*
X19406319Y-8667590I-85090J0D01*
G01*
X19835531Y-7695080D02*
G75*
G03*
X19835531Y-7695080I-85090J0D01*
G01*
X19873596Y-7677330D02*
G75*
G03*
X19873596Y-7677330I-85090J0D01*
G01*
X19991424Y-5525960D02*
G75*
G03*
X19991424Y-5525960I-85090J0D01*
G01*
X20029489Y-5508210D02*
G75*
G03*
X20029489Y-5508210I-85090J0D01*
G01*
X20247401Y-4082550D02*
G75*
G03*
X20247401Y-4082550I-85090J0D01*
G01*
X20285466Y-4064800D02*
G75*
G03*
X20285466Y-4064800I-85090J0D01*
G01*
X20794404Y-7247950D02*
G75*
G03*
X20794404Y-7247950I-85090J0D01*
G01*
X20832469Y-7230200D02*
G75*
G03*
X20832469Y-7230200I-85090J0D01*
G01*
X21050371Y-5804530D02*
G75*
G03*
X21050371Y-5804530I-85090J0D01*
G01*
X21088436Y-5786780D02*
G75*
G03*
X21088436Y-5786780I-85090J0D01*
G01*
X21206274Y-3635420D02*
G75*
G03*
X21206274Y-3635420I-85090J0D01*
G01*
X21244339Y-3617670D02*
G75*
G03*
X21244339Y-3617670I-85090J0D01*
G01*
X21853351Y-7526520D02*
G75*
G03*
X21853351Y-7526520I-85090J0D01*
G01*
X21891416Y-7508770D02*
G75*
G03*
X21891416Y-7508770I-85090J0D01*
G01*
X22009244Y-5357400D02*
G75*
G03*
X22009244Y-5357400I-85090J0D01*
G01*
X22047309Y-5339650D02*
G75*
G03*
X22047309Y-5339650I-85090J0D01*
G01*
X22812224Y-7079390D02*
G75*
G03*
X22812224Y-7079390I-85090J0D01*
G01*
X22850289Y-7061640D02*
G75*
G03*
X22850289Y-7061640I-85090J0D01*
G01*
X22899141Y-5273450D02*
G75*
G03*
X22899141Y-5273450I-85090J0D01*
G01*
X22937206Y-5255700D02*
G75*
G03*
X22937206Y-5255700I-85090J0D01*
G01*
X23702121Y-6995440D02*
G75*
G03*
X23702121Y-6995440I-85090J0D01*
G01*
X23740186Y-6977690D02*
G75*
G03*
X23740186Y-6977690I-85090J0D01*
G01*
X23858014Y-4826320D02*
G75*
G03*
X23858014Y-4826320I-85090J0D01*
G01*
X23896079Y-4808570D02*
G75*
G03*
X23896079Y-4808570I-85090J0D01*
G01*
X24660994Y-6548310D02*
G75*
G03*
X24660994Y-6548310I-85090J0D01*
G01*
X24699059Y-6530560D02*
G75*
G03*
X24699059Y-6530560I-85090J0D01*
G01*
X25212791Y-5739310D02*
G75*
G03*
X25212791Y-5739310I-85090J0D01*
G01*
X25250856Y-5721560D02*
G75*
G03*
X25250856Y-5721560I-85090J0D01*
G01*
X26171664Y-5292180D02*
G75*
G03*
X26171664Y-5292180I-85090J0D01*
G01*
X26209729Y-5274430D02*
G75*
G03*
X26209729Y-5274430I-85090J0D01*
G01*
D14*
X2349820Y-5335420D02*
X2349820Y-5678320D01*
X2178370Y-5506870D02*
X2521270Y-5506870D01*
X3860490Y-6591550D02*
X3860490Y-6934450D01*
X3689040Y-6763000D02*
X4031940Y-6763000D01*
X4663470Y-4869560D02*
X4663470Y-5212460D01*
X4492020Y-5041010D02*
X4834920Y-5041010D01*
X5709270Y-7122630D02*
X5709270Y-7465530D01*
X5537820Y-7294080D02*
X5880720Y-7294080D01*
X6512240Y-5400640D02*
X6512240Y-5743540D01*
X6340790Y-5572090D02*
X6683690Y-5572090D01*
X7315210Y-3678660D02*
X7315210Y-4021560D01*
X7143760Y-3850110D02*
X7486660Y-3850110D01*
X7727080Y-7291190D02*
X7727080Y-7634090D01*
X7555630Y-7462640D02*
X7898530Y-7462640D01*
X8530060Y-5569200D02*
X8530060Y-5912100D01*
X8358610Y-5740650D02*
X8701510Y-5740650D01*
X9153230Y-8728580D02*
X9153230Y-9071480D01*
X8981780Y-8900030D02*
X9324680Y-8900030D01*
X9333030Y-3847220D02*
X9333030Y-4190120D01*
X9161580Y-4018670D02*
X9504480Y-4018670D01*
X9956210Y-7006590D02*
X9956210Y-7349490D01*
X9784760Y-7178040D02*
X10127660Y-7178040D01*
X10072240Y-11253540D02*
X10072240Y-11596440D01*
X9900790Y-11424990D02*
X10243690Y-11424990D01*
X10759180Y-5284610D02*
X10759180Y-5627510D01*
X10587730Y-5456060D02*
X10930630Y-5456060D01*
X10875220Y-9531550D02*
X10875220Y-9874450D01*
X10703770Y-9703000D02*
X11046670Y-9703000D01*
X11678190Y-7809570D02*
X11678190Y-8152470D01*
X11506740Y-7981020D02*
X11849640Y-7981020D01*
X11794230Y-12056510D02*
X11794230Y-12399410D01*
X11622780Y-12227960D02*
X11965680Y-12227960D01*
X12260090Y-14370160D02*
X12260090Y-14713060D01*
X12088640Y-14541610D02*
X12431540Y-14541610D01*
X12481170Y-6087580D02*
X12481170Y-6430480D01*
X12309720Y-6259030D02*
X12652620Y-6259030D01*
X15494820Y-6087580D02*
X15494820Y-6430480D01*
X15323370Y-6259030D02*
X15666270Y-6259030D01*
X15715910Y-14370160D02*
X15715910Y-14713060D01*
X15544460Y-14541610D02*
X15887360Y-14541610D01*
X16181760Y-12056510D02*
X16181760Y-12399410D01*
X16010310Y-12227960D02*
X16353210Y-12227960D01*
X16297800Y-7809570D02*
X16297800Y-8152470D01*
X16126350Y-7981020D02*
X16469250Y-7981020D01*
X17100770Y-9531550D02*
X17100770Y-9874450D01*
X16929320Y-9703000D02*
X17272220Y-9703000D01*
X17216810Y-5284610D02*
X17216810Y-5627510D01*
X17045360Y-5456060D02*
X17388260Y-5456060D01*
X17903750Y-11253540D02*
X17903750Y-11596440D01*
X17732300Y-11424990D02*
X18075200Y-11424990D01*
X18019780Y-7006590D02*
X18019780Y-7349490D01*
X17848330Y-7178040D02*
X18191230Y-7178040D01*
X18642960Y-3847220D02*
X18642960Y-4190120D01*
X18471510Y-4018670D02*
X18814410Y-4018670D01*
X18822760Y-8728580D02*
X18822760Y-9071480D01*
X18651310Y-8900030D02*
X18994210Y-8900030D01*
X19445930Y-5569200D02*
X19445930Y-5912100D01*
X19274480Y-5740650D02*
X19617380Y-5740650D01*
X20248910Y-7291190D02*
X20248910Y-7634090D01*
X20077460Y-7462640D02*
X20420360Y-7462640D01*
X20660780Y-3678660D02*
X20660780Y-4021560D01*
X20489330Y-3850110D02*
X20832230Y-3850110D01*
X21463750Y-5400640D02*
X21463750Y-5743540D01*
X21292300Y-5572090D02*
X21635200Y-5572090D01*
X22266730Y-7122630D02*
X22266730Y-7465530D01*
X22095280Y-7294080D02*
X22438180Y-7294080D01*
X23312520Y-4869560D02*
X23312520Y-5212460D01*
X23141070Y-5041010D02*
X23483970Y-5041010D01*
X24115500Y-6591550D02*
X24115500Y-6934450D01*
X23944050Y-6763000D02*
X24286950Y-6763000D01*
X25626170Y-5335420D02*
X25626170Y-5678320D01*
X25454720Y-5506870D02*
X25797620Y-5506870D01*
D15*
X2490811Y-5647861D02*
X2490811Y-5365879D01*
X2208829Y-5365879D01*
X2208829Y-5647861D01*
X2490811Y-5647861D01*
X4001481Y-6903991D02*
X4001481Y-6622009D01*
X3719499Y-6622009D01*
X3719499Y-6903991D01*
X4001481Y-6903991D01*
X4804461Y-5182001D02*
X4804461Y-4900019D01*
X4522479Y-4900019D01*
X4522479Y-5182001D01*
X4804461Y-5182001D01*
X5850261Y-7435071D02*
X5850261Y-7153089D01*
X5568279Y-7153089D01*
X5568279Y-7435071D01*
X5850261Y-7435071D01*
X6653231Y-5713081D02*
X6653231Y-5431099D01*
X6371249Y-5431099D01*
X6371249Y-5713081D01*
X6653231Y-5713081D01*
X7456201Y-3991101D02*
X7456201Y-3709119D01*
X7174219Y-3709119D01*
X7174219Y-3991101D01*
X7456201Y-3991101D01*
X7868071Y-7603631D02*
X7868071Y-7321649D01*
X7586089Y-7321649D01*
X7586089Y-7603631D01*
X7868071Y-7603631D01*
X8671051Y-5881641D02*
X8671051Y-5599659D01*
X8389069Y-5599659D01*
X8389069Y-5881641D01*
X8671051Y-5881641D01*
X9294221Y-9041021D02*
X9294221Y-8759039D01*
X9012239Y-8759039D01*
X9012239Y-9041021D01*
X9294221Y-9041021D01*
X9474021Y-4159661D02*
X9474021Y-3877679D01*
X9192039Y-3877679D01*
X9192039Y-4159661D01*
X9474021Y-4159661D01*
X10097201Y-7319031D02*
X10097201Y-7037049D01*
X9815219Y-7037049D01*
X9815219Y-7319031D01*
X10097201Y-7319031D01*
X10213231Y-11565981D02*
X10213231Y-11283999D01*
X9931249Y-11283999D01*
X9931249Y-11565981D01*
X10213231Y-11565981D01*
X10900171Y-5597051D02*
X10900171Y-5315069D01*
X10618189Y-5315069D01*
X10618189Y-5597051D01*
X10900171Y-5597051D01*
X11016211Y-9843991D02*
X11016211Y-9562009D01*
X10734229Y-9562009D01*
X10734229Y-9843991D01*
X11016211Y-9843991D01*
X11819181Y-8122011D02*
X11819181Y-7840029D01*
X11537199Y-7840029D01*
X11537199Y-8122011D01*
X11819181Y-8122011D01*
X11935221Y-12368951D02*
X11935221Y-12086969D01*
X11653239Y-12086969D01*
X11653239Y-12368951D01*
X11935221Y-12368951D01*
X12401081Y-14682601D02*
X12401081Y-14400619D01*
X12119099Y-14400619D01*
X12119099Y-14682601D01*
X12401081Y-14682601D01*
X12622161Y-6400021D02*
X12622161Y-6118039D01*
X12340179Y-6118039D01*
X12340179Y-6400021D01*
X12622161Y-6400021D01*
X15635811Y-6400021D02*
X15635811Y-6118039D01*
X15353829Y-6118039D01*
X15353829Y-6400021D01*
X15635811Y-6400021D01*
X15856901Y-14682601D02*
X15856901Y-14400619D01*
X15574919Y-14400619D01*
X15574919Y-14682601D01*
X15856901Y-14682601D01*
X16322751Y-12368951D02*
X16322751Y-12086969D01*
X16040769Y-12086969D01*
X16040769Y-12368951D01*
X16322751Y-12368951D01*
X16438791Y-8122011D02*
X16438791Y-7840029D01*
X16156809Y-7840029D01*
X16156809Y-8122011D01*
X16438791Y-8122011D01*
X17241761Y-9843991D02*
X17241761Y-9562009D01*
X16959779Y-9562009D01*
X16959779Y-9843991D01*
X17241761Y-9843991D01*
X17357801Y-5597051D02*
X17357801Y-5315069D01*
X17075819Y-5315069D01*
X17075819Y-5597051D01*
X17357801Y-5597051D01*
X18044741Y-11565981D02*
X18044741Y-11283999D01*
X17762759Y-11283999D01*
X17762759Y-11565981D01*
X18044741Y-11565981D01*
X18160771Y-7319031D02*
X18160771Y-7037049D01*
X17878789Y-7037049D01*
X17878789Y-7319031D01*
X18160771Y-7319031D01*
X18783951Y-4159661D02*
X18783951Y-3877679D01*
X18501969Y-3877679D01*
X18501969Y-4159661D01*
X18783951Y-4159661D01*
X18963751Y-9041021D02*
X18963751Y-8759039D01*
X18681769Y-8759039D01*
X18681769Y-9041021D01*
X18963751Y-9041021D01*
X19586921Y-5881641D02*
X19586921Y-5599659D01*
X19304939Y-5599659D01*
X19304939Y-5881641D01*
X19586921Y-5881641D01*
X20389901Y-7603631D02*
X20389901Y-7321649D01*
X20107919Y-7321649D01*
X20107919Y-7603631D01*
X20389901Y-7603631D01*
X20801771Y-3991101D02*
X20801771Y-3709119D01*
X20519789Y-3709119D01*
X20519789Y-3991101D01*
X20801771Y-3991101D01*
X21604741Y-5713081D02*
X21604741Y-5431099D01*
X21322759Y-5431099D01*
X21322759Y-5713081D01*
X21604741Y-5713081D01*
X22407721Y-7435071D02*
X22407721Y-7153089D01*
X22125739Y-7153089D01*
X22125739Y-7435071D01*
X22407721Y-7435071D01*
X23453511Y-5182001D02*
X23453511Y-4900019D01*
X23171529Y-4900019D01*
X23171529Y-5182001D01*
X23453511Y-5182001D01*
X24256491Y-6903991D02*
X24256491Y-6622009D01*
X23974509Y-6622009D01*
X23974509Y-6903991D01*
X24256491Y-6903991D01*
X25767161Y-5647861D02*
X25767161Y-5365879D01*
X25485179Y-5365879D01*
X25485179Y-5647861D01*
X25767161Y-5647861D01*
D11*
X1643111Y-15816414D02*
X1643111Y-15616414D01*
X1690730Y-15616414D01*
X1719302Y-15625938D01*
X1738349Y-15644986D01*
X1747873Y-15664033D01*
X1757397Y-15702129D01*
X1757397Y-15730700D01*
X1747873Y-15768795D01*
X1738349Y-15787843D01*
X1719302Y-15806891D01*
X1690730Y-15816414D01*
X1643111Y-15816414D01*
X1843111Y-15816414D02*
X1843111Y-15683081D01*
X1843111Y-15721176D02*
X1852635Y-15702129D01*
X1862159Y-15692605D01*
X1881206Y-15683081D01*
X1900254Y-15683081D01*
X1966921Y-15816414D02*
X1966921Y-15683081D01*
X1966921Y-15616414D02*
X1957397Y-15625938D01*
X1966921Y-15635462D01*
X1976445Y-15625938D01*
X1966921Y-15616414D01*
X1966921Y-15635462D01*
X2090730Y-15816414D02*
X2071683Y-15806891D01*
X2062159Y-15787843D01*
X2062159Y-15616414D01*
X2195492Y-15816414D02*
X2176445Y-15806891D01*
X2166921Y-15787843D01*
X2166921Y-15616414D01*
X2424064Y-15816414D02*
X2424064Y-15616414D01*
X2490730Y-15759272D01*
X2557397Y-15616414D01*
X2557397Y-15816414D01*
X2738349Y-15816414D02*
X2738349Y-15711652D01*
X2728826Y-15692605D01*
X2709778Y-15683081D01*
X2671683Y-15683081D01*
X2652635Y-15692605D01*
X2738349Y-15806891D02*
X2719302Y-15816414D01*
X2671683Y-15816414D01*
X2652635Y-15806891D01*
X2643111Y-15787843D01*
X2643111Y-15768795D01*
X2652635Y-15749748D01*
X2671683Y-15740224D01*
X2719302Y-15740224D01*
X2738349Y-15730700D01*
X2833587Y-15683081D02*
X2833587Y-15883081D01*
X2833587Y-15692605D02*
X2852635Y-15683081D01*
X2890730Y-15683081D01*
X2909778Y-15692605D01*
X2919302Y-15702129D01*
X2928826Y-15721176D01*
X2928826Y-15778319D01*
X2919302Y-15797367D01*
X2909778Y-15806891D01*
X2890730Y-15816414D01*
X2852635Y-15816414D01*
X2833587Y-15806891D01*
X3014540Y-15797367D02*
X3024064Y-15806891D01*
X3014540Y-15816414D01*
X3005016Y-15806891D01*
X3014540Y-15797367D01*
X3014540Y-15816414D01*
X3014540Y-15692605D02*
X3024064Y-15702129D01*
X3014540Y-15711652D01*
X3005016Y-15702129D01*
X3014540Y-15692605D01*
X3014540Y-15711652D01*
D12*
X1295492Y-16100938D02*
X1385492Y-16190938D01*
X1385492Y-16100938D02*
X1295492Y-16190938D01*
D11*
X1681206Y-16036414D02*
X1700254Y-16036414D01*
X1719302Y-16045938D01*
X1728826Y-16055462D01*
X1738349Y-16074510D01*
X1747873Y-16112605D01*
X1747873Y-16160224D01*
X1738349Y-16198319D01*
X1728826Y-16217367D01*
X1719302Y-16226891D01*
X1700254Y-16236414D01*
X1681206Y-16236414D01*
X1662159Y-16226891D01*
X1652635Y-16217367D01*
X1643111Y-16198319D01*
X1633587Y-16160224D01*
X1633587Y-16112605D01*
X1643111Y-16074510D01*
X1652635Y-16055462D01*
X1662159Y-16045938D01*
X1681206Y-16036414D01*
X1833587Y-16217367D02*
X1843111Y-16226891D01*
X1833587Y-16236414D01*
X1824064Y-16226891D01*
X1833587Y-16217367D01*
X1833587Y-16236414D01*
X1938349Y-16236414D02*
X1976445Y-16236414D01*
X1995492Y-16226891D01*
X2005016Y-16217367D01*
X2024064Y-16188795D01*
X2033587Y-16150700D01*
X2033587Y-16074510D01*
X2024064Y-16055462D01*
X2014540Y-16045938D01*
X1995492Y-16036414D01*
X1957397Y-16036414D01*
X1938349Y-16045938D01*
X1928826Y-16055462D01*
X1919302Y-16074510D01*
X1919302Y-16122129D01*
X1928826Y-16141176D01*
X1938349Y-16150700D01*
X1957397Y-16160224D01*
X1995492Y-16160224D01*
X2014540Y-16150700D01*
X2024064Y-16141176D01*
X2033587Y-16122129D01*
X2157397Y-16036414D02*
X2176445Y-16036414D01*
X2195492Y-16045938D01*
X2205016Y-16055462D01*
X2214540Y-16074510D01*
X2224064Y-16112605D01*
X2224064Y-16160224D01*
X2214540Y-16198319D01*
X2205016Y-16217367D01*
X2195492Y-16226891D01*
X2176445Y-16236414D01*
X2157397Y-16236414D01*
X2138349Y-16226891D01*
X2128826Y-16217367D01*
X2119302Y-16198319D01*
X2109778Y-16160224D01*
X2109778Y-16112605D01*
X2119302Y-16074510D01*
X2128826Y-16055462D01*
X2138349Y-16045938D01*
X2157397Y-16036414D01*
X2347873Y-16036414D02*
X2366921Y-16036414D01*
X2385968Y-16045938D01*
X2395492Y-16055462D01*
X2405016Y-16074510D01*
X2414540Y-16112605D01*
X2414540Y-16160224D01*
X2405016Y-16198319D01*
X2395492Y-16217367D01*
X2385968Y-16226891D01*
X2366921Y-16236414D01*
X2347873Y-16236414D01*
X2328826Y-16226891D01*
X2319302Y-16217367D01*
X2309778Y-16198319D01*
X2300254Y-16160224D01*
X2300254Y-16112605D01*
X2309778Y-16074510D01*
X2319302Y-16055462D01*
X2328826Y-16045938D01*
X2347873Y-16036414D01*
X2500254Y-16236414D02*
X2500254Y-16103081D01*
X2500254Y-16122129D02*
X2509778Y-16112605D01*
X2528826Y-16103081D01*
X2557397Y-16103081D01*
X2576445Y-16112605D01*
X2585968Y-16131652D01*
X2585968Y-16236414D01*
X2585968Y-16131652D02*
X2595492Y-16112605D01*
X2614540Y-16103081D01*
X2643111Y-16103081D01*
X2662159Y-16112605D01*
X2671683Y-16131652D01*
X2671683Y-16236414D01*
X2766921Y-16236414D02*
X2766921Y-16103081D01*
X2766921Y-16122129D02*
X2776445Y-16112605D01*
X2795492Y-16103081D01*
X2824064Y-16103081D01*
X2843111Y-16112605D01*
X2852635Y-16131652D01*
X2852635Y-16236414D01*
X2852635Y-16131652D02*
X2862159Y-16112605D01*
X2881206Y-16103081D01*
X2909778Y-16103081D01*
X2928826Y-16112605D01*
X2938349Y-16131652D01*
X2938349Y-16236414D01*
X3328826Y-16026891D02*
X3157397Y-16284033D01*
X3585968Y-16036414D02*
X3605016Y-16036414D01*
X3624064Y-16045938D01*
X3633587Y-16055462D01*
X3643111Y-16074510D01*
X3652635Y-16112605D01*
X3652635Y-16160224D01*
X3643111Y-16198319D01*
X3633587Y-16217367D01*
X3624064Y-16226891D01*
X3605016Y-16236414D01*
X3585968Y-16236414D01*
X3566921Y-16226891D01*
X3557397Y-16217367D01*
X3547873Y-16198319D01*
X3538349Y-16160224D01*
X3538349Y-16112605D01*
X3547873Y-16074510D01*
X3557397Y-16055462D01*
X3566921Y-16045938D01*
X3585968Y-16036414D01*
X3738349Y-16217367D02*
X3747873Y-16226891D01*
X3738349Y-16236414D01*
X3728826Y-16226891D01*
X3738349Y-16217367D01*
X3738349Y-16236414D01*
X3871683Y-16036414D02*
X3890730Y-16036414D01*
X3909778Y-16045938D01*
X3919302Y-16055462D01*
X3928826Y-16074510D01*
X3938349Y-16112605D01*
X3938349Y-16160224D01*
X3928826Y-16198319D01*
X3919302Y-16217367D01*
X3909778Y-16226891D01*
X3890730Y-16236414D01*
X3871683Y-16236414D01*
X3852635Y-16226891D01*
X3843111Y-16217367D01*
X3833587Y-16198319D01*
X3824064Y-16160224D01*
X3824064Y-16112605D01*
X3833587Y-16074510D01*
X3843111Y-16055462D01*
X3852635Y-16045938D01*
X3871683Y-16036414D01*
X4005016Y-16036414D02*
X4128826Y-16036414D01*
X4062159Y-16112605D01*
X4090730Y-16112605D01*
X4109778Y-16122129D01*
X4119302Y-16131652D01*
X4128826Y-16150700D01*
X4128826Y-16198319D01*
X4119302Y-16217367D01*
X4109778Y-16226891D01*
X4090730Y-16236414D01*
X4033587Y-16236414D01*
X4014540Y-16226891D01*
X4005016Y-16217367D01*
X4309778Y-16036414D02*
X4214540Y-16036414D01*
X4205016Y-16131652D01*
X4214540Y-16122129D01*
X4233588Y-16112605D01*
X4281207Y-16112605D01*
X4300254Y-16122129D01*
X4309778Y-16131652D01*
X4319302Y-16150700D01*
X4319302Y-16198319D01*
X4309778Y-16217367D01*
X4300254Y-16226891D01*
X4281207Y-16236414D01*
X4233588Y-16236414D01*
X4214540Y-16226891D01*
X4205016Y-16217367D01*
X4490730Y-16103081D02*
X4490730Y-16236414D01*
X4443111Y-16026891D02*
X4395492Y-16169748D01*
X4519302Y-16169748D01*
X4585968Y-16036414D02*
X4585968Y-16074510D01*
X4662159Y-16036414D02*
X4662159Y-16074510D01*
X4957397Y-16312605D02*
X4947873Y-16303081D01*
X4928826Y-16274510D01*
X4919302Y-16255462D01*
X4909778Y-16226891D01*
X4900254Y-16179272D01*
X4900254Y-16141176D01*
X4909778Y-16093557D01*
X4919302Y-16064986D01*
X4928826Y-16045938D01*
X4947873Y-16017367D01*
X4957397Y-16007843D01*
X5024064Y-16055462D02*
X5033588Y-16045938D01*
X5052635Y-16036414D01*
X5100254Y-16036414D01*
X5119302Y-16045938D01*
X5128826Y-16055462D01*
X5138349Y-16074510D01*
X5138349Y-16093557D01*
X5128826Y-16122129D01*
X5014540Y-16236414D01*
X5138349Y-16236414D01*
X5376445Y-16236414D02*
X5376445Y-16036414D01*
X5462159Y-16236414D02*
X5462159Y-16131652D01*
X5452635Y-16112605D01*
X5433588Y-16103081D01*
X5405016Y-16103081D01*
X5385968Y-16112605D01*
X5376445Y-16122129D01*
X5585968Y-16236414D02*
X5566921Y-16226891D01*
X5557397Y-16217367D01*
X5547873Y-16198319D01*
X5547873Y-16141176D01*
X5557397Y-16122129D01*
X5566921Y-16112605D01*
X5585968Y-16103081D01*
X5614540Y-16103081D01*
X5633587Y-16112605D01*
X5643111Y-16122129D01*
X5652635Y-16141176D01*
X5652635Y-16198319D01*
X5643111Y-16217367D01*
X5633587Y-16226891D01*
X5614540Y-16236414D01*
X5585968Y-16236414D01*
X5766921Y-16236414D02*
X5747873Y-16226891D01*
X5738349Y-16207843D01*
X5738349Y-16036414D01*
X5919302Y-16226891D02*
X5900254Y-16236414D01*
X5862159Y-16236414D01*
X5843111Y-16226891D01*
X5833587Y-16207843D01*
X5833587Y-16131652D01*
X5843111Y-16112605D01*
X5862159Y-16103081D01*
X5900254Y-16103081D01*
X5919302Y-16112605D01*
X5928826Y-16131652D01*
X5928826Y-16150700D01*
X5833587Y-16169748D01*
X6005016Y-16226891D02*
X6024064Y-16236414D01*
X6062159Y-16236414D01*
X6081206Y-16226891D01*
X6090730Y-16207843D01*
X6090730Y-16198319D01*
X6081206Y-16179272D01*
X6062159Y-16169748D01*
X6033587Y-16169748D01*
X6014540Y-16160224D01*
X6005016Y-16141176D01*
X6005016Y-16131652D01*
X6014540Y-16112605D01*
X6033587Y-16103081D01*
X6062159Y-16103081D01*
X6081206Y-16112605D01*
X6157397Y-16312605D02*
X6166921Y-16303081D01*
X6185968Y-16274510D01*
X6195492Y-16255462D01*
X6205016Y-16226891D01*
X6214540Y-16179272D01*
X6214540Y-16141176D01*
X6205016Y-16093557D01*
X6195492Y-16064986D01*
X6185968Y-16045938D01*
X6166921Y-16017367D01*
X6157397Y-16007843D01*
X6519302Y-16312605D02*
X6509778Y-16303081D01*
X6490730Y-16274510D01*
X6481206Y-16255462D01*
X6471683Y-16226891D01*
X6462159Y-16179272D01*
X6462159Y-16141176D01*
X6471683Y-16093557D01*
X6481206Y-16064986D01*
X6490730Y-16045938D01*
X6509778Y-16017367D01*
X6519302Y-16007843D01*
X6595492Y-16103081D02*
X6595492Y-16236414D01*
X6595492Y-16122129D02*
X6605016Y-16112605D01*
X6624064Y-16103081D01*
X6652635Y-16103081D01*
X6671683Y-16112605D01*
X6681206Y-16131652D01*
X6681206Y-16236414D01*
X6805016Y-16236414D02*
X6785968Y-16226891D01*
X6776445Y-16217367D01*
X6766921Y-16198319D01*
X6766921Y-16141176D01*
X6776445Y-16122129D01*
X6785968Y-16112605D01*
X6805016Y-16103081D01*
X6833587Y-16103081D01*
X6852635Y-16112605D01*
X6862159Y-16122129D01*
X6871683Y-16141176D01*
X6871683Y-16198319D01*
X6862159Y-16217367D01*
X6852635Y-16226891D01*
X6833587Y-16236414D01*
X6805016Y-16236414D01*
X6928826Y-16103081D02*
X7005016Y-16103081D01*
X6957397Y-16036414D02*
X6957397Y-16207843D01*
X6966921Y-16226891D01*
X6985968Y-16236414D01*
X7005016Y-16236414D01*
X7224064Y-16103081D02*
X7224064Y-16303081D01*
X7224064Y-16112605D02*
X7243111Y-16103081D01*
X7281206Y-16103081D01*
X7300254Y-16112605D01*
X7309778Y-16122129D01*
X7319302Y-16141176D01*
X7319302Y-16198319D01*
X7309778Y-16217367D01*
X7300254Y-16226891D01*
X7281206Y-16236414D01*
X7243111Y-16236414D01*
X7224064Y-16226891D01*
X7433587Y-16236414D02*
X7414540Y-16226891D01*
X7405016Y-16207843D01*
X7405016Y-16036414D01*
X7595492Y-16236414D02*
X7595492Y-16131652D01*
X7585968Y-16112605D01*
X7566921Y-16103081D01*
X7528826Y-16103081D01*
X7509778Y-16112605D01*
X7595492Y-16226891D02*
X7576445Y-16236414D01*
X7528826Y-16236414D01*
X7509778Y-16226891D01*
X7500254Y-16207843D01*
X7500254Y-16188795D01*
X7509778Y-16169748D01*
X7528826Y-16160224D01*
X7576445Y-16160224D01*
X7595492Y-16150700D01*
X7662159Y-16103081D02*
X7738349Y-16103081D01*
X7690730Y-16036414D02*
X7690730Y-16207843D01*
X7700254Y-16226891D01*
X7719302Y-16236414D01*
X7738349Y-16236414D01*
X7881206Y-16226891D02*
X7862159Y-16236414D01*
X7824064Y-16236414D01*
X7805016Y-16226891D01*
X7795492Y-16207843D01*
X7795492Y-16131652D01*
X7805016Y-16112605D01*
X7824064Y-16103081D01*
X7862159Y-16103081D01*
X7881206Y-16112605D01*
X7890730Y-16131652D01*
X7890730Y-16150700D01*
X7795492Y-16169748D01*
X8062159Y-16236414D02*
X8062159Y-16036414D01*
X8062159Y-16226891D02*
X8043111Y-16236414D01*
X8005016Y-16236414D01*
X7985968Y-16226891D01*
X7976445Y-16217367D01*
X7966921Y-16198319D01*
X7966921Y-16141176D01*
X7976445Y-16122129D01*
X7985968Y-16112605D01*
X8005016Y-16103081D01*
X8043111Y-16103081D01*
X8062159Y-16112605D01*
X8138349Y-16312605D02*
X8147873Y-16303081D01*
X8166921Y-16274510D01*
X8176445Y-16255462D01*
X8185968Y-16226891D01*
X8195492Y-16179272D01*
X8195492Y-16141176D01*
X8185968Y-16093557D01*
X8176445Y-16064986D01*
X8166921Y-16045938D01*
X8147873Y-16017367D01*
X8138349Y-16007843D01*
D13*
X1385492Y-16409938D02*
G75*
G03*
X1385492Y-16409938I-85090J0D01*
G01*
D11*
X1747873Y-16500414D02*
X1633587Y-16500414D01*
X1690730Y-16500414D02*
X1690730Y-16300414D01*
X1671683Y-16328986D01*
X1652635Y-16348033D01*
X1633587Y-16357557D01*
X1833587Y-16481367D02*
X1843111Y-16490891D01*
X1833587Y-16500414D01*
X1824064Y-16490891D01*
X1833587Y-16481367D01*
X1833587Y-16500414D01*
X1909778Y-16300414D02*
X2043111Y-16300414D01*
X1957397Y-16500414D01*
X2157397Y-16300414D02*
X2176445Y-16300414D01*
X2195492Y-16309938D01*
X2205016Y-16319462D01*
X2214540Y-16338510D01*
X2224064Y-16376605D01*
X2224064Y-16424224D01*
X2214540Y-16462319D01*
X2205016Y-16481367D01*
X2195492Y-16490891D01*
X2176445Y-16500414D01*
X2157397Y-16500414D01*
X2138349Y-16490891D01*
X2128826Y-16481367D01*
X2119302Y-16462319D01*
X2109778Y-16424224D01*
X2109778Y-16376605D01*
X2119302Y-16338510D01*
X2128826Y-16319462D01*
X2138349Y-16309938D01*
X2157397Y-16300414D01*
X2300254Y-16319462D02*
X2309778Y-16309938D01*
X2328826Y-16300414D01*
X2376445Y-16300414D01*
X2395492Y-16309938D01*
X2405016Y-16319462D01*
X2414540Y-16338510D01*
X2414540Y-16357557D01*
X2405016Y-16386129D01*
X2290730Y-16500414D01*
X2414540Y-16500414D01*
X2500254Y-16500414D02*
X2500254Y-16367081D01*
X2500254Y-16386129D02*
X2509778Y-16376605D01*
X2528826Y-16367081D01*
X2557397Y-16367081D01*
X2576445Y-16376605D01*
X2585968Y-16395652D01*
X2585968Y-16500414D01*
X2585968Y-16395652D02*
X2595492Y-16376605D01*
X2614540Y-16367081D01*
X2643111Y-16367081D01*
X2662159Y-16376605D01*
X2671683Y-16395652D01*
X2671683Y-16500414D01*
X2766921Y-16500414D02*
X2766921Y-16367081D01*
X2766921Y-16386129D02*
X2776445Y-16376605D01*
X2795492Y-16367081D01*
X2824064Y-16367081D01*
X2843111Y-16376605D01*
X2852635Y-16395652D01*
X2852635Y-16500414D01*
X2852635Y-16395652D02*
X2862159Y-16376605D01*
X2881206Y-16367081D01*
X2909778Y-16367081D01*
X2928826Y-16376605D01*
X2938349Y-16395652D01*
X2938349Y-16500414D01*
X3328826Y-16290891D02*
X3157397Y-16548033D01*
X3585968Y-16300414D02*
X3605016Y-16300414D01*
X3624064Y-16309938D01*
X3633587Y-16319462D01*
X3643111Y-16338510D01*
X3652635Y-16376605D01*
X3652635Y-16424224D01*
X3643111Y-16462319D01*
X3633587Y-16481367D01*
X3624064Y-16490891D01*
X3605016Y-16500414D01*
X3585968Y-16500414D01*
X3566921Y-16490891D01*
X3557397Y-16481367D01*
X3547873Y-16462319D01*
X3538349Y-16424224D01*
X3538349Y-16376605D01*
X3547873Y-16338510D01*
X3557397Y-16319462D01*
X3566921Y-16309938D01*
X3585968Y-16300414D01*
X3738349Y-16481367D02*
X3747873Y-16490891D01*
X3738349Y-16500414D01*
X3728826Y-16490891D01*
X3738349Y-16481367D01*
X3738349Y-16500414D01*
X3871683Y-16300414D02*
X3890730Y-16300414D01*
X3909778Y-16309938D01*
X3919302Y-16319462D01*
X3928826Y-16338510D01*
X3938349Y-16376605D01*
X3938349Y-16424224D01*
X3928826Y-16462319D01*
X3919302Y-16481367D01*
X3909778Y-16490891D01*
X3890730Y-16500414D01*
X3871683Y-16500414D01*
X3852635Y-16490891D01*
X3843111Y-16481367D01*
X3833587Y-16462319D01*
X3824064Y-16424224D01*
X3824064Y-16376605D01*
X3833587Y-16338510D01*
X3843111Y-16319462D01*
X3852635Y-16309938D01*
X3871683Y-16300414D01*
X4109778Y-16300414D02*
X4071683Y-16300414D01*
X4052635Y-16309938D01*
X4043111Y-16319462D01*
X4024064Y-16348033D01*
X4014540Y-16386129D01*
X4014540Y-16462319D01*
X4024064Y-16481367D01*
X4033587Y-16490891D01*
X4052635Y-16500414D01*
X4090730Y-16500414D01*
X4109778Y-16490891D01*
X4119302Y-16481367D01*
X4128826Y-16462319D01*
X4128826Y-16414700D01*
X4119302Y-16395652D01*
X4109778Y-16386129D01*
X4090730Y-16376605D01*
X4052635Y-16376605D01*
X4033587Y-16386129D01*
X4024064Y-16395652D01*
X4014540Y-16414700D01*
X4195492Y-16300414D02*
X4328826Y-16300414D01*
X4243111Y-16500414D01*
X4443111Y-16300414D02*
X4462159Y-16300414D01*
X4481207Y-16309938D01*
X4490730Y-16319462D01*
X4500254Y-16338510D01*
X4509778Y-16376605D01*
X4509778Y-16424224D01*
X4500254Y-16462319D01*
X4490730Y-16481367D01*
X4481207Y-16490891D01*
X4462159Y-16500414D01*
X4443111Y-16500414D01*
X4424064Y-16490891D01*
X4414540Y-16481367D01*
X4405016Y-16462319D01*
X4395492Y-16424224D01*
X4395492Y-16376605D01*
X4405016Y-16338510D01*
X4414540Y-16319462D01*
X4424064Y-16309938D01*
X4443111Y-16300414D01*
X4585968Y-16300414D02*
X4585968Y-16338510D01*
X4662159Y-16300414D02*
X4662159Y-16338510D01*
X4957397Y-16576605D02*
X4947873Y-16567081D01*
X4928826Y-16538510D01*
X4919302Y-16519462D01*
X4909778Y-16490891D01*
X4900254Y-16443272D01*
X4900254Y-16405176D01*
X4909778Y-16357557D01*
X4919302Y-16328986D01*
X4928826Y-16309938D01*
X4947873Y-16281367D01*
X4957397Y-16271843D01*
X5138349Y-16500414D02*
X5024064Y-16500414D01*
X5081207Y-16500414D02*
X5081207Y-16300414D01*
X5062159Y-16328986D01*
X5043111Y-16348033D01*
X5024064Y-16357557D01*
X5309778Y-16367081D02*
X5309778Y-16500414D01*
X5262159Y-16290891D02*
X5214540Y-16433748D01*
X5338349Y-16433748D01*
X5500254Y-16367081D02*
X5500254Y-16500414D01*
X5452635Y-16290891D02*
X5405016Y-16433748D01*
X5528826Y-16433748D01*
X5757397Y-16500414D02*
X5757397Y-16300414D01*
X5843111Y-16500414D02*
X5843111Y-16395652D01*
X5833587Y-16376605D01*
X5814540Y-16367081D01*
X5785968Y-16367081D01*
X5766921Y-16376605D01*
X5757397Y-16386129D01*
X5966921Y-16500414D02*
X5947873Y-16490891D01*
X5938349Y-16481367D01*
X5928826Y-16462319D01*
X5928826Y-16405176D01*
X5938349Y-16386129D01*
X5947873Y-16376605D01*
X5966921Y-16367081D01*
X5995492Y-16367081D01*
X6014540Y-16376605D01*
X6024064Y-16386129D01*
X6033587Y-16405176D01*
X6033587Y-16462319D01*
X6024064Y-16481367D01*
X6014540Y-16490891D01*
X5995492Y-16500414D01*
X5966921Y-16500414D01*
X6147873Y-16500414D02*
X6128826Y-16490891D01*
X6119302Y-16471843D01*
X6119302Y-16300414D01*
X6300254Y-16490891D02*
X6281206Y-16500414D01*
X6243111Y-16500414D01*
X6224064Y-16490891D01*
X6214540Y-16471843D01*
X6214540Y-16395652D01*
X6224064Y-16376605D01*
X6243111Y-16367081D01*
X6281206Y-16367081D01*
X6300254Y-16376605D01*
X6309778Y-16395652D01*
X6309778Y-16414700D01*
X6214540Y-16433748D01*
X6385968Y-16490891D02*
X6405016Y-16500414D01*
X6443111Y-16500414D01*
X6462159Y-16490891D01*
X6471683Y-16471843D01*
X6471683Y-16462319D01*
X6462159Y-16443272D01*
X6443111Y-16433748D01*
X6414540Y-16433748D01*
X6395492Y-16424224D01*
X6385968Y-16405176D01*
X6385968Y-16395652D01*
X6395492Y-16376605D01*
X6414540Y-16367081D01*
X6443111Y-16367081D01*
X6462159Y-16376605D01*
X6538349Y-16576605D02*
X6547873Y-16567081D01*
X6566921Y-16538510D01*
X6576445Y-16519462D01*
X6585968Y-16490891D01*
X6595492Y-16443272D01*
X6595492Y-16405176D01*
X6585968Y-16357557D01*
X6576445Y-16328986D01*
X6566921Y-16309938D01*
X6547873Y-16281367D01*
X6538349Y-16271843D01*
X6900254Y-16576605D02*
X6890730Y-16567081D01*
X6871683Y-16538510D01*
X6862159Y-16519462D01*
X6852635Y-16490891D01*
X6843111Y-16443272D01*
X6843111Y-16405176D01*
X6852635Y-16357557D01*
X6862159Y-16328986D01*
X6871683Y-16309938D01*
X6890730Y-16281367D01*
X6900254Y-16271843D01*
X6976445Y-16367081D02*
X6976445Y-16500414D01*
X6976445Y-16386129D02*
X6985968Y-16376605D01*
X7005016Y-16367081D01*
X7033587Y-16367081D01*
X7052635Y-16376605D01*
X7062159Y-16395652D01*
X7062159Y-16500414D01*
X7185968Y-16500414D02*
X7166921Y-16490891D01*
X7157397Y-16481367D01*
X7147873Y-16462319D01*
X7147873Y-16405176D01*
X7157397Y-16386129D01*
X7166921Y-16376605D01*
X7185968Y-16367081D01*
X7214540Y-16367081D01*
X7233587Y-16376605D01*
X7243111Y-16386129D01*
X7252635Y-16405176D01*
X7252635Y-16462319D01*
X7243111Y-16481367D01*
X7233587Y-16490891D01*
X7214540Y-16500414D01*
X7185968Y-16500414D01*
X7309778Y-16367081D02*
X7385968Y-16367081D01*
X7338349Y-16300414D02*
X7338349Y-16471843D01*
X7347873Y-16490891D01*
X7366921Y-16500414D01*
X7385968Y-16500414D01*
X7605016Y-16367081D02*
X7605016Y-16567081D01*
X7605016Y-16376605D02*
X7624064Y-16367081D01*
X7662159Y-16367081D01*
X7681206Y-16376605D01*
X7690730Y-16386129D01*
X7700254Y-16405176D01*
X7700254Y-16462319D01*
X7690730Y-16481367D01*
X7681206Y-16490891D01*
X7662159Y-16500414D01*
X7624064Y-16500414D01*
X7605016Y-16490891D01*
X7814540Y-16500414D02*
X7795492Y-16490891D01*
X7785968Y-16471843D01*
X7785968Y-16300414D01*
X7976445Y-16500414D02*
X7976445Y-16395652D01*
X7966921Y-16376605D01*
X7947873Y-16367081D01*
X7909778Y-16367081D01*
X7890730Y-16376605D01*
X7976445Y-16490891D02*
X7957397Y-16500414D01*
X7909778Y-16500414D01*
X7890730Y-16490891D01*
X7881206Y-16471843D01*
X7881206Y-16452795D01*
X7890730Y-16433748D01*
X7909778Y-16424224D01*
X7957397Y-16424224D01*
X7976445Y-16414700D01*
X8043111Y-16367081D02*
X8119302Y-16367081D01*
X8071683Y-16300414D02*
X8071683Y-16471843D01*
X8081206Y-16490891D01*
X8100254Y-16500414D01*
X8119302Y-16500414D01*
X8262159Y-16490891D02*
X8243111Y-16500414D01*
X8205016Y-16500414D01*
X8185968Y-16490891D01*
X8176445Y-16471843D01*
X8176445Y-16395652D01*
X8185968Y-16376605D01*
X8205016Y-16367081D01*
X8243111Y-16367081D01*
X8262159Y-16376605D01*
X8271683Y-16395652D01*
X8271683Y-16414700D01*
X8176445Y-16433748D01*
X8443111Y-16500414D02*
X8443111Y-16300414D01*
X8443111Y-16490891D02*
X8424064Y-16500414D01*
X8385968Y-16500414D01*
X8366921Y-16490891D01*
X8357397Y-16481367D01*
X8347873Y-16462319D01*
X8347873Y-16405176D01*
X8357397Y-16386129D01*
X8366921Y-16376605D01*
X8385968Y-16367081D01*
X8424064Y-16367081D01*
X8443111Y-16376605D01*
X8519302Y-16576605D02*
X8528826Y-16567081D01*
X8547873Y-16538510D01*
X8557397Y-16519462D01*
X8566921Y-16490891D01*
X8576445Y-16443272D01*
X8576445Y-16405176D01*
X8566921Y-16357557D01*
X8557397Y-16328986D01*
X8547873Y-16309938D01*
X8528826Y-16281367D01*
X8519302Y-16271843D01*
X1285492Y-16600118D02*
X1285492Y-16800118D01*
X1185492Y-16700118D02*
X1385492Y-16700118D01*
X1624064Y-16590594D02*
X1747873Y-16590594D01*
X1681206Y-16666785D01*
X1709778Y-16666785D01*
X1728826Y-16676309D01*
X1738349Y-16685832D01*
X1747873Y-16704880D01*
X1747873Y-16752499D01*
X1738349Y-16771547D01*
X1728826Y-16781071D01*
X1709778Y-16790594D01*
X1652635Y-16790594D01*
X1633587Y-16781071D01*
X1624064Y-16771547D01*
X1833587Y-16771547D02*
X1843111Y-16781071D01*
X1833587Y-16790594D01*
X1824064Y-16781071D01*
X1833587Y-16771547D01*
X1833587Y-16790594D01*
X2014540Y-16657261D02*
X2014540Y-16790594D01*
X1966921Y-16581071D02*
X1919302Y-16723928D01*
X2043111Y-16723928D01*
X2109778Y-16609642D02*
X2119302Y-16600118D01*
X2138349Y-16590594D01*
X2185968Y-16590594D01*
X2205016Y-16600118D01*
X2214540Y-16609642D01*
X2224064Y-16628690D01*
X2224064Y-16647737D01*
X2214540Y-16676309D01*
X2100254Y-16790594D01*
X2224064Y-16790594D01*
X2319302Y-16790594D02*
X2357397Y-16790594D01*
X2376445Y-16781071D01*
X2385968Y-16771547D01*
X2405016Y-16742975D01*
X2414540Y-16704880D01*
X2414540Y-16628690D01*
X2405016Y-16609642D01*
X2395492Y-16600118D01*
X2376445Y-16590594D01*
X2338349Y-16590594D01*
X2319302Y-16600118D01*
X2309778Y-16609642D01*
X2300254Y-16628690D01*
X2300254Y-16676309D01*
X2309778Y-16695356D01*
X2319302Y-16704880D01*
X2338349Y-16714404D01*
X2376445Y-16714404D01*
X2395492Y-16704880D01*
X2405016Y-16695356D01*
X2414540Y-16676309D01*
X2500254Y-16790594D02*
X2500254Y-16657261D01*
X2500254Y-16676309D02*
X2509778Y-16666785D01*
X2528826Y-16657261D01*
X2557397Y-16657261D01*
X2576445Y-16666785D01*
X2585968Y-16685832D01*
X2585968Y-16790594D01*
X2585968Y-16685832D02*
X2595492Y-16666785D01*
X2614540Y-16657261D01*
X2643111Y-16657261D01*
X2662159Y-16666785D01*
X2671683Y-16685832D01*
X2671683Y-16790594D01*
X2766921Y-16790594D02*
X2766921Y-16657261D01*
X2766921Y-16676309D02*
X2776445Y-16666785D01*
X2795492Y-16657261D01*
X2824064Y-16657261D01*
X2843111Y-16666785D01*
X2852635Y-16685832D01*
X2852635Y-16790594D01*
X2852635Y-16685832D02*
X2862159Y-16666785D01*
X2881206Y-16657261D01*
X2909778Y-16657261D01*
X2928826Y-16666785D01*
X2938349Y-16685832D01*
X2938349Y-16790594D01*
X3328826Y-16581071D02*
X3157397Y-16838214D01*
X3585968Y-16590594D02*
X3605016Y-16590594D01*
X3624064Y-16600118D01*
X3633587Y-16609642D01*
X3643111Y-16628690D01*
X3652635Y-16666785D01*
X3652635Y-16714404D01*
X3643111Y-16752499D01*
X3633587Y-16771547D01*
X3624064Y-16781071D01*
X3605016Y-16790594D01*
X3585968Y-16790594D01*
X3566921Y-16781071D01*
X3557397Y-16771547D01*
X3547873Y-16752499D01*
X3538349Y-16714404D01*
X3538349Y-16666785D01*
X3547873Y-16628690D01*
X3557397Y-16609642D01*
X3566921Y-16600118D01*
X3585968Y-16590594D01*
X3738349Y-16771547D02*
X3747873Y-16781071D01*
X3738349Y-16790594D01*
X3728826Y-16781071D01*
X3738349Y-16771547D01*
X3738349Y-16790594D01*
X3938349Y-16790594D02*
X3824064Y-16790594D01*
X3881206Y-16790594D02*
X3881206Y-16590594D01*
X3862159Y-16619166D01*
X3843111Y-16638213D01*
X3824064Y-16647737D01*
X4005016Y-16590594D02*
X4128826Y-16590594D01*
X4062159Y-16666785D01*
X4090730Y-16666785D01*
X4109778Y-16676309D01*
X4119302Y-16685832D01*
X4128826Y-16704880D01*
X4128826Y-16752499D01*
X4119302Y-16771547D01*
X4109778Y-16781071D01*
X4090730Y-16790594D01*
X4033587Y-16790594D01*
X4014540Y-16781071D01*
X4005016Y-16771547D01*
X4309778Y-16590594D02*
X4214540Y-16590594D01*
X4205016Y-16685832D01*
X4214540Y-16676309D01*
X4233588Y-16666785D01*
X4281207Y-16666785D01*
X4300254Y-16676309D01*
X4309778Y-16685832D01*
X4319302Y-16704880D01*
X4319302Y-16752499D01*
X4309778Y-16771547D01*
X4300254Y-16781071D01*
X4281207Y-16790594D01*
X4233588Y-16790594D01*
X4214540Y-16781071D01*
X4205016Y-16771547D01*
X4443111Y-16590594D02*
X4462159Y-16590594D01*
X4481207Y-16600118D01*
X4490730Y-16609642D01*
X4500254Y-16628690D01*
X4509778Y-16666785D01*
X4509778Y-16714404D01*
X4500254Y-16752499D01*
X4490730Y-16771547D01*
X4481207Y-16781071D01*
X4462159Y-16790594D01*
X4443111Y-16790594D01*
X4424064Y-16781071D01*
X4414540Y-16771547D01*
X4405016Y-16752499D01*
X4395492Y-16714404D01*
X4395492Y-16666785D01*
X4405016Y-16628690D01*
X4414540Y-16609642D01*
X4424064Y-16600118D01*
X4443111Y-16590594D01*
X4585968Y-16590594D02*
X4585968Y-16628690D01*
X4662159Y-16590594D02*
X4662159Y-16628690D01*
X4957397Y-16866785D02*
X4947873Y-16857261D01*
X4928826Y-16828690D01*
X4919302Y-16809642D01*
X4909778Y-16781071D01*
X4900254Y-16733452D01*
X4900254Y-16695356D01*
X4909778Y-16647737D01*
X4919302Y-16619166D01*
X4928826Y-16600118D01*
X4947873Y-16571547D01*
X4957397Y-16562023D01*
X5014540Y-16590594D02*
X5138349Y-16590594D01*
X5071683Y-16666785D01*
X5100254Y-16666785D01*
X5119302Y-16676309D01*
X5128826Y-16685832D01*
X5138349Y-16704880D01*
X5138349Y-16752499D01*
X5128826Y-16771547D01*
X5119302Y-16781071D01*
X5100254Y-16790594D01*
X5043111Y-16790594D01*
X5024064Y-16781071D01*
X5014540Y-16771547D01*
X5309778Y-16590594D02*
X5271683Y-16590594D01*
X5252635Y-16600118D01*
X5243111Y-16609642D01*
X5224064Y-16638213D01*
X5214540Y-16676309D01*
X5214540Y-16752499D01*
X5224064Y-16771547D01*
X5233588Y-16781071D01*
X5252635Y-16790594D01*
X5290730Y-16790594D01*
X5309778Y-16781071D01*
X5319302Y-16771547D01*
X5328826Y-16752499D01*
X5328826Y-16704880D01*
X5319302Y-16685832D01*
X5309778Y-16676309D01*
X5290730Y-16666785D01*
X5252635Y-16666785D01*
X5233588Y-16676309D01*
X5224064Y-16685832D01*
X5214540Y-16704880D01*
X5566921Y-16790594D02*
X5566921Y-16590594D01*
X5652635Y-16790594D02*
X5652635Y-16685832D01*
X5643111Y-16666785D01*
X5624064Y-16657261D01*
X5595492Y-16657261D01*
X5576445Y-16666785D01*
X5566921Y-16676309D01*
X5776445Y-16790594D02*
X5757397Y-16781071D01*
X5747873Y-16771547D01*
X5738349Y-16752499D01*
X5738349Y-16695356D01*
X5747873Y-16676309D01*
X5757397Y-16666785D01*
X5776445Y-16657261D01*
X5805016Y-16657261D01*
X5824064Y-16666785D01*
X5833587Y-16676309D01*
X5843111Y-16695356D01*
X5843111Y-16752499D01*
X5833587Y-16771547D01*
X5824064Y-16781071D01*
X5805016Y-16790594D01*
X5776445Y-16790594D01*
X5957397Y-16790594D02*
X5938349Y-16781071D01*
X5928826Y-16762023D01*
X5928826Y-16590594D01*
X6109778Y-16781071D02*
X6090730Y-16790594D01*
X6052635Y-16790594D01*
X6033587Y-16781071D01*
X6024064Y-16762023D01*
X6024064Y-16685832D01*
X6033587Y-16666785D01*
X6052635Y-16657261D01*
X6090730Y-16657261D01*
X6109778Y-16666785D01*
X6119302Y-16685832D01*
X6119302Y-16704880D01*
X6024064Y-16723928D01*
X6195492Y-16781071D02*
X6214540Y-16790594D01*
X6252635Y-16790594D01*
X6271683Y-16781071D01*
X6281206Y-16762023D01*
X6281206Y-16752499D01*
X6271683Y-16733452D01*
X6252635Y-16723928D01*
X6224064Y-16723928D01*
X6205016Y-16714404D01*
X6195492Y-16695356D01*
X6195492Y-16685832D01*
X6205016Y-16666785D01*
X6224064Y-16657261D01*
X6252635Y-16657261D01*
X6271683Y-16666785D01*
X6347873Y-16866785D02*
X6357397Y-16857261D01*
X6376445Y-16828690D01*
X6385968Y-16809642D01*
X6395492Y-16781071D01*
X6405016Y-16733452D01*
X6405016Y-16695356D01*
X6395492Y-16647737D01*
X6385968Y-16619166D01*
X6376445Y-16600118D01*
X6357397Y-16571547D01*
X6347873Y-16562023D01*
X6709778Y-16866785D02*
X6700254Y-16857261D01*
X6681206Y-16828690D01*
X6671683Y-16809642D01*
X6662159Y-16781071D01*
X6652635Y-16733452D01*
X6652635Y-16695356D01*
X6662159Y-16647737D01*
X6671683Y-16619166D01*
X6681206Y-16600118D01*
X6700254Y-16571547D01*
X6709778Y-16562023D01*
X6785968Y-16657261D02*
X6785968Y-16790594D01*
X6785968Y-16676309D02*
X6795492Y-16666785D01*
X6814540Y-16657261D01*
X6843111Y-16657261D01*
X6862159Y-16666785D01*
X6871683Y-16685832D01*
X6871683Y-16790594D01*
X6995492Y-16790594D02*
X6976445Y-16781071D01*
X6966921Y-16771547D01*
X6957397Y-16752499D01*
X6957397Y-16695356D01*
X6966921Y-16676309D01*
X6976445Y-16666785D01*
X6995492Y-16657261D01*
X7024064Y-16657261D01*
X7043111Y-16666785D01*
X7052635Y-16676309D01*
X7062159Y-16695356D01*
X7062159Y-16752499D01*
X7052635Y-16771547D01*
X7043111Y-16781071D01*
X7024064Y-16790594D01*
X6995492Y-16790594D01*
X7119302Y-16657261D02*
X7195492Y-16657261D01*
X7147873Y-16590594D02*
X7147873Y-16762023D01*
X7157397Y-16781071D01*
X7176445Y-16790594D01*
X7195492Y-16790594D01*
X7414540Y-16657261D02*
X7414540Y-16857261D01*
X7414540Y-16666785D02*
X7433587Y-16657261D01*
X7471683Y-16657261D01*
X7490730Y-16666785D01*
X7500254Y-16676309D01*
X7509778Y-16695356D01*
X7509778Y-16752499D01*
X7500254Y-16771547D01*
X7490730Y-16781071D01*
X7471683Y-16790594D01*
X7433587Y-16790594D01*
X7414540Y-16781071D01*
X7624064Y-16790594D02*
X7605016Y-16781071D01*
X7595492Y-16762023D01*
X7595492Y-16590594D01*
X7785968Y-16790594D02*
X7785968Y-16685832D01*
X7776445Y-16666785D01*
X7757397Y-16657261D01*
X7719302Y-16657261D01*
X7700254Y-16666785D01*
X7785968Y-16781071D02*
X7766921Y-16790594D01*
X7719302Y-16790594D01*
X7700254Y-16781071D01*
X7690730Y-16762023D01*
X7690730Y-16742975D01*
X7700254Y-16723928D01*
X7719302Y-16714404D01*
X7766921Y-16714404D01*
X7785968Y-16704880D01*
X7852635Y-16657261D02*
X7928826Y-16657261D01*
X7881206Y-16590594D02*
X7881206Y-16762023D01*
X7890730Y-16781071D01*
X7909778Y-16790594D01*
X7928826Y-16790594D01*
X8071683Y-16781071D02*
X8052635Y-16790594D01*
X8014540Y-16790594D01*
X7995492Y-16781071D01*
X7985968Y-16762023D01*
X7985968Y-16685832D01*
X7995492Y-16666785D01*
X8014540Y-16657261D01*
X8052635Y-16657261D01*
X8071683Y-16666785D01*
X8081206Y-16685832D01*
X8081206Y-16704880D01*
X7985968Y-16723928D01*
X8252635Y-16790594D02*
X8252635Y-16590594D01*
X8252635Y-16781071D02*
X8233587Y-16790594D01*
X8195492Y-16790594D01*
X8176445Y-16781071D01*
X8166921Y-16771547D01*
X8157397Y-16752499D01*
X8157397Y-16695356D01*
X8166921Y-16676309D01*
X8176445Y-16666785D01*
X8195492Y-16657261D01*
X8233587Y-16657261D01*
X8252635Y-16666785D01*
X8328826Y-16866785D02*
X8338349Y-16857261D01*
X8357397Y-16828690D01*
X8366921Y-16809642D01*
X8376445Y-16781071D01*
X8385968Y-16733452D01*
X8385968Y-16695356D01*
X8376445Y-16647737D01*
X8366921Y-16619166D01*
X8357397Y-16600118D01*
X8338349Y-16571547D01*
X8328826Y-16562023D01*
X1356204Y-17090830D02*
X1356204Y-16949407D01*
X1214781Y-16949407D01*
X1214781Y-17090830D01*
X1356204Y-17090830D01*
X1624064Y-16910594D02*
X1747873Y-16910594D01*
X1681206Y-16986785D01*
X1709778Y-16986785D01*
X1728826Y-16996309D01*
X1738349Y-17005833D01*
X1747873Y-17024880D01*
X1747873Y-17072499D01*
X1738349Y-17091547D01*
X1728826Y-17101071D01*
X1709778Y-17110594D01*
X1652635Y-17110594D01*
X1633587Y-17101071D01*
X1624064Y-17091547D01*
X1833587Y-17091547D02*
X1843111Y-17101071D01*
X1833587Y-17110594D01*
X1824064Y-17101071D01*
X1833587Y-17091547D01*
X1833587Y-17110594D01*
X1938349Y-17110594D02*
X1976445Y-17110594D01*
X1995492Y-17101071D01*
X2005016Y-17091547D01*
X2024064Y-17062975D01*
X2033587Y-17024880D01*
X2033587Y-16948690D01*
X2024064Y-16929642D01*
X2014540Y-16920118D01*
X1995492Y-16910594D01*
X1957397Y-16910594D01*
X1938349Y-16920118D01*
X1928826Y-16929642D01*
X1919302Y-16948690D01*
X1919302Y-16996309D01*
X1928826Y-17015356D01*
X1938349Y-17024880D01*
X1957397Y-17034404D01*
X1995492Y-17034404D01*
X2014540Y-17024880D01*
X2024064Y-17015356D01*
X2033587Y-16996309D01*
X2147873Y-16996309D02*
X2128826Y-16986785D01*
X2119302Y-16977261D01*
X2109778Y-16958214D01*
X2109778Y-16948690D01*
X2119302Y-16929642D01*
X2128826Y-16920118D01*
X2147873Y-16910594D01*
X2185968Y-16910594D01*
X2205016Y-16920118D01*
X2214540Y-16929642D01*
X2224064Y-16948690D01*
X2224064Y-16958214D01*
X2214540Y-16977261D01*
X2205016Y-16986785D01*
X2185968Y-16996309D01*
X2147873Y-16996309D01*
X2128826Y-17005833D01*
X2119302Y-17015356D01*
X2109778Y-17034404D01*
X2109778Y-17072499D01*
X2119302Y-17091547D01*
X2128826Y-17101071D01*
X2147873Y-17110594D01*
X2185968Y-17110594D01*
X2205016Y-17101071D01*
X2214540Y-17091547D01*
X2224064Y-17072499D01*
X2224064Y-17034404D01*
X2214540Y-17015356D01*
X2205016Y-17005833D01*
X2185968Y-16996309D01*
X2338349Y-16996309D02*
X2319302Y-16986785D01*
X2309778Y-16977261D01*
X2300254Y-16958214D01*
X2300254Y-16948690D01*
X2309778Y-16929642D01*
X2319302Y-16920118D01*
X2338349Y-16910594D01*
X2376445Y-16910594D01*
X2395492Y-16920118D01*
X2405016Y-16929642D01*
X2414540Y-16948690D01*
X2414540Y-16958214D01*
X2405016Y-16977261D01*
X2395492Y-16986785D01*
X2376445Y-16996309D01*
X2338349Y-16996309D01*
X2319302Y-17005833D01*
X2309778Y-17015356D01*
X2300254Y-17034404D01*
X2300254Y-17072499D01*
X2309778Y-17091547D01*
X2319302Y-17101071D01*
X2338349Y-17110594D01*
X2376445Y-17110594D01*
X2395492Y-17101071D01*
X2405016Y-17091547D01*
X2414540Y-17072499D01*
X2414540Y-17034404D01*
X2405016Y-17015356D01*
X2395492Y-17005833D01*
X2376445Y-16996309D01*
X2500254Y-17110594D02*
X2500254Y-16977261D01*
X2500254Y-16996309D02*
X2509778Y-16986785D01*
X2528826Y-16977261D01*
X2557397Y-16977261D01*
X2576445Y-16986785D01*
X2585968Y-17005833D01*
X2585968Y-17110594D01*
X2585968Y-17005833D02*
X2595492Y-16986785D01*
X2614540Y-16977261D01*
X2643111Y-16977261D01*
X2662159Y-16986785D01*
X2671683Y-17005833D01*
X2671683Y-17110594D01*
X2766921Y-17110594D02*
X2766921Y-16977261D01*
X2766921Y-16996309D02*
X2776445Y-16986785D01*
X2795492Y-16977261D01*
X2824064Y-16977261D01*
X2843111Y-16986785D01*
X2852635Y-17005833D01*
X2852635Y-17110594D01*
X2852635Y-17005833D02*
X2862159Y-16986785D01*
X2881206Y-16977261D01*
X2909778Y-16977261D01*
X2928826Y-16986785D01*
X2938349Y-17005833D01*
X2938349Y-17110594D01*
X3328826Y-16901071D02*
X3157397Y-17158214D01*
X3585968Y-16910594D02*
X3605016Y-16910594D01*
X3624064Y-16920118D01*
X3633587Y-16929642D01*
X3643111Y-16948690D01*
X3652635Y-16986785D01*
X3652635Y-17034404D01*
X3643111Y-17072499D01*
X3633587Y-17091547D01*
X3624064Y-17101071D01*
X3605016Y-17110594D01*
X3585968Y-17110594D01*
X3566921Y-17101071D01*
X3557397Y-17091547D01*
X3547873Y-17072499D01*
X3538349Y-17034404D01*
X3538349Y-16986785D01*
X3547873Y-16948690D01*
X3557397Y-16929642D01*
X3566921Y-16920118D01*
X3585968Y-16910594D01*
X3738349Y-17091547D02*
X3747873Y-17101071D01*
X3738349Y-17110594D01*
X3728826Y-17101071D01*
X3738349Y-17091547D01*
X3738349Y-17110594D01*
X3938349Y-17110594D02*
X3824064Y-17110594D01*
X3881206Y-17110594D02*
X3881206Y-16910594D01*
X3862159Y-16939166D01*
X3843111Y-16958214D01*
X3824064Y-16967737D01*
X4119302Y-16910594D02*
X4024064Y-16910594D01*
X4014540Y-17005833D01*
X4024064Y-16996309D01*
X4043111Y-16986785D01*
X4090730Y-16986785D01*
X4109778Y-16996309D01*
X4119302Y-17005833D01*
X4128826Y-17024880D01*
X4128826Y-17072499D01*
X4119302Y-17091547D01*
X4109778Y-17101071D01*
X4090730Y-17110594D01*
X4043111Y-17110594D01*
X4024064Y-17101071D01*
X4014540Y-17091547D01*
X4195492Y-16910594D02*
X4328826Y-16910594D01*
X4243111Y-17110594D01*
X4443111Y-16910594D02*
X4462159Y-16910594D01*
X4481207Y-16920118D01*
X4490730Y-16929642D01*
X4500254Y-16948690D01*
X4509778Y-16986785D01*
X4509778Y-17034404D01*
X4500254Y-17072499D01*
X4490730Y-17091547D01*
X4481207Y-17101071D01*
X4462159Y-17110594D01*
X4443111Y-17110594D01*
X4424064Y-17101071D01*
X4414540Y-17091547D01*
X4405016Y-17072499D01*
X4395492Y-17034404D01*
X4395492Y-16986785D01*
X4405016Y-16948690D01*
X4414540Y-16929642D01*
X4424064Y-16920118D01*
X4443111Y-16910594D01*
X4585968Y-16910594D02*
X4585968Y-16948690D01*
X4662159Y-16910594D02*
X4662159Y-16948690D01*
X4957397Y-17186785D02*
X4947873Y-17177261D01*
X4928826Y-17148690D01*
X4919302Y-17129642D01*
X4909778Y-17101071D01*
X4900254Y-17053452D01*
X4900254Y-17015356D01*
X4909778Y-16967737D01*
X4919302Y-16939166D01*
X4928826Y-16920118D01*
X4947873Y-16891547D01*
X4957397Y-16882023D01*
X5014540Y-16910594D02*
X5138349Y-16910594D01*
X5071683Y-16986785D01*
X5100254Y-16986785D01*
X5119302Y-16996309D01*
X5128826Y-17005833D01*
X5138349Y-17024880D01*
X5138349Y-17072499D01*
X5128826Y-17091547D01*
X5119302Y-17101071D01*
X5100254Y-17110594D01*
X5043111Y-17110594D01*
X5024064Y-17101071D01*
X5014540Y-17091547D01*
X5309778Y-16910594D02*
X5271683Y-16910594D01*
X5252635Y-16920118D01*
X5243111Y-16929642D01*
X5224064Y-16958214D01*
X5214540Y-16996309D01*
X5214540Y-17072499D01*
X5224064Y-17091547D01*
X5233588Y-17101071D01*
X5252635Y-17110594D01*
X5290730Y-17110594D01*
X5309778Y-17101071D01*
X5319302Y-17091547D01*
X5328826Y-17072499D01*
X5328826Y-17024880D01*
X5319302Y-17005833D01*
X5309778Y-16996309D01*
X5290730Y-16986785D01*
X5252635Y-16986785D01*
X5233588Y-16996309D01*
X5224064Y-17005833D01*
X5214540Y-17024880D01*
X5566921Y-17110594D02*
X5566921Y-16910594D01*
X5652635Y-17110594D02*
X5652635Y-17005833D01*
X5643111Y-16986785D01*
X5624064Y-16977261D01*
X5595492Y-16977261D01*
X5576445Y-16986785D01*
X5566921Y-16996309D01*
X5776445Y-17110594D02*
X5757397Y-17101071D01*
X5747873Y-17091547D01*
X5738349Y-17072499D01*
X5738349Y-17015356D01*
X5747873Y-16996309D01*
X5757397Y-16986785D01*
X5776445Y-16977261D01*
X5805016Y-16977261D01*
X5824064Y-16986785D01*
X5833587Y-16996309D01*
X5843111Y-17015356D01*
X5843111Y-17072499D01*
X5833587Y-17091547D01*
X5824064Y-17101071D01*
X5805016Y-17110594D01*
X5776445Y-17110594D01*
X5957397Y-17110594D02*
X5938349Y-17101071D01*
X5928826Y-17082023D01*
X5928826Y-16910594D01*
X6109778Y-17101071D02*
X6090730Y-17110594D01*
X6052635Y-17110594D01*
X6033587Y-17101071D01*
X6024064Y-17082023D01*
X6024064Y-17005833D01*
X6033587Y-16986785D01*
X6052635Y-16977261D01*
X6090730Y-16977261D01*
X6109778Y-16986785D01*
X6119302Y-17005833D01*
X6119302Y-17024880D01*
X6024064Y-17043928D01*
X6195492Y-17101071D02*
X6214540Y-17110594D01*
X6252635Y-17110594D01*
X6271683Y-17101071D01*
X6281206Y-17082023D01*
X6281206Y-17072499D01*
X6271683Y-17053452D01*
X6252635Y-17043928D01*
X6224064Y-17043928D01*
X6205016Y-17034404D01*
X6195492Y-17015356D01*
X6195492Y-17005833D01*
X6205016Y-16986785D01*
X6224064Y-16977261D01*
X6252635Y-16977261D01*
X6271683Y-16986785D01*
X6347873Y-17186785D02*
X6357397Y-17177261D01*
X6376445Y-17148690D01*
X6385968Y-17129642D01*
X6395492Y-17101071D01*
X6405016Y-17053452D01*
X6405016Y-17015356D01*
X6395492Y-16967737D01*
X6385968Y-16939166D01*
X6376445Y-16920118D01*
X6357397Y-16891547D01*
X6347873Y-16882023D01*
X6709778Y-17186785D02*
X6700254Y-17177261D01*
X6681206Y-17148690D01*
X6671683Y-17129642D01*
X6662159Y-17101071D01*
X6652635Y-17053452D01*
X6652635Y-17015356D01*
X6662159Y-16967737D01*
X6671683Y-16939166D01*
X6681206Y-16920118D01*
X6700254Y-16891547D01*
X6709778Y-16882023D01*
X6785968Y-16977261D02*
X6785968Y-17110594D01*
X6785968Y-16996309D02*
X6795492Y-16986785D01*
X6814540Y-16977261D01*
X6843111Y-16977261D01*
X6862159Y-16986785D01*
X6871683Y-17005833D01*
X6871683Y-17110594D01*
X6995492Y-17110594D02*
X6976445Y-17101071D01*
X6966921Y-17091547D01*
X6957397Y-17072499D01*
X6957397Y-17015356D01*
X6966921Y-16996309D01*
X6976445Y-16986785D01*
X6995492Y-16977261D01*
X7024064Y-16977261D01*
X7043111Y-16986785D01*
X7052635Y-16996309D01*
X7062159Y-17015356D01*
X7062159Y-17072499D01*
X7052635Y-17091547D01*
X7043111Y-17101071D01*
X7024064Y-17110594D01*
X6995492Y-17110594D01*
X7119302Y-16977261D02*
X7195492Y-16977261D01*
X7147873Y-16910594D02*
X7147873Y-17082023D01*
X7157397Y-17101071D01*
X7176445Y-17110594D01*
X7195492Y-17110594D01*
X7414540Y-16977261D02*
X7414540Y-17177261D01*
X7414540Y-16986785D02*
X7433587Y-16977261D01*
X7471683Y-16977261D01*
X7490730Y-16986785D01*
X7500254Y-16996309D01*
X7509778Y-17015356D01*
X7509778Y-17072499D01*
X7500254Y-17091547D01*
X7490730Y-17101071D01*
X7471683Y-17110594D01*
X7433587Y-17110594D01*
X7414540Y-17101071D01*
X7624064Y-17110594D02*
X7605016Y-17101071D01*
X7595492Y-17082023D01*
X7595492Y-16910594D01*
X7785968Y-17110594D02*
X7785968Y-17005833D01*
X7776445Y-16986785D01*
X7757397Y-16977261D01*
X7719302Y-16977261D01*
X7700254Y-16986785D01*
X7785968Y-17101071D02*
X7766921Y-17110594D01*
X7719302Y-17110594D01*
X7700254Y-17101071D01*
X7690730Y-17082023D01*
X7690730Y-17062975D01*
X7700254Y-17043928D01*
X7719302Y-17034404D01*
X7766921Y-17034404D01*
X7785968Y-17024880D01*
X7852635Y-16977261D02*
X7928826Y-16977261D01*
X7881206Y-16910594D02*
X7881206Y-17082023D01*
X7890730Y-17101071D01*
X7909778Y-17110594D01*
X7928826Y-17110594D01*
X8071683Y-17101071D02*
X8052635Y-17110594D01*
X8014540Y-17110594D01*
X7995492Y-17101071D01*
X7985968Y-17082023D01*
X7985968Y-17005833D01*
X7995492Y-16986785D01*
X8014540Y-16977261D01*
X8052635Y-16977261D01*
X8071683Y-16986785D01*
X8081206Y-17005833D01*
X8081206Y-17024880D01*
X7985968Y-17043928D01*
X8252635Y-17110594D02*
X8252635Y-16910594D01*
X8252635Y-17101071D02*
X8233587Y-17110594D01*
X8195492Y-17110594D01*
X8176445Y-17101071D01*
X8166921Y-17091547D01*
X8157397Y-17072499D01*
X8157397Y-17015356D01*
X8166921Y-16996309D01*
X8176445Y-16986785D01*
X8195492Y-16977261D01*
X8233587Y-16977261D01*
X8252635Y-16986785D01*
X8328826Y-17186785D02*
X8338349Y-17177261D01*
X8357397Y-17148690D01*
X8366921Y-17129642D01*
X8376445Y-17101071D01*
X8385968Y-17053452D01*
X8385968Y-17015356D01*
X8376445Y-16967737D01*
X8366921Y-16939166D01*
X8357397Y-16920118D01*
X8338349Y-16891547D01*
X8328826Y-16882023D01*
M02*
