%FSLAX45Y45*%
G04 Gerber Fmt 4.5, Leading zero omitted, Abs format (unit mm)*
G04 Created by KiCad (PCBNEW (5.99.0-13010-g08938463f1)) date 2021-12-30 23:19:25*
%MOMM*%
%LPD*%
G01*
G04 APERTURE LIST*
%TA.AperFunction,Profile*%
%ADD10C,0.150000*%
%TD*%
%ADD11C,0.200000*%
%ADD12C,0.040000*%
%ADD13C,0.075000*%
%ADD14C,0.099060*%
%ADD15C,0.100000*%
%ADD16C,0.109220*%
%ADD17C,0.127000*%
%ADD18C,0.149860*%
%ADD19C,0.150000*%
%ADD20C,0.220000*%
G04 APERTURE END LIST*
D10*
X11303259Y-14889868D02*
X12106234Y-13167883D01*
X4335537Y-7447930D02*
X6057521Y-8250904D01*
X21918470Y-8250904D02*
X23640454Y-7447930D01*
X1392992Y-5855123D02*
X3114977Y-6658098D01*
X23640454Y-7447930D02*
X23767240Y-7719822D01*
X13411317Y-13776453D02*
X14564674Y-13776453D01*
X19287048Y-3696256D02*
X21009033Y-2893281D01*
X18057598Y-10051258D02*
X19779583Y-9248283D01*
X14537995Y-5910776D02*
X14537995Y-8124032D01*
X19287048Y-3696256D02*
X18991216Y-3061840D01*
X9994026Y-4304826D02*
X10289859Y-3670411D01*
X23767240Y-7719822D02*
X25072323Y-7111252D01*
X19483750Y-8613868D02*
X21622637Y-7616489D01*
X18991216Y-3061840D02*
X17686132Y-3670411D01*
X6966958Y-2893281D02*
X8688943Y-3696256D01*
X21009033Y-2893281D02*
X21938793Y-4887158D01*
X13437995Y-8124032D02*
X13437995Y-5910776D01*
X21622637Y-7616489D02*
X21918470Y-8250904D01*
X17686132Y-3670411D02*
X17981965Y-4304826D01*
X4208751Y-7719822D02*
X4335537Y-7447930D01*
X8492241Y-8613868D02*
X8196408Y-9248283D01*
X14537995Y-5910776D02*
X17981965Y-4304826D01*
X19779583Y-9248283D02*
X19483750Y-8613868D01*
X2001563Y-4550040D02*
X1392992Y-5855123D01*
X6037198Y-4887158D02*
X6966958Y-2893281D01*
X11303259Y-14889868D02*
X12608342Y-15498438D01*
X6057521Y-8250904D02*
X6353354Y-7616489D01*
X8196408Y-9248283D02*
X9918393Y-10051258D01*
X24861014Y-6658098D02*
X26582999Y-5855123D01*
X4315213Y-4084184D02*
X6037198Y-4887158D01*
X23660778Y-4084184D02*
X24252444Y-5353015D01*
X26582999Y-5855123D02*
X25974428Y-4550040D01*
X14564674Y-13776453D02*
X15367649Y-15498438D01*
X24252444Y-5353015D02*
X25974428Y-4550040D01*
X6353354Y-7616489D02*
X8492241Y-8613868D01*
X9994026Y-4304826D02*
X13437995Y-5910776D01*
X3723547Y-5353015D02*
X4315213Y-4084184D01*
X25072323Y-7111252D02*
X24861014Y-6658098D01*
X15869757Y-13167883D02*
X18860573Y-11773243D01*
X21938793Y-4887158D02*
X23660778Y-4084184D01*
X2903668Y-7111252D02*
X4208751Y-7719822D01*
X3114977Y-6658098D02*
X2903668Y-7111252D01*
X15367649Y-15498438D02*
X16672732Y-14889868D01*
X10289859Y-3670411D02*
X8984776Y-3061840D01*
X14537995Y-8124032D02*
X13437995Y-8124032D01*
X8984776Y-3061840D02*
X8688943Y-3696256D01*
X18057598Y-10051258D02*
X18860573Y-11773243D01*
X9115418Y-11773243D02*
X12106234Y-13167883D01*
X9115418Y-11773243D02*
X9918393Y-10051258D01*
X2001563Y-4550040D02*
X3723547Y-5353015D01*
X15869757Y-13167883D02*
X16672732Y-14889868D01*
X12608342Y-15498438D02*
X13411317Y-13776453D01*
D11*
D12*
X3007790Y-5985070D02*
X3047790Y-6025070D01*
X3047790Y-5985070D02*
X3007790Y-6025070D01*
X3147252Y-5685989D02*
X3187252Y-5725989D01*
X3187252Y-5685989D02*
X3147252Y-5725989D01*
X4645248Y-6969301D02*
X4685248Y-7009301D01*
X4685248Y-6969301D02*
X4645248Y-7009301D01*
X4784712Y-6670219D02*
X4824712Y-6710219D01*
X4824712Y-6670219D02*
X4784712Y-6710219D01*
X5321440Y-5519210D02*
X5361440Y-5559210D01*
X5361440Y-5519210D02*
X5321440Y-5559210D01*
X5460902Y-5220129D02*
X5500902Y-5260129D01*
X5500902Y-5220129D02*
X5460902Y-5260129D01*
X6663070Y-7137860D02*
X6703070Y-7177860D01*
X6703070Y-7137860D02*
X6663070Y-7177860D01*
X6802530Y-6838780D02*
X6842530Y-6878780D01*
X6842530Y-6838780D02*
X6802530Y-6878780D01*
X7339260Y-5687770D02*
X7379260Y-5727770D01*
X7379260Y-5687770D02*
X7339260Y-5727770D01*
X7478722Y-5388689D02*
X7518722Y-5428689D01*
X7518722Y-5388689D02*
X7478722Y-5428689D01*
X7973190Y-4328310D02*
X8013190Y-4368310D01*
X8013190Y-4328310D02*
X7973190Y-4368310D01*
X8117604Y-4018604D02*
X8157604Y-4058604D01*
X8157604Y-4018604D02*
X8117604Y-4058604D01*
X8385058Y-7940841D02*
X8425058Y-7980841D01*
X8425058Y-7940841D02*
X8385058Y-7980841D01*
X8524520Y-7641760D02*
X8564520Y-7681760D01*
X8564520Y-7641760D02*
X8524520Y-7681760D01*
X9018978Y-6581381D02*
X9058978Y-6621381D01*
X9058978Y-6581381D02*
X9018978Y-6621381D01*
X9158442Y-6282299D02*
X9198442Y-6322299D01*
X9198442Y-6282299D02*
X9158442Y-6322299D01*
X9695170Y-5131280D02*
X9735170Y-5171280D01*
X9735170Y-5131280D02*
X9695170Y-5171280D01*
X9811210Y-9378230D02*
X9851210Y-9418230D01*
X9851210Y-9378230D02*
X9811210Y-9418230D01*
X9841489Y-4817489D02*
X9881489Y-4857489D01*
X9881489Y-4817489D02*
X9841489Y-4857489D01*
X9950672Y-9079149D02*
X9990672Y-9119149D01*
X9990672Y-9079149D02*
X9950672Y-9119149D01*
X10359670Y-10645000D02*
X10399670Y-10685000D01*
X10399670Y-10645000D02*
X10359670Y-10685000D01*
X10614180Y-7656240D02*
X10654180Y-7696240D01*
X10654180Y-7656240D02*
X10614180Y-7696240D01*
X10730218Y-11903191D02*
X10770218Y-11943191D01*
X10770218Y-11903191D02*
X10730218Y-11943191D01*
X10753642Y-7357159D02*
X10793642Y-7397159D01*
X10793642Y-7357159D02*
X10753642Y-7397159D01*
X10775930Y-7886580D02*
X10815930Y-7926580D01*
X10815930Y-7886580D02*
X10775930Y-7926580D01*
X10869680Y-11604110D02*
X10909680Y-11644110D01*
X10909680Y-11604110D02*
X10869680Y-11644110D01*
X11417160Y-5934260D02*
X11457160Y-5974260D01*
X11457160Y-5934260D02*
X11417160Y-5974260D01*
X11533188Y-10181201D02*
X11573188Y-10221201D01*
X11573188Y-10181201D02*
X11533188Y-10221201D01*
X11556622Y-5635179D02*
X11596622Y-5675179D01*
X11596622Y-5635179D02*
X11556622Y-5675179D01*
X11672652Y-9882119D02*
X11712652Y-9922119D01*
X11712652Y-9882119D02*
X11672652Y-9922119D01*
X11885500Y-10021500D02*
X11925500Y-10061500D01*
X11925500Y-10021500D02*
X11885500Y-10061500D01*
X11885500Y-10781500D02*
X11925500Y-10821500D01*
X11925500Y-10781500D02*
X11885500Y-10821500D01*
X12336170Y-8459220D02*
X12376170Y-8499220D01*
X12376170Y-8459220D02*
X12336170Y-8499220D01*
X12439209Y-13704178D02*
X12479209Y-13744178D01*
X12479209Y-13704178D02*
X12439209Y-13744178D01*
X12452198Y-12706161D02*
X12492198Y-12746161D01*
X12492198Y-12706161D02*
X12452198Y-12746161D01*
X12475630Y-8160140D02*
X12515630Y-8200140D01*
X12515630Y-8160140D02*
X12475630Y-8200140D01*
X12591660Y-12407080D02*
X12631660Y-12447080D01*
X12631660Y-12407080D02*
X12591660Y-12447080D01*
X12738291Y-13843642D02*
X12778291Y-13883642D01*
X12778291Y-13843642D02*
X12738291Y-13883642D01*
X12878810Y-8879810D02*
X12918810Y-8919810D01*
X12918810Y-8879810D02*
X12878810Y-8919810D01*
X12970098Y-7099761D02*
X13010098Y-7139761D01*
X13010098Y-7099761D02*
X12970098Y-7139761D01*
X13109562Y-6800679D02*
X13149562Y-6840679D01*
X13149562Y-6800679D02*
X13109562Y-6840679D01*
X14826438Y-6800679D02*
X14866438Y-6840679D01*
X14866438Y-6800679D02*
X14826438Y-6840679D01*
X14892740Y-10291570D02*
X14932740Y-10331570D01*
X14932740Y-10291570D02*
X14892740Y-10331570D01*
X14925320Y-11404190D02*
X14965320Y-11444190D01*
X14965320Y-11404190D02*
X14925320Y-11444190D01*
X14965902Y-7099761D02*
X15005902Y-7139761D01*
X15005902Y-7099761D02*
X14965902Y-7139761D01*
X14989070Y-12899630D02*
X15029070Y-12939630D01*
X15029070Y-12899630D02*
X14989070Y-12939630D01*
X15197709Y-13843642D02*
X15237709Y-13883642D01*
X15237709Y-13843642D02*
X15197709Y-13883642D01*
X15344328Y-12407079D02*
X15384328Y-12447079D01*
X15384328Y-12407079D02*
X15344328Y-12447079D01*
X15460358Y-8160139D02*
X15500358Y-8200139D01*
X15500358Y-8160139D02*
X15460358Y-8200139D01*
X15483792Y-12706161D02*
X15523792Y-12746161D01*
X15523792Y-12706161D02*
X15483792Y-12746161D01*
X15496791Y-13704178D02*
X15536791Y-13744178D01*
X15536791Y-13704178D02*
X15496791Y-13744178D01*
X15599822Y-8459221D02*
X15639822Y-8499221D01*
X15639822Y-8459221D02*
X15599822Y-8499221D01*
X15794170Y-11406030D02*
X15834170Y-11446030D01*
X15834170Y-11406030D02*
X15794170Y-11446030D01*
X16134620Y-8978530D02*
X16174620Y-9018530D01*
X16174620Y-8978530D02*
X16134620Y-9018530D01*
X16263340Y-9882120D02*
X16303340Y-9922120D01*
X16303340Y-9882120D02*
X16263340Y-9922120D01*
X16379368Y-5635179D02*
X16419368Y-5675179D01*
X16419368Y-5635179D02*
X16379368Y-5675179D01*
X16402802Y-10181201D02*
X16442802Y-10221201D01*
X16442802Y-10181201D02*
X16402802Y-10221201D01*
X16518830Y-5934260D02*
X16558830Y-5974260D01*
X16558830Y-5934260D02*
X16518830Y-5974260D01*
X17066308Y-11604109D02*
X17106308Y-11644109D01*
X17106308Y-11604109D02*
X17066308Y-11644109D01*
X17182348Y-7357159D02*
X17222348Y-7397159D01*
X17222348Y-7357159D02*
X17182348Y-7397159D01*
X17205772Y-11903191D02*
X17245772Y-11943191D01*
X17245772Y-11903191D02*
X17205772Y-11943191D01*
X17321812Y-7656241D02*
X17361812Y-7696241D01*
X17361812Y-7656241D02*
X17321812Y-7696241D01*
X17489370Y-6368950D02*
X17529370Y-6408950D01*
X17529370Y-6368950D02*
X17489370Y-6408950D01*
X17985320Y-9079150D02*
X18025320Y-9119150D01*
X18025320Y-9079150D02*
X17985320Y-9119150D01*
X18094504Y-4817496D02*
X18134504Y-4857496D01*
X18134504Y-4817496D02*
X18094504Y-4857496D01*
X18124780Y-9378230D02*
X18164780Y-9418230D01*
X18164780Y-9378230D02*
X18124780Y-9418230D01*
X18240822Y-5131281D02*
X18280822Y-5171281D01*
X18280822Y-5131281D02*
X18240822Y-5171281D01*
X18777550Y-6282300D02*
X18817550Y-6322300D01*
X18817550Y-6282300D02*
X18777550Y-6322300D01*
X18917012Y-6581381D02*
X18957012Y-6621381D01*
X18957012Y-6581381D02*
X18917012Y-6621381D01*
X19411470Y-7641760D02*
X19451470Y-7681760D01*
X19451470Y-7641760D02*
X19411470Y-7681760D01*
X19550932Y-7940841D02*
X19590932Y-7980841D01*
X19590932Y-7940841D02*
X19550932Y-7980841D01*
X19823338Y-4029229D02*
X19863338Y-4069229D01*
X19863338Y-4029229D02*
X19823338Y-4069229D01*
X19962802Y-4328311D02*
X20002802Y-4368311D01*
X20002802Y-4328311D02*
X19962802Y-4368311D01*
X20457268Y-5388689D02*
X20497268Y-5428689D01*
X20497268Y-5388689D02*
X20457268Y-5428689D01*
X20596730Y-5687770D02*
X20636730Y-5727770D01*
X20636730Y-5687770D02*
X20596730Y-5727770D01*
X21133458Y-6838779D02*
X21173458Y-6878779D01*
X21173458Y-6838779D02*
X21133458Y-6878779D01*
X21272922Y-7137861D02*
X21312922Y-7177861D01*
X21312922Y-7137861D02*
X21272922Y-7177861D01*
X22475090Y-5220130D02*
X22515090Y-5260130D01*
X22515090Y-5220130D02*
X22475090Y-5260130D01*
X22614552Y-5519211D02*
X22654552Y-5559211D01*
X22654552Y-5519211D02*
X22614552Y-5559211D01*
X23151278Y-6670219D02*
X23191278Y-6710219D01*
X23191278Y-6670219D02*
X23151278Y-6710219D01*
X23290742Y-6969301D02*
X23330742Y-7009301D01*
X23330742Y-6969301D02*
X23290742Y-7009301D01*
X24788738Y-5685989D02*
X24828738Y-5725989D01*
X24828738Y-5685989D02*
X24788738Y-5725989D01*
X24928202Y-5985071D02*
X24968202Y-6025071D01*
X24968202Y-5985071D02*
X24928202Y-6025071D01*
D13*
X15528063Y-10025495D02*
G75*
G03*
X15528063Y-10025495I-37500J0D01*
G01*
X15722937Y-9980505D02*
G75*
G03*
X15722937Y-9980505I-37500J0D01*
G01*
D14*
X2936502Y-6151303D02*
X2936502Y-6250363D01*
X2886972Y-6200833D02*
X2986032Y-6200833D01*
X3258538Y-5460697D02*
X3258538Y-5559757D01*
X3209008Y-5510227D02*
X3308068Y-5510227D01*
X4573962Y-7135533D02*
X4573962Y-7234593D01*
X4524432Y-7185063D02*
X4623492Y-7185063D01*
X4895998Y-6444927D02*
X4895998Y-6543987D01*
X4846468Y-6494457D02*
X4945528Y-6494457D01*
X5250152Y-5685443D02*
X5250152Y-5784503D01*
X5200622Y-5734973D02*
X5299682Y-5734973D01*
X5572188Y-4994837D02*
X5572188Y-5093897D01*
X5522658Y-5044367D02*
X5621718Y-5044367D01*
X6591782Y-7304093D02*
X6591782Y-7403153D01*
X6542252Y-7353623D02*
X6641312Y-7353623D01*
X6913818Y-6613487D02*
X6913818Y-6712547D01*
X6864288Y-6663017D02*
X6963348Y-6663017D01*
X7267972Y-5854003D02*
X7267972Y-5953063D01*
X7218442Y-5903533D02*
X7317502Y-5903533D01*
X7590008Y-5163397D02*
X7590008Y-5262457D01*
X7540478Y-5212927D02*
X7639538Y-5212927D01*
X7901902Y-4494543D02*
X7901902Y-4593603D01*
X7852372Y-4544073D02*
X7951432Y-4544073D01*
X8223938Y-3803937D02*
X8223938Y-3902997D01*
X8174408Y-3853467D02*
X8273468Y-3853467D01*
X8313772Y-8107073D02*
X8313772Y-8206133D01*
X8264242Y-8156603D02*
X8363302Y-8156603D01*
X8635808Y-7416467D02*
X8635808Y-7515527D01*
X8586278Y-7465997D02*
X8685338Y-7465997D01*
X8947692Y-6747613D02*
X8947692Y-6846673D01*
X8898162Y-6797143D02*
X8997222Y-6797143D01*
X9269728Y-6057007D02*
X9269728Y-6156067D01*
X9220198Y-6106537D02*
X9319258Y-6106537D01*
X9623882Y-5297513D02*
X9623882Y-5396573D01*
X9574352Y-5347043D02*
X9673412Y-5347043D01*
X9739922Y-9544463D02*
X9739922Y-9643523D01*
X9690392Y-9593993D02*
X9789452Y-9593993D01*
X9945918Y-4606907D02*
X9945918Y-4705967D01*
X9896388Y-4656437D02*
X9995448Y-4656437D01*
X10061958Y-8853857D02*
X10061958Y-8952917D01*
X10012428Y-8903387D02*
X10111488Y-8903387D01*
X10542892Y-7822473D02*
X10542892Y-7921533D01*
X10493362Y-7872003D02*
X10592422Y-7872003D01*
X10658932Y-12069423D02*
X10658932Y-12168483D01*
X10609402Y-12118953D02*
X10708462Y-12118953D01*
X10864928Y-7131867D02*
X10864928Y-7230927D01*
X10815398Y-7181397D02*
X10914458Y-7181397D01*
X10980968Y-11378817D02*
X10980968Y-11477877D01*
X10931438Y-11428347D02*
X11030498Y-11428347D01*
X11345872Y-6100493D02*
X11345872Y-6199553D01*
X11296342Y-6150023D02*
X11395402Y-6150023D01*
X11461902Y-10347433D02*
X11461902Y-10446493D01*
X11412372Y-10396963D02*
X11511432Y-10396963D01*
X11667908Y-5409887D02*
X11667908Y-5508947D01*
X11618378Y-5459417D02*
X11717438Y-5459417D01*
X11783938Y-9656827D02*
X11783938Y-9755887D01*
X11734408Y-9706357D02*
X11833468Y-9706357D01*
X12263447Y-13583362D02*
X12263447Y-13682422D01*
X12213917Y-13632892D02*
X12312977Y-13632892D01*
X12264882Y-8625453D02*
X12264882Y-8724513D01*
X12215352Y-8674983D02*
X12314412Y-8674983D01*
X12380912Y-12872393D02*
X12380912Y-12971453D01*
X12331382Y-12921923D02*
X12430442Y-12921923D01*
X12586918Y-7934847D02*
X12586918Y-8033907D01*
X12537388Y-7984377D02*
X12636448Y-7984377D01*
X12702948Y-12181787D02*
X12702948Y-12280847D01*
X12653418Y-12231317D02*
X12752478Y-12231317D01*
X12898812Y-7265993D02*
X12898812Y-7365053D01*
X12849282Y-7315523D02*
X12948342Y-7315523D01*
X12954053Y-13905398D02*
X12954053Y-14004458D01*
X12904523Y-13954928D02*
X13003583Y-13954928D01*
X13220848Y-6575387D02*
X13220848Y-6674447D01*
X13171318Y-6624917D02*
X13270378Y-6624917D01*
X13607000Y-12153470D02*
X13607000Y-12252530D01*
X13557470Y-12203000D02*
X13656530Y-12203000D01*
X14369000Y-12153470D02*
X14369000Y-12252530D01*
X14319470Y-12203000D02*
X14418530Y-12203000D01*
X14755152Y-6575387D02*
X14755152Y-6674447D01*
X14705622Y-6624917D02*
X14804682Y-6624917D01*
X15021947Y-13905398D02*
X15021947Y-14004458D01*
X14972417Y-13954928D02*
X15071477Y-13954928D01*
X15077188Y-7265993D02*
X15077188Y-7365053D01*
X15027658Y-7315523D02*
X15126718Y-7315523D01*
X15273042Y-12181787D02*
X15273042Y-12280847D01*
X15223512Y-12231317D02*
X15322572Y-12231317D01*
X15389072Y-7934847D02*
X15389072Y-8033907D01*
X15339542Y-7984377D02*
X15438602Y-7984377D01*
X15595078Y-12872393D02*
X15595078Y-12971453D01*
X15545548Y-12921923D02*
X15644608Y-12921923D01*
X15711108Y-8625453D02*
X15711108Y-8724513D01*
X15661578Y-8674983D02*
X15760638Y-8674983D01*
X15712553Y-13583362D02*
X15712553Y-13682422D01*
X15663023Y-13632892D02*
X15762083Y-13632892D01*
X16192052Y-9656827D02*
X16192052Y-9755887D01*
X16142522Y-9706357D02*
X16241582Y-9706357D01*
X16308082Y-5409887D02*
X16308082Y-5508947D01*
X16258552Y-5459417D02*
X16357612Y-5459417D01*
X16514088Y-10347433D02*
X16514088Y-10446493D01*
X16464558Y-10396963D02*
X16563618Y-10396963D01*
X16630118Y-6100493D02*
X16630118Y-6199553D01*
X16580588Y-6150023D02*
X16679648Y-6150023D01*
X16995022Y-11378817D02*
X16995022Y-11477877D01*
X16945492Y-11428347D02*
X17044552Y-11428347D01*
X17111062Y-7131867D02*
X17111062Y-7230927D01*
X17061532Y-7181397D02*
X17160592Y-7181397D01*
X17317058Y-12069423D02*
X17317058Y-12168483D01*
X17267528Y-12118953D02*
X17366588Y-12118953D01*
X17433098Y-7822473D02*
X17433098Y-7921533D01*
X17383568Y-7872003D02*
X17482628Y-7872003D01*
X17914032Y-8853857D02*
X17914032Y-8952917D01*
X17864502Y-8903387D02*
X17963562Y-8903387D01*
X18030072Y-4606907D02*
X18030072Y-4705967D01*
X17980542Y-4656437D02*
X18079602Y-4656437D01*
X18236068Y-9544463D02*
X18236068Y-9643523D01*
X18186538Y-9593993D02*
X18285598Y-9593993D01*
X18352108Y-5297513D02*
X18352108Y-5396573D01*
X18302578Y-5347043D02*
X18401638Y-5347043D01*
X18706262Y-6057007D02*
X18706262Y-6156067D01*
X18656732Y-6106537D02*
X18755792Y-6106537D01*
X19028298Y-6747613D02*
X19028298Y-6846673D01*
X18978768Y-6797143D02*
X19077828Y-6797143D01*
X19340182Y-7416467D02*
X19340182Y-7515527D01*
X19290652Y-7465997D02*
X19389712Y-7465997D01*
X19662218Y-8107073D02*
X19662218Y-8206133D01*
X19612688Y-8156603D02*
X19711748Y-8156603D01*
X19752052Y-3803937D02*
X19752052Y-3902997D01*
X19702522Y-3853467D02*
X19801582Y-3853467D01*
X20074088Y-4494543D02*
X20074088Y-4593603D01*
X20024558Y-4544073D02*
X20123618Y-4544073D01*
X20385982Y-5163397D02*
X20385982Y-5262457D01*
X20336452Y-5212927D02*
X20435512Y-5212927D01*
X20708018Y-5854003D02*
X20708018Y-5953063D01*
X20658488Y-5903533D02*
X20757548Y-5903533D01*
X21062172Y-6613487D02*
X21062172Y-6712547D01*
X21012642Y-6663017D02*
X21111702Y-6663017D01*
X21384208Y-7304093D02*
X21384208Y-7403153D01*
X21334678Y-7353623D02*
X21433738Y-7353623D01*
X22403802Y-4994837D02*
X22403802Y-5093897D01*
X22354272Y-5044367D02*
X22453332Y-5044367D01*
X22725838Y-5685443D02*
X22725838Y-5784503D01*
X22676308Y-5734973D02*
X22775368Y-5734973D01*
X23079992Y-6444927D02*
X23079992Y-6543987D01*
X23030462Y-6494457D02*
X23129522Y-6494457D01*
X23402028Y-7135533D02*
X23402028Y-7234593D01*
X23352498Y-7185063D02*
X23451558Y-7185063D01*
X24717452Y-5460697D02*
X24717452Y-5559757D01*
X24667922Y-5510227D02*
X24766982Y-5510227D01*
X25039488Y-6151303D02*
X25039488Y-6250363D01*
X24989958Y-6200833D02*
X25089018Y-6200833D01*
D15*
X13261356Y-12834356D02*
X13261356Y-12763644D01*
X13190644Y-12763644D01*
X13190644Y-12834356D01*
X13261356Y-12834356D01*
X13261356Y-13084356D02*
X13261356Y-13013644D01*
X13190644Y-13013644D01*
X13190644Y-13084356D01*
X13261356Y-13084356D01*
X13261356Y-13334356D02*
X13261356Y-13263644D01*
X13190644Y-13263644D01*
X13190644Y-13334356D01*
X13261356Y-13334356D01*
X13666356Y-11628356D02*
X13666356Y-11557644D01*
X13595644Y-11557644D01*
X13595644Y-11628356D01*
X13666356Y-11628356D01*
X13920356Y-11628356D02*
X13920356Y-11557644D01*
X13849644Y-11557644D01*
X13849644Y-11628356D01*
X13920356Y-11628356D01*
X14174356Y-11628356D02*
X14174356Y-11557644D01*
X14103644Y-11557644D01*
X14103644Y-11628356D01*
X14174356Y-11628356D01*
X14428356Y-11628356D02*
X14428356Y-11557644D01*
X14357644Y-11557644D01*
X14357644Y-11628356D01*
X14428356Y-11628356D01*
X14711356Y-12834356D02*
X14711356Y-12763644D01*
X14640644Y-12763644D01*
X14640644Y-12834356D01*
X14711356Y-12834356D01*
X14711356Y-13334356D02*
X14711356Y-13263644D01*
X14640644Y-13263644D01*
X14640644Y-13334356D01*
X14711356Y-13334356D01*
D16*
X13226000Y-8560610D02*
X13280610Y-8506000D01*
X13226000Y-8451390D01*
X13171390Y-8506000D01*
X13226000Y-8560610D01*
X13226000Y-8814610D02*
X13280610Y-8760000D01*
X13226000Y-8705390D01*
X13171390Y-8760000D01*
X13226000Y-8814610D01*
X13226000Y-9068610D02*
X13280610Y-9014000D01*
X13226000Y-8959390D01*
X13171390Y-9014000D01*
X13226000Y-9068610D01*
X13226000Y-9322610D02*
X13280610Y-9268000D01*
X13226000Y-9213390D01*
X13171390Y-9268000D01*
X13226000Y-9322610D01*
X13226000Y-9576610D02*
X13280610Y-9522000D01*
X13226000Y-9467390D01*
X13171390Y-9522000D01*
X13226000Y-9576610D01*
X13226000Y-9830610D02*
X13280610Y-9776000D01*
X13226000Y-9721390D01*
X13171390Y-9776000D01*
X13226000Y-9830610D01*
X13226000Y-10084610D02*
X13280610Y-10030000D01*
X13226000Y-9975390D01*
X13171390Y-10030000D01*
X13226000Y-10084610D01*
X13226000Y-10338610D02*
X13280610Y-10284000D01*
X13226000Y-10229390D01*
X13171390Y-10284000D01*
X13226000Y-10338610D01*
X13226000Y-10592610D02*
X13280610Y-10538000D01*
X13226000Y-10483390D01*
X13171390Y-10538000D01*
X13226000Y-10592610D01*
X13226000Y-10846610D02*
X13280610Y-10792000D01*
X13226000Y-10737390D01*
X13171390Y-10792000D01*
X13226000Y-10846610D01*
X13226000Y-11100610D02*
X13280610Y-11046000D01*
X13226000Y-10991390D01*
X13171390Y-11046000D01*
X13226000Y-11100610D01*
X13226000Y-11354610D02*
X13280610Y-11300000D01*
X13226000Y-11245390D01*
X13171390Y-11300000D01*
X13226000Y-11354610D01*
X14750000Y-8560610D02*
X14804610Y-8506000D01*
X14750000Y-8451390D01*
X14695390Y-8506000D01*
X14750000Y-8560610D01*
X14750000Y-8814610D02*
X14804610Y-8760000D01*
X14750000Y-8705390D01*
X14695390Y-8760000D01*
X14750000Y-8814610D01*
X14750000Y-9068610D02*
X14804610Y-9014000D01*
X14750000Y-8959390D01*
X14695390Y-9014000D01*
X14750000Y-9068610D01*
X14750000Y-9322610D02*
X14804610Y-9268000D01*
X14750000Y-9213390D01*
X14695390Y-9268000D01*
X14750000Y-9322610D01*
X14750000Y-9576610D02*
X14804610Y-9522000D01*
X14750000Y-9467390D01*
X14695390Y-9522000D01*
X14750000Y-9576610D01*
X14750000Y-9830610D02*
X14804610Y-9776000D01*
X14750000Y-9721390D01*
X14695390Y-9776000D01*
X14750000Y-9830610D01*
X14750000Y-10084610D02*
X14804610Y-10030000D01*
X14750000Y-9975390D01*
X14695390Y-10030000D01*
X14750000Y-10084610D01*
X14750000Y-10338610D02*
X14804610Y-10284000D01*
X14750000Y-10229390D01*
X14695390Y-10284000D01*
X14750000Y-10338610D01*
X14750000Y-10592610D02*
X14804610Y-10538000D01*
X14750000Y-10483390D01*
X14695390Y-10538000D01*
X14750000Y-10592610D01*
X14750000Y-10846610D02*
X14804610Y-10792000D01*
X14750000Y-10737390D01*
X14695390Y-10792000D01*
X14750000Y-10846610D01*
X14750000Y-11100610D02*
X14804610Y-11046000D01*
X14750000Y-10991390D01*
X14695390Y-11046000D01*
X14750000Y-11100610D01*
X14750000Y-11354610D02*
X14804610Y-11300000D01*
X14750000Y-11245390D01*
X14695390Y-11300000D01*
X14750000Y-11354610D01*
D17*
X2535665Y-4908648D02*
X2662665Y-5035648D01*
X2662665Y-4908648D02*
X2535665Y-5035648D01*
X2662665Y-4972148D02*
G75*
G03*
X2662665Y-4972148I-63500J0D01*
G01*
X2900069Y-5310282D02*
X3027069Y-5437282D01*
X3027069Y-5310282D02*
X2900069Y-5437282D01*
X3027069Y-5373782D02*
G75*
G03*
X3027069Y-5373782I-63500J0D01*
G01*
X4046335Y-6164778D02*
X4173335Y-6291778D01*
X4173335Y-6164778D02*
X4046335Y-6291778D01*
X4173335Y-6228278D02*
G75*
G03*
X4173335Y-6228278I-63500J0D01*
G01*
X4410739Y-6566412D02*
X4537739Y-6693412D01*
X4537739Y-6566412D02*
X4410739Y-6693412D01*
X4537739Y-6629912D02*
G75*
G03*
X4537739Y-6629912I-63500J0D01*
G01*
X4849315Y-4442788D02*
X4976315Y-4569788D01*
X4976315Y-4442788D02*
X4849315Y-4569788D01*
X4976315Y-4506288D02*
G75*
G03*
X4976315Y-4506288I-63500J0D01*
G01*
X5213719Y-4844422D02*
X5340719Y-4971422D01*
X5340719Y-4844422D02*
X5213719Y-4971422D01*
X5340719Y-4907922D02*
G75*
G03*
X5340719Y-4907922I-63500J0D01*
G01*
X5895115Y-6695858D02*
X6022115Y-6822858D01*
X6022115Y-6695858D02*
X5895115Y-6822858D01*
X6022115Y-6759358D02*
G75*
G03*
X6022115Y-6759358I-63500J0D01*
G01*
X6259519Y-7097492D02*
X6386519Y-7224492D01*
X6386519Y-7097492D02*
X6259519Y-7224492D01*
X6386519Y-7160992D02*
G75*
G03*
X6386519Y-7160992I-63500J0D01*
G01*
X6698085Y-4973868D02*
X6825085Y-5100868D01*
X6825085Y-4973868D02*
X6698085Y-5100868D01*
X6825085Y-5037368D02*
G75*
G03*
X6825085Y-5037368I-63500J0D01*
G01*
X7062489Y-5375502D02*
X7189489Y-5502502D01*
X7189489Y-5375502D02*
X7062489Y-5502502D01*
X7189489Y-5439002D02*
G75*
G03*
X7189489Y-5439002I-63500J0D01*
G01*
X7501055Y-3251888D02*
X7628055Y-3378888D01*
X7628055Y-3251888D02*
X7501055Y-3378888D01*
X7628055Y-3315388D02*
G75*
G03*
X7628055Y-3315388I-63500J0D01*
G01*
X7865459Y-3653522D02*
X7992459Y-3780522D01*
X7992459Y-3653522D02*
X7865459Y-3780522D01*
X7992459Y-3717022D02*
G75*
G03*
X7992459Y-3717022I-63500J0D01*
G01*
X7912925Y-6864418D02*
X8039925Y-6991418D01*
X8039925Y-6864418D02*
X7912925Y-6991418D01*
X8039925Y-6927918D02*
G75*
G03*
X8039925Y-6927918I-63500J0D01*
G01*
X8277329Y-7266052D02*
X8404329Y-7393052D01*
X8404329Y-7266052D02*
X8277329Y-7393052D01*
X8404329Y-7329552D02*
G75*
G03*
X8404329Y-7329552I-63500J0D01*
G01*
X8715905Y-5142428D02*
X8842905Y-5269428D01*
X8842905Y-5142428D02*
X8715905Y-5269428D01*
X8842905Y-5205928D02*
G75*
G03*
X8842905Y-5205928I-63500J0D01*
G01*
X9080309Y-5544062D02*
X9207309Y-5671062D01*
X9207309Y-5544062D02*
X9080309Y-5671062D01*
X9207309Y-5607562D02*
G75*
G03*
X9207309Y-5607562I-63500J0D01*
G01*
X9339075Y-8301808D02*
X9466075Y-8428808D01*
X9466075Y-8301808D02*
X9339075Y-8428808D01*
X9466075Y-8365308D02*
G75*
G03*
X9466075Y-8365308I-63500J0D01*
G01*
X9518875Y-3420448D02*
X9645875Y-3547448D01*
X9645875Y-3420448D02*
X9518875Y-3547448D01*
X9645875Y-3483948D02*
G75*
G03*
X9645875Y-3483948I-63500J0D01*
G01*
X9703479Y-8703442D02*
X9830479Y-8830442D01*
X9830479Y-8703442D02*
X9703479Y-8830442D01*
X9830479Y-8766942D02*
G75*
G03*
X9830479Y-8766942I-63500J0D01*
G01*
X9883279Y-3822082D02*
X10010279Y-3949082D01*
X10010279Y-3822082D02*
X9883279Y-3949082D01*
X10010279Y-3885582D02*
G75*
G03*
X10010279Y-3885582I-63500J0D01*
G01*
X10142055Y-6579818D02*
X10269055Y-6706818D01*
X10269055Y-6579818D02*
X10142055Y-6706818D01*
X10269055Y-6643318D02*
G75*
G03*
X10269055Y-6643318I-63500J0D01*
G01*
X10258085Y-10826768D02*
X10385085Y-10953768D01*
X10385085Y-10826768D02*
X10258085Y-10953768D01*
X10385085Y-10890268D02*
G75*
G03*
X10385085Y-10890268I-63500J0D01*
G01*
X10506459Y-6981452D02*
X10633459Y-7108452D01*
X10633459Y-6981452D02*
X10506459Y-7108452D01*
X10633459Y-7044952D02*
G75*
G03*
X10633459Y-7044952I-63500J0D01*
G01*
X10622489Y-11228402D02*
X10749489Y-11355402D01*
X10749489Y-11228402D02*
X10622489Y-11355402D01*
X10749489Y-11291902D02*
G75*
G03*
X10749489Y-11291902I-63500J0D01*
G01*
X10945025Y-4857838D02*
X11072025Y-4984838D01*
X11072025Y-4857838D02*
X10945025Y-4984838D01*
X11072025Y-4921338D02*
G75*
G03*
X11072025Y-4921338I-63500J0D01*
G01*
X11061065Y-9104778D02*
X11188065Y-9231778D01*
X11188065Y-9104778D02*
X11061065Y-9231778D01*
X11188065Y-9168278D02*
G75*
G03*
X11188065Y-9168278I-63500J0D01*
G01*
X11309429Y-5259472D02*
X11436429Y-5386472D01*
X11436429Y-5259472D02*
X11309429Y-5386472D01*
X11436429Y-5322972D02*
G75*
G03*
X11436429Y-5322972I-63500J0D01*
G01*
X11425469Y-9506412D02*
X11552469Y-9633412D01*
X11552469Y-9506412D02*
X11425469Y-9633412D01*
X11552469Y-9569912D02*
G75*
G03*
X11552469Y-9569912I-63500J0D01*
G01*
X11864035Y-7382798D02*
X11991035Y-7509798D01*
X11991035Y-7382798D02*
X11864035Y-7509798D01*
X11991035Y-7446298D02*
G75*
G03*
X11991035Y-7446298I-63500J0D01*
G01*
X11980075Y-11629738D02*
X12107075Y-11756738D01*
X12107075Y-11629738D02*
X11980075Y-11756738D01*
X12107075Y-11693238D02*
G75*
G03*
X12107075Y-11693238I-63500J0D01*
G01*
X12228439Y-7784432D02*
X12355439Y-7911432D01*
X12355439Y-7784432D02*
X12228439Y-7911432D01*
X12355439Y-7847932D02*
G75*
G03*
X12355439Y-7847932I-63500J0D01*
G01*
X12344479Y-12031372D02*
X12471479Y-12158372D01*
X12471479Y-12031372D02*
X12344479Y-12158372D01*
X12471479Y-12094872D02*
G75*
G03*
X12471479Y-12094872I-63500J0D01*
G01*
X12445935Y-13943388D02*
X12572935Y-14070388D01*
X12572935Y-13943388D02*
X12445935Y-14070388D01*
X12572935Y-14006888D02*
G75*
G03*
X12572935Y-14006888I-63500J0D01*
G01*
X12667015Y-5660808D02*
X12794015Y-5787808D01*
X12794015Y-5660808D02*
X12667015Y-5787808D01*
X12794015Y-5724308D02*
G75*
G03*
X12794015Y-5724308I-63500J0D01*
G01*
X12810339Y-14345022D02*
X12937339Y-14472022D01*
X12937339Y-14345022D02*
X12810339Y-14472022D01*
X12937339Y-14408522D02*
G75*
G03*
X12937339Y-14408522I-63500J0D01*
G01*
X13031419Y-6062442D02*
X13158419Y-6189442D01*
X13158419Y-6062442D02*
X13031419Y-6189442D01*
X13158419Y-6125942D02*
G75*
G03*
X13158419Y-6125942I-63500J0D01*
G01*
X15181975Y-5660808D02*
X15308975Y-5787808D01*
X15308975Y-5660808D02*
X15181975Y-5787808D01*
X15308975Y-5724308D02*
G75*
G03*
X15308975Y-5724308I-63500J0D01*
G01*
X15403065Y-13943388D02*
X15530065Y-14070388D01*
X15530065Y-13943388D02*
X15403065Y-14070388D01*
X15530065Y-14006888D02*
G75*
G03*
X15530065Y-14006888I-63500J0D01*
G01*
X15723879Y-5639824D02*
X15850879Y-5766824D01*
X15850879Y-5639824D02*
X15723879Y-5766824D01*
X15850879Y-5703324D02*
G75*
G03*
X15850879Y-5703324I-63500J0D01*
G01*
X15868915Y-11629738D02*
X15995915Y-11756738D01*
X15995915Y-11629738D02*
X15868915Y-11756738D01*
X15995915Y-11693238D02*
G75*
G03*
X15995915Y-11693238I-63500J0D01*
G01*
X15944969Y-13922404D02*
X16071969Y-14049404D01*
X16071969Y-13922404D02*
X15944969Y-14049404D01*
X16071969Y-13985904D02*
G75*
G03*
X16071969Y-13985904I-63500J0D01*
G01*
X15984955Y-7382798D02*
X16111955Y-7509798D01*
X16111955Y-7382798D02*
X15984955Y-7509798D01*
X16111955Y-7446298D02*
G75*
G03*
X16111955Y-7446298I-63500J0D01*
G01*
X16410819Y-11608754D02*
X16537819Y-11735754D01*
X16537819Y-11608754D02*
X16410819Y-11735754D01*
X16537819Y-11672254D02*
G75*
G03*
X16537819Y-11672254I-63500J0D01*
G01*
X16526859Y-7361814D02*
X16653859Y-7488814D01*
X16653859Y-7361814D02*
X16526859Y-7488814D01*
X16653859Y-7425314D02*
G75*
G03*
X16653859Y-7425314I-63500J0D01*
G01*
X16787925Y-9104778D02*
X16914925Y-9231778D01*
X16914925Y-9104778D02*
X16787925Y-9231778D01*
X16914925Y-9168278D02*
G75*
G03*
X16914925Y-9168278I-63500J0D01*
G01*
X16903965Y-4857838D02*
X17030965Y-4984838D01*
X17030965Y-4857838D02*
X16903965Y-4984838D01*
X17030965Y-4921338D02*
G75*
G03*
X17030965Y-4921338I-63500J0D01*
G01*
X17329829Y-9083794D02*
X17456829Y-9210794D01*
X17456829Y-9083794D02*
X17329829Y-9210794D01*
X17456829Y-9147294D02*
G75*
G03*
X17456829Y-9147294I-63500J0D01*
G01*
X17445869Y-4836854D02*
X17572869Y-4963854D01*
X17572869Y-4836854D02*
X17445869Y-4963854D01*
X17572869Y-4900354D02*
G75*
G03*
X17572869Y-4900354I-63500J0D01*
G01*
X17590905Y-10826768D02*
X17717905Y-10953768D01*
X17717905Y-10826768D02*
X17590905Y-10953768D01*
X17717905Y-10890268D02*
G75*
G03*
X17717905Y-10890268I-63500J0D01*
G01*
X17706935Y-6579818D02*
X17833935Y-6706818D01*
X17833935Y-6579818D02*
X17706935Y-6706818D01*
X17833935Y-6643318D02*
G75*
G03*
X17833935Y-6643318I-63500J0D01*
G01*
X18132809Y-10805784D02*
X18259809Y-10932784D01*
X18259809Y-10805784D02*
X18132809Y-10932784D01*
X18259809Y-10869284D02*
G75*
G03*
X18259809Y-10869284I-63500J0D01*
G01*
X18248839Y-6558834D02*
X18375839Y-6685834D01*
X18375839Y-6558834D02*
X18248839Y-6685834D01*
X18375839Y-6622334D02*
G75*
G03*
X18375839Y-6622334I-63500J0D01*
G01*
X18330115Y-3420448D02*
X18457115Y-3547448D01*
X18457115Y-3420448D02*
X18330115Y-3547448D01*
X18457115Y-3483948D02*
G75*
G03*
X18457115Y-3483948I-63500J0D01*
G01*
X18509915Y-8301808D02*
X18636915Y-8428808D01*
X18636915Y-8301808D02*
X18509915Y-8428808D01*
X18636915Y-8365308D02*
G75*
G03*
X18636915Y-8365308I-63500J0D01*
G01*
X18872019Y-3399464D02*
X18999019Y-3526464D01*
X18999019Y-3399464D02*
X18872019Y-3526464D01*
X18999019Y-3462964D02*
G75*
G03*
X18999019Y-3462964I-63500J0D01*
G01*
X19051819Y-8280824D02*
X19178819Y-8407824D01*
X19178819Y-8280824D02*
X19051819Y-8407824D01*
X19178819Y-8344324D02*
G75*
G03*
X19178819Y-8344324I-63500J0D01*
G01*
X19133085Y-5142428D02*
X19260085Y-5269428D01*
X19260085Y-5142428D02*
X19133085Y-5269428D01*
X19260085Y-5205928D02*
G75*
G03*
X19260085Y-5205928I-63500J0D01*
G01*
X19674989Y-5121444D02*
X19801989Y-5248444D01*
X19801989Y-5121444D02*
X19674989Y-5248444D01*
X19801989Y-5184944D02*
G75*
G03*
X19801989Y-5184944I-63500J0D01*
G01*
X19936065Y-6864418D02*
X20063065Y-6991418D01*
X20063065Y-6864418D02*
X19936065Y-6991418D01*
X20063065Y-6927918D02*
G75*
G03*
X20063065Y-6927918I-63500J0D01*
G01*
X20347935Y-3251888D02*
X20474935Y-3378888D01*
X20474935Y-3251888D02*
X20347935Y-3378888D01*
X20474935Y-3315388D02*
G75*
G03*
X20474935Y-3315388I-63500J0D01*
G01*
X20477969Y-6843434D02*
X20604969Y-6970434D01*
X20604969Y-6843434D02*
X20477969Y-6970434D01*
X20604969Y-6906934D02*
G75*
G03*
X20604969Y-6906934I-63500J0D01*
G01*
X20889839Y-3230904D02*
X21016839Y-3357904D01*
X21016839Y-3230904D02*
X20889839Y-3357904D01*
X21016839Y-3294404D02*
G75*
G03*
X21016839Y-3294404I-63500J0D01*
G01*
X21150905Y-4973868D02*
X21277905Y-5100868D01*
X21277905Y-4973868D02*
X21150905Y-5100868D01*
X21277905Y-5037368D02*
G75*
G03*
X21277905Y-5037368I-63500J0D01*
G01*
X21692809Y-4952884D02*
X21819809Y-5079884D01*
X21819809Y-4952884D02*
X21692809Y-5079884D01*
X21819809Y-5016384D02*
G75*
G03*
X21819809Y-5016384I-63500J0D01*
G01*
X21953885Y-6695858D02*
X22080885Y-6822858D01*
X22080885Y-6695858D02*
X21953885Y-6822858D01*
X22080885Y-6759358D02*
G75*
G03*
X22080885Y-6759358I-63500J0D01*
G01*
X22495789Y-6674874D02*
X22622789Y-6801874D01*
X22622789Y-6674874D02*
X22495789Y-6801874D01*
X22622789Y-6738374D02*
G75*
G03*
X22622789Y-6738374I-63500J0D01*
G01*
X22999675Y-4442788D02*
X23126675Y-4569788D01*
X23126675Y-4442788D02*
X22999675Y-4569788D01*
X23126675Y-4506288D02*
G75*
G03*
X23126675Y-4506288I-63500J0D01*
G01*
X23541579Y-4421804D02*
X23668579Y-4548804D01*
X23668579Y-4421804D02*
X23541579Y-4548804D01*
X23668579Y-4485304D02*
G75*
G03*
X23668579Y-4485304I-63500J0D01*
G01*
X23802655Y-6164778D02*
X23929655Y-6291778D01*
X23929655Y-6164778D02*
X23802655Y-6291778D01*
X23929655Y-6228278D02*
G75*
G03*
X23929655Y-6228278I-63500J0D01*
G01*
X24344559Y-6143794D02*
X24471559Y-6270794D01*
X24471559Y-6143794D02*
X24344559Y-6270794D01*
X24471559Y-6207294D02*
G75*
G03*
X24471559Y-6207294I-63500J0D01*
G01*
X25313325Y-4908648D02*
X25440325Y-5035648D01*
X25440325Y-4908648D02*
X25313325Y-5035648D01*
X25440325Y-4972148D02*
G75*
G03*
X25440325Y-4972148I-63500J0D01*
G01*
X25855229Y-4887664D02*
X25982229Y-5014664D01*
X25982229Y-4887664D02*
X25855229Y-5014664D01*
X25982229Y-4951164D02*
G75*
G03*
X25982229Y-4951164I-63500J0D01*
G01*
D18*
X2036932Y-5040720D02*
X2186792Y-5190580D01*
X2186792Y-5040720D02*
X2036932Y-5190580D01*
X2111862Y-5040720D02*
X2111862Y-5190580D01*
X2036932Y-5115650D02*
X2186792Y-5115650D01*
X2719782Y-5078881D02*
X2869642Y-5228741D01*
X2869642Y-5078881D02*
X2719782Y-5228741D01*
X2794712Y-5078881D02*
X2794712Y-5228741D01*
X2719782Y-5153811D02*
X2869642Y-5153811D01*
X3547602Y-6296850D02*
X3697462Y-6446710D01*
X3697462Y-6296850D02*
X3547602Y-6446710D01*
X3622532Y-6296850D02*
X3622532Y-6446710D01*
X3547602Y-6371780D02*
X3697462Y-6371780D01*
X4230452Y-6335011D02*
X4380312Y-6484871D01*
X4380312Y-6335011D02*
X4230452Y-6484871D01*
X4305382Y-6335011D02*
X4305382Y-6484871D01*
X4230452Y-6409941D02*
X4380312Y-6409941D01*
X4350582Y-4574860D02*
X4500442Y-4724720D01*
X4500442Y-4574860D02*
X4350582Y-4724720D01*
X4425512Y-4574860D02*
X4425512Y-4724720D01*
X4350582Y-4649790D02*
X4500442Y-4649790D01*
X5033432Y-4613021D02*
X5183292Y-4762881D01*
X5183292Y-4613021D02*
X5033432Y-4762881D01*
X5108362Y-4613021D02*
X5108362Y-4762881D01*
X5033432Y-4687951D02*
X5183292Y-4687951D01*
X5396382Y-6827930D02*
X5546242Y-6977790D01*
X5546242Y-6827930D02*
X5396382Y-6977790D01*
X5471312Y-6827930D02*
X5471312Y-6977790D01*
X5396382Y-6902860D02*
X5546242Y-6902860D01*
X6079232Y-6866091D02*
X6229092Y-7015951D01*
X6229092Y-6866091D02*
X6079232Y-7015951D01*
X6154162Y-6866091D02*
X6154162Y-7015951D01*
X6079232Y-6941021D02*
X6229092Y-6941021D01*
X6199352Y-5105940D02*
X6349212Y-5255800D01*
X6349212Y-5105940D02*
X6199352Y-5255800D01*
X6274282Y-5105940D02*
X6274282Y-5255800D01*
X6199352Y-5180870D02*
X6349212Y-5180870D01*
X6882202Y-5144101D02*
X7032062Y-5293961D01*
X7032062Y-5144101D02*
X6882202Y-5293961D01*
X6957132Y-5144101D02*
X6957132Y-5293961D01*
X6882202Y-5219031D02*
X7032062Y-5219031D01*
X7002322Y-3383960D02*
X7152182Y-3533820D01*
X7152182Y-3383960D02*
X7002322Y-3533820D01*
X7077252Y-3383960D02*
X7077252Y-3533820D01*
X7002322Y-3458890D02*
X7152182Y-3458890D01*
X7414192Y-6996490D02*
X7564052Y-7146350D01*
X7564052Y-6996490D02*
X7414192Y-7146350D01*
X7489122Y-6996490D02*
X7489122Y-7146350D01*
X7414192Y-7071420D02*
X7564052Y-7071420D01*
X7685172Y-3422121D02*
X7835032Y-3571981D01*
X7835032Y-3422121D02*
X7685172Y-3571981D01*
X7760102Y-3422121D02*
X7760102Y-3571981D01*
X7685172Y-3497051D02*
X7835032Y-3497051D01*
X8097042Y-7034651D02*
X8246902Y-7184511D01*
X8246902Y-7034651D02*
X8097042Y-7184511D01*
X8171972Y-7034651D02*
X8171972Y-7184511D01*
X8097042Y-7109581D02*
X8246902Y-7109581D01*
X8217172Y-5274500D02*
X8367032Y-5424360D01*
X8367032Y-5274500D02*
X8217172Y-5424360D01*
X8292102Y-5274500D02*
X8292102Y-5424360D01*
X8217172Y-5349430D02*
X8367032Y-5349430D01*
X8840342Y-8433880D02*
X8990202Y-8583740D01*
X8990202Y-8433880D02*
X8840342Y-8583740D01*
X8915272Y-8433880D02*
X8915272Y-8583740D01*
X8840342Y-8508810D02*
X8990202Y-8508810D01*
X8900022Y-5312661D02*
X9049882Y-5462521D01*
X9049882Y-5312661D02*
X8900022Y-5462521D01*
X8974952Y-5312661D02*
X8974952Y-5462521D01*
X8900022Y-5387591D02*
X9049882Y-5387591D01*
X9020142Y-3552520D02*
X9170002Y-3702380D01*
X9170002Y-3552520D02*
X9020142Y-3702380D01*
X9095072Y-3552520D02*
X9095072Y-3702380D01*
X9020142Y-3627450D02*
X9170002Y-3627450D01*
X9523192Y-8472041D02*
X9673052Y-8621901D01*
X9673052Y-8472041D02*
X9523192Y-8621901D01*
X9598122Y-8472041D02*
X9598122Y-8621901D01*
X9523192Y-8546971D02*
X9673052Y-8546971D01*
X9643322Y-6711890D02*
X9793182Y-6861750D01*
X9793182Y-6711890D02*
X9643322Y-6861750D01*
X9718252Y-6711890D02*
X9718252Y-6861750D01*
X9643322Y-6786820D02*
X9793182Y-6786820D01*
X9702992Y-3590681D02*
X9852852Y-3740541D01*
X9852852Y-3590681D02*
X9702992Y-3740541D01*
X9777922Y-3590681D02*
X9777922Y-3740541D01*
X9702992Y-3665611D02*
X9852852Y-3665611D01*
X9759352Y-10958840D02*
X9909212Y-11108700D01*
X9909212Y-10958840D02*
X9759352Y-11108700D01*
X9834282Y-10958840D02*
X9834282Y-11108700D01*
X9759352Y-11033770D02*
X9909212Y-11033770D01*
X10326172Y-6750051D02*
X10476032Y-6899911D01*
X10476032Y-6750051D02*
X10326172Y-6899911D01*
X10401102Y-6750051D02*
X10401102Y-6899911D01*
X10326172Y-6824981D02*
X10476032Y-6824981D01*
X10442202Y-10997001D02*
X10592062Y-11146861D01*
X10592062Y-10997001D02*
X10442202Y-11146861D01*
X10517132Y-10997001D02*
X10517132Y-11146861D01*
X10442202Y-11071931D02*
X10592062Y-11071931D01*
X10446292Y-4989910D02*
X10596152Y-5139770D01*
X10596152Y-4989910D02*
X10446292Y-5139770D01*
X10521222Y-4989910D02*
X10521222Y-5139770D01*
X10446292Y-5064840D02*
X10596152Y-5064840D01*
X10562332Y-9236850D02*
X10712192Y-9386710D01*
X10712192Y-9236850D02*
X10562332Y-9386710D01*
X10637262Y-9236850D02*
X10637262Y-9386710D01*
X10562332Y-9311780D02*
X10712192Y-9311780D01*
X11129142Y-5028071D02*
X11279002Y-5177931D01*
X11279002Y-5028071D02*
X11129142Y-5177931D01*
X11204072Y-5028071D02*
X11204072Y-5177931D01*
X11129142Y-5103001D02*
X11279002Y-5103001D01*
X11245182Y-9275011D02*
X11395042Y-9424871D01*
X11395042Y-9275011D02*
X11245182Y-9424871D01*
X11320112Y-9275011D02*
X11320112Y-9424871D01*
X11245182Y-9349941D02*
X11395042Y-9349941D01*
X11365302Y-7514870D02*
X11515162Y-7664730D01*
X11515162Y-7514870D02*
X11365302Y-7664730D01*
X11440232Y-7514870D02*
X11440232Y-7664730D01*
X11365302Y-7589800D02*
X11515162Y-7589800D01*
X11481342Y-11761810D02*
X11631202Y-11911670D01*
X11631202Y-11761810D02*
X11481342Y-11911670D01*
X11556272Y-11761810D02*
X11556272Y-11911670D01*
X11481342Y-11836740D02*
X11631202Y-11836740D01*
X11947202Y-14075460D02*
X12097062Y-14225320D01*
X12097062Y-14075460D02*
X11947202Y-14225320D01*
X12022132Y-14075460D02*
X12022132Y-14225320D01*
X11947202Y-14150390D02*
X12097062Y-14150390D01*
X12048152Y-7553031D02*
X12198012Y-7702891D01*
X12198012Y-7553031D02*
X12048152Y-7702891D01*
X12123082Y-7553031D02*
X12123082Y-7702891D01*
X12048152Y-7627961D02*
X12198012Y-7627961D01*
X12164192Y-11799971D02*
X12314052Y-11949831D01*
X12314052Y-11799971D02*
X12164192Y-11949831D01*
X12239122Y-11799971D02*
X12239122Y-11949831D01*
X12164192Y-11874901D02*
X12314052Y-11874901D01*
X12168282Y-5792880D02*
X12318142Y-5942740D01*
X12318142Y-5792880D02*
X12168282Y-5942740D01*
X12243212Y-5792880D02*
X12243212Y-5942740D01*
X12168282Y-5867810D02*
X12318142Y-5867810D01*
X12630052Y-14113621D02*
X12779912Y-14263481D01*
X12779912Y-14113621D02*
X12630052Y-14263481D01*
X12704982Y-14113621D02*
X12704982Y-14263481D01*
X12630052Y-14188551D02*
X12779912Y-14188551D01*
X12851132Y-5831041D02*
X13000992Y-5980901D01*
X13000992Y-5831041D02*
X12851132Y-5980901D01*
X12926062Y-5831041D02*
X12926062Y-5980901D01*
X12851132Y-5905971D02*
X13000992Y-5905971D01*
X14967242Y-6114915D02*
X15117102Y-6264775D01*
X15117102Y-6114915D02*
X14967242Y-6264775D01*
X15042172Y-6114915D02*
X15042172Y-6264775D01*
X14967242Y-6189845D02*
X15117102Y-6189845D01*
X15188332Y-14397495D02*
X15338192Y-14547355D01*
X15338192Y-14397495D02*
X15188332Y-14547355D01*
X15263262Y-14397495D02*
X15263262Y-14547355D01*
X15188332Y-14472425D02*
X15338192Y-14472425D01*
X15435402Y-5616351D02*
X15585262Y-5766211D01*
X15585262Y-5616351D02*
X15435402Y-5766211D01*
X15510332Y-5616351D02*
X15510332Y-5766211D01*
X15435402Y-5691281D02*
X15585262Y-5691281D01*
X15654182Y-12083845D02*
X15804042Y-12233705D01*
X15804042Y-12083845D02*
X15654182Y-12233705D01*
X15729112Y-12083845D02*
X15729112Y-12233705D01*
X15654182Y-12158775D02*
X15804042Y-12158775D01*
X15656492Y-13898931D02*
X15806352Y-14048791D01*
X15806352Y-13898931D02*
X15656492Y-14048791D01*
X15731422Y-13898931D02*
X15731422Y-14048791D01*
X15656492Y-13973861D02*
X15806352Y-13973861D01*
X15770222Y-7836905D02*
X15920082Y-7986765D01*
X15920082Y-7836905D02*
X15770222Y-7986765D01*
X15845152Y-7836905D02*
X15845152Y-7986765D01*
X15770222Y-7911835D02*
X15920082Y-7911835D01*
X16122342Y-11585281D02*
X16272202Y-11735141D01*
X16272202Y-11585281D02*
X16122342Y-11735141D01*
X16197272Y-11585281D02*
X16197272Y-11735141D01*
X16122342Y-11660211D02*
X16272202Y-11660211D01*
X16238382Y-7338341D02*
X16388242Y-7488201D01*
X16388242Y-7338341D02*
X16238382Y-7488201D01*
X16313312Y-7338341D02*
X16313312Y-7488201D01*
X16238382Y-7413271D02*
X16388242Y-7413271D01*
X16573192Y-9558885D02*
X16723052Y-9708745D01*
X16723052Y-9558885D02*
X16573192Y-9708745D01*
X16648122Y-9558885D02*
X16648122Y-9708745D01*
X16573192Y-9633815D02*
X16723052Y-9633815D01*
X16689232Y-5311945D02*
X16839092Y-5461805D01*
X16839092Y-5311945D02*
X16689232Y-5461805D01*
X16764162Y-5311945D02*
X16764162Y-5461805D01*
X16689232Y-5386875D02*
X16839092Y-5386875D01*
X17041352Y-9060321D02*
X17191212Y-9210181D01*
X17191212Y-9060321D02*
X17041352Y-9210181D01*
X17116282Y-9060321D02*
X17116282Y-9210181D01*
X17041352Y-9135251D02*
X17191212Y-9135251D01*
X17157392Y-4813381D02*
X17307252Y-4963241D01*
X17307252Y-4813381D02*
X17157392Y-4963241D01*
X17232322Y-4813381D02*
X17232322Y-4963241D01*
X17157392Y-4888311D02*
X17307252Y-4888311D01*
X17376172Y-11280875D02*
X17526032Y-11430735D01*
X17526032Y-11280875D02*
X17376172Y-11430735D01*
X17451102Y-11280875D02*
X17451102Y-11430735D01*
X17376172Y-11355805D02*
X17526032Y-11355805D01*
X17492202Y-7033925D02*
X17642062Y-7183785D01*
X17642062Y-7033925D02*
X17492202Y-7183785D01*
X17567132Y-7033925D02*
X17567132Y-7183785D01*
X17492202Y-7108855D02*
X17642062Y-7108855D01*
X17844332Y-10782311D02*
X17994192Y-10932171D01*
X17994192Y-10782311D02*
X17844332Y-10932171D01*
X17919262Y-10782311D02*
X17919262Y-10932171D01*
X17844332Y-10857241D02*
X17994192Y-10857241D01*
X17960362Y-6535361D02*
X18110222Y-6685221D01*
X18110222Y-6535361D02*
X17960362Y-6685221D01*
X18035292Y-6535361D02*
X18035292Y-6685221D01*
X17960362Y-6610291D02*
X18110222Y-6610291D01*
X18115382Y-3874555D02*
X18265242Y-4024415D01*
X18265242Y-3874555D02*
X18115382Y-4024415D01*
X18190312Y-3874555D02*
X18190312Y-4024415D01*
X18115382Y-3949485D02*
X18265242Y-3949485D01*
X18295182Y-8755915D02*
X18445042Y-8905775D01*
X18445042Y-8755915D02*
X18295182Y-8905775D01*
X18370112Y-8755915D02*
X18370112Y-8905775D01*
X18295182Y-8830845D02*
X18445042Y-8830845D01*
X18583542Y-3375991D02*
X18733402Y-3525851D01*
X18733402Y-3375991D02*
X18583542Y-3525851D01*
X18658472Y-3375991D02*
X18658472Y-3525851D01*
X18583542Y-3450921D02*
X18733402Y-3450921D01*
X18763342Y-8257351D02*
X18913202Y-8407211D01*
X18913202Y-8257351D02*
X18763342Y-8407211D01*
X18838272Y-8257351D02*
X18838272Y-8407211D01*
X18763342Y-8332281D02*
X18913202Y-8332281D01*
X18918352Y-5596535D02*
X19068212Y-5746395D01*
X19068212Y-5596535D02*
X18918352Y-5746395D01*
X18993282Y-5596535D02*
X18993282Y-5746395D01*
X18918352Y-5671465D02*
X19068212Y-5671465D01*
X19386512Y-5097971D02*
X19536372Y-5247831D01*
X19536372Y-5097971D02*
X19386512Y-5247831D01*
X19461442Y-5097971D02*
X19461442Y-5247831D01*
X19386512Y-5172901D02*
X19536372Y-5172901D01*
X19721332Y-7318525D02*
X19871192Y-7468385D01*
X19871192Y-7318525D02*
X19721332Y-7468385D01*
X19796262Y-7318525D02*
X19796262Y-7468385D01*
X19721332Y-7393455D02*
X19871192Y-7393455D01*
X20133202Y-3705995D02*
X20283062Y-3855855D01*
X20283062Y-3705995D02*
X20133202Y-3855855D01*
X20208132Y-3705995D02*
X20208132Y-3855855D01*
X20133202Y-3780925D02*
X20283062Y-3780925D01*
X20189492Y-6819961D02*
X20339352Y-6969821D01*
X20339352Y-6819961D02*
X20189492Y-6969821D01*
X20264422Y-6819961D02*
X20264422Y-6969821D01*
X20189492Y-6894891D02*
X20339352Y-6894891D01*
X20601362Y-3207431D02*
X20751222Y-3357291D01*
X20751222Y-3207431D02*
X20601362Y-3357291D01*
X20676292Y-3207431D02*
X20676292Y-3357291D01*
X20601362Y-3282361D02*
X20751222Y-3282361D01*
X20936172Y-5427975D02*
X21086032Y-5577835D01*
X21086032Y-5427975D02*
X20936172Y-5577835D01*
X21011102Y-5427975D02*
X21011102Y-5577835D01*
X20936172Y-5502905D02*
X21086032Y-5502905D01*
X21404332Y-4929411D02*
X21554192Y-5079271D01*
X21554192Y-4929411D02*
X21404332Y-5079271D01*
X21479262Y-4929411D02*
X21479262Y-5079271D01*
X21404332Y-5004341D02*
X21554192Y-5004341D01*
X21739152Y-7149965D02*
X21889012Y-7299825D01*
X21889012Y-7149965D02*
X21739152Y-7299825D01*
X21814082Y-7149965D02*
X21814082Y-7299825D01*
X21739152Y-7224895D02*
X21889012Y-7224895D01*
X22207312Y-6651401D02*
X22357172Y-6801261D01*
X22357172Y-6651401D02*
X22207312Y-6801261D01*
X22282242Y-6651401D02*
X22282242Y-6801261D01*
X22207312Y-6726331D02*
X22357172Y-6726331D01*
X22784942Y-4896895D02*
X22934802Y-5046755D01*
X22934802Y-4896895D02*
X22784942Y-5046755D01*
X22859872Y-4896895D02*
X22859872Y-5046755D01*
X22784942Y-4971825D02*
X22934802Y-4971825D01*
X23253102Y-4398331D02*
X23402962Y-4548191D01*
X23402962Y-4398331D02*
X23253102Y-4548191D01*
X23328032Y-4398331D02*
X23328032Y-4548191D01*
X23253102Y-4473261D02*
X23402962Y-4473261D01*
X23587922Y-6618885D02*
X23737782Y-6768745D01*
X23737782Y-6618885D02*
X23587922Y-6768745D01*
X23662852Y-6618885D02*
X23662852Y-6768745D01*
X23587922Y-6693815D02*
X23737782Y-6693815D01*
X24056082Y-6120321D02*
X24205942Y-6270181D01*
X24205942Y-6120321D02*
X24056082Y-6270181D01*
X24131012Y-6120321D02*
X24131012Y-6270181D01*
X24056082Y-6195251D02*
X24205942Y-6195251D01*
X25098592Y-5362755D02*
X25248452Y-5512615D01*
X25248452Y-5362755D02*
X25098592Y-5512615D01*
X25173522Y-5362755D02*
X25173522Y-5512615D01*
X25098592Y-5437685D02*
X25248452Y-5437685D01*
X25566752Y-4864191D02*
X25716612Y-5014051D01*
X25716612Y-4864191D02*
X25566752Y-5014051D01*
X25641682Y-4864191D02*
X25641682Y-5014051D01*
X25566752Y-4939121D02*
X25716612Y-4939121D01*
D19*
X13901000Y-12414000D02*
X14051000Y-12564000D01*
X14051000Y-12414000D02*
X13901000Y-12564000D01*
X14029033Y-12542033D02*
X14029033Y-12435966D01*
X13922966Y-12435966D01*
X13922966Y-12542033D01*
X14029033Y-12542033D01*
D11*
X13911000Y-12554000D02*
X14041000Y-12554000D01*
X13911000Y-12424000D02*
X14041000Y-12424000D01*
X14041000Y-12554000D02*
G75*
G03*
X14041000Y-12424000I0J65000D01*
G01*
X13911000Y-12424000D02*
G75*
G03*
X13911000Y-12554000I0J-65000D01*
G01*
D19*
X13901000Y-13534000D02*
X14051000Y-13684000D01*
X14051000Y-13534000D02*
X13901000Y-13684000D01*
X14029033Y-13662033D02*
X14029033Y-13555966D01*
X13922966Y-13555966D01*
X13922966Y-13662033D01*
X14029033Y-13662033D01*
D11*
X13911000Y-13674000D02*
X14041000Y-13674000D01*
X13911000Y-13544000D02*
X14041000Y-13544000D01*
X14041000Y-13674000D02*
G75*
G03*
X14041000Y-13544000I0J65000D01*
G01*
X13911000Y-13544000D02*
G75*
G03*
X13911000Y-13674000I0J-65000D01*
G01*
D20*
X5076370Y-6057540D02*
X5296370Y-6277540D01*
X5296370Y-6057540D02*
X5076370Y-6277540D01*
X5186370Y-6277540D02*
X5296370Y-6167540D01*
X5186370Y-6057540D01*
X5076370Y-6167540D01*
X5186370Y-6277540D01*
X11108690Y-6608540D02*
X11328690Y-6828540D01*
X11328690Y-6608540D02*
X11108690Y-6828540D01*
X11218690Y-6828540D02*
X11328690Y-6718540D01*
X11218690Y-6608540D01*
X11108690Y-6718540D01*
X11218690Y-6828540D01*
X11224720Y-10855480D02*
X11444720Y-11075480D01*
X11444720Y-10855480D02*
X11224720Y-11075480D01*
X11334720Y-11075480D02*
X11444720Y-10965480D01*
X11334720Y-10855480D01*
X11224720Y-10965480D01*
X11334720Y-11075480D01*
X16531270Y-10855480D02*
X16751270Y-11075480D01*
X16751270Y-10855480D02*
X16531270Y-11075480D01*
X16641270Y-11075480D02*
X16751270Y-10965480D01*
X16641270Y-10855480D01*
X16531270Y-10965480D01*
X16641270Y-11075480D01*
X16647300Y-6608540D02*
X16867300Y-6828540D01*
X16867300Y-6608540D02*
X16647300Y-6828540D01*
X16757300Y-6828540D02*
X16867300Y-6718540D01*
X16757300Y-6608540D01*
X16647300Y-6718540D01*
X16757300Y-6828540D01*
X22679620Y-6057540D02*
X22899620Y-6277540D01*
X22899620Y-6057540D02*
X22679620Y-6277540D01*
X22789620Y-6277540D02*
X22899620Y-6167540D01*
X22789620Y-6057540D01*
X22679620Y-6167540D01*
X22789620Y-6277540D01*
D11*
X1643111Y-15816414D02*
X1643111Y-15616414D01*
X1690730Y-15616414D01*
X1719302Y-15625938D01*
X1738349Y-15644986D01*
X1747873Y-15664033D01*
X1757397Y-15702129D01*
X1757397Y-15730700D01*
X1747873Y-15768795D01*
X1738349Y-15787843D01*
X1719302Y-15806891D01*
X1690730Y-15816414D01*
X1643111Y-15816414D01*
X1843111Y-15816414D02*
X1843111Y-15683081D01*
X1843111Y-15721176D02*
X1852635Y-15702129D01*
X1862159Y-15692605D01*
X1881206Y-15683081D01*
X1900254Y-15683081D01*
X1966921Y-15816414D02*
X1966921Y-15683081D01*
X1966921Y-15616414D02*
X1957397Y-15625938D01*
X1966921Y-15635462D01*
X1976445Y-15625938D01*
X1966921Y-15616414D01*
X1966921Y-15635462D01*
X2090730Y-15816414D02*
X2071683Y-15806891D01*
X2062159Y-15787843D01*
X2062159Y-15616414D01*
X2195492Y-15816414D02*
X2176445Y-15806891D01*
X2166921Y-15787843D01*
X2166921Y-15616414D01*
X2424064Y-15816414D02*
X2424064Y-15616414D01*
X2490730Y-15759272D01*
X2557397Y-15616414D01*
X2557397Y-15816414D01*
X2738349Y-15816414D02*
X2738349Y-15711652D01*
X2728826Y-15692605D01*
X2709778Y-15683081D01*
X2671683Y-15683081D01*
X2652635Y-15692605D01*
X2738349Y-15806891D02*
X2719302Y-15816414D01*
X2671683Y-15816414D01*
X2652635Y-15806891D01*
X2643111Y-15787843D01*
X2643111Y-15768795D01*
X2652635Y-15749748D01*
X2671683Y-15740224D01*
X2719302Y-15740224D01*
X2738349Y-15730700D01*
X2833587Y-15683081D02*
X2833587Y-15883081D01*
X2833587Y-15692605D02*
X2852635Y-15683081D01*
X2890730Y-15683081D01*
X2909778Y-15692605D01*
X2919302Y-15702129D01*
X2928826Y-15721176D01*
X2928826Y-15778319D01*
X2919302Y-15797367D01*
X2909778Y-15806891D01*
X2890730Y-15816414D01*
X2852635Y-15816414D01*
X2833587Y-15806891D01*
X3014540Y-15797367D02*
X3024064Y-15806891D01*
X3014540Y-15816414D01*
X3005016Y-15806891D01*
X3014540Y-15797367D01*
X3014540Y-15816414D01*
X3014540Y-15692605D02*
X3024064Y-15702129D01*
X3014540Y-15711652D01*
X3005016Y-15702129D01*
X3014540Y-15692605D01*
X3014540Y-15711652D01*
D12*
X1345492Y-16125938D02*
X1385492Y-16165938D01*
X1385492Y-16125938D02*
X1345492Y-16165938D01*
D11*
X1681206Y-16036414D02*
X1700254Y-16036414D01*
X1719302Y-16045938D01*
X1728826Y-16055462D01*
X1738349Y-16074510D01*
X1747873Y-16112605D01*
X1747873Y-16160224D01*
X1738349Y-16198319D01*
X1728826Y-16217367D01*
X1719302Y-16226891D01*
X1700254Y-16236414D01*
X1681206Y-16236414D01*
X1662159Y-16226891D01*
X1652635Y-16217367D01*
X1643111Y-16198319D01*
X1633587Y-16160224D01*
X1633587Y-16112605D01*
X1643111Y-16074510D01*
X1652635Y-16055462D01*
X1662159Y-16045938D01*
X1681206Y-16036414D01*
X1833587Y-16217367D02*
X1843111Y-16226891D01*
X1833587Y-16236414D01*
X1824064Y-16226891D01*
X1833587Y-16217367D01*
X1833587Y-16236414D01*
X2014540Y-16103081D02*
X2014540Y-16236414D01*
X1966921Y-16026891D02*
X1919302Y-16169748D01*
X2043111Y-16169748D01*
X2157397Y-16036414D02*
X2176445Y-16036414D01*
X2195492Y-16045938D01*
X2205016Y-16055462D01*
X2214540Y-16074510D01*
X2224064Y-16112605D01*
X2224064Y-16160224D01*
X2214540Y-16198319D01*
X2205016Y-16217367D01*
X2195492Y-16226891D01*
X2176445Y-16236414D01*
X2157397Y-16236414D01*
X2138349Y-16226891D01*
X2128826Y-16217367D01*
X2119302Y-16198319D01*
X2109778Y-16160224D01*
X2109778Y-16112605D01*
X2119302Y-16074510D01*
X2128826Y-16055462D01*
X2138349Y-16045938D01*
X2157397Y-16036414D01*
X2347873Y-16036414D02*
X2366921Y-16036414D01*
X2385968Y-16045938D01*
X2395492Y-16055462D01*
X2405016Y-16074510D01*
X2414540Y-16112605D01*
X2414540Y-16160224D01*
X2405016Y-16198319D01*
X2395492Y-16217367D01*
X2385968Y-16226891D01*
X2366921Y-16236414D01*
X2347873Y-16236414D01*
X2328826Y-16226891D01*
X2319302Y-16217367D01*
X2309778Y-16198319D01*
X2300254Y-16160224D01*
X2300254Y-16112605D01*
X2309778Y-16074510D01*
X2319302Y-16055462D01*
X2328826Y-16045938D01*
X2347873Y-16036414D01*
X2500254Y-16236414D02*
X2500254Y-16103081D01*
X2500254Y-16122129D02*
X2509778Y-16112605D01*
X2528826Y-16103081D01*
X2557397Y-16103081D01*
X2576445Y-16112605D01*
X2585968Y-16131652D01*
X2585968Y-16236414D01*
X2585968Y-16131652D02*
X2595492Y-16112605D01*
X2614540Y-16103081D01*
X2643111Y-16103081D01*
X2662159Y-16112605D01*
X2671683Y-16131652D01*
X2671683Y-16236414D01*
X2766921Y-16236414D02*
X2766921Y-16103081D01*
X2766921Y-16122129D02*
X2776445Y-16112605D01*
X2795492Y-16103081D01*
X2824064Y-16103081D01*
X2843111Y-16112605D01*
X2852635Y-16131652D01*
X2852635Y-16236414D01*
X2852635Y-16131652D02*
X2862159Y-16112605D01*
X2881206Y-16103081D01*
X2909778Y-16103081D01*
X2928826Y-16112605D01*
X2938349Y-16131652D01*
X2938349Y-16236414D01*
X3328826Y-16026891D02*
X3157397Y-16284033D01*
X3585968Y-16036414D02*
X3605016Y-16036414D01*
X3624064Y-16045938D01*
X3633587Y-16055462D01*
X3643111Y-16074510D01*
X3652635Y-16112605D01*
X3652635Y-16160224D01*
X3643111Y-16198319D01*
X3633587Y-16217367D01*
X3624064Y-16226891D01*
X3605016Y-16236414D01*
X3585968Y-16236414D01*
X3566921Y-16226891D01*
X3557397Y-16217367D01*
X3547873Y-16198319D01*
X3538349Y-16160224D01*
X3538349Y-16112605D01*
X3547873Y-16074510D01*
X3557397Y-16055462D01*
X3566921Y-16045938D01*
X3585968Y-16036414D01*
X3738349Y-16217367D02*
X3747873Y-16226891D01*
X3738349Y-16236414D01*
X3728826Y-16226891D01*
X3738349Y-16217367D01*
X3738349Y-16236414D01*
X3871683Y-16036414D02*
X3890730Y-16036414D01*
X3909778Y-16045938D01*
X3919302Y-16055462D01*
X3928826Y-16074510D01*
X3938349Y-16112605D01*
X3938349Y-16160224D01*
X3928826Y-16198319D01*
X3919302Y-16217367D01*
X3909778Y-16226891D01*
X3890730Y-16236414D01*
X3871683Y-16236414D01*
X3852635Y-16226891D01*
X3843111Y-16217367D01*
X3833587Y-16198319D01*
X3824064Y-16160224D01*
X3824064Y-16112605D01*
X3833587Y-16074510D01*
X3843111Y-16055462D01*
X3852635Y-16045938D01*
X3871683Y-16036414D01*
X4128826Y-16236414D02*
X4014540Y-16236414D01*
X4071683Y-16236414D02*
X4071683Y-16036414D01*
X4052635Y-16064986D01*
X4033587Y-16084033D01*
X4014540Y-16093557D01*
X4309778Y-16036414D02*
X4214540Y-16036414D01*
X4205016Y-16131652D01*
X4214540Y-16122129D01*
X4233588Y-16112605D01*
X4281207Y-16112605D01*
X4300254Y-16122129D01*
X4309778Y-16131652D01*
X4319302Y-16150700D01*
X4319302Y-16198319D01*
X4309778Y-16217367D01*
X4300254Y-16226891D01*
X4281207Y-16236414D01*
X4233588Y-16236414D01*
X4214540Y-16226891D01*
X4205016Y-16217367D01*
X4385968Y-16036414D02*
X4519302Y-16036414D01*
X4433588Y-16236414D01*
X4585968Y-16036414D02*
X4585968Y-16074510D01*
X4662159Y-16036414D02*
X4662159Y-16074510D01*
X4957397Y-16312605D02*
X4947873Y-16303081D01*
X4928826Y-16274510D01*
X4919302Y-16255462D01*
X4909778Y-16226891D01*
X4900254Y-16179272D01*
X4900254Y-16141176D01*
X4909778Y-16093557D01*
X4919302Y-16064986D01*
X4928826Y-16045938D01*
X4947873Y-16017367D01*
X4957397Y-16007843D01*
X5062159Y-16122129D02*
X5043111Y-16112605D01*
X5033588Y-16103081D01*
X5024064Y-16084033D01*
X5024064Y-16074510D01*
X5033588Y-16055462D01*
X5043111Y-16045938D01*
X5062159Y-16036414D01*
X5100254Y-16036414D01*
X5119302Y-16045938D01*
X5128826Y-16055462D01*
X5138349Y-16074510D01*
X5138349Y-16084033D01*
X5128826Y-16103081D01*
X5119302Y-16112605D01*
X5100254Y-16122129D01*
X5062159Y-16122129D01*
X5043111Y-16131652D01*
X5033588Y-16141176D01*
X5024064Y-16160224D01*
X5024064Y-16198319D01*
X5033588Y-16217367D01*
X5043111Y-16226891D01*
X5062159Y-16236414D01*
X5100254Y-16236414D01*
X5119302Y-16226891D01*
X5128826Y-16217367D01*
X5138349Y-16198319D01*
X5138349Y-16160224D01*
X5128826Y-16141176D01*
X5119302Y-16131652D01*
X5100254Y-16122129D01*
X5205016Y-16036414D02*
X5328826Y-16036414D01*
X5262159Y-16112605D01*
X5290730Y-16112605D01*
X5309778Y-16122129D01*
X5319302Y-16131652D01*
X5328826Y-16150700D01*
X5328826Y-16198319D01*
X5319302Y-16217367D01*
X5309778Y-16226891D01*
X5290730Y-16236414D01*
X5233588Y-16236414D01*
X5214540Y-16226891D01*
X5205016Y-16217367D01*
X5566921Y-16236414D02*
X5566921Y-16036414D01*
X5652635Y-16236414D02*
X5652635Y-16131652D01*
X5643111Y-16112605D01*
X5624064Y-16103081D01*
X5595492Y-16103081D01*
X5576445Y-16112605D01*
X5566921Y-16122129D01*
X5776445Y-16236414D02*
X5757397Y-16226891D01*
X5747873Y-16217367D01*
X5738349Y-16198319D01*
X5738349Y-16141176D01*
X5747873Y-16122129D01*
X5757397Y-16112605D01*
X5776445Y-16103081D01*
X5805016Y-16103081D01*
X5824064Y-16112605D01*
X5833587Y-16122129D01*
X5843111Y-16141176D01*
X5843111Y-16198319D01*
X5833587Y-16217367D01*
X5824064Y-16226891D01*
X5805016Y-16236414D01*
X5776445Y-16236414D01*
X5957397Y-16236414D02*
X5938349Y-16226891D01*
X5928826Y-16207843D01*
X5928826Y-16036414D01*
X6109778Y-16226891D02*
X6090730Y-16236414D01*
X6052635Y-16236414D01*
X6033587Y-16226891D01*
X6024064Y-16207843D01*
X6024064Y-16131652D01*
X6033587Y-16112605D01*
X6052635Y-16103081D01*
X6090730Y-16103081D01*
X6109778Y-16112605D01*
X6119302Y-16131652D01*
X6119302Y-16150700D01*
X6024064Y-16169748D01*
X6195492Y-16226891D02*
X6214540Y-16236414D01*
X6252635Y-16236414D01*
X6271683Y-16226891D01*
X6281206Y-16207843D01*
X6281206Y-16198319D01*
X6271683Y-16179272D01*
X6252635Y-16169748D01*
X6224064Y-16169748D01*
X6205016Y-16160224D01*
X6195492Y-16141176D01*
X6195492Y-16131652D01*
X6205016Y-16112605D01*
X6224064Y-16103081D01*
X6252635Y-16103081D01*
X6271683Y-16112605D01*
X6347873Y-16312605D02*
X6357397Y-16303081D01*
X6376445Y-16274510D01*
X6385968Y-16255462D01*
X6395492Y-16226891D01*
X6405016Y-16179272D01*
X6405016Y-16141176D01*
X6395492Y-16093557D01*
X6385968Y-16064986D01*
X6376445Y-16045938D01*
X6357397Y-16017367D01*
X6347873Y-16007843D01*
D13*
X1385492Y-16409938D02*
G75*
G03*
X1385492Y-16409938I-37500J0D01*
G01*
D11*
X1681206Y-16300414D02*
X1700254Y-16300414D01*
X1719302Y-16309938D01*
X1728826Y-16319462D01*
X1738349Y-16338510D01*
X1747873Y-16376605D01*
X1747873Y-16424224D01*
X1738349Y-16462319D01*
X1728826Y-16481367D01*
X1719302Y-16490891D01*
X1700254Y-16500414D01*
X1681206Y-16500414D01*
X1662159Y-16490891D01*
X1652635Y-16481367D01*
X1643111Y-16462319D01*
X1633587Y-16424224D01*
X1633587Y-16376605D01*
X1643111Y-16338510D01*
X1652635Y-16319462D01*
X1662159Y-16309938D01*
X1681206Y-16300414D01*
X1833587Y-16481367D02*
X1843111Y-16490891D01*
X1833587Y-16500414D01*
X1824064Y-16490891D01*
X1833587Y-16481367D01*
X1833587Y-16500414D01*
X1909778Y-16300414D02*
X2043111Y-16300414D01*
X1957397Y-16500414D01*
X2214540Y-16300414D02*
X2119302Y-16300414D01*
X2109778Y-16395652D01*
X2119302Y-16386129D01*
X2138349Y-16376605D01*
X2185968Y-16376605D01*
X2205016Y-16386129D01*
X2214540Y-16395652D01*
X2224064Y-16414700D01*
X2224064Y-16462319D01*
X2214540Y-16481367D01*
X2205016Y-16490891D01*
X2185968Y-16500414D01*
X2138349Y-16500414D01*
X2119302Y-16490891D01*
X2109778Y-16481367D01*
X2347873Y-16300414D02*
X2366921Y-16300414D01*
X2385968Y-16309938D01*
X2395492Y-16319462D01*
X2405016Y-16338510D01*
X2414540Y-16376605D01*
X2414540Y-16424224D01*
X2405016Y-16462319D01*
X2395492Y-16481367D01*
X2385968Y-16490891D01*
X2366921Y-16500414D01*
X2347873Y-16500414D01*
X2328826Y-16490891D01*
X2319302Y-16481367D01*
X2309778Y-16462319D01*
X2300254Y-16424224D01*
X2300254Y-16376605D01*
X2309778Y-16338510D01*
X2319302Y-16319462D01*
X2328826Y-16309938D01*
X2347873Y-16300414D01*
X2500254Y-16500414D02*
X2500254Y-16367081D01*
X2500254Y-16386129D02*
X2509778Y-16376605D01*
X2528826Y-16367081D01*
X2557397Y-16367081D01*
X2576445Y-16376605D01*
X2585968Y-16395652D01*
X2585968Y-16500414D01*
X2585968Y-16395652D02*
X2595492Y-16376605D01*
X2614540Y-16367081D01*
X2643111Y-16367081D01*
X2662159Y-16376605D01*
X2671683Y-16395652D01*
X2671683Y-16500414D01*
X2766921Y-16500414D02*
X2766921Y-16367081D01*
X2766921Y-16386129D02*
X2776445Y-16376605D01*
X2795492Y-16367081D01*
X2824064Y-16367081D01*
X2843111Y-16376605D01*
X2852635Y-16395652D01*
X2852635Y-16500414D01*
X2852635Y-16395652D02*
X2862159Y-16376605D01*
X2881206Y-16367081D01*
X2909778Y-16367081D01*
X2928826Y-16376605D01*
X2938349Y-16395652D01*
X2938349Y-16500414D01*
X3328826Y-16290891D02*
X3157397Y-16548033D01*
X3585968Y-16300414D02*
X3605016Y-16300414D01*
X3624064Y-16309938D01*
X3633587Y-16319462D01*
X3643111Y-16338510D01*
X3652635Y-16376605D01*
X3652635Y-16424224D01*
X3643111Y-16462319D01*
X3633587Y-16481367D01*
X3624064Y-16490891D01*
X3605016Y-16500414D01*
X3585968Y-16500414D01*
X3566921Y-16490891D01*
X3557397Y-16481367D01*
X3547873Y-16462319D01*
X3538349Y-16424224D01*
X3538349Y-16376605D01*
X3547873Y-16338510D01*
X3557397Y-16319462D01*
X3566921Y-16309938D01*
X3585968Y-16300414D01*
X3738349Y-16481367D02*
X3747873Y-16490891D01*
X3738349Y-16500414D01*
X3728826Y-16490891D01*
X3738349Y-16481367D01*
X3738349Y-16500414D01*
X3871683Y-16300414D02*
X3890730Y-16300414D01*
X3909778Y-16309938D01*
X3919302Y-16319462D01*
X3928826Y-16338510D01*
X3938349Y-16376605D01*
X3938349Y-16424224D01*
X3928826Y-16462319D01*
X3919302Y-16481367D01*
X3909778Y-16490891D01*
X3890730Y-16500414D01*
X3871683Y-16500414D01*
X3852635Y-16490891D01*
X3843111Y-16481367D01*
X3833587Y-16462319D01*
X3824064Y-16424224D01*
X3824064Y-16376605D01*
X3833587Y-16338510D01*
X3843111Y-16319462D01*
X3852635Y-16309938D01*
X3871683Y-16300414D01*
X4014540Y-16319462D02*
X4024064Y-16309938D01*
X4043111Y-16300414D01*
X4090730Y-16300414D01*
X4109778Y-16309938D01*
X4119302Y-16319462D01*
X4128826Y-16338510D01*
X4128826Y-16357557D01*
X4119302Y-16386129D01*
X4005016Y-16500414D01*
X4128826Y-16500414D01*
X4224064Y-16500414D02*
X4262159Y-16500414D01*
X4281207Y-16490891D01*
X4290730Y-16481367D01*
X4309778Y-16452795D01*
X4319302Y-16414700D01*
X4319302Y-16338510D01*
X4309778Y-16319462D01*
X4300254Y-16309938D01*
X4281207Y-16300414D01*
X4243111Y-16300414D01*
X4224064Y-16309938D01*
X4214540Y-16319462D01*
X4205016Y-16338510D01*
X4205016Y-16386129D01*
X4214540Y-16405176D01*
X4224064Y-16414700D01*
X4243111Y-16424224D01*
X4281207Y-16424224D01*
X4300254Y-16414700D01*
X4309778Y-16405176D01*
X4319302Y-16386129D01*
X4500254Y-16300414D02*
X4405016Y-16300414D01*
X4395492Y-16395652D01*
X4405016Y-16386129D01*
X4424064Y-16376605D01*
X4471683Y-16376605D01*
X4490730Y-16386129D01*
X4500254Y-16395652D01*
X4509778Y-16414700D01*
X4509778Y-16462319D01*
X4500254Y-16481367D01*
X4490730Y-16490891D01*
X4471683Y-16500414D01*
X4424064Y-16500414D01*
X4405016Y-16490891D01*
X4395492Y-16481367D01*
X4585968Y-16300414D02*
X4585968Y-16338510D01*
X4662159Y-16300414D02*
X4662159Y-16338510D01*
X4957397Y-16576605D02*
X4947873Y-16567081D01*
X4928826Y-16538510D01*
X4919302Y-16519462D01*
X4909778Y-16490891D01*
X4900254Y-16443272D01*
X4900254Y-16405176D01*
X4909778Y-16357557D01*
X4919302Y-16328986D01*
X4928826Y-16309938D01*
X4947873Y-16281367D01*
X4957397Y-16271843D01*
X5024064Y-16319462D02*
X5033588Y-16309938D01*
X5052635Y-16300414D01*
X5100254Y-16300414D01*
X5119302Y-16309938D01*
X5128826Y-16319462D01*
X5138349Y-16338510D01*
X5138349Y-16357557D01*
X5128826Y-16386129D01*
X5014540Y-16500414D01*
X5138349Y-16500414D01*
X5376445Y-16500414D02*
X5376445Y-16300414D01*
X5462159Y-16500414D02*
X5462159Y-16395652D01*
X5452635Y-16376605D01*
X5433588Y-16367081D01*
X5405016Y-16367081D01*
X5385968Y-16376605D01*
X5376445Y-16386129D01*
X5585968Y-16500414D02*
X5566921Y-16490891D01*
X5557397Y-16481367D01*
X5547873Y-16462319D01*
X5547873Y-16405176D01*
X5557397Y-16386129D01*
X5566921Y-16376605D01*
X5585968Y-16367081D01*
X5614540Y-16367081D01*
X5633587Y-16376605D01*
X5643111Y-16386129D01*
X5652635Y-16405176D01*
X5652635Y-16462319D01*
X5643111Y-16481367D01*
X5633587Y-16490891D01*
X5614540Y-16500414D01*
X5585968Y-16500414D01*
X5766921Y-16500414D02*
X5747873Y-16490891D01*
X5738349Y-16471843D01*
X5738349Y-16300414D01*
X5919302Y-16490891D02*
X5900254Y-16500414D01*
X5862159Y-16500414D01*
X5843111Y-16490891D01*
X5833587Y-16471843D01*
X5833587Y-16395652D01*
X5843111Y-16376605D01*
X5862159Y-16367081D01*
X5900254Y-16367081D01*
X5919302Y-16376605D01*
X5928826Y-16395652D01*
X5928826Y-16414700D01*
X5833587Y-16433748D01*
X6005016Y-16490891D02*
X6024064Y-16500414D01*
X6062159Y-16500414D01*
X6081206Y-16490891D01*
X6090730Y-16471843D01*
X6090730Y-16462319D01*
X6081206Y-16443272D01*
X6062159Y-16433748D01*
X6033587Y-16433748D01*
X6014540Y-16424224D01*
X6005016Y-16405176D01*
X6005016Y-16395652D01*
X6014540Y-16376605D01*
X6033587Y-16367081D01*
X6062159Y-16367081D01*
X6081206Y-16376605D01*
X6157397Y-16576605D02*
X6166921Y-16567081D01*
X6185968Y-16538510D01*
X6195492Y-16519462D01*
X6205016Y-16490891D01*
X6214540Y-16443272D01*
X6214540Y-16405176D01*
X6205016Y-16357557D01*
X6195492Y-16328986D01*
X6185968Y-16309938D01*
X6166921Y-16281367D01*
X6157397Y-16271843D01*
D14*
X1335962Y-16624408D02*
X1335962Y-16723468D01*
X1286432Y-16673938D02*
X1385492Y-16673938D01*
D11*
X1681206Y-16564414D02*
X1700254Y-16564414D01*
X1719302Y-16573938D01*
X1728826Y-16583462D01*
X1738349Y-16602510D01*
X1747873Y-16640605D01*
X1747873Y-16688224D01*
X1738349Y-16726319D01*
X1728826Y-16745367D01*
X1719302Y-16754891D01*
X1700254Y-16764414D01*
X1681206Y-16764414D01*
X1662159Y-16754891D01*
X1652635Y-16745367D01*
X1643111Y-16726319D01*
X1633587Y-16688224D01*
X1633587Y-16640605D01*
X1643111Y-16602510D01*
X1652635Y-16583462D01*
X1662159Y-16573938D01*
X1681206Y-16564414D01*
X1833587Y-16745367D02*
X1843111Y-16754891D01*
X1833587Y-16764414D01*
X1824064Y-16754891D01*
X1833587Y-16745367D01*
X1833587Y-16764414D01*
X1938349Y-16764414D02*
X1976445Y-16764414D01*
X1995492Y-16754891D01*
X2005016Y-16745367D01*
X2024064Y-16716795D01*
X2033587Y-16678700D01*
X2033587Y-16602510D01*
X2024064Y-16583462D01*
X2014540Y-16573938D01*
X1995492Y-16564414D01*
X1957397Y-16564414D01*
X1938349Y-16573938D01*
X1928826Y-16583462D01*
X1919302Y-16602510D01*
X1919302Y-16650129D01*
X1928826Y-16669176D01*
X1938349Y-16678700D01*
X1957397Y-16688224D01*
X1995492Y-16688224D01*
X2014540Y-16678700D01*
X2024064Y-16669176D01*
X2033587Y-16650129D01*
X2128826Y-16764414D02*
X2166921Y-16764414D01*
X2185968Y-16754891D01*
X2195492Y-16745367D01*
X2214540Y-16716795D01*
X2224064Y-16678700D01*
X2224064Y-16602510D01*
X2214540Y-16583462D01*
X2205016Y-16573938D01*
X2185968Y-16564414D01*
X2147873Y-16564414D01*
X2128826Y-16573938D01*
X2119302Y-16583462D01*
X2109778Y-16602510D01*
X2109778Y-16650129D01*
X2119302Y-16669176D01*
X2128826Y-16678700D01*
X2147873Y-16688224D01*
X2185968Y-16688224D01*
X2205016Y-16678700D01*
X2214540Y-16669176D01*
X2224064Y-16650129D01*
X2414540Y-16764414D02*
X2300254Y-16764414D01*
X2357397Y-16764414D02*
X2357397Y-16564414D01*
X2338349Y-16592986D01*
X2319302Y-16612033D01*
X2300254Y-16621557D01*
X2500254Y-16764414D02*
X2500254Y-16631081D01*
X2500254Y-16650129D02*
X2509778Y-16640605D01*
X2528826Y-16631081D01*
X2557397Y-16631081D01*
X2576445Y-16640605D01*
X2585968Y-16659652D01*
X2585968Y-16764414D01*
X2585968Y-16659652D02*
X2595492Y-16640605D01*
X2614540Y-16631081D01*
X2643111Y-16631081D01*
X2662159Y-16640605D01*
X2671683Y-16659652D01*
X2671683Y-16764414D01*
X2766921Y-16764414D02*
X2766921Y-16631081D01*
X2766921Y-16650129D02*
X2776445Y-16640605D01*
X2795492Y-16631081D01*
X2824064Y-16631081D01*
X2843111Y-16640605D01*
X2852635Y-16659652D01*
X2852635Y-16764414D01*
X2852635Y-16659652D02*
X2862159Y-16640605D01*
X2881206Y-16631081D01*
X2909778Y-16631081D01*
X2928826Y-16640605D01*
X2938349Y-16659652D01*
X2938349Y-16764414D01*
X3328826Y-16554891D02*
X3157397Y-16812034D01*
X3585968Y-16564414D02*
X3605016Y-16564414D01*
X3624064Y-16573938D01*
X3633587Y-16583462D01*
X3643111Y-16602510D01*
X3652635Y-16640605D01*
X3652635Y-16688224D01*
X3643111Y-16726319D01*
X3633587Y-16745367D01*
X3624064Y-16754891D01*
X3605016Y-16764414D01*
X3585968Y-16764414D01*
X3566921Y-16754891D01*
X3557397Y-16745367D01*
X3547873Y-16726319D01*
X3538349Y-16688224D01*
X3538349Y-16640605D01*
X3547873Y-16602510D01*
X3557397Y-16583462D01*
X3566921Y-16573938D01*
X3585968Y-16564414D01*
X3738349Y-16745367D02*
X3747873Y-16754891D01*
X3738349Y-16764414D01*
X3728826Y-16754891D01*
X3738349Y-16745367D01*
X3738349Y-16764414D01*
X3871683Y-16564414D02*
X3890730Y-16564414D01*
X3909778Y-16573938D01*
X3919302Y-16583462D01*
X3928826Y-16602510D01*
X3938349Y-16640605D01*
X3938349Y-16688224D01*
X3928826Y-16726319D01*
X3919302Y-16745367D01*
X3909778Y-16754891D01*
X3890730Y-16764414D01*
X3871683Y-16764414D01*
X3852635Y-16754891D01*
X3843111Y-16745367D01*
X3833587Y-16726319D01*
X3824064Y-16688224D01*
X3824064Y-16640605D01*
X3833587Y-16602510D01*
X3843111Y-16583462D01*
X3852635Y-16573938D01*
X3871683Y-16564414D01*
X4005016Y-16564414D02*
X4128826Y-16564414D01*
X4062159Y-16640605D01*
X4090730Y-16640605D01*
X4109778Y-16650129D01*
X4119302Y-16659652D01*
X4128826Y-16678700D01*
X4128826Y-16726319D01*
X4119302Y-16745367D01*
X4109778Y-16754891D01*
X4090730Y-16764414D01*
X4033587Y-16764414D01*
X4014540Y-16754891D01*
X4005016Y-16745367D01*
X4224064Y-16764414D02*
X4262159Y-16764414D01*
X4281207Y-16754891D01*
X4290730Y-16745367D01*
X4309778Y-16716795D01*
X4319302Y-16678700D01*
X4319302Y-16602510D01*
X4309778Y-16583462D01*
X4300254Y-16573938D01*
X4281207Y-16564414D01*
X4243111Y-16564414D01*
X4224064Y-16573938D01*
X4214540Y-16583462D01*
X4205016Y-16602510D01*
X4205016Y-16650129D01*
X4214540Y-16669176D01*
X4224064Y-16678700D01*
X4243111Y-16688224D01*
X4281207Y-16688224D01*
X4300254Y-16678700D01*
X4309778Y-16669176D01*
X4319302Y-16650129D01*
X4443111Y-16564414D02*
X4462159Y-16564414D01*
X4481207Y-16573938D01*
X4490730Y-16583462D01*
X4500254Y-16602510D01*
X4509778Y-16640605D01*
X4509778Y-16688224D01*
X4500254Y-16726319D01*
X4490730Y-16745367D01*
X4481207Y-16754891D01*
X4462159Y-16764414D01*
X4443111Y-16764414D01*
X4424064Y-16754891D01*
X4414540Y-16745367D01*
X4405016Y-16726319D01*
X4395492Y-16688224D01*
X4395492Y-16640605D01*
X4405016Y-16602510D01*
X4414540Y-16583462D01*
X4424064Y-16573938D01*
X4443111Y-16564414D01*
X4585968Y-16564414D02*
X4585968Y-16602510D01*
X4662159Y-16564414D02*
X4662159Y-16602510D01*
X4957397Y-16840605D02*
X4947873Y-16831081D01*
X4928826Y-16802510D01*
X4919302Y-16783462D01*
X4909778Y-16754891D01*
X4900254Y-16707272D01*
X4900254Y-16669176D01*
X4909778Y-16621557D01*
X4919302Y-16592986D01*
X4928826Y-16573938D01*
X4947873Y-16545367D01*
X4957397Y-16535843D01*
X5014540Y-16564414D02*
X5147873Y-16564414D01*
X5062159Y-16764414D01*
X5309778Y-16631081D02*
X5309778Y-16764414D01*
X5262159Y-16554891D02*
X5214540Y-16697748D01*
X5338349Y-16697748D01*
X5566921Y-16764414D02*
X5566921Y-16564414D01*
X5652635Y-16764414D02*
X5652635Y-16659652D01*
X5643111Y-16640605D01*
X5624064Y-16631081D01*
X5595492Y-16631081D01*
X5576445Y-16640605D01*
X5566921Y-16650129D01*
X5776445Y-16764414D02*
X5757397Y-16754891D01*
X5747873Y-16745367D01*
X5738349Y-16726319D01*
X5738349Y-16669176D01*
X5747873Y-16650129D01*
X5757397Y-16640605D01*
X5776445Y-16631081D01*
X5805016Y-16631081D01*
X5824064Y-16640605D01*
X5833587Y-16650129D01*
X5843111Y-16669176D01*
X5843111Y-16726319D01*
X5833587Y-16745367D01*
X5824064Y-16754891D01*
X5805016Y-16764414D01*
X5776445Y-16764414D01*
X5957397Y-16764414D02*
X5938349Y-16754891D01*
X5928826Y-16735843D01*
X5928826Y-16564414D01*
X6109778Y-16754891D02*
X6090730Y-16764414D01*
X6052635Y-16764414D01*
X6033587Y-16754891D01*
X6024064Y-16735843D01*
X6024064Y-16659652D01*
X6033587Y-16640605D01*
X6052635Y-16631081D01*
X6090730Y-16631081D01*
X6109778Y-16640605D01*
X6119302Y-16659652D01*
X6119302Y-16678700D01*
X6024064Y-16697748D01*
X6195492Y-16754891D02*
X6214540Y-16764414D01*
X6252635Y-16764414D01*
X6271683Y-16754891D01*
X6281206Y-16735843D01*
X6281206Y-16726319D01*
X6271683Y-16707272D01*
X6252635Y-16697748D01*
X6224064Y-16697748D01*
X6205016Y-16688224D01*
X6195492Y-16669176D01*
X6195492Y-16659652D01*
X6205016Y-16640605D01*
X6224064Y-16631081D01*
X6252635Y-16631081D01*
X6271683Y-16640605D01*
X6347873Y-16840605D02*
X6357397Y-16831081D01*
X6376445Y-16802510D01*
X6385968Y-16783462D01*
X6395492Y-16754891D01*
X6405016Y-16707272D01*
X6405016Y-16669176D01*
X6395492Y-16621557D01*
X6385968Y-16592986D01*
X6376445Y-16573938D01*
X6357397Y-16545367D01*
X6347873Y-16535843D01*
D15*
X1370848Y-16973294D02*
X1370848Y-16902583D01*
X1300137Y-16902583D01*
X1300137Y-16973294D01*
X1370848Y-16973294D01*
D11*
X1747873Y-17028414D02*
X1633587Y-17028414D01*
X1690730Y-17028414D02*
X1690730Y-16828414D01*
X1671683Y-16856986D01*
X1652635Y-16876034D01*
X1633587Y-16885557D01*
X1833587Y-17009367D02*
X1843111Y-17018891D01*
X1833587Y-17028414D01*
X1824064Y-17018891D01*
X1833587Y-17009367D01*
X1833587Y-17028414D01*
X1966921Y-16828414D02*
X1985968Y-16828414D01*
X2005016Y-16837938D01*
X2014540Y-16847462D01*
X2024064Y-16866510D01*
X2033587Y-16904605D01*
X2033587Y-16952224D01*
X2024064Y-16990319D01*
X2014540Y-17009367D01*
X2005016Y-17018891D01*
X1985968Y-17028414D01*
X1966921Y-17028414D01*
X1947873Y-17018891D01*
X1938349Y-17009367D01*
X1928826Y-16990319D01*
X1919302Y-16952224D01*
X1919302Y-16904605D01*
X1928826Y-16866510D01*
X1938349Y-16847462D01*
X1947873Y-16837938D01*
X1966921Y-16828414D01*
X2157397Y-16828414D02*
X2176445Y-16828414D01*
X2195492Y-16837938D01*
X2205016Y-16847462D01*
X2214540Y-16866510D01*
X2224064Y-16904605D01*
X2224064Y-16952224D01*
X2214540Y-16990319D01*
X2205016Y-17009367D01*
X2195492Y-17018891D01*
X2176445Y-17028414D01*
X2157397Y-17028414D01*
X2138349Y-17018891D01*
X2128826Y-17009367D01*
X2119302Y-16990319D01*
X2109778Y-16952224D01*
X2109778Y-16904605D01*
X2119302Y-16866510D01*
X2128826Y-16847462D01*
X2138349Y-16837938D01*
X2157397Y-16828414D01*
X2347873Y-16828414D02*
X2366921Y-16828414D01*
X2385968Y-16837938D01*
X2395492Y-16847462D01*
X2405016Y-16866510D01*
X2414540Y-16904605D01*
X2414540Y-16952224D01*
X2405016Y-16990319D01*
X2395492Y-17009367D01*
X2385968Y-17018891D01*
X2366921Y-17028414D01*
X2347873Y-17028414D01*
X2328826Y-17018891D01*
X2319302Y-17009367D01*
X2309778Y-16990319D01*
X2300254Y-16952224D01*
X2300254Y-16904605D01*
X2309778Y-16866510D01*
X2319302Y-16847462D01*
X2328826Y-16837938D01*
X2347873Y-16828414D01*
X2500254Y-17028414D02*
X2500254Y-16895081D01*
X2500254Y-16914129D02*
X2509778Y-16904605D01*
X2528826Y-16895081D01*
X2557397Y-16895081D01*
X2576445Y-16904605D01*
X2585968Y-16923653D01*
X2585968Y-17028414D01*
X2585968Y-16923653D02*
X2595492Y-16904605D01*
X2614540Y-16895081D01*
X2643111Y-16895081D01*
X2662159Y-16904605D01*
X2671683Y-16923653D01*
X2671683Y-17028414D01*
X2766921Y-17028414D02*
X2766921Y-16895081D01*
X2766921Y-16914129D02*
X2776445Y-16904605D01*
X2795492Y-16895081D01*
X2824064Y-16895081D01*
X2843111Y-16904605D01*
X2852635Y-16923653D01*
X2852635Y-17028414D01*
X2852635Y-16923653D02*
X2862159Y-16904605D01*
X2881206Y-16895081D01*
X2909778Y-16895081D01*
X2928826Y-16904605D01*
X2938349Y-16923653D01*
X2938349Y-17028414D01*
X3328826Y-16818891D02*
X3157397Y-17076034D01*
X3585968Y-16828414D02*
X3605016Y-16828414D01*
X3624064Y-16837938D01*
X3633587Y-16847462D01*
X3643111Y-16866510D01*
X3652635Y-16904605D01*
X3652635Y-16952224D01*
X3643111Y-16990319D01*
X3633587Y-17009367D01*
X3624064Y-17018891D01*
X3605016Y-17028414D01*
X3585968Y-17028414D01*
X3566921Y-17018891D01*
X3557397Y-17009367D01*
X3547873Y-16990319D01*
X3538349Y-16952224D01*
X3538349Y-16904605D01*
X3547873Y-16866510D01*
X3557397Y-16847462D01*
X3566921Y-16837938D01*
X3585968Y-16828414D01*
X3738349Y-17009367D02*
X3747873Y-17018891D01*
X3738349Y-17028414D01*
X3728826Y-17018891D01*
X3738349Y-17009367D01*
X3738349Y-17028414D01*
X3871683Y-16828414D02*
X3890730Y-16828414D01*
X3909778Y-16837938D01*
X3919302Y-16847462D01*
X3928826Y-16866510D01*
X3938349Y-16904605D01*
X3938349Y-16952224D01*
X3928826Y-16990319D01*
X3919302Y-17009367D01*
X3909778Y-17018891D01*
X3890730Y-17028414D01*
X3871683Y-17028414D01*
X3852635Y-17018891D01*
X3843111Y-17009367D01*
X3833587Y-16990319D01*
X3824064Y-16952224D01*
X3824064Y-16904605D01*
X3833587Y-16866510D01*
X3843111Y-16847462D01*
X3852635Y-16837938D01*
X3871683Y-16828414D01*
X4005016Y-16828414D02*
X4128826Y-16828414D01*
X4062159Y-16904605D01*
X4090730Y-16904605D01*
X4109778Y-16914129D01*
X4119302Y-16923653D01*
X4128826Y-16942700D01*
X4128826Y-16990319D01*
X4119302Y-17009367D01*
X4109778Y-17018891D01*
X4090730Y-17028414D01*
X4033587Y-17028414D01*
X4014540Y-17018891D01*
X4005016Y-17009367D01*
X4224064Y-17028414D02*
X4262159Y-17028414D01*
X4281207Y-17018891D01*
X4290730Y-17009367D01*
X4309778Y-16980795D01*
X4319302Y-16942700D01*
X4319302Y-16866510D01*
X4309778Y-16847462D01*
X4300254Y-16837938D01*
X4281207Y-16828414D01*
X4243111Y-16828414D01*
X4224064Y-16837938D01*
X4214540Y-16847462D01*
X4205016Y-16866510D01*
X4205016Y-16914129D01*
X4214540Y-16933176D01*
X4224064Y-16942700D01*
X4243111Y-16952224D01*
X4281207Y-16952224D01*
X4300254Y-16942700D01*
X4309778Y-16933176D01*
X4319302Y-16914129D01*
X4490730Y-16895081D02*
X4490730Y-17028414D01*
X4443111Y-16818891D02*
X4395492Y-16961748D01*
X4519302Y-16961748D01*
X4585968Y-16828414D02*
X4585968Y-16866510D01*
X4662159Y-16828414D02*
X4662159Y-16866510D01*
X4957397Y-17104605D02*
X4947873Y-17095081D01*
X4928826Y-17066510D01*
X4919302Y-17047462D01*
X4909778Y-17018891D01*
X4900254Y-16971272D01*
X4900254Y-16933176D01*
X4909778Y-16885557D01*
X4919302Y-16856986D01*
X4928826Y-16837938D01*
X4947873Y-16809367D01*
X4957397Y-16799843D01*
X5043111Y-17028414D02*
X5081207Y-17028414D01*
X5100254Y-17018891D01*
X5109778Y-17009367D01*
X5128826Y-16980795D01*
X5138349Y-16942700D01*
X5138349Y-16866510D01*
X5128826Y-16847462D01*
X5119302Y-16837938D01*
X5100254Y-16828414D01*
X5062159Y-16828414D01*
X5043111Y-16837938D01*
X5033588Y-16847462D01*
X5024064Y-16866510D01*
X5024064Y-16914129D01*
X5033588Y-16933176D01*
X5043111Y-16942700D01*
X5062159Y-16952224D01*
X5100254Y-16952224D01*
X5119302Y-16942700D01*
X5128826Y-16933176D01*
X5138349Y-16914129D01*
X5376445Y-17028414D02*
X5376445Y-16828414D01*
X5462159Y-17028414D02*
X5462159Y-16923653D01*
X5452635Y-16904605D01*
X5433588Y-16895081D01*
X5405016Y-16895081D01*
X5385968Y-16904605D01*
X5376445Y-16914129D01*
X5585968Y-17028414D02*
X5566921Y-17018891D01*
X5557397Y-17009367D01*
X5547873Y-16990319D01*
X5547873Y-16933176D01*
X5557397Y-16914129D01*
X5566921Y-16904605D01*
X5585968Y-16895081D01*
X5614540Y-16895081D01*
X5633587Y-16904605D01*
X5643111Y-16914129D01*
X5652635Y-16933176D01*
X5652635Y-16990319D01*
X5643111Y-17009367D01*
X5633587Y-17018891D01*
X5614540Y-17028414D01*
X5585968Y-17028414D01*
X5766921Y-17028414D02*
X5747873Y-17018891D01*
X5738349Y-16999843D01*
X5738349Y-16828414D01*
X5919302Y-17018891D02*
X5900254Y-17028414D01*
X5862159Y-17028414D01*
X5843111Y-17018891D01*
X5833587Y-16999843D01*
X5833587Y-16923653D01*
X5843111Y-16904605D01*
X5862159Y-16895081D01*
X5900254Y-16895081D01*
X5919302Y-16904605D01*
X5928826Y-16923653D01*
X5928826Y-16942700D01*
X5833587Y-16961748D01*
X6005016Y-17018891D02*
X6024064Y-17028414D01*
X6062159Y-17028414D01*
X6081206Y-17018891D01*
X6090730Y-16999843D01*
X6090730Y-16990319D01*
X6081206Y-16971272D01*
X6062159Y-16961748D01*
X6033587Y-16961748D01*
X6014540Y-16952224D01*
X6005016Y-16933176D01*
X6005016Y-16923653D01*
X6014540Y-16904605D01*
X6033587Y-16895081D01*
X6062159Y-16895081D01*
X6081206Y-16904605D01*
X6157397Y-17104605D02*
X6166921Y-17095081D01*
X6185968Y-17066510D01*
X6195492Y-17047462D01*
X6205016Y-17018891D01*
X6214540Y-16971272D01*
X6214540Y-16933176D01*
X6205016Y-16885557D01*
X6195492Y-16856986D01*
X6185968Y-16837938D01*
X6166921Y-16809367D01*
X6157397Y-16799843D01*
D16*
X1330882Y-17256548D02*
X1385492Y-17201938D01*
X1330882Y-17147328D01*
X1276272Y-17201938D01*
X1330882Y-17256548D01*
D11*
X1747873Y-17292414D02*
X1633587Y-17292414D01*
X1690730Y-17292414D02*
X1690730Y-17092414D01*
X1671683Y-17120986D01*
X1652635Y-17140034D01*
X1633587Y-17149557D01*
X1833587Y-17273367D02*
X1843111Y-17282891D01*
X1833587Y-17292414D01*
X1824064Y-17282891D01*
X1833587Y-17273367D01*
X1833587Y-17292414D01*
X1966921Y-17092414D02*
X1985968Y-17092414D01*
X2005016Y-17101938D01*
X2014540Y-17111462D01*
X2024064Y-17130510D01*
X2033587Y-17168605D01*
X2033587Y-17216224D01*
X2024064Y-17254319D01*
X2014540Y-17273367D01*
X2005016Y-17282891D01*
X1985968Y-17292414D01*
X1966921Y-17292414D01*
X1947873Y-17282891D01*
X1938349Y-17273367D01*
X1928826Y-17254319D01*
X1919302Y-17216224D01*
X1919302Y-17168605D01*
X1928826Y-17130510D01*
X1938349Y-17111462D01*
X1947873Y-17101938D01*
X1966921Y-17092414D01*
X2128826Y-17292414D02*
X2166921Y-17292414D01*
X2185968Y-17282891D01*
X2195492Y-17273367D01*
X2214540Y-17244795D01*
X2224064Y-17206700D01*
X2224064Y-17130510D01*
X2214540Y-17111462D01*
X2205016Y-17101938D01*
X2185968Y-17092414D01*
X2147873Y-17092414D01*
X2128826Y-17101938D01*
X2119302Y-17111462D01*
X2109778Y-17130510D01*
X2109778Y-17178129D01*
X2119302Y-17197176D01*
X2128826Y-17206700D01*
X2147873Y-17216224D01*
X2185968Y-17216224D01*
X2205016Y-17206700D01*
X2214540Y-17197176D01*
X2224064Y-17178129D01*
X2300254Y-17111462D02*
X2309778Y-17101938D01*
X2328826Y-17092414D01*
X2376445Y-17092414D01*
X2395492Y-17101938D01*
X2405016Y-17111462D01*
X2414540Y-17130510D01*
X2414540Y-17149557D01*
X2405016Y-17178129D01*
X2290730Y-17292414D01*
X2414540Y-17292414D01*
X2500254Y-17292414D02*
X2500254Y-17159081D01*
X2500254Y-17178129D02*
X2509778Y-17168605D01*
X2528826Y-17159081D01*
X2557397Y-17159081D01*
X2576445Y-17168605D01*
X2585968Y-17187653D01*
X2585968Y-17292414D01*
X2585968Y-17187653D02*
X2595492Y-17168605D01*
X2614540Y-17159081D01*
X2643111Y-17159081D01*
X2662159Y-17168605D01*
X2671683Y-17187653D01*
X2671683Y-17292414D01*
X2766921Y-17292414D02*
X2766921Y-17159081D01*
X2766921Y-17178129D02*
X2776445Y-17168605D01*
X2795492Y-17159081D01*
X2824064Y-17159081D01*
X2843111Y-17168605D01*
X2852635Y-17187653D01*
X2852635Y-17292414D01*
X2852635Y-17187653D02*
X2862159Y-17168605D01*
X2881206Y-17159081D01*
X2909778Y-17159081D01*
X2928826Y-17168605D01*
X2938349Y-17187653D01*
X2938349Y-17292414D01*
X3328826Y-17082891D02*
X3157397Y-17340034D01*
X3585968Y-17092414D02*
X3605016Y-17092414D01*
X3624064Y-17101938D01*
X3633587Y-17111462D01*
X3643111Y-17130510D01*
X3652635Y-17168605D01*
X3652635Y-17216224D01*
X3643111Y-17254319D01*
X3633587Y-17273367D01*
X3624064Y-17282891D01*
X3605016Y-17292414D01*
X3585968Y-17292414D01*
X3566921Y-17282891D01*
X3557397Y-17273367D01*
X3547873Y-17254319D01*
X3538349Y-17216224D01*
X3538349Y-17168605D01*
X3547873Y-17130510D01*
X3557397Y-17111462D01*
X3566921Y-17101938D01*
X3585968Y-17092414D01*
X3738349Y-17273367D02*
X3747873Y-17282891D01*
X3738349Y-17292414D01*
X3728826Y-17282891D01*
X3738349Y-17273367D01*
X3738349Y-17292414D01*
X3871683Y-17092414D02*
X3890730Y-17092414D01*
X3909778Y-17101938D01*
X3919302Y-17111462D01*
X3928826Y-17130510D01*
X3938349Y-17168605D01*
X3938349Y-17216224D01*
X3928826Y-17254319D01*
X3919302Y-17273367D01*
X3909778Y-17282891D01*
X3890730Y-17292414D01*
X3871683Y-17292414D01*
X3852635Y-17282891D01*
X3843111Y-17273367D01*
X3833587Y-17254319D01*
X3824064Y-17216224D01*
X3824064Y-17168605D01*
X3833587Y-17130510D01*
X3843111Y-17111462D01*
X3852635Y-17101938D01*
X3871683Y-17092414D01*
X4109778Y-17159081D02*
X4109778Y-17292414D01*
X4062159Y-17082891D02*
X4014540Y-17225748D01*
X4138349Y-17225748D01*
X4195492Y-17092414D02*
X4319302Y-17092414D01*
X4252635Y-17168605D01*
X4281207Y-17168605D01*
X4300254Y-17178129D01*
X4309778Y-17187653D01*
X4319302Y-17206700D01*
X4319302Y-17254319D01*
X4309778Y-17273367D01*
X4300254Y-17282891D01*
X4281207Y-17292414D01*
X4224064Y-17292414D01*
X4205016Y-17282891D01*
X4195492Y-17273367D01*
X4443111Y-17092414D02*
X4462159Y-17092414D01*
X4481207Y-17101938D01*
X4490730Y-17111462D01*
X4500254Y-17130510D01*
X4509778Y-17168605D01*
X4509778Y-17216224D01*
X4500254Y-17254319D01*
X4490730Y-17273367D01*
X4481207Y-17282891D01*
X4462159Y-17292414D01*
X4443111Y-17292414D01*
X4424064Y-17282891D01*
X4414540Y-17273367D01*
X4405016Y-17254319D01*
X4395492Y-17216224D01*
X4395492Y-17168605D01*
X4405016Y-17130510D01*
X4414540Y-17111462D01*
X4424064Y-17101938D01*
X4443111Y-17092414D01*
X4585968Y-17092414D02*
X4585968Y-17130510D01*
X4662159Y-17092414D02*
X4662159Y-17130510D01*
X4957397Y-17368605D02*
X4947873Y-17359081D01*
X4928826Y-17330510D01*
X4919302Y-17311462D01*
X4909778Y-17282891D01*
X4900254Y-17235272D01*
X4900254Y-17197176D01*
X4909778Y-17149557D01*
X4919302Y-17120986D01*
X4928826Y-17101938D01*
X4947873Y-17073367D01*
X4957397Y-17063843D01*
X5024064Y-17111462D02*
X5033588Y-17101938D01*
X5052635Y-17092414D01*
X5100254Y-17092414D01*
X5119302Y-17101938D01*
X5128826Y-17111462D01*
X5138349Y-17130510D01*
X5138349Y-17149557D01*
X5128826Y-17178129D01*
X5014540Y-17292414D01*
X5138349Y-17292414D01*
X5309778Y-17159081D02*
X5309778Y-17292414D01*
X5262159Y-17082891D02*
X5214540Y-17225748D01*
X5338349Y-17225748D01*
X5566921Y-17292414D02*
X5566921Y-17092414D01*
X5652635Y-17292414D02*
X5652635Y-17187653D01*
X5643111Y-17168605D01*
X5624064Y-17159081D01*
X5595492Y-17159081D01*
X5576445Y-17168605D01*
X5566921Y-17178129D01*
X5776445Y-17292414D02*
X5757397Y-17282891D01*
X5747873Y-17273367D01*
X5738349Y-17254319D01*
X5738349Y-17197176D01*
X5747873Y-17178129D01*
X5757397Y-17168605D01*
X5776445Y-17159081D01*
X5805016Y-17159081D01*
X5824064Y-17168605D01*
X5833587Y-17178129D01*
X5843111Y-17197176D01*
X5843111Y-17254319D01*
X5833587Y-17273367D01*
X5824064Y-17282891D01*
X5805016Y-17292414D01*
X5776445Y-17292414D01*
X5957397Y-17292414D02*
X5938349Y-17282891D01*
X5928826Y-17263843D01*
X5928826Y-17092414D01*
X6109778Y-17282891D02*
X6090730Y-17292414D01*
X6052635Y-17292414D01*
X6033587Y-17282891D01*
X6024064Y-17263843D01*
X6024064Y-17187653D01*
X6033587Y-17168605D01*
X6052635Y-17159081D01*
X6090730Y-17159081D01*
X6109778Y-17168605D01*
X6119302Y-17187653D01*
X6119302Y-17206700D01*
X6024064Y-17225748D01*
X6195492Y-17282891D02*
X6214540Y-17292414D01*
X6252635Y-17292414D01*
X6271683Y-17282891D01*
X6281206Y-17263843D01*
X6281206Y-17254319D01*
X6271683Y-17235272D01*
X6252635Y-17225748D01*
X6224064Y-17225748D01*
X6205016Y-17216224D01*
X6195492Y-17197176D01*
X6195492Y-17187653D01*
X6205016Y-17168605D01*
X6224064Y-17159081D01*
X6252635Y-17159081D01*
X6271683Y-17168605D01*
X6347873Y-17368605D02*
X6357397Y-17359081D01*
X6376445Y-17330510D01*
X6385968Y-17311462D01*
X6395492Y-17282891D01*
X6405016Y-17235272D01*
X6405016Y-17197176D01*
X6395492Y-17149557D01*
X6385968Y-17120986D01*
X6376445Y-17101938D01*
X6357397Y-17073367D01*
X6347873Y-17063843D01*
D17*
X1258492Y-17402438D02*
X1385492Y-17529438D01*
X1385492Y-17402438D02*
X1258492Y-17529438D01*
X1385492Y-17465938D02*
G75*
G03*
X1385492Y-17465938I-63500J0D01*
G01*
D11*
X1747873Y-17556414D02*
X1633587Y-17556414D01*
X1690730Y-17556414D02*
X1690730Y-17356414D01*
X1671683Y-17384986D01*
X1652635Y-17404034D01*
X1633587Y-17413557D01*
X1833587Y-17537367D02*
X1843111Y-17546891D01*
X1833587Y-17556414D01*
X1824064Y-17546891D01*
X1833587Y-17537367D01*
X1833587Y-17556414D01*
X1919302Y-17375462D02*
X1928826Y-17365938D01*
X1947873Y-17356414D01*
X1995492Y-17356414D01*
X2014540Y-17365938D01*
X2024064Y-17375462D01*
X2033587Y-17394510D01*
X2033587Y-17413557D01*
X2024064Y-17442129D01*
X1909778Y-17556414D01*
X2033587Y-17556414D01*
X2100254Y-17356414D02*
X2233588Y-17356414D01*
X2147873Y-17556414D01*
X2347873Y-17356414D02*
X2366921Y-17356414D01*
X2385968Y-17365938D01*
X2395492Y-17375462D01*
X2405016Y-17394510D01*
X2414540Y-17432605D01*
X2414540Y-17480224D01*
X2405016Y-17518319D01*
X2395492Y-17537367D01*
X2385968Y-17546891D01*
X2366921Y-17556414D01*
X2347873Y-17556414D01*
X2328826Y-17546891D01*
X2319302Y-17537367D01*
X2309778Y-17518319D01*
X2300254Y-17480224D01*
X2300254Y-17432605D01*
X2309778Y-17394510D01*
X2319302Y-17375462D01*
X2328826Y-17365938D01*
X2347873Y-17356414D01*
X2500254Y-17556414D02*
X2500254Y-17423081D01*
X2500254Y-17442129D02*
X2509778Y-17432605D01*
X2528826Y-17423081D01*
X2557397Y-17423081D01*
X2576445Y-17432605D01*
X2585968Y-17451653D01*
X2585968Y-17556414D01*
X2585968Y-17451653D02*
X2595492Y-17432605D01*
X2614540Y-17423081D01*
X2643111Y-17423081D01*
X2662159Y-17432605D01*
X2671683Y-17451653D01*
X2671683Y-17556414D01*
X2766921Y-17556414D02*
X2766921Y-17423081D01*
X2766921Y-17442129D02*
X2776445Y-17432605D01*
X2795492Y-17423081D01*
X2824064Y-17423081D01*
X2843111Y-17432605D01*
X2852635Y-17451653D01*
X2852635Y-17556414D01*
X2852635Y-17451653D02*
X2862159Y-17432605D01*
X2881206Y-17423081D01*
X2909778Y-17423081D01*
X2928826Y-17432605D01*
X2938349Y-17451653D01*
X2938349Y-17556414D01*
X3328826Y-17346891D02*
X3157397Y-17604034D01*
X3585968Y-17356414D02*
X3605016Y-17356414D01*
X3624064Y-17365938D01*
X3633587Y-17375462D01*
X3643111Y-17394510D01*
X3652635Y-17432605D01*
X3652635Y-17480224D01*
X3643111Y-17518319D01*
X3633587Y-17537367D01*
X3624064Y-17546891D01*
X3605016Y-17556414D01*
X3585968Y-17556414D01*
X3566921Y-17546891D01*
X3557397Y-17537367D01*
X3547873Y-17518319D01*
X3538349Y-17480224D01*
X3538349Y-17432605D01*
X3547873Y-17394510D01*
X3557397Y-17375462D01*
X3566921Y-17365938D01*
X3585968Y-17356414D01*
X3738349Y-17537367D02*
X3747873Y-17546891D01*
X3738349Y-17556414D01*
X3728826Y-17546891D01*
X3738349Y-17537367D01*
X3738349Y-17556414D01*
X3871683Y-17356414D02*
X3890730Y-17356414D01*
X3909778Y-17365938D01*
X3919302Y-17375462D01*
X3928826Y-17394510D01*
X3938349Y-17432605D01*
X3938349Y-17480224D01*
X3928826Y-17518319D01*
X3919302Y-17537367D01*
X3909778Y-17546891D01*
X3890730Y-17556414D01*
X3871683Y-17556414D01*
X3852635Y-17546891D01*
X3843111Y-17537367D01*
X3833587Y-17518319D01*
X3824064Y-17480224D01*
X3824064Y-17432605D01*
X3833587Y-17394510D01*
X3843111Y-17375462D01*
X3852635Y-17365938D01*
X3871683Y-17356414D01*
X4119302Y-17356414D02*
X4024064Y-17356414D01*
X4014540Y-17451653D01*
X4024064Y-17442129D01*
X4043111Y-17432605D01*
X4090730Y-17432605D01*
X4109778Y-17442129D01*
X4119302Y-17451653D01*
X4128826Y-17470700D01*
X4128826Y-17518319D01*
X4119302Y-17537367D01*
X4109778Y-17546891D01*
X4090730Y-17556414D01*
X4043111Y-17556414D01*
X4024064Y-17546891D01*
X4014540Y-17537367D01*
X4252635Y-17356414D02*
X4271683Y-17356414D01*
X4290730Y-17365938D01*
X4300254Y-17375462D01*
X4309778Y-17394510D01*
X4319302Y-17432605D01*
X4319302Y-17480224D01*
X4309778Y-17518319D01*
X4300254Y-17537367D01*
X4290730Y-17546891D01*
X4271683Y-17556414D01*
X4252635Y-17556414D01*
X4233588Y-17546891D01*
X4224064Y-17537367D01*
X4214540Y-17518319D01*
X4205016Y-17480224D01*
X4205016Y-17432605D01*
X4214540Y-17394510D01*
X4224064Y-17375462D01*
X4233588Y-17365938D01*
X4252635Y-17356414D01*
X4443111Y-17356414D02*
X4462159Y-17356414D01*
X4481207Y-17365938D01*
X4490730Y-17375462D01*
X4500254Y-17394510D01*
X4509778Y-17432605D01*
X4509778Y-17480224D01*
X4500254Y-17518319D01*
X4490730Y-17537367D01*
X4481207Y-17546891D01*
X4462159Y-17556414D01*
X4443111Y-17556414D01*
X4424064Y-17546891D01*
X4414540Y-17537367D01*
X4405016Y-17518319D01*
X4395492Y-17480224D01*
X4395492Y-17432605D01*
X4405016Y-17394510D01*
X4414540Y-17375462D01*
X4424064Y-17365938D01*
X4443111Y-17356414D01*
X4585968Y-17356414D02*
X4585968Y-17394510D01*
X4662159Y-17356414D02*
X4662159Y-17394510D01*
X4957397Y-17632605D02*
X4947873Y-17623081D01*
X4928826Y-17594510D01*
X4919302Y-17575462D01*
X4909778Y-17546891D01*
X4900254Y-17499272D01*
X4900254Y-17461176D01*
X4909778Y-17413557D01*
X4919302Y-17384986D01*
X4928826Y-17365938D01*
X4947873Y-17337367D01*
X4957397Y-17327843D01*
X5014540Y-17356414D02*
X5147873Y-17356414D01*
X5062159Y-17556414D01*
X5214540Y-17375462D02*
X5224064Y-17365938D01*
X5243111Y-17356414D01*
X5290730Y-17356414D01*
X5309778Y-17365938D01*
X5319302Y-17375462D01*
X5328826Y-17394510D01*
X5328826Y-17413557D01*
X5319302Y-17442129D01*
X5205016Y-17556414D01*
X5328826Y-17556414D01*
X5566921Y-17556414D02*
X5566921Y-17356414D01*
X5652635Y-17556414D02*
X5652635Y-17451653D01*
X5643111Y-17432605D01*
X5624064Y-17423081D01*
X5595492Y-17423081D01*
X5576445Y-17432605D01*
X5566921Y-17442129D01*
X5776445Y-17556414D02*
X5757397Y-17546891D01*
X5747873Y-17537367D01*
X5738349Y-17518319D01*
X5738349Y-17461176D01*
X5747873Y-17442129D01*
X5757397Y-17432605D01*
X5776445Y-17423081D01*
X5805016Y-17423081D01*
X5824064Y-17432605D01*
X5833587Y-17442129D01*
X5843111Y-17461176D01*
X5843111Y-17518319D01*
X5833587Y-17537367D01*
X5824064Y-17546891D01*
X5805016Y-17556414D01*
X5776445Y-17556414D01*
X5957397Y-17556414D02*
X5938349Y-17546891D01*
X5928826Y-17527843D01*
X5928826Y-17356414D01*
X6109778Y-17546891D02*
X6090730Y-17556414D01*
X6052635Y-17556414D01*
X6033587Y-17546891D01*
X6024064Y-17527843D01*
X6024064Y-17451653D01*
X6033587Y-17432605D01*
X6052635Y-17423081D01*
X6090730Y-17423081D01*
X6109778Y-17432605D01*
X6119302Y-17451653D01*
X6119302Y-17470700D01*
X6024064Y-17489748D01*
X6195492Y-17546891D02*
X6214540Y-17556414D01*
X6252635Y-17556414D01*
X6271683Y-17546891D01*
X6281206Y-17527843D01*
X6281206Y-17518319D01*
X6271683Y-17499272D01*
X6252635Y-17489748D01*
X6224064Y-17489748D01*
X6205016Y-17480224D01*
X6195492Y-17461176D01*
X6195492Y-17451653D01*
X6205016Y-17432605D01*
X6224064Y-17423081D01*
X6252635Y-17423081D01*
X6271683Y-17432605D01*
X6347873Y-17632605D02*
X6357397Y-17623081D01*
X6376445Y-17594510D01*
X6385968Y-17575462D01*
X6395492Y-17546891D01*
X6405016Y-17499272D01*
X6405016Y-17461176D01*
X6395492Y-17413557D01*
X6385968Y-17384986D01*
X6376445Y-17365938D01*
X6357397Y-17337367D01*
X6347873Y-17327843D01*
D18*
X1235632Y-17655008D02*
X1385492Y-17804868D01*
X1385492Y-17655008D02*
X1235632Y-17804868D01*
X1310562Y-17655008D02*
X1310562Y-17804868D01*
X1235632Y-17729938D02*
X1385492Y-17729938D01*
D11*
X1747873Y-17820414D02*
X1633587Y-17820414D01*
X1690730Y-17820414D02*
X1690730Y-17620414D01*
X1671683Y-17648986D01*
X1652635Y-17668034D01*
X1633587Y-17677557D01*
X1833587Y-17801367D02*
X1843111Y-17810891D01*
X1833587Y-17820414D01*
X1824064Y-17810891D01*
X1833587Y-17801367D01*
X1833587Y-17820414D01*
X2014540Y-17687081D02*
X2014540Y-17820414D01*
X1966921Y-17610891D02*
X1919302Y-17753748D01*
X2043111Y-17753748D01*
X2128826Y-17820414D02*
X2166921Y-17820414D01*
X2185968Y-17810891D01*
X2195492Y-17801367D01*
X2214540Y-17772795D01*
X2224064Y-17734700D01*
X2224064Y-17658510D01*
X2214540Y-17639462D01*
X2205016Y-17629938D01*
X2185968Y-17620414D01*
X2147873Y-17620414D01*
X2128826Y-17629938D01*
X2119302Y-17639462D01*
X2109778Y-17658510D01*
X2109778Y-17706129D01*
X2119302Y-17725176D01*
X2128826Y-17734700D01*
X2147873Y-17744224D01*
X2185968Y-17744224D01*
X2205016Y-17734700D01*
X2214540Y-17725176D01*
X2224064Y-17706129D01*
X2319302Y-17820414D02*
X2357397Y-17820414D01*
X2376445Y-17810891D01*
X2385968Y-17801367D01*
X2405016Y-17772795D01*
X2414540Y-17734700D01*
X2414540Y-17658510D01*
X2405016Y-17639462D01*
X2395492Y-17629938D01*
X2376445Y-17620414D01*
X2338349Y-17620414D01*
X2319302Y-17629938D01*
X2309778Y-17639462D01*
X2300254Y-17658510D01*
X2300254Y-17706129D01*
X2309778Y-17725176D01*
X2319302Y-17734700D01*
X2338349Y-17744224D01*
X2376445Y-17744224D01*
X2395492Y-17734700D01*
X2405016Y-17725176D01*
X2414540Y-17706129D01*
X2500254Y-17820414D02*
X2500254Y-17687081D01*
X2500254Y-17706129D02*
X2509778Y-17696605D01*
X2528826Y-17687081D01*
X2557397Y-17687081D01*
X2576445Y-17696605D01*
X2585968Y-17715653D01*
X2585968Y-17820414D01*
X2585968Y-17715653D02*
X2595492Y-17696605D01*
X2614540Y-17687081D01*
X2643111Y-17687081D01*
X2662159Y-17696605D01*
X2671683Y-17715653D01*
X2671683Y-17820414D01*
X2766921Y-17820414D02*
X2766921Y-17687081D01*
X2766921Y-17706129D02*
X2776445Y-17696605D01*
X2795492Y-17687081D01*
X2824064Y-17687081D01*
X2843111Y-17696605D01*
X2852635Y-17715653D01*
X2852635Y-17820414D01*
X2852635Y-17715653D02*
X2862159Y-17696605D01*
X2881206Y-17687081D01*
X2909778Y-17687081D01*
X2928826Y-17696605D01*
X2938349Y-17715653D01*
X2938349Y-17820414D01*
X3328826Y-17610891D02*
X3157397Y-17868034D01*
X3585968Y-17620414D02*
X3605016Y-17620414D01*
X3624064Y-17629938D01*
X3633587Y-17639462D01*
X3643111Y-17658510D01*
X3652635Y-17696605D01*
X3652635Y-17744224D01*
X3643111Y-17782319D01*
X3633587Y-17801367D01*
X3624064Y-17810891D01*
X3605016Y-17820414D01*
X3585968Y-17820414D01*
X3566921Y-17810891D01*
X3557397Y-17801367D01*
X3547873Y-17782319D01*
X3538349Y-17744224D01*
X3538349Y-17696605D01*
X3547873Y-17658510D01*
X3557397Y-17639462D01*
X3566921Y-17629938D01*
X3585968Y-17620414D01*
X3738349Y-17801367D02*
X3747873Y-17810891D01*
X3738349Y-17820414D01*
X3728826Y-17810891D01*
X3738349Y-17801367D01*
X3738349Y-17820414D01*
X3871683Y-17620414D02*
X3890730Y-17620414D01*
X3909778Y-17629938D01*
X3919302Y-17639462D01*
X3928826Y-17658510D01*
X3938349Y-17696605D01*
X3938349Y-17744224D01*
X3928826Y-17782319D01*
X3919302Y-17801367D01*
X3909778Y-17810891D01*
X3890730Y-17820414D01*
X3871683Y-17820414D01*
X3852635Y-17810891D01*
X3843111Y-17801367D01*
X3833587Y-17782319D01*
X3824064Y-17744224D01*
X3824064Y-17696605D01*
X3833587Y-17658510D01*
X3843111Y-17639462D01*
X3852635Y-17629938D01*
X3871683Y-17620414D01*
X4119302Y-17620414D02*
X4024064Y-17620414D01*
X4014540Y-17715653D01*
X4024064Y-17706129D01*
X4043111Y-17696605D01*
X4090730Y-17696605D01*
X4109778Y-17706129D01*
X4119302Y-17715653D01*
X4128826Y-17734700D01*
X4128826Y-17782319D01*
X4119302Y-17801367D01*
X4109778Y-17810891D01*
X4090730Y-17820414D01*
X4043111Y-17820414D01*
X4024064Y-17810891D01*
X4014540Y-17801367D01*
X4224064Y-17820414D02*
X4262159Y-17820414D01*
X4281207Y-17810891D01*
X4290730Y-17801367D01*
X4309778Y-17772795D01*
X4319302Y-17734700D01*
X4319302Y-17658510D01*
X4309778Y-17639462D01*
X4300254Y-17629938D01*
X4281207Y-17620414D01*
X4243111Y-17620414D01*
X4224064Y-17629938D01*
X4214540Y-17639462D01*
X4205016Y-17658510D01*
X4205016Y-17706129D01*
X4214540Y-17725176D01*
X4224064Y-17734700D01*
X4243111Y-17744224D01*
X4281207Y-17744224D01*
X4300254Y-17734700D01*
X4309778Y-17725176D01*
X4319302Y-17706129D01*
X4443111Y-17620414D02*
X4462159Y-17620414D01*
X4481207Y-17629938D01*
X4490730Y-17639462D01*
X4500254Y-17658510D01*
X4509778Y-17696605D01*
X4509778Y-17744224D01*
X4500254Y-17782319D01*
X4490730Y-17801367D01*
X4481207Y-17810891D01*
X4462159Y-17820414D01*
X4443111Y-17820414D01*
X4424064Y-17810891D01*
X4414540Y-17801367D01*
X4405016Y-17782319D01*
X4395492Y-17744224D01*
X4395492Y-17696605D01*
X4405016Y-17658510D01*
X4414540Y-17639462D01*
X4424064Y-17629938D01*
X4443111Y-17620414D01*
X4585968Y-17620414D02*
X4585968Y-17658510D01*
X4662159Y-17620414D02*
X4662159Y-17658510D01*
X4957397Y-17896605D02*
X4947873Y-17887081D01*
X4928826Y-17858510D01*
X4919302Y-17839462D01*
X4909778Y-17810891D01*
X4900254Y-17763272D01*
X4900254Y-17725176D01*
X4909778Y-17677557D01*
X4919302Y-17648986D01*
X4928826Y-17629938D01*
X4947873Y-17601367D01*
X4957397Y-17591843D01*
X5014540Y-17620414D02*
X5147873Y-17620414D01*
X5062159Y-17820414D01*
X5214540Y-17639462D02*
X5224064Y-17629938D01*
X5243111Y-17620414D01*
X5290730Y-17620414D01*
X5309778Y-17629938D01*
X5319302Y-17639462D01*
X5328826Y-17658510D01*
X5328826Y-17677557D01*
X5319302Y-17706129D01*
X5205016Y-17820414D01*
X5328826Y-17820414D01*
X5566921Y-17820414D02*
X5566921Y-17620414D01*
X5652635Y-17820414D02*
X5652635Y-17715653D01*
X5643111Y-17696605D01*
X5624064Y-17687081D01*
X5595492Y-17687081D01*
X5576445Y-17696605D01*
X5566921Y-17706129D01*
X5776445Y-17820414D02*
X5757397Y-17810891D01*
X5747873Y-17801367D01*
X5738349Y-17782319D01*
X5738349Y-17725176D01*
X5747873Y-17706129D01*
X5757397Y-17696605D01*
X5776445Y-17687081D01*
X5805016Y-17687081D01*
X5824064Y-17696605D01*
X5833587Y-17706129D01*
X5843111Y-17725176D01*
X5843111Y-17782319D01*
X5833587Y-17801367D01*
X5824064Y-17810891D01*
X5805016Y-17820414D01*
X5776445Y-17820414D01*
X5957397Y-17820414D02*
X5938349Y-17810891D01*
X5928826Y-17791843D01*
X5928826Y-17620414D01*
X6109778Y-17810891D02*
X6090730Y-17820414D01*
X6052635Y-17820414D01*
X6033587Y-17810891D01*
X6024064Y-17791843D01*
X6024064Y-17715653D01*
X6033587Y-17696605D01*
X6052635Y-17687081D01*
X6090730Y-17687081D01*
X6109778Y-17696605D01*
X6119302Y-17715653D01*
X6119302Y-17734700D01*
X6024064Y-17753748D01*
X6195492Y-17810891D02*
X6214540Y-17820414D01*
X6252635Y-17820414D01*
X6271683Y-17810891D01*
X6281206Y-17791843D01*
X6281206Y-17782319D01*
X6271683Y-17763272D01*
X6252635Y-17753748D01*
X6224064Y-17753748D01*
X6205016Y-17744224D01*
X6195492Y-17725176D01*
X6195492Y-17715653D01*
X6205016Y-17696605D01*
X6224064Y-17687081D01*
X6252635Y-17687081D01*
X6271683Y-17696605D01*
X6347873Y-17896605D02*
X6357397Y-17887081D01*
X6376445Y-17858510D01*
X6385968Y-17839462D01*
X6395492Y-17810891D01*
X6405016Y-17763272D01*
X6405016Y-17725176D01*
X6395492Y-17677557D01*
X6385968Y-17648986D01*
X6376445Y-17629938D01*
X6357397Y-17601367D01*
X6347873Y-17591843D01*
D19*
X1235492Y-17924798D02*
X1385492Y-18074798D01*
X1385492Y-17924798D02*
X1235492Y-18074798D01*
X1363526Y-18052832D02*
X1363526Y-17946765D01*
X1257459Y-17946765D01*
X1257459Y-18052832D01*
X1363526Y-18052832D01*
D11*
X1747873Y-18090274D02*
X1633587Y-18090274D01*
X1690730Y-18090274D02*
X1690730Y-17890274D01*
X1671683Y-17918846D01*
X1652635Y-17937894D01*
X1633587Y-17947417D01*
X1833587Y-18071227D02*
X1843111Y-18080751D01*
X1833587Y-18090274D01*
X1824064Y-18080751D01*
X1833587Y-18071227D01*
X1833587Y-18090274D01*
X2024064Y-17890274D02*
X1928826Y-17890274D01*
X1919302Y-17985513D01*
X1928826Y-17975989D01*
X1947873Y-17966465D01*
X1995492Y-17966465D01*
X2014540Y-17975989D01*
X2024064Y-17985513D01*
X2033587Y-18004560D01*
X2033587Y-18052179D01*
X2024064Y-18071227D01*
X2014540Y-18080751D01*
X1995492Y-18090274D01*
X1947873Y-18090274D01*
X1928826Y-18080751D01*
X1919302Y-18071227D01*
X2157397Y-17890274D02*
X2176445Y-17890274D01*
X2195492Y-17899798D01*
X2205016Y-17909322D01*
X2214540Y-17928370D01*
X2224064Y-17966465D01*
X2224064Y-18014084D01*
X2214540Y-18052179D01*
X2205016Y-18071227D01*
X2195492Y-18080751D01*
X2176445Y-18090274D01*
X2157397Y-18090274D01*
X2138349Y-18080751D01*
X2128826Y-18071227D01*
X2119302Y-18052179D01*
X2109778Y-18014084D01*
X2109778Y-17966465D01*
X2119302Y-17928370D01*
X2128826Y-17909322D01*
X2138349Y-17899798D01*
X2157397Y-17890274D01*
X2347873Y-17890274D02*
X2366921Y-17890274D01*
X2385968Y-17899798D01*
X2395492Y-17909322D01*
X2405016Y-17928370D01*
X2414540Y-17966465D01*
X2414540Y-18014084D01*
X2405016Y-18052179D01*
X2395492Y-18071227D01*
X2385968Y-18080751D01*
X2366921Y-18090274D01*
X2347873Y-18090274D01*
X2328826Y-18080751D01*
X2319302Y-18071227D01*
X2309778Y-18052179D01*
X2300254Y-18014084D01*
X2300254Y-17966465D01*
X2309778Y-17928370D01*
X2319302Y-17909322D01*
X2328826Y-17899798D01*
X2347873Y-17890274D01*
X2500254Y-18090274D02*
X2500254Y-17956941D01*
X2500254Y-17975989D02*
X2509778Y-17966465D01*
X2528826Y-17956941D01*
X2557397Y-17956941D01*
X2576445Y-17966465D01*
X2585968Y-17985513D01*
X2585968Y-18090274D01*
X2585968Y-17985513D02*
X2595492Y-17966465D01*
X2614540Y-17956941D01*
X2643111Y-17956941D01*
X2662159Y-17966465D01*
X2671683Y-17985513D01*
X2671683Y-18090274D01*
X2766921Y-18090274D02*
X2766921Y-17956941D01*
X2766921Y-17975989D02*
X2776445Y-17966465D01*
X2795492Y-17956941D01*
X2824064Y-17956941D01*
X2843111Y-17966465D01*
X2852635Y-17985513D01*
X2852635Y-18090274D01*
X2852635Y-17985513D02*
X2862159Y-17966465D01*
X2881206Y-17956941D01*
X2909778Y-17956941D01*
X2928826Y-17966465D01*
X2938349Y-17985513D01*
X2938349Y-18090274D01*
X3328826Y-17880751D02*
X3157397Y-18137894D01*
X3585968Y-17890274D02*
X3605016Y-17890274D01*
X3624064Y-17899798D01*
X3633587Y-17909322D01*
X3643111Y-17928370D01*
X3652635Y-17966465D01*
X3652635Y-18014084D01*
X3643111Y-18052179D01*
X3633587Y-18071227D01*
X3624064Y-18080751D01*
X3605016Y-18090274D01*
X3585968Y-18090274D01*
X3566921Y-18080751D01*
X3557397Y-18071227D01*
X3547873Y-18052179D01*
X3538349Y-18014084D01*
X3538349Y-17966465D01*
X3547873Y-17928370D01*
X3557397Y-17909322D01*
X3566921Y-17899798D01*
X3585968Y-17890274D01*
X3738349Y-18071227D02*
X3747873Y-18080751D01*
X3738349Y-18090274D01*
X3728826Y-18080751D01*
X3738349Y-18071227D01*
X3738349Y-18090274D01*
X3871683Y-17890274D02*
X3890730Y-17890274D01*
X3909778Y-17899798D01*
X3919302Y-17909322D01*
X3928826Y-17928370D01*
X3938349Y-17966465D01*
X3938349Y-18014084D01*
X3928826Y-18052179D01*
X3919302Y-18071227D01*
X3909778Y-18080751D01*
X3890730Y-18090274D01*
X3871683Y-18090274D01*
X3852635Y-18080751D01*
X3843111Y-18071227D01*
X3833587Y-18052179D01*
X3824064Y-18014084D01*
X3824064Y-17966465D01*
X3833587Y-17928370D01*
X3843111Y-17909322D01*
X3852635Y-17899798D01*
X3871683Y-17890274D01*
X4119302Y-17890274D02*
X4024064Y-17890274D01*
X4014540Y-17985513D01*
X4024064Y-17975989D01*
X4043111Y-17966465D01*
X4090730Y-17966465D01*
X4109778Y-17975989D01*
X4119302Y-17985513D01*
X4128826Y-18004560D01*
X4128826Y-18052179D01*
X4119302Y-18071227D01*
X4109778Y-18080751D01*
X4090730Y-18090274D01*
X4043111Y-18090274D01*
X4024064Y-18080751D01*
X4014540Y-18071227D01*
X4224064Y-18090274D02*
X4262159Y-18090274D01*
X4281207Y-18080751D01*
X4290730Y-18071227D01*
X4309778Y-18042655D01*
X4319302Y-18004560D01*
X4319302Y-17928370D01*
X4309778Y-17909322D01*
X4300254Y-17899798D01*
X4281207Y-17890274D01*
X4243111Y-17890274D01*
X4224064Y-17899798D01*
X4214540Y-17909322D01*
X4205016Y-17928370D01*
X4205016Y-17975989D01*
X4214540Y-17995036D01*
X4224064Y-18004560D01*
X4243111Y-18014084D01*
X4281207Y-18014084D01*
X4300254Y-18004560D01*
X4309778Y-17995036D01*
X4319302Y-17975989D01*
X4509778Y-18090274D02*
X4395492Y-18090274D01*
X4452635Y-18090274D02*
X4452635Y-17890274D01*
X4433588Y-17918846D01*
X4414540Y-17937894D01*
X4395492Y-17947417D01*
X4585968Y-17890274D02*
X4585968Y-17928370D01*
X4662159Y-17890274D02*
X4662159Y-17928370D01*
X4957397Y-18166465D02*
X4947873Y-18156941D01*
X4928826Y-18128370D01*
X4919302Y-18109322D01*
X4909778Y-18080751D01*
X4900254Y-18033132D01*
X4900254Y-17995036D01*
X4909778Y-17947417D01*
X4919302Y-17918846D01*
X4928826Y-17899798D01*
X4947873Y-17871227D01*
X4957397Y-17861703D01*
X5071683Y-17890274D02*
X5090730Y-17890274D01*
X5109778Y-17899798D01*
X5119302Y-17909322D01*
X5128826Y-17928370D01*
X5138349Y-17966465D01*
X5138349Y-18014084D01*
X5128826Y-18052179D01*
X5119302Y-18071227D01*
X5109778Y-18080751D01*
X5090730Y-18090274D01*
X5071683Y-18090274D01*
X5052635Y-18080751D01*
X5043111Y-18071227D01*
X5033588Y-18052179D01*
X5024064Y-18014084D01*
X5024064Y-17966465D01*
X5033588Y-17928370D01*
X5043111Y-17909322D01*
X5052635Y-17899798D01*
X5071683Y-17890274D01*
X5376445Y-18090274D02*
X5376445Y-17890274D01*
X5462159Y-18090274D02*
X5462159Y-17985513D01*
X5452635Y-17966465D01*
X5433588Y-17956941D01*
X5405016Y-17956941D01*
X5385968Y-17966465D01*
X5376445Y-17975989D01*
X5585968Y-18090274D02*
X5566921Y-18080751D01*
X5557397Y-18071227D01*
X5547873Y-18052179D01*
X5547873Y-17995036D01*
X5557397Y-17975989D01*
X5566921Y-17966465D01*
X5585968Y-17956941D01*
X5614540Y-17956941D01*
X5633587Y-17966465D01*
X5643111Y-17975989D01*
X5652635Y-17995036D01*
X5652635Y-18052179D01*
X5643111Y-18071227D01*
X5633587Y-18080751D01*
X5614540Y-18090274D01*
X5585968Y-18090274D01*
X5766921Y-18090274D02*
X5747873Y-18080751D01*
X5738349Y-18061703D01*
X5738349Y-17890274D01*
X5919302Y-18080751D02*
X5900254Y-18090274D01*
X5862159Y-18090274D01*
X5843111Y-18080751D01*
X5833587Y-18061703D01*
X5833587Y-17985513D01*
X5843111Y-17966465D01*
X5862159Y-17956941D01*
X5900254Y-17956941D01*
X5919302Y-17966465D01*
X5928826Y-17985513D01*
X5928826Y-18004560D01*
X5833587Y-18023608D01*
X6005016Y-18080751D02*
X6024064Y-18090274D01*
X6062159Y-18090274D01*
X6081206Y-18080751D01*
X6090730Y-18061703D01*
X6090730Y-18052179D01*
X6081206Y-18033132D01*
X6062159Y-18023608D01*
X6033587Y-18023608D01*
X6014540Y-18014084D01*
X6005016Y-17995036D01*
X6005016Y-17985513D01*
X6014540Y-17966465D01*
X6033587Y-17956941D01*
X6062159Y-17956941D01*
X6081206Y-17966465D01*
X6328826Y-18014084D02*
X6481206Y-18014084D01*
X6405016Y-18090274D02*
X6405016Y-17937894D01*
X6719302Y-17909322D02*
X6728826Y-17899798D01*
X6747873Y-17890274D01*
X6795492Y-17890274D01*
X6814540Y-17899798D01*
X6824064Y-17909322D01*
X6833587Y-17928370D01*
X6833587Y-17947417D01*
X6824064Y-17975989D01*
X6709778Y-18090274D01*
X6833587Y-18090274D01*
X7062159Y-18080751D02*
X7081206Y-18090274D01*
X7119302Y-18090274D01*
X7138349Y-18080751D01*
X7147873Y-18061703D01*
X7147873Y-18052179D01*
X7138349Y-18033132D01*
X7119302Y-18023608D01*
X7090730Y-18023608D01*
X7071683Y-18014084D01*
X7062159Y-17995036D01*
X7062159Y-17985513D01*
X7071683Y-17966465D01*
X7090730Y-17956941D01*
X7119302Y-17956941D01*
X7138349Y-17966465D01*
X7262159Y-18090274D02*
X7243111Y-18080751D01*
X7233587Y-18061703D01*
X7233587Y-17890274D01*
X7366921Y-18090274D02*
X7347873Y-18080751D01*
X7338349Y-18071227D01*
X7328826Y-18052179D01*
X7328826Y-17995036D01*
X7338349Y-17975989D01*
X7347873Y-17966465D01*
X7366921Y-17956941D01*
X7395492Y-17956941D01*
X7414540Y-17966465D01*
X7424064Y-17975989D01*
X7433587Y-17995036D01*
X7433587Y-18052179D01*
X7424064Y-18071227D01*
X7414540Y-18080751D01*
X7395492Y-18090274D01*
X7366921Y-18090274D01*
X7490730Y-17956941D02*
X7566921Y-17956941D01*
X7519302Y-17890274D02*
X7519302Y-18061703D01*
X7528826Y-18080751D01*
X7547873Y-18090274D01*
X7566921Y-18090274D01*
X7624064Y-18080751D02*
X7643111Y-18090274D01*
X7681206Y-18090274D01*
X7700254Y-18080751D01*
X7709778Y-18061703D01*
X7709778Y-18052179D01*
X7700254Y-18033132D01*
X7681206Y-18023608D01*
X7652635Y-18023608D01*
X7633587Y-18014084D01*
X7624064Y-17995036D01*
X7624064Y-17985513D01*
X7633587Y-17966465D01*
X7652635Y-17956941D01*
X7681206Y-17956941D01*
X7700254Y-17966465D01*
X7776445Y-18166465D02*
X7785968Y-18156941D01*
X7805016Y-18128370D01*
X7814540Y-18109322D01*
X7824064Y-18080751D01*
X7833587Y-18033132D01*
X7833587Y-17995036D01*
X7824064Y-17947417D01*
X7814540Y-17918846D01*
X7805016Y-17899798D01*
X7785968Y-17871227D01*
X7776445Y-17861703D01*
X1185492Y-18169798D02*
X1385492Y-18369798D01*
X1385492Y-18169798D02*
X1185492Y-18369798D01*
X1285492Y-18369798D02*
X1385492Y-18269798D01*
X1285492Y-18169798D01*
X1185492Y-18269798D01*
X1285492Y-18369798D01*
X1633587Y-18179322D02*
X1643111Y-18169798D01*
X1662159Y-18160274D01*
X1709778Y-18160274D01*
X1728826Y-18169798D01*
X1738349Y-18179322D01*
X1747873Y-18198370D01*
X1747873Y-18217417D01*
X1738349Y-18245989D01*
X1624064Y-18360274D01*
X1747873Y-18360274D01*
X1833587Y-18341227D02*
X1843111Y-18350751D01*
X1833587Y-18360274D01*
X1824064Y-18350751D01*
X1833587Y-18341227D01*
X1833587Y-18360274D01*
X1919302Y-18179322D02*
X1928826Y-18169798D01*
X1947873Y-18160274D01*
X1995492Y-18160274D01*
X2014540Y-18169798D01*
X2024064Y-18179322D01*
X2033587Y-18198370D01*
X2033587Y-18217417D01*
X2024064Y-18245989D01*
X1909778Y-18360274D01*
X2033587Y-18360274D01*
X2157397Y-18160274D02*
X2176445Y-18160274D01*
X2195492Y-18169798D01*
X2205016Y-18179322D01*
X2214540Y-18198370D01*
X2224064Y-18236465D01*
X2224064Y-18284084D01*
X2214540Y-18322179D01*
X2205016Y-18341227D01*
X2195492Y-18350751D01*
X2176445Y-18360274D01*
X2157397Y-18360274D01*
X2138349Y-18350751D01*
X2128826Y-18341227D01*
X2119302Y-18322179D01*
X2109778Y-18284084D01*
X2109778Y-18236465D01*
X2119302Y-18198370D01*
X2128826Y-18179322D01*
X2138349Y-18169798D01*
X2157397Y-18160274D01*
X2347873Y-18160274D02*
X2366921Y-18160274D01*
X2385968Y-18169798D01*
X2395492Y-18179322D01*
X2405016Y-18198370D01*
X2414540Y-18236465D01*
X2414540Y-18284084D01*
X2405016Y-18322179D01*
X2395492Y-18341227D01*
X2385968Y-18350751D01*
X2366921Y-18360274D01*
X2347873Y-18360274D01*
X2328826Y-18350751D01*
X2319302Y-18341227D01*
X2309778Y-18322179D01*
X2300254Y-18284084D01*
X2300254Y-18236465D01*
X2309778Y-18198370D01*
X2319302Y-18179322D01*
X2328826Y-18169798D01*
X2347873Y-18160274D01*
X2500254Y-18360274D02*
X2500254Y-18226941D01*
X2500254Y-18245989D02*
X2509778Y-18236465D01*
X2528826Y-18226941D01*
X2557397Y-18226941D01*
X2576445Y-18236465D01*
X2585968Y-18255513D01*
X2585968Y-18360274D01*
X2585968Y-18255513D02*
X2595492Y-18236465D01*
X2614540Y-18226941D01*
X2643111Y-18226941D01*
X2662159Y-18236465D01*
X2671683Y-18255513D01*
X2671683Y-18360274D01*
X2766921Y-18360274D02*
X2766921Y-18226941D01*
X2766921Y-18245989D02*
X2776445Y-18236465D01*
X2795492Y-18226941D01*
X2824064Y-18226941D01*
X2843111Y-18236465D01*
X2852635Y-18255513D01*
X2852635Y-18360274D01*
X2852635Y-18255513D02*
X2862159Y-18236465D01*
X2881206Y-18226941D01*
X2909778Y-18226941D01*
X2928826Y-18236465D01*
X2938349Y-18255513D01*
X2938349Y-18360274D01*
X3328826Y-18150751D02*
X3157397Y-18407894D01*
X3585968Y-18160274D02*
X3605016Y-18160274D01*
X3624064Y-18169798D01*
X3633587Y-18179322D01*
X3643111Y-18198370D01*
X3652635Y-18236465D01*
X3652635Y-18284084D01*
X3643111Y-18322179D01*
X3633587Y-18341227D01*
X3624064Y-18350751D01*
X3605016Y-18360274D01*
X3585968Y-18360274D01*
X3566921Y-18350751D01*
X3557397Y-18341227D01*
X3547873Y-18322179D01*
X3538349Y-18284084D01*
X3538349Y-18236465D01*
X3547873Y-18198370D01*
X3557397Y-18179322D01*
X3566921Y-18169798D01*
X3585968Y-18160274D01*
X3738349Y-18341227D02*
X3747873Y-18350751D01*
X3738349Y-18360274D01*
X3728826Y-18350751D01*
X3738349Y-18341227D01*
X3738349Y-18360274D01*
X3871683Y-18160274D02*
X3890730Y-18160274D01*
X3909778Y-18169798D01*
X3919302Y-18179322D01*
X3928826Y-18198370D01*
X3938349Y-18236465D01*
X3938349Y-18284084D01*
X3928826Y-18322179D01*
X3919302Y-18341227D01*
X3909778Y-18350751D01*
X3890730Y-18360274D01*
X3871683Y-18360274D01*
X3852635Y-18350751D01*
X3843111Y-18341227D01*
X3833587Y-18322179D01*
X3824064Y-18284084D01*
X3824064Y-18236465D01*
X3833587Y-18198370D01*
X3843111Y-18179322D01*
X3852635Y-18169798D01*
X3871683Y-18160274D01*
X4052635Y-18245989D02*
X4033587Y-18236465D01*
X4024064Y-18226941D01*
X4014540Y-18207894D01*
X4014540Y-18198370D01*
X4024064Y-18179322D01*
X4033587Y-18169798D01*
X4052635Y-18160274D01*
X4090730Y-18160274D01*
X4109778Y-18169798D01*
X4119302Y-18179322D01*
X4128826Y-18198370D01*
X4128826Y-18207894D01*
X4119302Y-18226941D01*
X4109778Y-18236465D01*
X4090730Y-18245989D01*
X4052635Y-18245989D01*
X4033587Y-18255513D01*
X4024064Y-18265036D01*
X4014540Y-18284084D01*
X4014540Y-18322179D01*
X4024064Y-18341227D01*
X4033587Y-18350751D01*
X4052635Y-18360274D01*
X4090730Y-18360274D01*
X4109778Y-18350751D01*
X4119302Y-18341227D01*
X4128826Y-18322179D01*
X4128826Y-18284084D01*
X4119302Y-18265036D01*
X4109778Y-18255513D01*
X4090730Y-18245989D01*
X4300254Y-18160274D02*
X4262159Y-18160274D01*
X4243111Y-18169798D01*
X4233588Y-18179322D01*
X4214540Y-18207894D01*
X4205016Y-18245989D01*
X4205016Y-18322179D01*
X4214540Y-18341227D01*
X4224064Y-18350751D01*
X4243111Y-18360274D01*
X4281207Y-18360274D01*
X4300254Y-18350751D01*
X4309778Y-18341227D01*
X4319302Y-18322179D01*
X4319302Y-18274560D01*
X4309778Y-18255513D01*
X4300254Y-18245989D01*
X4281207Y-18236465D01*
X4243111Y-18236465D01*
X4224064Y-18245989D01*
X4214540Y-18255513D01*
X4205016Y-18274560D01*
X4490730Y-18160274D02*
X4452635Y-18160274D01*
X4433588Y-18169798D01*
X4424064Y-18179322D01*
X4405016Y-18207894D01*
X4395492Y-18245989D01*
X4395492Y-18322179D01*
X4405016Y-18341227D01*
X4414540Y-18350751D01*
X4433588Y-18360274D01*
X4471683Y-18360274D01*
X4490730Y-18350751D01*
X4500254Y-18341227D01*
X4509778Y-18322179D01*
X4509778Y-18274560D01*
X4500254Y-18255513D01*
X4490730Y-18245989D01*
X4471683Y-18236465D01*
X4433588Y-18236465D01*
X4414540Y-18245989D01*
X4405016Y-18255513D01*
X4395492Y-18274560D01*
X4585968Y-18160274D02*
X4585968Y-18198370D01*
X4662159Y-18160274D02*
X4662159Y-18198370D01*
X4957397Y-18436465D02*
X4947873Y-18426941D01*
X4928826Y-18398370D01*
X4919302Y-18379322D01*
X4909778Y-18350751D01*
X4900254Y-18303132D01*
X4900254Y-18265036D01*
X4909778Y-18217417D01*
X4919302Y-18188846D01*
X4928826Y-18169798D01*
X4947873Y-18141227D01*
X4957397Y-18131703D01*
X5119302Y-18160274D02*
X5081207Y-18160274D01*
X5062159Y-18169798D01*
X5052635Y-18179322D01*
X5033588Y-18207894D01*
X5024064Y-18245989D01*
X5024064Y-18322179D01*
X5033588Y-18341227D01*
X5043111Y-18350751D01*
X5062159Y-18360274D01*
X5100254Y-18360274D01*
X5119302Y-18350751D01*
X5128826Y-18341227D01*
X5138349Y-18322179D01*
X5138349Y-18274560D01*
X5128826Y-18255513D01*
X5119302Y-18245989D01*
X5100254Y-18236465D01*
X5062159Y-18236465D01*
X5043111Y-18245989D01*
X5033588Y-18255513D01*
X5024064Y-18274560D01*
X5376445Y-18360274D02*
X5376445Y-18160274D01*
X5462159Y-18360274D02*
X5462159Y-18255513D01*
X5452635Y-18236465D01*
X5433588Y-18226941D01*
X5405016Y-18226941D01*
X5385968Y-18236465D01*
X5376445Y-18245989D01*
X5585968Y-18360274D02*
X5566921Y-18350751D01*
X5557397Y-18341227D01*
X5547873Y-18322179D01*
X5547873Y-18265036D01*
X5557397Y-18245989D01*
X5566921Y-18236465D01*
X5585968Y-18226941D01*
X5614540Y-18226941D01*
X5633587Y-18236465D01*
X5643111Y-18245989D01*
X5652635Y-18265036D01*
X5652635Y-18322179D01*
X5643111Y-18341227D01*
X5633587Y-18350751D01*
X5614540Y-18360274D01*
X5585968Y-18360274D01*
X5766921Y-18360274D02*
X5747873Y-18350751D01*
X5738349Y-18331703D01*
X5738349Y-18160274D01*
X5919302Y-18350751D02*
X5900254Y-18360274D01*
X5862159Y-18360274D01*
X5843111Y-18350751D01*
X5833587Y-18331703D01*
X5833587Y-18255513D01*
X5843111Y-18236465D01*
X5862159Y-18226941D01*
X5900254Y-18226941D01*
X5919302Y-18236465D01*
X5928826Y-18255513D01*
X5928826Y-18274560D01*
X5833587Y-18293608D01*
X6005016Y-18350751D02*
X6024064Y-18360274D01*
X6062159Y-18360274D01*
X6081206Y-18350751D01*
X6090730Y-18331703D01*
X6090730Y-18322179D01*
X6081206Y-18303132D01*
X6062159Y-18293608D01*
X6033587Y-18293608D01*
X6014540Y-18284084D01*
X6005016Y-18265036D01*
X6005016Y-18255513D01*
X6014540Y-18236465D01*
X6033587Y-18226941D01*
X6062159Y-18226941D01*
X6081206Y-18236465D01*
X6157397Y-18436465D02*
X6166921Y-18426941D01*
X6185968Y-18398370D01*
X6195492Y-18379322D01*
X6205016Y-18350751D01*
X6214540Y-18303132D01*
X6214540Y-18265036D01*
X6205016Y-18217417D01*
X6195492Y-18188846D01*
X6185968Y-18169798D01*
X6166921Y-18141227D01*
X6157397Y-18131703D01*
M02*
