0
SECTION
2
HEADER
9
$INSUNITS
70
4
0
ENDSEC
0
SECTION
2
TABLES
0
TABLE
2
LTYPE
0
LTYPE
72
65
70
64
2
CONTINUOUS
3
______
73
0
40
0
0
ENDTAB
0
TABLE
2
LAYER
0
ENDTAB
0
ENDSEC
0
SECTION
2
ENTITIES
0
LINE
8
0
10
-16.6452773
20
26.2985693
11
0.5745707
21
18.2688223
0
LINE
8
0
10
-10.5595743
20
39.3494015
11
6.6602737
21
31.3196545
0
LINE
8
0
10
-16.6452773
20
26.2985693
11
-10.5595743
21
39.3494015
0
LINE
8
0
10
-1.5385206
20
13.7372834
11
11.5123116
21
7.6515804
0
LINE
8
0
10
11.5123116
20
7.6515804
11
17.5980146
21
20.7024126
0
LINE
8
0
10
-1.5385206
20
13.7372834
11
4.5471824
21
26.7881156
0
LINE
8
0
10
12.5769293
20
44.0079635
11
29.7967773
21
35.9782165
0
LINE
8
0
10
6.4912263
20
30.9571313
11
12.5769293
21
44.0079635
0
LINE
8
0
10
12.7801663
20
10.3705037
11
30.0000143
21
2.3407567
0
LINE
8
0
10
30.0000143
20
2.3407567
11
36.0857173
21
15.3915889
0
LINE
8
0
10
24.9789291
20
25.6463077
11
39.0943791
21
55.9169878
0
LINE
8
0
10
39.0943791
20
55.9169878
11
56.314227
21
47.8872409
0
LINE
8
0
10
32.9583422
20
8.6849113
11
54.3472058
21
-1.2888797
0
LINE
8
0
10
66.237684
20
35.0948602
11
72.323387
21
48.1456924
0
LINE
8
0
10
59.2725548
20
54.2313954
11
72.323387
21
48.1456924
0
LINE
8
0
10
53.1868518
20
41.1805632
11
59.2725548
21
54.2313954
0
LINE
8
0
10
51.388878
20
-7.6330342
11
81.6595582
21
-21.7484842
0
LINE
8
0
10
51.388878
20
-7.6330342
11
57.474581
21
5.417798
0
LINE
8
0
10
69.3650592
20
41.8015379
11
103.8047551
21
25.7420439
0
LINE
8
0
10
60.578979
20
-32.8826291
11
90.8496592
21
-46.9980791
0
LINE
8
0
10
60.578979
20
-32.8826291
11
74.694429
21
-2.611949
0
LINE
8
0
10
82.457389
20
-64.0488797
11
95.5082212
21
-70.1345827
0
LINE
8
0
10
95.5082212
20
-70.1345827
11
103.537968
21
-52.9147351
0
LINE
8
0
10
82.457389
20
-64.0488797
11
90.487136
21
-46.8290317
0
LINE
8
0
10
103.537968
20
-52.9147351
11
109.3047551
21
-55.6038323
0
LINE
8
0
10
109.3047551
20
-55.6038323
11
115.0715422
21
-52.9147351
0
LINE
8
0
10
218.0349395
20
18.2688223
11
235.2547875
21
26.2985693
0
LINE
8
0
10
229.1690845
20
39.3494015
11
235.2547875
21
26.2985693
0
LINE
8
0
10
211.9492365
20
31.3196545
11
229.1690845
21
39.3494015
0
LINE
8
0
10
207.0971986
20
7.6515804
11
220.1480308
21
13.7372834
0
LINE
8
0
10
214.0623278
20
26.7881156
11
220.1480308
21
13.7372834
0
LINE
8
0
10
201.0114956
20
20.7024126
11
207.0971986
21
7.6515804
0
LINE
8
0
10
206.0325809
20
44.0079635
11
212.1182839
21
30.9571313
0
LINE
8
0
10
188.8127329
20
35.9782165
11
206.0325809
21
44.0079635
0
LINE
8
0
10
188.6094959
20
2.3407567
11
205.8293439
21
10.3705037
0
LINE
8
0
10
182.5237929
20
15.3915889
11
188.6094959
21
2.3407567
0
LINE
8
0
10
179.5151311
20
55.9169878
11
193.6305811
21
25.6463077
0
LINE
8
0
10
162.2952832
20
47.8872409
11
179.5151311
21
55.9169878
0
LINE
8
0
10
164.2623044
20
-1.2888797
11
185.651168
21
8.6849113
0
LINE
8
0
10
159.3369554
20
54.2313954
11
165.4226584
21
41.1805632
0
LINE
8
0
10
146.2861232
20
48.1456924
11
159.3369554
21
54.2313954
0
LINE
8
0
10
146.2861232
20
48.1456924
11
152.3718262
21
35.0948602
0
LINE
8
0
10
136.949952
20
-21.7484842
11
167.2206322
21
-7.6330342
0
LINE
8
0
10
161.1349292
20
5.417798
11
167.2206322
21
-7.6330342
0
LINE
8
0
10
114.8047551
20
25.7420439
11
149.244451
21
41.8015379
0
LINE
8
0
10
127.759851
20
-46.9980791
11
158.0305312
21
-32.8826291
0
LINE
8
0
10
143.9150812
20
-2.611949
11
158.0305312
21
-32.8826291
0
LINE
8
0
10
123.101289
20
-70.1345827
11
136.1521212
21
-64.0488797
0
LINE
8
0
10
128.1223742
20
-46.8290317
11
136.1521212
21
-64.0488797
0
LINE
8
0
10
115.0715422
20
-52.9147351
11
123.101289
21
-70.1345827
0
LINE
8
0
10
103.8047551
20
3.6094793
11
103.8047551
21
25.7420439
0
LINE
8
0
10
114.8047551
20
25.7420439
11
114.8047551
21
3.6094793
0
LINE
8
0
10
114.8047551
20
3.6094793
11
103.8047551
21
3.6094793
0
LINE
8
0
10
-3.5944451
20
20.2128663
11
2.4912579
21
33.2636985
0
LINE
8
0
10
17.5980146
20
20.7024126
11
4.5471824
21
26.7881156
0
LINE
8
0
10
6.4912263
20
30.9571313
11
19.5420585
21
24.8714283
0
LINE
8
0
10
19.5420585
20
24.8714283
11
25.6277615
21
37.9222605
0
LINE
8
0
10
36.0857173
20
15.3915889
11
23.0348851
21
21.4772919
0
LINE
8
0
10
23.0348851
20
21.4772919
11
16.9491821
21
8.4264597
0
LINE
8
0
10
24.9789291
20
25.6463077
11
38.0297613
21
19.5606047
0
LINE
8
0
10
38.0297613
20
19.5606047
11
44.1154643
21
32.6114369
0
LINE
8
0
10
44.1154643
20
32.6114369
11
31.0646321
21
38.6971399
0
LINE
8
0
10
33.0086761
20
42.8661556
11
46.0595083
21
36.7804526
0
LINE
8
0
10
46.0595083
20
36.7804526
11
52.1452113
21
49.8312848
0
LINE
8
0
10
50.1781901
20
0.6551643
11
56.2638931
21
13.7059965
0
LINE
8
0
10
56.2638931
20
13.7059965
11
43.2130609
21
19.7916995
0
LINE
8
0
10
43.2130609
20
19.7916995
11
37.1273579
21
6.7408673
0
LINE
8
0
10
45.1571049
20
23.9607152
11
58.2079371
21
17.8750122
0
LINE
8
0
10
58.2079371
20
17.8750122
11
64.2936401
21
30.9258444
0
LINE
8
0
10
64.2936401
20
30.9258444
11
51.2428079
21
37.0115474
0
LINE
8
0
10
51.2428079
20
37.0115474
11
45.1571049
21
23.9607152
0
LINE
8
0
10
53.1868518
20
41.1805632
11
66.237684
21
35.0948602
0
LINE
8
0
10
64.4397102
20
-13.7187372
11
70.5254132
21
-0.667905
0
LINE
8
0
10
70.5254132
20
-0.667905
11
57.474581
21
5.417798
0
LINE
8
0
10
59.418625
20
9.5868137
11
72.4694572
21
3.5011107
0
LINE
8
0
10
72.4694572
20
3.5011107
11
78.5551602
21
16.5519429
0
LINE
8
0
10
78.5551602
20
16.5519429
11
65.504328
21
22.6376459
0
LINE
8
0
10
65.504328
20
22.6376459
11
59.418625
21
9.5868137
0
LINE
8
0
10
67.448372
20
26.8066617
11
80.4992042
21
20.7209587
0
LINE
8
0
10
80.4992042
20
20.7209587
11
86.5849072
21
33.7717909
0
LINE
8
0
10
73.534075
20
39.8574939
11
67.448372
21
26.8066617
0
LINE
8
0
10
81.6595582
20
-21.7484842
11
87.7452612
21
-8.697652
0
LINE
8
0
10
87.7452612
20
-8.697652
11
74.694429
21
-2.611949
0
LINE
8
0
10
76.6384729
20
1.5570668
11
89.6893051
21
-4.5286362
0
LINE
8
0
10
89.6893051
20
-4.5286362
11
95.7750081
21
8.522196
0
LINE
8
0
10
95.7750081
20
8.522196
11
82.7241759
21
14.607899
0
LINE
8
0
10
82.7241759
20
14.607899
11
76.6384729
21
1.5570668
0
LINE
8
0
10
84.6682199
20
18.7769147
11
97.7190521
21
12.6912117
0
LINE
8
0
10
97.7190521
20
12.6912117
11
103.8047551
21
25.7420439
0
LINE
8
0
10
90.7539229
20
31.8277469
11
84.6682199
21
18.7769147
0
LINE
8
0
10
73.6298112
20
-38.9683321
11
79.7155142
21
-25.9174999
0
LINE
8
0
10
79.7155142
20
-25.9174999
11
66.664682
21
-19.8317969
0
LINE
8
0
10
90.8496592
20
-46.9980791
11
96.9353622
21
-33.9472469
0
LINE
8
0
10
96.9353622
20
-33.9472469
11
83.88453
21
-27.8615439
0
LINE
8
0
10
83.88453
20
-27.8615439
11
77.798827
21
-40.9123761
0
LINE
8
0
10
101.5939242
20
-57.0837505
11
88.543092
21
-50.9980475
0
LINE
8
0
10
216.1182523
20
33.2636985
11
222.2039553
21
20.2128663
0
LINE
8
0
10
214.0623278
20
26.7881156
11
201.0114956
21
20.7024126
0
LINE
8
0
10
199.0674517
20
24.8714283
11
212.1182839
21
30.9571313
0
LINE
8
0
10
192.9817487
20
37.9222605
11
199.0674517
21
24.8714283
0
LINE
8
0
10
201.6603281
20
8.4264597
11
195.5746251
21
21.4772919
0
LINE
8
0
10
195.5746251
20
21.4772919
11
182.5237929
21
15.3915889
0
LINE
8
0
10
180.5797489
20
19.5606047
11
193.6305811
21
25.6463077
0
LINE
8
0
10
187.5448781
20
38.6971399
11
174.4940459
21
32.6114369
0
LINE
8
0
10
174.4940459
20
32.6114369
11
180.5797489
21
19.5606047
0
LINE
8
0
10
172.5500019
20
36.7804526
11
185.6008341
21
42.8661556
0
LINE
8
0
10
166.4642989
20
49.8312848
11
172.5500019
21
36.7804526
0
LINE
8
0
10
181.4821523
20
6.7408673
11
175.3964493
21
19.7916995
0
LINE
8
0
10
175.3964493
20
19.7916995
11
162.3456171
21
13.7059965
0
LINE
8
0
10
162.3456171
20
13.7059965
11
168.4313201
21
0.6551643
0
LINE
8
0
10
160.4015731
20
17.8750122
11
173.4524053
21
23.9607152
0
LINE
8
0
10
173.4524053
20
23.9607152
11
167.3667023
21
37.0115474
0
LINE
8
0
10
167.3667023
20
37.0115474
11
154.3158701
21
30.9258444
0
LINE
8
0
10
154.3158701
20
30.9258444
11
160.4015731
21
17.8750122
0
LINE
8
0
10
152.3718262
20
35.0948602
11
165.4226584
21
41.1805632
0
LINE
8
0
10
161.1349292
20
5.417798
11
148.084097
21
-0.667905
0
LINE
8
0
10
148.084097
20
-0.667905
11
154.1698
21
-13.7187372
0
LINE
8
0
10
146.140053
20
3.5011107
11
159.1908852
21
9.5868137
0
LINE
8
0
10
159.1908852
20
9.5868137
11
153.1051822
21
22.6376459
0
LINE
8
0
10
153.1051822
20
22.6376459
11
140.05435
21
16.5519429
0
LINE
8
0
10
140.05435
20
16.5519429
11
146.140053
21
3.5011107
0
LINE
8
0
10
138.110306
20
20.7209587
11
151.1611382
21
26.8066617
0
LINE
8
0
10
151.1611382
20
26.8066617
11
145.0754352
21
39.8574939
0
LINE
8
0
10
132.024603
20
33.7717909
11
138.110306
21
20.7209587
0
LINE
8
0
10
143.9150812
20
-2.611949
11
130.864249
21
-8.697652
0
LINE
8
0
10
130.864249
20
-8.697652
11
136.949952
21
-21.7484842
0
LINE
8
0
10
128.9202051
20
-4.5286362
11
141.9710373
21
1.5570668
0
LINE
8
0
10
141.9710373
20
1.5570668
11
135.8853343
21
14.607899
0
LINE
8
0
10
135.8853343
20
14.607899
11
122.8345021
21
8.522196
0
LINE
8
0
10
122.8345021
20
8.522196
11
128.9202051
21
-4.5286362
0
LINE
8
0
10
120.8904581
20
12.6912117
11
133.9412903
21
18.7769147
0
LINE
8
0
10
133.9412903
20
18.7769147
11
127.8555873
21
31.8277469
0
LINE
8
0
10
114.8047551
20
25.7420439
11
120.8904581
21
12.6912117
0
LINE
8
0
10
151.9448282
20
-19.8317969
11
138.893996
21
-25.9174999
0
LINE
8
0
10
138.893996
20
-25.9174999
11
144.979699
21
-38.9683321
0
LINE
8
0
10
140.8106832
20
-40.9123761
11
134.7249802
21
-27.8615439
0
LINE
8
0
10
134.7249802
20
-27.8615439
11
121.674148
21
-33.9472469
0
LINE
8
0
10
121.674148
20
-33.9472469
11
127.759851
21
-46.9980791
0
LINE
8
0
10
130.0664182
20
-50.9980475
11
117.015586
21
-57.0837505
0
ENDSEC
0
EOF